<?xml version="1.0" encoding="UTF-8"?>
<svg xmlns="http://www.w3.org/2000/svg" xmlns:xlink="http://www.w3.org/1999/xlink" viewBox="0 0 3000 635.02">
  <defs>
    <radialGradient id="radial-gradient" cx="2250.52" cy="-181.3" fx="2250.52" fy="-181.3" r="430.5" gradientTransform="translate(0 37.98) scale(1 .36)" gradientUnits="userSpaceOnUse">
      <stop offset="0" stop-color="#808184"/>
      <stop offset="1" stop-color="#808184" stop-opacity="0"/>
    </radialGradient>
    <radialGradient id="radial-gradient-2" cx="1578.12" cy="63.38" fx="1578.12" fy="63.38" r="188.42" gradientTransform="matrix(1, 0, 0, 1, 0, 0)" xlink:href="#radial-gradient"/>
    <radialGradient id="radial-gradient-3" cx="1063.53" cy="-10.63" fx="1063.53" fy="-10.63" r="224.28" gradientTransform="matrix(1, 0, 0, 1, 0, 0)" xlink:href="#radial-gradient"/>
    <radialGradient id="radial-gradient-4" cx="2040.32" cy="90.85" fx="2040.32" fy="90.85" r="196.84" gradientTransform="translate(38.96 489.9) rotate(-12.46) scale(1 .47)" xlink:href="#radial-gradient"/>
    <radialGradient id="radial-gradient-5" cx="1325.13" cy="-88.59" fx="1325.13" fy="-88.59" r="430.5" gradientTransform="translate(0 72.97) scale(1 .36)" xlink:href="#radial-gradient"/>
    <radialGradient id="radial-gradient-6" cx="2480.98" cy="85.67" fx="2480.98" fy="85.67" r="176.21" gradientTransform="matrix(1, 0, 0, 1, 0, 0)" xlink:href="#radial-gradient"/>
    <radialGradient id="radial-gradient-7" cx="290.09" cy="-29.68" fx="290.09" fy="-29.68" r="214.95" gradientTransform="matrix(1, 0, 0, 1, 0, 0)" xlink:href="#radial-gradient"/>
    <radialGradient id="radial-gradient-8" cx="244.72" cy="463.05" fx="244.72" fy="463.05" r="785.16" gradientTransform="translate(42.38 238.34) rotate(12.03) scale(1 .38)" xlink:href="#radial-gradient"/>
    <radialGradient id="radial-gradient-9" cx="1003.59" cy="138.47" fx="1003.59" fy="138.47" r="699.97" gradientTransform="translate(5.85 .24) rotate(2.99) scale(1 .62)" xlink:href="#radial-gradient"/>
    <linearGradient id="linear-gradient" x1="0" y1="374.02" x2="3000" y2="374.02" gradientUnits="userSpaceOnUse">
      <stop offset="0" stop-color="#808184"/>
      <stop offset=".34" stop-color="#6b6c6f" stop-opacity=".68"/>
      <stop offset="1" stop-color="#404244" stop-opacity="0"/>
    </linearGradient>
  </defs>
  <g isolation="isolate">
    <g id="Layer_2" data-name="Layer 2">
      <g id="parallax_bg3" data-name="parallax bg3">
        <g>
          <g>
            <path d="M1880.03,148.67c128.03-25.63,310.47-91.61,406.49-91.47,96.02,.14,259.26,53.75,400.09,91.47,140.83,37.71,240.05,92.09,240.05,92.09h-944.21l-102.42-92.09Z" fill="#4c777b"/>
            <path d="M1880.03,148.67c128.03-25.63,310.47-91.61,406.49-91.47,96.02,.14,259.26,53.75,400.09,91.47,140.83,37.71,240.05,92.09,240.05,92.09h-944.21l-102.42-92.09Z" fill="url(#radial-gradient)" mix-blend-mode="multiply"/>
          </g>
          <path d="M1242.02,155.32c119.12-30.17,156.71-45.39,224.45-55.31,42.76-6.26,85.97,19.95,128.88,18.32,72.84-2.77,139.61-30.29,163.99-30.22,61.5,.18,129.33,35.71,301.4,69.9,99.52,19.77,75.8,119.38,75.8,119.38h-604.77l-289.75-122.07Z" fill="#3c6266"/>
          <path d="M1242.02,155.32c119.12-30.17,156.71-45.39,224.45-55.31,42.76-6.26,85.97,19.95,128.88,18.32,72.84-2.77,139.61-30.29,163.99-30.22,61.5,.18,129.33,35.71,301.4,69.9,99.52,19.77,75.8,119.38,75.8,119.38h-604.77l-289.75-122.07Z" fill="url(#radial-gradient-2)" mix-blend-mode="multiply"/>
          <path d="M753.86,131.71c82-31.57,198.86-112.83,260.36-112.66,61.5,.18,166.06,66.21,256.26,112.66,90.2,46.45,153.76,113.43,153.76,113.43H819.46l-65.6-113.43Z" fill="#3c6266"/>
          <path d="M753.86,131.71c82-31.57,198.86-112.83,260.36-112.66,61.5,.18,166.06,66.21,256.26,112.66,90.2,46.45,153.76,113.43,153.76,113.43H819.46l-65.6-113.43Z" fill="url(#radial-gradient-3)" mix-blend-mode="multiply"/>
          <path d="M1784.96,132.09c292.86,29.48,325.96-13.76,403.28-41.65,88.16-31.79,268.14,175.46,268.14,175.46h-554.77l-116.65-133.82Z" fill="#42696d"/>
          <path d="M1784.96,132.09c292.86,29.48,325.96-13.76,403.28-41.65,88.16-31.79,268.14,175.46,268.14,175.46h-554.77l-116.65-133.82Z" fill="url(#radial-gradient-4)" mix-blend-mode="multiply"/>
          <path d="M954.64,216.62c128.03-25.63,310.47-91.61,406.49-91.47,96.02,.14,259.26,53.75,400.09,91.47,140.83,37.71,240.05,92.09,240.05,92.09h-944.21l-102.42-92.09Z" fill="#4c777b"/>
          <path d="M954.64,216.62c128.03-25.63,310.47-91.61,406.49-91.47,96.02,.14,259.26,53.75,400.09,91.47,140.83,37.71,240.05,92.09,240.05,92.09h-944.21l-102.42-92.09Z" fill="url(#radial-gradient-5)" mix-blend-mode="multiply"/>
          <g>
            <path d="M2169.96,177.61c119.12-30.17,156.71-45.39,224.45-55.31,42.76-6.26,85.97,19.95,128.88,18.32,72.84-2.77,139.61-30.29,163.99-30.22,61.5,.18,140.65,43.78,312.72,77.97v111.31h-540.3l-289.75-122.07Z" fill="#3c6266"/>
            <path d="M2169.96,177.61c119.12-30.17,156.71-45.39,224.45-55.31,42.76-6.26,85.97,19.95,128.88,18.32,72.84-2.77,139.61-30.29,163.99-30.22,61.5,.18,140.65,43.78,312.72,77.97v111.31h-540.3l-289.75-122.07Z" fill="url(#radial-gradient-6)" mix-blend-mode="multiply"/>
          </g>
          <g>
            <path d="M0,110.4C82,78.83,156.48-.18,217.98,0c61.5,.18,166.06,66.21,256.26,112.66,90.2,46.45,153.76,113.43,153.76,113.43H1.45L0,110.4Z" fill="#3c6266"/>
            <path d="M0,110.4C82,78.83,156.48-.18,217.98,0c61.5,.18,166.06,66.21,256.26,112.66,90.2,46.45,153.76,113.43,153.76,113.43H1.45L0,110.4Z" fill="url(#radial-gradient-7)" mix-blend-mode="multiply"/>
          </g>
          <path d="M0,202.98c64.8-98.03,876.91-74.61,933.84-72.89,0,0,165.24,61.31,324.56,60.23,159.32-1.08,401.94-60.15,432.44-69.38,110.73-33.52,122.74,51.54,327.74,31.54,221.05-21.57,981.42,35.88,981.42,35.88v446.65L0,613.54V202.98Z" fill="#507d80"/>
          <path d="M0,202.98c64.8-98.03,876.91-74.61,933.84-72.89,0,0,165.24,61.31,324.56,60.23,159.32-1.08,401.94-60.15,432.44-69.38,110.73-33.52,122.74,51.54,327.74,31.54,221.05-21.57,981.42,35.88,981.42,35.88v446.65L0,613.54V202.98Z" fill="url(#radial-gradient-8)" mix-blend-mode="multiply"/>
          <path d="M0,202.98c64.8-98.03,876.91-74.61,933.84-72.89,0,0,165.24,61.31,324.56,60.23,159.32-1.08,401.94-60.15,432.44-69.38,110.73-33.52,122.74,51.54,327.74,31.54,221.05-21.57,981.42,35.88,981.42,35.88v446.65L0,613.54V202.98Z" fill="url(#radial-gradient-9)" mix-blend-mode="multiply"/>
          <path d="M0,202.98c44.16-99.75,933.84-72.89,933.84-72.89,0,0,165.24,61.31,324.56,60.23,159.32-1.08,401.94-60.15,432.44-69.38,110.73-33.52,122.74,51.54,327.74,31.54,221.05-21.57,981.42,35.88,981.42,35.88v446.65L0,613.54V202.98H0Z" fill="url(#linear-gradient)" mix-blend-mode="multiply"/>
        </g>
      </g>
    </g>
  </g>
</svg>