<?xml version="1.0" encoding="UTF-8"?>
<svg xmlns="http://www.w3.org/2000/svg" xmlns:xlink="http://www.w3.org/1999/xlink" viewBox="0 0 790.96 740.35">
  <defs>
    <radialGradient id="radial-gradient" cx="412.07" cy="405.39" fx="412.07" fy="405.39" r="406.56" gradientTransform="translate(347.05 -189.07) rotate(45) scale(1 1.01)" gradientUnits="userSpaceOnUse">
      <stop offset="0" stop-color="#fff"/>
      <stop offset="0" stop-color="#fbfdfe"/>
      <stop offset=".11" stop-color="#bee9fa"/>
      <stop offset=".19" stop-color="#92daf7"/>
      <stop offset=".26" stop-color="#77d1f5"/>
      <stop offset=".29" stop-color="#6dcef5"/>
      <stop offset=".34" stop-color="#5fc3ee"/>
      <stop offset=".43" stop-color="#3ba8dd"/>
      <stop offset=".55" stop-color="#027dc2"/>
      <stop offset=".55" stop-color="#007cc1"/>
      <stop offset="1" stop-color="#002561"/>
    </radialGradient>
    <radialGradient id="radial-gradient-2" cx="67.58" cy="224.03" fx="67.58" fy="224.03" r="299.11" gradientTransform="translate(306.63 632.34) rotate(-.17) scale(1.31 .2)" gradientUnits="userSpaceOnUse">
      <stop offset=".56" stop-color="#000"/>
      <stop offset=".88" stop-color="#83bee7" stop-opacity=".5"/>
      <stop offset=".91" stop-color="#a3d0ee" stop-opacity=".33"/>
      <stop offset=".95" stop-color="#c4e3f5" stop-opacity=".15"/>
      <stop offset=".98" stop-color="#d9eefa" stop-opacity=".04"/>
      <stop offset="1" stop-color="#e1f3fc" stop-opacity="0"/>
    </radialGradient>
    <linearGradient id="linear-gradient" x1="-3760.57" y1="-4199.54" x2="-3737.97" y2="-4164.77" gradientTransform="translate(-2954.34 -3820.06) rotate(-81.51) scale(1 -1)" gradientUnits="userSpaceOnUse">
      <stop offset="0" stop-color="#fff"/>
      <stop offset="0" stop-color="#fbfdfe"/>
      <stop offset=".11" stop-color="#bee9fa"/>
      <stop offset=".19" stop-color="#92daf7"/>
      <stop offset=".26" stop-color="#77d1f5"/>
      <stop offset=".29" stop-color="#6dcef5"/>
      <stop offset=".34" stop-color="#5fc3ee"/>
      <stop offset=".43" stop-color="#3ba8dd"/>
      <stop offset=".55" stop-color="#027dc2"/>
      <stop offset=".55" stop-color="#007cc1"/>
      <stop offset="1" stop-color="#002561" stop-opacity="0"/>
    </linearGradient>
    <linearGradient id="linear-gradient-2" x1="-4100.12" y1="-1924.12" x2="-4077.52" y2="-1889.35" gradientTransform="translate(1446.95 -3820.06) rotate(-98.49)" xlink:href="#linear-gradient"/>
    <linearGradient id="linear-gradient-3" x1="219.38" y1="62.2" x2="242.65" y2="98" gradientTransform="matrix(1, 0, 0, 1, 0, 0)" xlink:href="#linear-gradient"/>
    <linearGradient id="linear-gradient-4" x1="-2081.35" y1="62.2" x2="-2058.08" y2="98" gradientTransform="translate(-1507.39) rotate(-180) scale(1 -1)" xlink:href="#linear-gradient"/>
  </defs>
  <g isolation="isolate">
    <g id="Layer_2" data-name="Layer 2">
      <g id="globe">
        <g>
          <g>
            <circle cx="395.48" cy="321.78" r="321.78" transform="translate(-111.7 373.89) rotate(-45)" fill="url(#radial-gradient)" opacity=".14"/>
            <ellipse cx="395.48" cy="672" rx="395.48" ry="68.35" fill="url(#radial-gradient-2)" mix-blend-mode="multiply" opacity=".7"/>
            <path d="M712.68,303.03c-8.5,232.49-173.08,317.72-261.07,322.53,88.5-16.07,260.12-296.58,261.07-322.53Z" fill="url(#linear-gradient)" mix-blend-mode="screen" opacity=".5"/>
            <path d="M80.66,303.03c8.5,232.49,173.08,317.72,261.07,322.53-88.5-16.07-260.12-296.58-261.07-322.53Z" fill="url(#linear-gradient-2)" mix-blend-mode="screen" opacity=".5"/>
            <path d="M637.72,669.35c-4.61,.84-9.23,1.65-13.85,2.44-28.75,5.24-57.59,9.51-86.67,12.62-5.82,.62-11.64,1.2-17.48,1.72-15.77,1.82-31.41,2.94-47.01,3.62-5.2,.23-10.39,.41-15.58,.54-61.05,.24-122.23,1.89-182.65-3.6-5.57-.57-11.14-1.23-16.71-1.98-3.76-.38-7.53-.77-11.29-1.19-11.28-1.25-22.53-2.69-33.74-4.33-4.84-.66-9.66-1.34-14.47-2.05-14.44-2.13-28.77-4.5-42.97-7.11,9.51-33.41,18.24-64.08,26.29-92.34,5.15,.79,10.32,1.55,15.51,2.28,5.19,.73,10.39,1.43,15.6,2.09,10.91,1.53,21.85,2.91,32.82,4.14,3.66,.41,7.32,.8,10.98,1.18,6.02,.72,12.03,1.36,18.04,1.91,60.35,2,119.88,6.96,180.19,2.63,6.02-.28,12.05-.62,18.07-1.03,18.06-1.24,36.08-3.15,53.96-6.08,5-.62,9.99-1.26,14.99-1.89,14.99-1.91,29.99-3.84,45.04-5.53,6.46-.97,12.88-1.99,19.27-3.05,1.61,4.83,3.24,9.73,4.9,14.71,5.02,15.48,11.64,32.02,15.59,46.78,1.81,5.43,3.64,10.93,5.5,16.51,1.86,5.58,3.75,11.24,5.66,16.99Z" fill="#654949" stroke="#000" stroke-miterlimit="10"/>
            <path d="M154.6,679.88c153.74,37.21,328,37.21,481.75,0,4.64-1.15,8.38-6.04,8.38-10.88h0c0-4.84-3.74-7.78-8.38-6.64-153.74,37.21-328,37.21-481.75,0-4.64-1.15-8.38,1.8-8.38,6.64h0c0,4.84,3.74,9.73,8.38,10.88Z" fill="#654949" stroke="#000" stroke-miterlimit="10"/>
            <path d="M629.61,525.47c.1-1.02-.65-1.94-1.67-2.04-.96-.09-1.79,.57-1.98,1.5-.17-.07-.34-.15-.54-.16-1.02-.1-1.94,.65-2.04,1.67-.02,.18,.02,.35,.05,.53-.45-.49-1.07-.82-1.78-.89-1.18-.12-2.26,.52-2.78,1.52-.67-.6-1.51-1.01-2.48-1.11-1.56-.15-2.99,.54-3.87,1.7-1.05-1.31-2.6-2.21-4.4-2.38-3.1-.3-5.91,1.64-6.8,4.5-.7-.27-1.43-.48-2.21-.56-3.7-.36-7.05,1.71-8.55,4.89-.83-.3-1.71-.52-2.64-.61-2.48-.24-4.84,.38-6.8,1.61-1.69-1.58-3.88-2.65-6.36-2.9-4.31-.42-8.28,1.75-10.36,5.24-.63-.18-1.28-.31-1.95-.38-2.27-.22-4.45,.28-6.31,1.31-1.66-3.08-4.77-5.3-8.5-5.67-5.97-.58-11.28,3.78-11.86,9.74-.2,2.03,.18,3.97,1,5.69-.13,.13-.26,.27-.37,.42-1.05-1.3-2.6-2.21-4.4-2.38-3.1-.3-5.91,1.64-6.8,4.5-.7-.27-1.43-.48-2.21-.56-3.7-.36-7.05,1.71-8.55,4.89-.83-.3-1.71-.52-2.64-.61-2.48-.24-4.84,.38-6.8,1.61-1.69-1.58-3.88-2.65-6.36-2.9-4.31-.42-8.28,1.75-10.36,5.24-.63-.18-1.28-.31-1.95-.38-2.27-.22-4.45,.28-6.31,1.31-1.66-3.08-4.76-5.3-8.5-5.67-5.97-.58-11.28,3.78-11.86,9.74-.08,.79-.06,1.57,.03,2.32-.42,.06-.83,.11-1.25,.17-.23-.48-.64-.86-1.19-1.01-.93-.24-1.86,.28-2.19,1.16-.16-.1-.32-.2-.51-.25-.83-.22-1.65,.18-2.06,.89-.37,.05-.74,.09-1.1,.14-.23-.14-.48-.27-.76-.34-1.02-.27-2.05,.07-2.73,.78-.15,.02-.29,.04-.44,.05-.54-.59-1.25-1.04-2.08-1.26-1.51-.4-3.04,.07-4.09,1.07-.83-1.45-2.22-2.59-3.97-3.05-3.02-.79-6.09,.68-7.43,3.37-.65-.38-1.34-.7-2.1-.9-3.6-.94-7.23,.57-9.22,3.48-.78-.43-1.61-.78-2.51-1.02-2.41-.63-4.84-.39-6.97,.51-1.41-1.83-3.41-3.23-5.82-3.86-.58-.15-1.15-.24-1.73-.29-2.1-4.83-7.44-7.55-12.69-6.17-3.26,.85-5.79,3.11-7.1,5.94-1.37-1.54-3.2-2.71-5.34-3.27-2.99-.78-6.01-.23-8.44,1.27-1.41-.44-2.93-.6-4.46-.42-2.51-3.69-7.15-5.59-11.72-4.4-3.56,.93-6.24,3.53-7.43,6.74-1.96-1.31-4.43-1.83-6.89-1.18-.76,.2-1.45,.52-2.1,.9-1.34-2.69-4.41-4.16-7.43-3.37-.36,.09-.69,.23-1.01,.38-.67,.05-1.34,.15-2.01,.32-1.07,.28-2.06,.71-2.96,1.27-.67-.16-1.38-.18-2.08,0-.94,.25-1.71,.79-2.27,1.49-.66-.9-1.83-1.36-2.98-1.06-.69,.18-1.25,.61-1.62,1.16,0-.18,.02-.35-.03-.53-.26-.99-1.28-1.59-2.27-1.33-.19,.05-.35,.15-.51,.25-.33-.88-1.26-1.41-2.19-1.16-.76,.2-1.28,.84-1.37,1.57-1.84-1-4.04-1.35-6.23-.77-.76,.2-1.45,.52-2.1,.9-1.34-2.68-4.41-4.16-7.43-3.37-1.75,.46-3.14,1.59-3.97,3.05-1.05-1.01-2.58-1.47-4.09-1.07-.94,.25-1.71,.79-2.27,1.48-.66-.9-1.83-1.36-2.98-1.06-.85,.22-1.5,.82-1.84,1.56-.9-.15-1.79-.3-2.69-.45,.23-.41,.31-.9,.19-1.39-.26-1-1.28-1.59-2.27-1.33-.31,.08-.56,.25-.78,.46-1.4-4.38-5.5-7.56-10.34-7.56-3.76,0-7.07,1.91-9.01,4.81-1.75-1.21-3.87-1.92-6.15-1.92-.68,0-1.33,.07-1.98,.19-1.74-3.67-5.47-6.22-9.81-6.22-2.49,0-4.78,.85-6.61,2.26-1.83-1.41-4.12-2.26-6.61-2.26-.88,0-1.74,.12-2.56,.32-.05-.01-.1-.03-.14-.04-1.2-3.28-4.32-5.63-8.01-5.63-.79,0-1.53,.14-2.26,.34-.61-2.94-3.21-5.14-6.33-5.14-1.81,0-3.44,.75-4.61,1.94-.76-1.24-2.12-2.07-3.69-2.07-.97,0-1.85,.33-2.57,.86-.41-1.04-1.43-1.78-2.61-1.78-.72,0-1.36,.28-1.86,.72,.05-.17,.1-.33,.1-.52,0-1.03-.83-1.86-1.86-1.86-.2,0-.37,.06-.55,.11-.1-.94-.86-1.68-1.83-1.68-1.03,0-1.86,.83-1.86,1.86,0,.67,.38,1.24,.91,1.56,13.46,14.26,29.32,28.05,51.51,40.63,121.68,24.57,210.96,27.84,336.39-4.18,22.2-8.62,40.78-30.73,61.53-50.6-.04,.01-.08,.02-.12,.04,.23-.27,.4-.6,.44-.98Zm-2.57,1.51c.06,.03,.13,.04,.2,.06-.08,.02-.16,.05-.24,.07,.01-.04,.03-.09,.04-.13Zm-317.61,39.07c.11,.29,.28,.53,.51,.73-.12,.06-.23,.13-.34,.19-.17-.25-.35-.5-.55-.73,.14-.05,.27-.11,.39-.19Zm-128.06-25.29s-.01,0-.02,0c0,0,.01,0,.02,0,0,0,0,0,0,0Z" fill="#fff"/>
            <g>
              <path d="M309.04,566.23c.2,.23,.38,.48,.55,.73,.11-.06,.23-.13,.34-.19-.22-.2-.4-.44-.51-.73-.12,.08-.25,.14-.39,.19Z" fill="none"/>
              <path d="M181.36,540.75s.01,0,.02,0c0,0,0,0,0,0,0,0-.01,0-.02,0Z" fill="none"/>
              <path d="M627,527.11c.08-.02,.16-.05,.24-.07-.07-.02-.13-.03-.2-.06,0,.05-.03,.09-.04,.13Z" fill="none"/>
              <path d="M181.36,540.75s.01,0,.02,0c0,0,0,0,0,0,0,0-.01,0-.02,0Zm128.24,26.21c-.17-.25-.35-.5-.55-.73,.14-.05,.27-.11,.39-.19,.11,.29,.28,.53,.51,.73-.12,.06-.23,.13-.34,.19Zm317.4-39.85s.03-.09,.04-.13c.06,.03,.13,.04,.2,.06-.08,.02-.16,.05-.24,.07Z" fill="none"/>
              <path d="M600.19,548.83c-3.3-.25-7.02,1.23-9.2,3.71-3.27,3.73-9.31,6.42-15.86,5.07-7.81-1.61-14.83,7.4-22.8,7.03-4.99-.23-12.97,.56-26.54,4.47-19.74,5.7-49.76,4.69-55.74,3.48-8.66-1.76-54.03,3.74-59.92,5.2-12.12,3.01-30.62-.06-43.82-1.09-14.99-1.18-26.03,4.87-60.17-6.43-11.59-3.84-24.76-.39-36.79,1.69-12.77,2.2-25.53-1.32-38.3-3.68-5.16-.96-10.51-1.02-15.41-2.9-4.64-1.78-9.39-4.78-14.13-4.57,8.63,7.05,18.4,13.88,29.87,20.38,123.91,25.03,211.32,21.72,336.39-4.18,16.3-3.38,29.27-18.65,43.22-32.48-1.2,.16-2.52,.28-3.53,.98-2.46,1.7-4.81,3.52-7.27,3.33Z" fill="#b0bec5"/>
            </g>
            <path d="M183.29,578.07c135.43,32.78,288.93,32.78,424.37,0,4.09-1.01,7.38-5.32,7.38-9.58h0c0-4.26-3.29-6.86-7.38-5.85-135.43,32.78-288.93,32.78-424.37,0-4.09-1.01-7.38,1.59-7.38,5.85h0c0,4.26,3.29,8.57,7.38,9.58Z" fill="#654949" stroke="#000" stroke-miterlimit="10"/>
            <path d="M453.19,16.26c-36.41-11.58-79.05-12.55-124.86-.93-123.93,31.44-220.49,139.59-242.56,246.96C121.79,156.37,421.15,12.12,453.19,16.26Z" fill="url(#linear-gradient-3)" mix-blend-mode="screen" opacity=".5"/>
            <path d="M340.15,16.26c36.41-11.58,79.05-12.55,124.86-.93,123.93,31.44,220.49,139.59,242.56,246.96C671.55,156.37,372.19,12.12,340.15,16.26Z" fill="url(#linear-gradient-4)" mix-blend-mode="screen" opacity=".5"/>
            <path d="M275.89,564.06c.26,1-.33,2.01-1.33,2.27-1,.26-2.01-.34-2.27-1.33-.26-1,.33-2.01,1.33-2.27,1-.26,2.01,.33,2.27,1.33Z" fill="#fff"/>
            <path d="M549.77,546.01c-.1,1.02,.65,1.94,1.67,2.04,1.02,.1,1.94-.65,2.04-1.67,.1-1.02-.65-1.93-1.67-2.04-1.02-.1-1.94,.65-2.04,1.67Z" fill="#fff"/>
            <g>
              <path d="M489.6,628.32c1.11,8.66,2.25,17.53,3.42,26.61-5.1,.65-8.86,4.53-8.37,8.77-58.89,6.82-119.46,6.82-178.35,0,.49-4.24-3.27-8.12-8.37-8.77,1.17-9.08,2.31-17.95,3.42-26.61,4.92,.61,9.3-2.1,9.75-5.94,55.73,6.11,113.01,6.11,168.74,0,.45,3.84,4.82,6.54,9.75,5.94Z" fill="#d3cc8b"/>
              <path d="M395.48,669.65c-29.9,0-59.93-1.72-89.27-5.12l-.82-.1,.1-.82c.43-3.74-3-7.26-7.65-7.85l-.82-.1,3.63-28.25,.82,.1c4.49,.55,8.44-1.88,8.83-5.21l.09-.82,.82,.09c55.41,6.07,113.15,6.07,168.56,0l.82-.09,.09,.82c.35,3.02,3.6,5.29,7.55,5.29h0c.42,0,.84-.03,1.27-.08l.82-.1,3.63,28.25-.82,.1c-4.65,.59-8.09,4.12-7.65,7.85l.1,.82-.82,.1c-29.34,3.4-59.37,5.12-89.27,5.12Zm-88.3-6.68c58.06,6.67,118.55,6.67,176.61,0,0-4.08,3.51-7.78,8.31-8.73l-3.22-25.03c-.22,.01-.44,.02-.66,.02h0c-4.45,0-8.18-2.5-9.04-5.95-55.05,5.97-112.35,5.97-167.4,0-.91,3.61-4.96,6.19-9.7,5.93l-3.22,25.03c4.8,.95,8.31,4.64,8.31,8.73Z"/>
            </g>
          </g>
          <text transform="translate(348.94 644.1) scale(.91 1)" font-family="SegoeScript-Bold, &apos;Segoe Script&apos;" font-size="15.38"><tspan x="0" y="0">The Magical </tspan><tspan x="-38.75" y="16.32">Christmas Adventure </tspan></text>
        </g>
      </g>
    </g>
  </g>
</svg>