<?xml version="1.0" encoding="UTF-8"?>
<svg id="Layer_2" data-name="Layer 2" xmlns="http://www.w3.org/2000/svg" viewBox="0 0 238.42 492.93">
  <g id="main">
    <g>
      <path d="M171.79,421.5s23.69-14.25,17.1-40.52c-6.59-26.27-7.27-61.27-13.76-69.35-6.49-8.08-27.77-13.23-27.77-13.23l24.43,123.1Z" fill="#ee3e3d" stroke="#000" stroke-miterlimit="10" stroke-width="1.2"/>
      <g>
        <g>
          <path d="M119.19,277.48l-.39,17.69c-.03,1.57,1.36,2.76,3.46,3.58,3.11,2.35,7.2,4.07,7.03,11.76l3.2,.07c.18-8.17,4.83-9.41,8.09-11.85,1.83-.74,3.03-1.74,3.06-3.01l.39-17.69-24.84-.55Z" fill="#e6c5a0" fill-rule="evenodd" stroke="#000" stroke-miterlimit="10" stroke-width="1.2"/>
          <path d="M98.2,301.99c-8.76,5.41-16.06,159.14-21.43,173.29,14.05,10.33,31.33,16.61,50.1,17.03,18.56,.41,35.9-4.97,50.31-14.47-4.77-14.56-4.59-168.68-13.27-174.39-14.79-9.73-23.77-12.18-32.63-12.5-9.05-.32-17.97,1.7-33.09,11.04Z" fill="#ee3e3d" fill-rule="evenodd" stroke="#000" stroke-miterlimit="10" stroke-width="1.2"/>
          <path d="M116.36,296.16c3.09,5.83,7.75,7.07,13.07,8.05l3.2,.07c6.27-1.29,12.32-3.45,13.59-7.38,2.64-8.05-33.88-8.35-29.85-.75Z" fill="#e6c5a0" fill-rule="evenodd" stroke="#000" stroke-miterlimit="10" stroke-width="1.2"/>
          <path d="M132.26,307.25c.85,.02,1.52,.72,1.5,1.57s-.72,1.52-1.57,1.5-1.51-.72-1.49-1.57,.72-1.52,1.56-1.5Z" fill="#eadfb1" fill-rule="evenodd" stroke="#000" stroke-miterlimit="10" stroke-width="1.2"/>
          <path d="M132.05,316.46c.85,.02,1.52,.73,1.5,1.57s-.72,1.52-1.57,1.5-1.51-.72-1.49-1.57,.72-1.52,1.56-1.5Z" fill="#eadfb1" fill-rule="evenodd" stroke="#000" stroke-miterlimit="10" stroke-width="1.2"/>
          <path d="M131.85,325.58c.85,.02,1.52,.72,1.5,1.56s-.72,1.52-1.57,1.5c-.84-.02-1.51-.72-1.49-1.57s.72-1.51,1.56-1.5Z" fill="#eadfb1" fill-rule="evenodd" stroke="#000" stroke-miterlimit="10" stroke-width="1.2"/>
          <path d="M131.67,333.8c.85,.02,1.52,.72,1.5,1.57s-.72,1.52-1.57,1.5-1.51-.72-1.49-1.57,.72-1.52,1.56-1.5Z" fill="#eadfb1" fill-rule="evenodd" stroke="#000" stroke-miterlimit="10" stroke-width="1.2"/>
          <path d="M131.47,343c.85,.02,1.52,.72,1.5,1.57s-.72,1.52-1.57,1.5-1.51-.72-1.49-1.57,.72-1.52,1.56-1.5Z" fill="#eadfb1" fill-rule="evenodd" stroke="#000" stroke-miterlimit="10" stroke-width="1.2"/>
          <path d="M111.51,294.6l-.85,38.49,39.82,.88,.85-38.26c2.37,1.13,4.91,2.5,7.67,4.13l-4.19,188.67c-8.98,2.73-18.39,4-27.77,3.79-12.91-.6-17.03-1.98-25.68-4.5-.42-.13,1.25-142.42,1.25-142.42l.12-5.25,.92-41.65c2.83-1.57,5.43-2.86,7.85-3.89Z" fill="#577d3d" fill-rule="evenodd" stroke="#000" stroke-miterlimit="10" stroke-width="1.2"/>
        </g>
        <path d="M134.66,143.53c134.92,2.99,76.81,156.01-3.42,154.23-80.22-1.78-131.49-157.22,3.42-154.23Z" fill="#f5d4b1" fill-rule="evenodd" stroke="#000" stroke-miterlimit="10" stroke-width="1.2"/>
        <path d="M177.06,194.2c-12.27,5.01-51.82,23.67-69.25,23.82-17.43,.14,1.42-16.11,6.29-21.28,4.86-5.18-20.75,11.32-29.74,11.65-8.98,.32-12.48,3.64-20.17,13.99-9.63,12.97-14.09,7.67-14.82-7.14-.73-14.8-.72-92.84,93.85-86.8,64.85,4.15,77.3,73.34,73.56,93.1-1.82,9.7-11.1,13.66-10.83,1.52,.27-12.14-20.41-6.5-28.89-28.87Z" fill="#5c4932" fill-rule="evenodd" stroke="#000" stroke-miterlimit="10" stroke-width="1.2"/>
        <g>
          <path d="M146.19,268.6c-.16,.35-3.8,8.84-14.5,8.61-10.68-.24-13.97-8.89-14.11-9.24h0c-.25-.72,.11-1.5,.84-1.77,.71-.26,1.52,.1,1.78,.82h-.02c.12,.28,2.82,7.24,11.57,7.43,8.76,.19,11.77-6.64,11.89-6.91h0c.3-.71,1.09-1.04,1.79-.74,.72,.3,1.04,1.1,.76,1.81h0Z" fill="#5c4932" stroke="#000" stroke-miterlimit="10" stroke-width="1.2"/>
          <g>
            <path d="M169.64,242.31c-.1,4.43-3.78,7.93-8.21,7.83s-7.92-3.76-7.83-8.19,3.76-7.95,8.18-7.85c4.43,.1,7.95,3.77,7.86,8.2Z" stroke="#000" stroke-miterlimit="10" stroke-width="1.2"/>
            <path d="M95.34,240.66c-.1,4.43,3.42,8.09,7.84,8.19,4.44,.1,8.09-3.41,8.19-7.84s-3.39-8.11-7.84-8.2c-4.42-.1-8.09,3.41-8.19,7.85Z" stroke="#000" stroke-miterlimit="10" stroke-width="1.2"/>
          </g>
        </g>
        <path d="M192.58,16.83c-.19,8.77-7.46,15.72-16.22,15.52-8.78-.19-15.73-7.46-15.53-16.23,.19-8.77,7.46-15.72,16.24-15.52s15.71,7.46,15.51,16.23Z" fill="#eadfb1" stroke="#000" stroke-width="1.2"/>
        <path d="M66.81,146.85c4.86-14.72,13.47-28.32,24.45-38.78,22.33-21.2,55.5-21.33,84.07-22.43,25.93-.99,13.27-35.65,5.56-69.07,11.19,16.61,45.16,38.91,39.23,75.13-3.23,19.73-14.64,25.38-14.35,47.34,.07,5.79-4.92,15.01,.16,34.36-23.36-17.08-35.85-17.89-59.12-22.44-30.78-6-65.21,7.26-84.32,25.76-.44-10.05,1.15-20.2,4.33-29.87Z" fill="#ee3e3d" stroke="#000" stroke-miterlimit="10" stroke-width="1.2"/>
        <g>
          <path d="M62.6,176.99c-5.26-11.98-8.69-21.93-9.62-37.76,15.02,5.28,28.03,11.77,39.2,19.8-11.52,6.12-21.4,9.1-29.58,17.96Z" fill="#f5d4b1" stroke="#000" stroke-miterlimit="10" stroke-width="1.2"/>
          <path d="M92.19,158.88c1.9-13.55,5.53-28,11.12-42.47,10.9,11.04,20.17,22.48,27.83,33.99-13.52,1.44-26.51,4.14-38.95,8.48Z" fill="#f5d4b1" stroke="#000" stroke-miterlimit="10" stroke-width="1.2"/>
          <path d="M131.14,150.61c7.62-11.64,16.72-23.15,27.3-34.37,5.72,14.13,9.88,28.47,12.66,42.07-13.04-3.96-26.39-6.35-39.96-7.7Z" fill="#f5d4b1" stroke="#000" stroke-miterlimit="10" stroke-width="1.2"/>
          <path d="M169.6,157.76c9.74-10.19,20.94-19.35,33.83-28.12,2.85,15.32,3.28,29.99,2.49,43.75-11.4-6.75-23.18-11.83-36.32-15.63Z" fill="#f5d4b1" stroke="#000" stroke-miterlimit="10" stroke-width="1.2"/>
        </g>
        <g>
          <path d="M69.97,227.15c-8.73-9.91-20.01-22.71-38.61-28-1.45,12.19,1.43,36.2,11.44,45.7,6.77,6.41,16.9,8.78,28.09-7.79l-.92-9.91Z" fill="#f5d4b1" stroke="#000" stroke-miterlimit="10" stroke-width="1.2"/>
          <path d="M56.75,227.2c-2.96-6.57-12.69-12.88-18.46-16.2,5.3,7.01,2.45,19.57,10.12,24.99,7.24,5.11,10.04-.46,9.11-6.25-.12-.86-.4-1.7-.78-2.54Z" fill="#d4c897" stroke="#000" stroke-width="1.2"/>
        </g>
        <g>
          <path d="M197.89,229.99c9.16-9.51,21-21.8,39.81-26.26,.91,12.24-3.03,36.1-13.45,45.14-7.05,6.11-17.27,8.02-27.72-9.03l1.36-9.86Z" fill="#f5d4b1" stroke="#000" stroke-miterlimit="10" stroke-width="1.2"/>
          <path d="M211.1,230.63c3.25-6.43,13.25-12.3,19.16-15.37-5.61,6.77-3.32,19.44-11.22,24.51-7.46,4.79-10.01-.9-8.83-6.65,.16-.85,.47-1.68,.89-2.5Z" fill="#d4c897" stroke="#000" stroke-width="1.2"/>
        </g>
        <path d="M191.52,261.49c-.12,5.59-4.75,10.02-10.35,9.9-5.58-.12-10.02-4.76-9.9-10.35,.12-5.59,4.77-10.02,10.35-9.9,5.6,.12,10.02,4.76,9.9,10.35Z" fill="#ef8484" stroke="#000" stroke-miterlimit="10" stroke-width="1.2"/>
        <path d="M95.96,259.37c-.12,5.59-4.77,10.02-10.36,9.9-5.59-.12-10.03-4.76-9.91-10.35,.12-5.59,4.77-10.02,10.35-9.9,5.59,.12,10.04,4.76,9.91,10.35Z" fill="#ef8484" stroke="#000" stroke-miterlimit="10" stroke-width="1.2"/>
      </g>
      <path d="M96.72,303.72s-27.62,37.22-35.64,39.45c-8.02,2.23-23.41-25.58-23.41-25.58l-16.23,13.88s17.5,34.03,33.42,36.29c15.91,2.26,35.73-28.12,35.73-28.12l6.12-35.91Z" fill="#ee3e3d" fill-rule="evenodd" stroke="#000" stroke-linecap="round" stroke-linejoin="round" stroke-width="1.2"/>
      <path d="M37.88,295.52c-.12-.41-.26-.83-.59-1.1-.85-.69-2.07,.18-2.8,1-3.02,3.38-6.24,7.27-6.01,11.8,.59-6.02-1.49-12.26-5.59-16.72-.93-1.01-1.97-1.94-3.19-2.57-2.79-1.43-6.26-1.06-9.04,.39-2.78,1.45-4.94,3.86-6.71,6.45-1.86,2.74-3.38,5.87-3.36,9.18,.02,3.01,1.31,5.87,2.76,8.51,3.98,7.27,9.38,13.77,15.8,19.02,.52,.43,1.12,.87,1.8,.85,.53-.02,1.01-.33,1.45-.63,5.54-3.77,12.95-7.9,15.46-14.39,2.54-6.6,1.99-15.15,.03-21.79Z" fill="#f5d4b1" fill-rule="evenodd" stroke="#000" stroke-linecap="round" stroke-linejoin="round" stroke-width="1.2"/>
    </g>
  </g>
</svg>