<?xml version="1.0" encoding="UTF-8"?>
<svg id="Layer_2" data-name="Layer 2" xmlns="http://www.w3.org/2000/svg" viewBox="0 0 233.66 492.46">
  <g id="main">
    <g>
      <path d="M178.77,239.53c.07,48.5-33.33,87.87-74.59,87.93-41.26,.06-74.76-39.22-74.83-87.73-.07-48.51,33.33-87.87,74.59-87.93,41.26-.06,74.77,39.22,74.83,87.73Z" fill="#5c4932" fill-rule="evenodd" stroke="#000" stroke-miterlimit="10" stroke-width="1.2"/>
      <path d="M78.95,305.98s-26.98,6.04-29.03,33.04-12.46,60.43-8.85,70.15c3.61,9.72,22.17,21.33,22.17,21.33l15.71-124.51Z" fill="#ee3e3d" stroke="#000" stroke-miterlimit="10" stroke-width="1.2"/>
      <g>
        <g>
          <path d="M168.02,229.43c8.94-9.73,20.48-22.29,39.18-27.19,1.19,12.21-2.18,36.16-12.38,45.45-6.9,6.27-17.08,8.43-27.92-8.38l1.13-9.89Z" fill="#f5d4b1" stroke="#000" stroke-miterlimit="10" stroke-width="1.2"/>
          <path d="M181.24,229.76c3.1-6.51,12.96-12.61,18.79-15.81-5.45,6.9-2.86,19.51-10.64,24.77-7.34,4.96-10.03-.67-8.98-6.44,.14-.85,.43-1.69,.83-2.52Z" fill="#d4c897" stroke="#000" stroke-width="1.2"/>
        </g>
        <g>
          <g>
            <g>
              <path d="M91.61,278.82l.02,17.69c0,1.57,1.43,2.72,3.56,3.5,3.16,2.27,7.28,3.89,7.29,11.6h3.2c-.01-8.17,4.6-9.52,7.81-12.04,1.81-.77,2.99-1.8,2.99-3.09l-.02-17.69-24.86,.03Z" fill="#e6c5a0" fill-rule="evenodd" stroke="#000" stroke-miterlimit="10" stroke-width="1.2"/>
              <path d="M71.2,303.82c-8.63,5.62-12.83,157.93-17.87,172.2,14.31,10.01,31.71,15.87,50.48,15.85,18.58-.03,35.79-5.81,49.97-15.65-5.12-14.44-8.03-166.99-16.85-172.49-15.01-9.38-24.05-11.62-32.91-11.73-9.06-.11-17.93,2.12-32.82,11.82Z" fill="#ee3e3d" fill-rule="evenodd" stroke="#000" stroke-miterlimit="10" stroke-width="1.2"/>
              <path d="M89.24,297.57c3.23,5.75,7.92,6.87,13.24,7.74h3.2c6.25-1.44,12.23-3.75,13.41-7.7,2.45-8.11-34.08-7.55-29.86-.04Z" fill="#e6c5a0" fill-rule="evenodd" stroke="#000" stroke-miterlimit="10" stroke-width="1.2"/>
              <path d="M105.39,308.28c.84,0,1.54,.68,1.54,1.53s-.69,1.54-1.54,1.54-1.54-.68-1.54-1.53,.68-1.54,1.53-1.54Z" fill="#eadfb1" fill-rule="evenodd" stroke="#000" stroke-miterlimit="10" stroke-width="1.2"/>
              <path d="M105.4,317.49c.84,0,1.54,.68,1.54,1.53s-.69,1.54-1.54,1.54c-.85,0-1.54-.68-1.54-1.53s.68-1.54,1.53-1.54Z" fill="#eadfb1" fill-rule="evenodd" stroke="#000" stroke-miterlimit="10" stroke-width="1.2"/>
              <path d="M105.41,326.61c.84,0,1.54,.68,1.54,1.53s-.69,1.54-1.54,1.54-1.54-.69-1.54-1.54,.68-1.54,1.53-1.54Z" fill="#eadfb1" fill-rule="evenodd" stroke="#000" stroke-miterlimit="10" stroke-width="1.2"/>
              <path d="M105.42,334.82c.84,0,1.54,.69,1.54,1.54s-.69,1.53-1.54,1.53-1.54-.68-1.54-1.53,.68-1.54,1.53-1.54Z" fill="#eadfb1" fill-rule="evenodd" stroke="#000" stroke-miterlimit="10" stroke-width="1.2"/>
              <path d="M105.44,344.03c.84,0,1.54,.69,1.54,1.54s-.69,1.54-1.54,1.54-1.54-.69-1.54-1.53,.68-1.54,1.53-1.54Z" fill="#eadfb1" fill-rule="evenodd" stroke="#000" stroke-miterlimit="10" stroke-width="1.2"/>
            </g>
            <path d="M87.88,291.75s4.41,11.57,15.62,11.25c11.2-.31,16.61-11.3,16.61-11.3,0,0,8.81,12.34-1.3,16.7-9.91,4.28-14.66-3.95-14.66-3.95,0,0-6.68,9.2-15.37,3.26-8.84-6.03-.9-15.97-.9-15.97Z" fill="#eadfb1" stroke="#000" stroke-miterlimit="10" stroke-width="1.2"/>
          </g>
          <path d="M102.76,144.48c134.95-.18,80.46,154.16,.21,154.27-80.24,.11-135.16-154.08-.21-154.27Z" fill="#f5d4b1" fill-rule="evenodd" stroke="#000" stroke-miterlimit="10" stroke-width="1.2"/>
          <g>
            <path d="M117.24,269.25c-.15,.35-3.59,8.93-14.3,8.95-10.69,.01-14.17-8.56-14.32-8.91h0c-.26-.71,.07-1.5,.79-1.79,.7-.28,1.52,.07,1.79,.78h-.02c.12,.28,2.99,7.17,11.75,7.16,8.76-.01,11.61-6.91,11.73-7.19h0c.28-.71,1.06-1.06,1.78-.78,.73,.29,1.07,1.08,.8,1.79h0Z" fill="#5c4932" stroke="#000" stroke-miterlimit="10" stroke-width="1.2"/>
            <g>
              <path d="M140.06,242.41c0,4.43-3.59,8.02-8.03,8.03-4.42,0-8.01-3.58-8.02-8,0-4.44,3.57-8.03,8-8.04s8.04,3.58,8.05,8.02Z" stroke="#000" stroke-miterlimit="10" stroke-width="1.2"/>
              <path d="M65.75,242.51c0,4.43,3.61,8.01,8.03,8,4.44,0,8.01-3.6,8-8.03s-3.58-8.02-8.03-8.02c-4.42,0-8.01,3.6-8,8.04Z" stroke="#000" stroke-miterlimit="10" stroke-width="1.2"/>
            </g>
          </g>
          <g>
            <path d="M40.07,229.61c-8.96-9.7-20.54-22.23-39.25-27.08-1.16,12.22,2.28,36.15,12.51,45.41,6.92,6.25,17.1,8.38,27.9-8.45l-1.15-9.88Z" fill="#f5d4b1" stroke="#000" stroke-miterlimit="10" stroke-width="1.2"/>
            <path d="M26.85,229.97c-3.12-6.5-12.99-12.58-18.83-15.76,5.46,6.88,2.91,19.51,10.71,24.74,7.36,4.94,10.02-.7,8.96-6.46-.14-.85-.44-1.69-.84-2.52Z" fill="#d4c897" stroke="#000" stroke-width="1.2"/>
          </g>
          <path d="M162.4,261.08c0,5.59-4.52,10.13-10.11,10.14-5.58,0-10.13-4.52-10.14-10.11,0-5.59,4.53-10.13,10.11-10.14,5.6,0,10.13,4.52,10.14,10.11Z" fill="#ef8484" stroke="#000" stroke-miterlimit="10" stroke-width="1.2"/>
          <path d="M66.81,261.21c0,5.59-4.53,10.13-10.12,10.14-5.59,0-10.14-4.52-10.15-10.11,0-5.59,4.53-10.13,10.12-10.14,5.59,0,10.14,4.52,10.15,10.11Z" fill="#ef8484" stroke="#000" stroke-miterlimit="10" stroke-width="1.2"/>
          <path d="M165.48,214.18c19.21,19.16,11.06,26.08,20.3,6.3,9.23-19.77-13.56-104.96-79.78-104.87-66.21,.09-93.23,65.69-83.93,101.49,9.31,35.81,5.19,16.73,22.03-3.1,0,0,120.16-1.04,121.38,.17Z" fill="#5c4932" fill-rule="evenodd" stroke="#000" stroke-miterlimit="10" stroke-width="1.2"/>
          <g>
            <path d="M157.69,16.46c.01,8.77-7.09,15.89-15.85,15.9-8.78,.01-15.9-7.09-15.91-15.86s7.09-15.89,15.87-15.9c8.76-.01,15.88,7.09,15.89,15.86Z" fill="#eadfb1" stroke="#000" stroke-width="1.2"/>
            <path d="M35.01,149.4c4.51-14.83,12.8-28.63,23.53-39.34,21.82-21.72,54.98-22.63,83.52-24.41,25.9-1.6,12.42-35.95,3.93-69.18,11.58,16.34,46.07,37.83,40.99,74.18-2.77,19.8-14.04,25.72-13.23,47.66,.21,5.79-4.57,15.12,.97,34.35-23.75-16.52-36.26-17.04-59.63-21.04-30.91-5.27-65.02,8.79-83.69,27.74-.68-10.03,.67-20.22,3.62-29.96Z" fill="#ee3e3d" stroke="#000" stroke-miterlimit="10" stroke-width="1.2"/>
            <g>
              <path d="M31.52,179.64c-5.54-11.85-9.21-21.72-10.5-37.52,15.14,4.92,28.3,11.11,39.66,18.87-11.37,6.39-21.18,9.6-29.15,18.66Z" fill="#f5d4b1" stroke="#000" stroke-miterlimit="10" stroke-width="1.2"/>
              <path d="M60.67,160.83c1.58-13.59,4.87-28.12,10.12-42.72,11.15,10.78,20.69,22,28.62,33.33-13.49,1.75-26.41,4.76-38.74,9.39Z" fill="#f5d4b1" stroke="#000" stroke-miterlimit="10" stroke-width="1.2"/>
              <path d="M99.42,151.64c7.34-11.82,16.17-23.54,26.48-35,6.05,13.99,10.55,28.23,13.65,41.76-13.13-3.66-26.53-5.72-40.13-6.76Z" fill="#f5d4b1" stroke="#000" stroke-miterlimit="10" stroke-width="1.2"/>
              <path d="M138.04,157.89c9.5-10.41,20.48-19.84,33.16-28.91,3.21,15.25,3.99,29.91,3.52,43.68-11.56-6.48-23.46-11.28-36.68-14.77Z" fill="#f5d4b1" stroke="#000" stroke-miterlimit="10" stroke-width="1.2"/>
            </g>
          </g>
        </g>
      </g>
      <path d="M136.94,303.73s27.97,36.95,36.01,39.11c8.04,2.15,23.16-25.81,23.16-25.81l16.36,13.72s-17.18,34.19-33.07,36.61c-15.89,2.41-35.99-27.78-35.99-27.78l-6.46-35.85Z" fill="#ee3e3d" fill-rule="evenodd" stroke="#000" stroke-linecap="round" stroke-linejoin="round" stroke-width="1.2"/>
      <path d="M195.7,294.98c.12-.41,.25-.84,.58-1.11,.85-.7,2.07,.16,2.81,.98,3.06,3.35,6.31,7.21,6.12,11.74-.65-6.02,1.38-12.28,5.43-16.77,.92-1.02,1.95-1.96,3.16-2.6,2.78-1.46,6.25-1.12,9.04,.3,2.79,1.42,4.98,3.81,6.77,6.39,1.89,2.72,3.43,5.84,3.44,9.15,0,3.01-1.25,5.88-2.68,8.54-3.91,7.31-9.25,13.86-15.62,19.17-.52,.43-1.11,.88-1.79,.86-.53-.02-1.01-.32-1.45-.62-5.57-3.71-13.03-7.78-15.59-14.24-2.61-6.57-2.13-15.13-.24-21.79Z" fill="#f5d4b1" fill-rule="evenodd" stroke="#000" stroke-linecap="round" stroke-linejoin="round" stroke-width="1.2"/>
    </g>
  </g>
</svg>