<?xml version="1.0" encoding="UTF-8"?>
<svg id="Layer_2" data-name="Layer 2" xmlns="http://www.w3.org/2000/svg" viewBox="0 0 79.85 79.85">
  <g id="footer">
    <g>
      <circle cx="39.93" cy="39.93" r="39.43" fill="#2e3192" stroke="#000" stroke-miterlimit="10"/>
      <path d="M51.94,15.24c.66,.26,.9,.75,.9,1.45-.02,2.55,0,5.1-.01,7.66,0,1.06-.38,1.42-1.45,1.43-1.81,.02-3.62,.01-5.42,.08-.98,.04-1.92,.33-2.41,1.29-.23,.46-.4,1.01-.41,1.52-.05,2.02-.02,4.04-.02,6.14,.19,0,.37,0,.56,0,2.45,0,4.89,0,7.34,0,1.09,0,1.47,.38,1.47,1.47,0,2.76,0,5.53,0,8.29,0,1.03-.38,1.41-1.41,1.41-2.45,0-4.89,0-7.34,0-.19,0-.38,0-.64,0,0,.26,0,.46,0,.67,0,7.14,0,14.28,0,21.43,0,1.26-.35,1.61-1.61,1.61-2.8,0-5.6,0-8.4,0-1.11,0-1.47-.37-1.48-1.46,0-7.18,0-14.36,0-21.53,0-.21,0-.42,0-.71-.23,0-.41,0-.6,0-2.07,0-4.15,0-6.22,0-.99,0-1.39-.39-1.39-1.38,0-2.8,0-5.6,0-8.4,0-.98,.41-1.38,1.39-1.39,2.06,0,4.11,0,6.17,0,.19,0,.38,0,.65,0,0-.23,0-.42,0-.61,0-2.2-.05-4.4,.04-6.59,.13-3.12,1.07-5.98,3.19-8.36,1.77-1.99,4.02-3.15,6.61-3.68,.62-.13,1.25-.22,1.87-.33,2.87,0,5.74,0,8.61,0Z" fill="#fff" stroke="#000" stroke-miterlimit="10"/>
    </g>
  </g>
</svg>