<?xml version="1.0" encoding="UTF-8"?>
<svg id="Layer_2" data-name="Layer 2" xmlns="http://www.w3.org/2000/svg" viewBox="0 0 58.6 60.98">
  <g id="icons">
    <g>
      <g>
        <path d="M53.35,49.25l-14.31-1.02c-.86-.06-1.71,.22-2.37,.79l-10.83,9.4c-1.84,1.59-4.71,.68-5.29-1.68l-3.45-13.93c-.21-.84-.74-1.56-1.48-2.01l-12.29-7.4c-2.08-1.25-2.11-4.27-.04-5.55l12.18-7.58c.73-.46,1.25-1.19,1.45-2.03l3.24-13.98c.55-2.37,3.41-3.32,5.27-1.75l10.97,9.24c.66,.56,1.52,.83,2.38,.75l14.29-1.24c2.42-.21,4.21,2.21,3.3,4.47l-5.4,13.29c-.32,.8-.32,1.7,.02,2.49l5.59,13.21c.95,2.24-.8,4.69-3.23,4.51Z" fill="#e1b62a"/>
        <path d="M20.16,4.28l-3.24,13.98c-.19,.84-.72,1.57-1.45,2.03L3.29,27.87c-2.06,1.28-2.04,4.3,.04,5.55l12.29,7.4c.74,.45,1.27,1.17,1.48,2.01l3.45,13.93c.58,2.36,3.45,3.27,5.29,1.68l.47-.41c-.38-2.71-2.48-17.06-5.27-20.08-3.09-3.34-12.5-6.78-12.66-7.42-.17-.64,7.12-4.07,10.91-6.38,3.76-2.3,5.13-21.97,5.14-22.18-1.75-.63-3.81,.35-4.27,2.33Z" fill="#fbdd8a"/>
        <path d="M55.25,50.74c-.65,.23-1.33,.32-2.02,.27l-14.31-1.02c-.39-.03-.79,.1-1.09,.36l-10.83,9.4c-.48,.42-1.03,.74-1.63,.95-1.32,.46-2.8,.34-4.04-.33-1.25-.68-2.13-1.81-2.47-3.2l-3.45-13.93c-.1-.39-.34-.72-.68-.92l-12.29-7.4C.92,34.01,.01,32.42,0,30.67c-.01-1.76,.87-3.36,2.36-4.29l12.18-7.58c.34-.21,.58-.54,.67-.93l3.24-13.98c.39-1.68,1.59-3.03,3.22-3.6s3.52-.26,4.88,.89l10.98,9.24c.31,.26,.69,.38,1.09,.35l14.29-1.24c1.75-.15,3.42,.6,4.46,2.02,1.04,1.41,1.27,3.23,.61,4.86l-5.4,13.29c-.15,.37-.15,.78,0,1.15l5.6,13.21c.55,1.29,.54,2.7-.03,3.97-.56,1.27-1.63,2.26-2.93,2.71Zm-18.09-3.99c.65-.23,1.33-.32,2.02-.27l14.31,1.02c.64,.05,1.23-.32,1.48-.9,.12-.27,.21-.69,0-1.18l-5.6-13.21c-.52-1.23-.53-2.6-.03-3.84l5.4-13.29c.28-.7-.03-1.25-.18-1.45-.15-.2-.58-.67-1.33-.6l-14.29,1.24c-1.33,.12-2.63-.3-3.66-1.16L24.29,3.87c-.59-.5-1.22-.35-1.46-.27s-.79,.35-.96,1.08l-3.24,13.98c-.3,1.31-1.09,2.41-2.23,3.12l-12.18,7.58c-.64,.4-.71,1.03-.71,1.28,0,.25,.08,.88,.73,1.27l12.29,7.4c1.15,.69,1.96,1.79,2.28,3.09l3.45,13.93c.13,.53,.47,.81,.73,.95,.55,.3,1.22,.24,1.7-.18l10.83-9.4c.48-.42,1.03-.73,1.63-.94Z" fill="#252525"/>
        <rect x="15.88" y="39.24" width="9.22" height="2.19" transform="translate(-12.19 9.05) rotate(-19.32)" fill="#252525"/>
        <rect x="27.05" y="36.2" width="4.23" height="2.19" transform="translate(-10.7 11.75) rotate(-19.32)" fill="#252525"/>
      </g>
      <rect x="29.69" y="8.15" width="2.2" height="11.69" transform="translate(-.37 27.14) rotate(-47.33)" fill="#fff"/>
    </g>
  </g>
</svg>