<?xml version="1.0" encoding="UTF-8"?>
<svg id="Layer_2" data-name="Layer 2" xmlns="http://www.w3.org/2000/svg" viewBox="0 0 57.7 70.07">
  <g id="icons">
    <g>
      <g>
        <path d="M50.74,46.42c0,12.1-9.81,21.9-21.9,21.9S6.94,58.51,6.94,46.42s9.81-21.9,21.9-21.9,21.9,9.81,21.9,21.9Z" fill="#fff"/>
        <path d="M29.54,68.31c11.78-.37,21.21-10.03,21.21-21.89,0-8.15-4.45-15.26-11.05-19.03-1.88,1.68-4.5,3.3-7.99,4,0,0,7.46,3.18,8.05,20.31,.27,7.98-4.76,13.26-10.22,16.62Z" fill="#e2e2e1"/>
        <path d="M28.84,70.07c-13.04,0-23.66-10.61-23.66-23.66S15.8,22.76,28.84,22.76s23.66,10.61,23.66,23.66-10.61,23.66-23.66,23.66Zm0-43.8c-11.11,0-20.15,9.04-20.15,20.15s9.04,20.15,20.15,20.15,20.15-9.04,20.15-20.15-9.04-20.15-20.15-20.15Z" fill="#252525"/>
        <path d="M43.66,16.57c0,8.18-6.63,14.81-14.81,14.81s-14.81-6.63-14.81-14.81S20.66,1.76,28.84,1.76s14.81,6.63,14.81,14.81Z" fill="#fff"/>
        <path d="M25.77,2.07s8.78,1.62,9.59,14.49c.81,12.88-5.83,14.8-5.83,14.8,0,0,10.29,.13,13.11-10.26C45.46,10.71,38.58-.41,25.77,2.07Z" fill="#e2e2e1"/>
        <path d="M28.84,33.14c-9.14,0-16.57-7.43-16.57-16.57S19.71,0,28.84,0s16.57,7.43,16.57,16.57-7.43,16.57-16.57,16.57Zm0-29.62c-7.2,0-13.06,5.86-13.06,13.06s5.86,13.06,13.06,13.06,13.06-5.86,13.06-13.06S36.04,3.51,28.84,3.51Z" fill="#252525"/>
        <rect x="5.84" y="24.09" width="3.51" height="17.06" transform="translate(-22.01 16.95) rotate(-49)" fill="#252525"/>
        <rect x="40.57" y="29.17" width="18.09" height="3.51" transform="translate(-8.33 38.71) rotate(-39.59)" fill="#252525"/>
        <g>
          <path d="M25.36,15.5c0,.85-.69,1.54-1.54,1.54s-1.54-.69-1.54-1.54,.69-1.54,1.54-1.54,1.54,.69,1.54,1.54Z" fill="#252525"/>
          <path d="M35.4,15.5c0,.85-.69,1.54-1.54,1.54s-1.54-.69-1.54-1.54,.69-1.54,1.54-1.54,1.54,.69,1.54,1.54Z" fill="#252525"/>
        </g>
        <polygon points="28.84 19.12 25.77 21.43 28.54 26.21 31.78 21.27 28.84 19.12" fill="#e1b62a"/>
        <path d="M28.77,29.22c-.43,0-.83-.25-1-.65l-3-6.7c-.21-.47-.07-1.02,.34-1.33l3.07-2.31c.39-.29,.92-.29,1.31,0l2.93,2.14c.42,.3,.56,.85,.36,1.33l-3,6.86c-.17,.4-.57,.66-1,.66h0Zm-1.64-7.44l1.63,3.63,1.66-3.78-1.57-1.14-1.72,1.29Z" fill="#252525"/>
        <path d="M30.31,38.77c0,.85-.69,1.54-1.54,1.54s-1.54-.69-1.54-1.54,.69-1.54,1.54-1.54,1.54,.69,1.54,1.54Z" fill="#252525"/>
        <path d="M30.31,47.85c0,.85-.69,1.54-1.54,1.54s-1.54-.69-1.54-1.54,.69-1.54,1.54-1.54,1.54,.69,1.54,1.54Z" fill="#252525"/>
        <path d="M30.31,56.92c0,.85-.69,1.54-1.54,1.54s-1.54-.69-1.54-1.54,.69-1.54,1.54-1.54,1.54,.69,1.54,1.54Z" fill="#252525"/>
      </g>
      <path d="M38.63,17.66c-.56-7.11-4.38-9.19-4.42-9.21l1.02-1.95c.2,.1,4.94,2.67,5.6,10.99l-2.19,.17Z" fill="#fff"/>
    </g>
  </g>
</svg>