<?xml version="1.0" encoding="UTF-8"?>
<svg id="Layer_2" data-name="Layer 2" xmlns="http://www.w3.org/2000/svg" viewBox="0 0 61.42 75.1">
  <g id="icons">
    <g>
      <g>
        <path d="M44.94,32.94c-.39-.19-.8-.36-1.2-.52,0,0-4.07-1.2-5.72-1.46-2.24-.28-4.56-.25-6.87,.11-1.79,.27-3.53,.74-5.18,1.37,0,0,0,0,0,0-2.74,1.13-6.42,3.69-6.42,3.69-.34,.28-.67,.56-.99,.86-3.42-2.21-8.92-4.46-16.32-3.33,0,0,.43,5.55,5.82,7.35,2.45,.82,4.61,1.19,6.42,1.44-1.8,3.71-2.23,8.1-.66,12.83,3.11,9.36,13.15,19.53,23.8,17.9,10.65-1.63,17.18-14.35,17.34-24.21,.08-4.98-1.65-9.04-4.48-12.04,1.65-.78,3.6-1.78,5.69-3.3,4.6-3.33,3.35-8.75,3.35-8.75-7.4,1.13-11.97,4.93-14.57,8.07Z" fill="#cb803a"/>
        <path d="M37.86,74.91h0c-5.35,.82-11.07-1.03-16.11-5.21-4.4-3.65-7.9-8.7-9.62-13.87-1.36-4.1-1.4-8.21-.13-12-1.36-.26-2.88-.61-4.52-1.16C1.07,40.53,.5,34.07,.48,33.79c-.07-.92,.58-1.73,1.48-1.87,7.21-1.11,12.76,.81,16.4,2.9,.02-.02,.04-.04,.06-.05,.04-.03,.07-.06,.11-.08,.16-.11,3.85-2.67,6.73-3.86,.02-.01,.05-.02,.07-.03,1.78-.68,3.64-1.17,5.54-1.46,2.44-.37,4.91-.41,7.35-.11,.02,0,.04,0,.06,0,1.75,.27,5.78,1.46,5.95,1.51,.05,.02,.11,.03,.16,.05,.03,0,.05,.02,.08,.03,2.85-3.08,7.56-6.57,14.78-7.68,.91-.14,1.77,.44,1.98,1.34,.06,.27,1.45,6.6-4.03,10.57-1.4,1.01-2.74,1.81-3.97,2.46,2.35,3.24,3.54,7.17,3.47,11.49-.09,5.44-1.92,11.32-5.02,16.11-3.56,5.5-8.46,8.98-13.81,9.8h0ZM4.38,35.18c.52,1.4,1.67,3.31,4.21,4.16,2.32,.77,4.39,1.13,6.11,1.37,.56,.08,1.04,.42,1.3,.91,.26,.5,.28,1.09,.03,1.59-1.71,3.53-1.9,7.51-.58,11.51,3.06,9.22,12.58,18.14,21.87,16.72h0c9.29-1.42,15.7-12.78,15.85-22.5,.07-4.22-1.31-7.96-4-10.81-.38-.41-.55-.98-.45-1.53,.1-.55,.47-1.02,.97-1.26,1.57-.74,3.44-1.7,5.42-3.14,2.17-1.57,2.7-3.74,2.77-5.23-5.82,1.36-9.5,4.54-11.61,7.09-.51,.62-1.38,.81-2.11,.46-.3-.14-.64-.29-1.03-.45-1.16-.34-4.14-1.18-5.39-1.38-2.11-.26-4.24-.22-6.36,.1-1.64,.25-3.25,.68-4.79,1.26-2.36,.98-5.57,3.15-6.02,3.47-.33,.27-.61,.51-.85,.74-.59,.55-1.48,.63-2.15,.19-2.78-1.8-7.24-3.73-13.21-3.29Z" fill="#252525"/>
        <g>
          <g>
            <path d="M24.81,34.24c-.84-.38-20.57-9.6-24.81-26.02l3.4-.88c3.83,14.82,22.69,23.62,22.88,23.71l-1.46,3.19Z" fill="#252525"/>
            <path d="M14.41,25.62l-2.65-2.31c.15-.17,3.59-4.3,2.47-11.59l3.47-.53c1.38,8.99-3.11,14.22-3.3,14.44Z" fill="#252525"/>
          </g>
          <g>
            <path d="M38.14,32.26l-2.35-2.61c.16-.14,15.51-14.22,14.72-29.47l3.51-.18c.87,16.94-15.19,31.64-15.88,32.26Z" fill="#252525"/>
            <path d="M45.48,20.91c-.25-.15-6.09-3.8-7.47-12.78l3.47-.53c1.12,7.29,5.64,10.2,5.83,10.32l-1.83,2.99Z" fill="#252525"/>
          </g>
        </g>
        <path d="M25.87,51.73c-1.53,.24-2.97-.82-3.21-2.35s.82-2.97,2.35-3.21,2.97,.82,3.21,2.35-.82,2.97-2.35,3.21Z" fill="#252525"/>
        <path d="M36.44,65.59c-3.95,.6-7.49-1.14-7.91-3.9s2.43-5.48,6.38-6.09,7.49,1.14,7.91,3.9-2.43,5.48-6.38,6.09Z" fill="#c53928"/>
        <circle cx="41.94" cy="46.43" r="2.81" fill="#252525"/>
        <path d="M43.3,45.38c.06,.37-.2,.72-.57,.78s-.72-.2-.78-.57,.2-.72,.57-.77,.72,.2,.77,.57Z" fill="#fff"/>
        <path d="M26.67,47.93c.06,.37-.2,.72-.57,.78s-.72-.2-.78-.57,.2-.72,.57-.77,.72,.2,.77,.57Z" fill="#fff"/>
      </g>
      <path d="M44.96,40.31c-2.35-2.73-7.36-2.8-7.41-2.8l.02-2.2c.25,0,6.06,.08,9.06,3.56l-1.66,1.43Z" fill="#fff"/>
      <rect x="12.97" y="40.28" width="6.66" height="2.2" transform="translate(-6.08 2.95) rotate(-8.72)" fill="#252525"/>
      <rect x="22.03" y="39.14" width="3.43" height="2.2" transform="translate(-5.82 4.06) rotate(-8.72)" fill="#252525"/>
    </g>
  </g>
</svg>