<?xml version="1.0" encoding="UTF-8"?>
<svg id="Layer_2" data-name="Layer 2" xmlns="http://www.w3.org/2000/svg" viewBox="0 0 77.76 53.26">
  <g id="icons">
    <g>
      <g>
        <path d="M50.03,24.81h0c0,5.3-4.34,6.35-9.63,6.35h0c-5.3,0-9.63-4.33-9.63-9.63h0c0-6.93-4.36-13.1-10.89-15.42L5.67,1.76c2.47,6.4,5.69,21.52,4.69,34.73,0,3.44,2.79,6.23,6.23,6.23H57.03c3.44,0,6.23-2.79,6.23-6.23-1.99-9.98-3.32-16.29,0-23.24h-1.67c-6.38,0-11.55,5.17-11.55,11.55Z" fill="#d62027"/>
        <path d="M11.97,3.68s3.81,7.43,4.55,19.73c.73,12.29-.15,16.87,1.17,19.3,0,0-7.25,.89-7.17-9.21,.08-10.1-.79-22.22-2.56-26.27C6.18,3.19,5.67,1.02,5.67,1.02l6.3,2.66Z" fill="#e93d4a"/>
        <path d="M57.03,44.47H16.58c-4.4,0-7.98-3.58-7.98-7.98,0-.04,0-.09,0-.13,.96-12.74-2.1-27.53-4.58-33.97-.24-.63-.1-1.34,.35-1.83,.46-.49,1.16-.68,1.8-.48l14.21,4.34s.05,.02,.07,.02c7.21,2.56,12.06,9.42,12.06,17.07,0,4.34,3.53,7.88,7.88,7.88,6.56,0,7.88-1.76,7.88-4.59,0-7.34,5.97-13.31,13.31-13.31h1.67c.6,0,1.16,.31,1.49,.82,.32,.51,.36,1.15,.1,1.69-3.02,6.33-1.86,12.12,.06,21.73l.08,.41c.02,.11,.03,.23,.03,.34,0,4.4-3.58,7.98-7.98,7.98Zm-44.91-7.92c.03,2.44,2.02,4.41,4.47,4.41H57.03c2.41,0,4.38-1.92,4.47-4.31l-.05-.23c-1.76-8.8-2.99-14.96-.82-21.37-4.95,.48-8.84,4.67-8.84,9.75,0,3.09-1.3,5.41-3.77,6.71-1.79,.95-4.21,1.39-7.62,1.39-6.28,0-11.39-5.11-11.39-11.39s-3.89-11.68-9.69-13.75l-10.9-3.34c2.29,7.7,4.54,20.71,3.7,32.12Z" fill="#252525"/>
        <path d="M63.91,53.26H0v-3.51H63.88c3.97-.12,6.69-1.22,8.34-3.36,2.21-2.87,2.61-7.84,1.17-14.79h-5.47v-3.51h6.88c.82,0,1.53,.56,1.71,1.36,2.05,8.85,1.56,15.1-1.52,19.08-2.3,2.99-6.02,4.58-11.05,4.73h-.05Z" fill="#252525"/>
        <rect x="22.27" y="42.86" width="3.51" height="8.64" fill="#252525"/>
        <rect x="46.41" y="42.86" width="3.51" height="8.64" fill="#252525"/>
      </g>
      <path d="M56.42,31.6c-1.82-6.19-.83-10.58-.78-10.77l2.14,.5-1.07-.25,1.07,.25s-.89,4.06,.75,9.65l-2.11,.62Z" fill="#fff"/>
    </g>
  </g>
</svg>