<?xml version="1.0" encoding="UTF-8"?>
<svg id="Layer_2" data-name="Layer 2" xmlns="http://www.w3.org/2000/svg" viewBox="0 0 52.39 78.53">
  <g id="icons">
    <g>
      <path d="M50.42,63.05l-9.97-17.26c-.59-1.03,.15-2.32,1.34-2.32h1.35c1.19,0,1.93-1.29,1.34-2.32l-7.14-12.36c-.59-1.03,.15-2.32,1.34-2.32h0c1.19,0,1.93-1.29,1.34-2.32l-6.24-10.81L27.53,2.53c-.59-1.03-2.08-1.03-2.68,0l-6.24,10.81-6.24,10.81c-.59,1.03,.15,2.32,1.34,2.32s1.93,1.29,1.34,2.32l-7.14,12.36c-.59,1.03,.15,2.32,1.34,2.32h1.35c1.19,0,1.93,1.29,1.34,2.32L1.97,63.05c-.59,1.03,.15,2.32,1.34,2.32H21.38v9.88c0,.84,.69,1.54,1.54,1.54h6.55c.84,0,1.54-.69,1.54-1.54v-9.88h18.08c1.19,0,1.93-1.29,1.34-2.32Z" fill="#499f46"/>
      <path d="M11.66,42.76l9.71-16.1h-5.65L28.8,5.42c-.13-.54-.28-1.02-.44-1.46l-.83-1.43c-.59-1.03-2.08-1.03-2.68,0l-6.24,10.81-6.24,10.81c-.59,1.03,.15,2.32,1.34,2.32s1.93,1.29,1.34,2.32l-7.14,12.36c-.59,1.03,.15,2.32,1.34,2.32h1.35c1.19,0,1.93,1.29,1.34,2.32L1.97,63.05c-.59,1.03,.15,2.32,1.34,2.32h3.48l11.72-22.61h-6.85Z" fill="#67bc45"/>
      <rect x="21.37" y="64.65" width="9.63" height="10.59" fill="#cb803a"/>
      <path d="M29.47,78.53h-6.55c-1.81,0-3.29-1.48-3.29-3.29v-8.12H3.31c-1.19,0-2.26-.62-2.86-1.65s-.6-2.27,0-3.3l9.78-16.95h-.99c-1.19,0-2.26-.62-2.86-1.65-.6-1.03-.6-2.27,0-3.3l6.96-12.06c-1.05-.11-1.97-.7-2.5-1.63-.6-1.03-.6-2.27,0-3.3L23.33,1.65c.6-1.03,1.67-1.65,2.86-1.65s2.26,.62,2.86,1.65l12.49,21.63c.6,1.03,.6,2.27,0,3.3-.54,.93-1.46,1.52-2.5,1.63l6.96,12.06c.6,1.03,.6,2.27,0,3.3-.6,1.03-1.67,1.65-2.86,1.65h-.99l9.78,16.95c.6,1.03,.6,2.27,0,3.3s-1.67,1.65-2.86,1.65h-16.32v8.12c0,1.81-1.48,3.29-3.29,3.29Zm-6.33-3.51h6.11v-11.41h19.47l-9.78-16.95c-.6-1.03-.6-2.27,0-3.3,.6-1.03,1.67-1.65,2.86-1.65h.99l-6.95-12.04c-.6-1.03-.6-2.27,0-3.3,.54-.93,1.46-1.52,2.5-1.63L26.19,3.72,14.06,24.73c1.05,.11,1.97,.7,2.5,1.63,.6,1.03,.6,2.27,0,3.3l-6.95,12.04h.99c1.19,0,2.26,.62,2.86,1.65,.6,1.03,.6,2.27,0,3.3L3.67,63.61H23.14v11.41Z" fill="#252525"/>
      <rect x="21.01" y="63.55" width="10.74" height="2.2" fill="#252525"/>
      <rect x="9.69" y="41.66" width="15.09" height="2.2" fill="#252525"/>
      <rect x="28.8" y="41.66" width="3.33" height="2.2" fill="#252525"/>
      <rect x="25.71" y="25.56" width="11.67" height="2.2" fill="#252525"/>
      <rect x="19.67" y="25.56" width="3.56" height="2.2" fill="#252525"/>
      <rect x="28.4" y="10.82" width="2.19" height="11.49" transform="translate(-4.31 15.35) rotate(-27.26)" fill="#fff"/>
    </g>
  </g>
</svg>