<?xml version="1.0" encoding="UTF-8"?>
<svg id="Layer_2" data-name="Layer 2" xmlns="http://www.w3.org/2000/svg" viewBox="0 0 61.94 72.59">
  <g id="icons">
    <g>
      <rect x="2.22" y="15.07" width="54.26" height="13.1" rx="1.5" ry="1.5" transform="translate(-2.94 4.7) rotate(-8.72)" fill="#d62027"/>
      <path d="M58.07,64.16l-43.37,6.65c-1.36,.21-2.63-.72-2.84-2.08L6.2,31.8l48.29-7.4,5.66,36.93c.21,1.36-.72,2.63-2.08,2.84Z" fill="#d62027"/>
      <path d="M7.1,18.48l1.97,12.88,3.61-.55,6.04,39.39s-4.43,3.16-5.74,.25c-1.31-2.91-6.72-38.21-6.72-38.21,0,0-3.35,.08-3.61-1.6-.26-1.68-1.38-8.53-.89-9.89,.49-1.35,3.48-2.91,5.33-2.27Z" fill="#e93d4a"/>
      <path d="M55.94,25.95L5.28,33.71c-1.78,.27-3.44-.95-3.72-2.73L.04,21.01c-.27-1.78,.95-3.44,2.73-3.72l50.66-7.77c1.78-.27,3.44,.95,3.72,2.73l1.53,9.97c.27,1.78-.95,3.44-2.73,3.72ZM5,30.2l50.16-7.69-1.45-9.47L3.55,20.73l1.45,9.47Z" fill="#252525"/>
      <path d="M58.34,65.89l-43.37,6.65c-2.31,.35-4.48-1.24-4.84-3.55L4.2,30.33l51.76-7.94,5.93,38.66c.35,2.31-1.24,4.48-3.55,4.84ZM8.2,33.27l5.39,35.19c.06,.4,.44,.67,.83,.61l43.37-6.65c.4-.06,.68-.44,.61-.84l-5.39-35.19-44.82,6.87Z" fill="#252525"/>
      <rect x="28.02" y="27.87" width="10.7" height="39.85" transform="translate(-6.86 5.61) rotate(-8.72)" fill="#d3d3d3"/>
      <rect x="20.22" y="15.14" width="18.28" height="13.03" transform="translate(-2.94 4.7) rotate(-8.72)" fill="#d3d3d3"/>
      <path d="M43.68,68.14l-14.05,2.15-6.57-42.86,14.05-2.15,6.57,42.86Zm-11.11-1.85l7.11-1.09-5.51-35.91-7.11,1.09,5.51,35.91Z" fill="#252525"/>
      <path d="M41.39,28.18l-21.55,3.3-2.51-16.35,21.55-3.3,2.51,16.35Zm-18.61-.7l14.6-2.24-1.44-9.4-14.6,2.24,1.44,9.4Z" fill="#252525"/>
      <path d="M28.22,16.36c-1.12,.02-11.08,.12-14.94-3.9-1.15-1.19-1.7-2.67-1.59-4.28,.16-2.46,1.52-4.11,3.74-4.53,4.7-.87,12.34,4.39,15.15,10.45l-2.38,1.1,.02,1.15ZM16.15,7.1s-.05,0-.07,.01c-.34,.06-.81,.15-.88,1.3-.04,.63,.15,1.14,.62,1.63,1.68,1.76,6.21,2.56,9.82,2.77-2.9-3.64-7.39-6.03-9.5-5.7Z" fill="#252525"/>
      <path d="M30.63,15.99l-.32-1.11-2.6-.34C28.58,7.93,34.28,.6,39.03,.04c2.24-.27,4.04,.9,4.92,3.2,.58,1.5,.5,3.08-.24,4.56-2.48,5-12.01,7.88-13.08,8.2ZM39.38,3.53c-2.1,.32-5.67,3.94-7.35,8.29,3.38-1.29,7.46-3.4,8.54-5.58,.3-.61,.34-1.14,.11-1.74-.41-1.07-.88-1.02-1.23-.97-.02,0-.05,0-.07,0Z" fill="#252525"/>
      <rect x="50.07" y="30.65" width="2.2" height="11.76" transform="translate(-4.94 8.18) rotate(-8.72)" fill="#fff"/>
      <rect x="11.33" y="63.78" width="9.26" height="2.2" transform="translate(-9.65 3.17) rotate(-8.72)" fill="#252525"/>
      <rect x="22.86" y="62.52" width="2.55" height="2.2" transform="translate(-9.36 4.39) rotate(-8.72)" fill="#252525"/>
    </g>
  </g>
</svg>