<?xml version="1.0" encoding="UTF-8"?>
<svg id="Layer_2" data-name="Layer 2" xmlns="http://www.w3.org/2000/svg" viewBox="0 0 54.54 73.6">
  <g id="icons">
    <g>
      <g>
        <g>
          <path d="M47.98,46.9l-2.84,.71-5.08-20.2c-2.1-8.35-10.64-13.46-18.99-11.36l-.19,.05c-8.35,2.1-13.46,10.64-11.36,18.99l5.08,20.2-2.84,.71c-2.04,.51-3.29,2.6-2.78,4.64l.05,.18c.51,2.04,2.6,3.29,4.64,2.78l36.22-9.1c2.04-.51,3.29-2.6,2.78-4.64l-.05-.18c-.51-2.04-2.6-3.29-4.64-2.78Z" fill="#e1b62a"/>
          <path d="M19.59,17.03s-7.44,4.39-5.28,14.81c2.16,10.43,6.26,22.75,4.86,24.57-1.39,1.81-5.14,2.22-3.65,6,1.49,3.78-6.55,1.8-6.21-2.06,.34-3.86,4.7-4.57,4.55-8.53-.15-3.96-8.59-20.4-4.32-26.39,4.27-6,7.73-8.75,10.05-8.39Z" fill="#fbdd8a"/>
          <path d="M50.32,56.21l-36.22,9.1c-2.98,.75-6.02-1.07-6.77-4.05l-.05-.18c-.75-2.99,1.07-6.02,4.05-6.77,.63-.16,1.01-.8,.85-1.42l-4.36-17.36c-2.34-9.31,3.33-18.78,12.64-21.12l.19-.05c9.31-2.34,18.78,3.33,21.12,12.64l4.36,17.36c.16,.63,.8,1.01,1.42,.85,2.99-.75,6.02,1.07,6.77,4.05l.05,.18c.75,2.99-1.07,6.02-4.05,6.77ZM21.31,17.8c-7.43,1.87-11.95,9.43-10.09,16.86l4.36,17.36c.63,2.51-.9,5.06-3.4,5.69-1.11,.28-1.78,1.41-1.5,2.51l.05,.18c.28,1.11,1.41,1.78,2.51,1.5l36.22-9.1c1.11-.28,1.78-1.4,1.5-2.51l-.05-.18c-.28-1.11-1.41-1.78-2.51-1.5-2.51,.63-5.06-.9-5.69-3.4l-4.36-17.36c-1.87-7.43-9.43-11.95-16.86-10.09l-.19,.05Z" fill="#252525"/>
          <rect x="30.65" y="58.98" width="3.51" height="5.15" transform="translate(-14.02 9.75) rotate(-14.11)" fill="#252525"/>
          <path d="M37.89,66.84c.54,2.16-.77,4.34-2.92,4.89s-4.34-.77-4.89-2.92,.77-4.34,2.92-4.89c2.16-.54,4.34,.77,4.89,2.92Z" fill="#df8d2b"/>
          <path d="M35.39,73.43c-3.09,.78-6.24-1.11-7.02-4.2s1.11-6.24,4.2-7.02c3.09-.78,6.24,1.11,7.02,4.2s-1.11,6.24-4.2,7.02Zm-1.96-7.81c-1.21,.31-1.95,1.54-1.65,2.76s1.54,1.95,2.76,1.65,1.95-1.54,1.65-2.76-1.54-1.95-2.76-1.65Z" fill="#252525"/>
        </g>
        <rect x="10.88" y="53.32" width="17.66" height="2.2" transform="translate(-12.67 6.44) rotate(-14.11)" fill="#252525"/>
        <rect x="31.17" y="50.11" width="2.61" height="2.2" transform="translate(-11.5 9.46) rotate(-14.11)" fill="#252525"/>
        <path d="M21.09,17.84c-1.15,.13-11.35,1.2-15.69-2.55-1.28-1.11-1.98-2.56-2.03-4.2-.08-2.52,1.15-4.32,3.36-4.96,4.72-1.35,13.06,3.31,16.52,9.25l-2.29,1.34,.13,1.13ZM7.77,9.48s-.05,.01-.08,.02c-.34,.1-.86,.25-.82,1.48,.02,.67,.27,1.18,.82,1.65,2.07,1.79,7.16,2.01,10.54,1.89-3.36-3.58-8.24-5.6-10.46-5.04Z" fill="#252525"/>
        <path d="M23.52,17.23l-.42-1.06-2.65-.1c.25-6.87,5.39-14.93,10.19-15.96,2.25-.49,4.19,.53,5.31,2.78,.73,1.47,.8,3.09,.2,4.67-2.05,5.35-11.55,9.24-12.62,9.66ZM31.3,3.57c-2.22,.56-5.57,4.65-6.84,9.4,3.39-1.65,7.49-4.27,8.4-6.66,.26-.67,.24-1.24-.06-1.84-.55-1.1-1.07-.99-1.42-.91-.03,0-.05,.01-.08,.02Z" fill="#252525"/>
        <path d="M3.32,29.42l-3.32-1.13c3.46-10.17,19.99-14.5,20.69-14.68l.87,3.4c-.2,.05-15.39,4.05-18.23,12.41Zm18.23-12.41l-.43-1.7,.44,1.7h0Z" fill="#252525"/>
      </g>
      <path d="M33.52,26.8c-4.31-6.05-8.62-5.77-8.8-5.76l-.21-2.19c.23-.02,5.71-.49,10.8,6.67l-1.79,1.27Z" fill="#fff"/>
    </g>
  </g>
</svg>