<?xml version="1.0" encoding="UTF-8"?>
<svg id="Layer_2" data-name="Layer 2" xmlns="http://www.w3.org/2000/svg" viewBox="0 0 74.32 67.56">
  <g id="icons">
    <g>
      <g>
        <g>
          <rect x="1.39" y="40.91" width="52.14" height="14.38" rx="2.1" ry="2.1" transform="translate(25.39 -7.25) rotate(27.58)" fill="#d3d3d3"/>
          <rect x=".7" y="35.44" width="13.19" height="5.6" transform="translate(-29.98 27) rotate(-62.42)" fill="#fff"/>
          <path d="M44.56,67.13L2.07,44.93c-1.88-.98-2.62-3.32-1.63-5.2l4.71-9.03c.98-1.88,3.32-2.62,5.2-1.63l42.49,22.2c1.88,.98,2.62,3.32,1.63,5.2l-4.71,9.03c-.98,1.88-3.32,2.62-5.2,1.63ZM8.73,32.19c-.17-.09-.37-.02-.46,.14l-4.71,9.03c-.09,.17-.02,.37,.14,.46l42.49,22.2c.17,.09,.37,.02,.46-.14l4.71-9.03c.09-.17,.02-.37-.14-.46L8.73,32.19Z" fill="#252525"/>
          <g>
            <path d="M71.18,21.59s4.6-14.44-16.87-19.34C32.84-2.65,8.91,30.3,8.91,30.3l43.91,22.93c3.63-5.53,3.59-17.07,3.84-22.52,.24-5.45,6.03-7.75,6.03-7.75l8.5-1.38Z" fill="#d62027"/>
            <path d="M46.58,8.68c15.48-3.56,24.78,7.15,24.78,7.15-.72-2.92-2.36-5.66-4.7-7.94-2.6-2.26-6.51-4.3-12.35-5.64-4.02-.92-8.13-.51-12.16,.77,0,0-.01,0-.02,0-.22,.07-.44,.14-.66,.22-.15,.05-.29,.1-.44,.15-.03,0-.06,.02-.09,.03C26.12,8.82,8.91,30.3,8.91,30.3l6.94,3.07S31.1,12.23,46.58,8.68Z" fill="#e93d4a"/>
            <path d="M53.41,55.53L6.29,30.91l1.2-1.65c.25-.34,6.2-8.48,14.91-16.15,5.16-4.54,10.22-7.96,15.03-10.15C43.61,.15,49.42-.67,54.7,.54c8.23,1.88,13.84,5.34,16.67,10.3,3.22,5.63,1.55,11.05,1.48,11.28l-3.35-1.06c.05-.17,1.26-4.26-1.21-8.53-2.34-4.04-7.18-6.93-14.37-8.57C36.48-.01,16.67,23.26,11.57,29.71l40.54,21.17c2.25-4.84,2.53-13.06,2.71-18.16,.03-.76,.05-1.46,.08-2.08,.29-6.5,6.85-9.19,7.13-9.3l1.3,3.26s-4.74,1.98-4.92,6.2c-.03,.61-.05,1.3-.08,2.05-.22,6.39-.55,16.04-4.04,21.36l-.87,1.33Z" fill="#252525"/>
            <path d="M71.92,28.94c-1.44,2.76-4.84,3.83-7.6,2.39s-3.83-4.84-2.39-7.6c1.44-2.76,4.84-3.83,7.6-2.39s3.83,4.84,2.39,7.6Z" fill="#d3d3d3"/>
            <path d="M68.51,21.74s-2.53,.51-3.1,3.8c-.57,3.29,3.69,5.27,3.69,5.27,0,0-4.42,2.12-5.85-1.75-1.43-3.87-3.02-4.09-.97-5.91,2.04-1.81,5.76-1.87,6.23-1.41Z" fill="#fff"/>
            <path d="M63.51,32.89c-3.61-1.89-5.02-6.36-3.13-9.97,1.89-3.61,6.36-5.02,9.97-3.13s5.02,6.36,3.13,9.97c-1.89,3.61-6.36,5.02-9.97,3.13Zm5.22-9.99c-1.9-.99-4.24-.25-5.23,1.64-.99,1.9-.25,4.24,1.64,5.23s4.24,.25,5.23-1.64c.99-1.9,.25-4.24-1.64-5.23Z" fill="#252525"/>
          </g>
        </g>
        <rect x="53.12" y="21.56" width="2.2" height="7.79" transform="translate(6.55 61.73) rotate(-62.42)" fill="#252525"/>
        <rect x="44.92" y="19.43" width="2.2" height="3.48" transform="translate(5.95 52.15) rotate(-62.42)" fill="#252525"/>
      </g>
      <path d="M38.69,13.14l-1.06-1.92c9.37-5.14,16.45-4.35,16.75-4.31l-.26,2.18c-.07,0-6.72-.72-15.43,4.05Z" fill="#fff"/>
    </g>
  </g>
</svg>