<?xml version="1.0" encoding="UTF-8"?>
<svg id="Layer_2" data-name="Layer 2" xmlns="http://www.w3.org/2000/svg" viewBox="0 0 46.18 67.9">
  <g id="icons">
    <g>
      <g>
        <path d="M40.13,1.76H16.22v30.87l-11.67,13.99c-9.79,11.73,8.58,27.05,18.36,15.32l17.22-20.66V1.76Z" fill="#499f46"/>
        <path d="M21.76,15.77v19.04c0,.77-.27,1.52-.77,2.11L2.82,58.48s-2.36-4.48-.52-7.91c1.84-3.43,13.92-17.94,13.92-17.94v-15.81l5.54-1.04Z" fill="#67bc45"/>
        <path d="M14.43,67.9h0c-5.38,0-10.8-3.56-13.19-8.65-2.17-4.65-1.46-9.66,1.96-13.76l11.27-13.5V1.76c0-.97,.79-1.76,1.76-1.76h23.91c.97,0,1.76,.79,1.76,1.76V41.28c0,.41-.14,.81-.41,1.12l-17.22,20.66c-2.64,3.16-6.04,4.84-9.83,4.84ZM17.97,3.51v29.11c0,.41-.14,.81-.41,1.12l-11.67,13.99c-3.44,4.12-2.4,8.05-1.47,10.02,1.82,3.9,5.94,6.62,10.01,6.62h0c2.72,0,5.18-1.24,7.13-3.57l16.82-20.17V3.51H17.97Z" fill="#252525"/>
        <rect x="12.16" y="1.76" width="32.26" height="14.02" fill="#999998"/>
        <rect x="12.16" y="1.76" width="6.3" height="14.02" fill="#fff"/>
        <path d="M44.42,17.53H12.16c-.97,0-1.76-.79-1.76-1.76V1.76c0-.97,.79-1.76,1.76-1.76H44.42c.97,0,1.76,.79,1.76,1.76V15.77c0,.97-.79,1.76-1.76,1.76Zm-30.51-3.51h28.75V3.51H13.91V14.02Z" fill="#252525"/>
      </g>
      <rect x="16.22" y="31.88" width="7.46" height="2.19" fill="#252525"/>
      <rect x="26.24" y="31.88" width="3" height="2.19" fill="#252525"/>
      <rect x="32.97" y="20.43" width="2.19" height="12.07" fill="#fff"/>
    </g>
  </g>
</svg>