<?xml version="1.0" encoding="UTF-8"?>
<svg id="Layer_2" data-name="Layer 2" xmlns="http://www.w3.org/2000/svg" viewBox="0 0 50.23 67.57">
  <g id="icons">
    <g>
      <path d="M22.48,19.56l1.98-7.16c.91-3.28,17.58,1.34,16.68,4.62l-1.9,6.87-16.76-4.33Z" fill="#d62027"/>
      <path d="M29.99,11.71l-2.07,7.47s-3.96,.72-4.65-.67c-.7-1.39,.44-5.91,.62-6.15,.18-.24,6.1-.65,6.1-.65Z" fill="#e93d4a"/>
      <circle cx="25.11" cy="42.46" r="23.35" fill="#d62027"/>
      <path d="M29.16,19.46s-15.01,2.18-20.94,15.97c-5.93,13.78,6.45,28.37,6.45,28.37,0,0-15.31-14.39-12.27-26.81,3.04-12.42,15.96-18.86,26.75-17.53Z" fill="#e93d4a"/>
      <path d="M18.41,66.66C5.06,62.96-2.78,49.1,.91,35.76c3.7-13.34,17.56-21.19,30.9-17.49,13.34,3.7,21.19,17.56,17.49,30.9-3.7,13.34-17.56,21.19-30.9,17.49ZM30.88,21.65c-11.48-3.18-23.4,3.57-26.58,15.05-3.18,11.48,3.57,23.4,15.05,26.58,11.48,3.18,23.4-3.57,26.58-15.05,3.18-11.48-3.57-23.4-15.05-26.58Z" fill="#252525"/>
      <path d="M41.67,46.37c1.33-10.4-3.66-15.03-3.71-15.08l1.47-1.63c.24,.22,5.89,5.46,4.41,16.98l-2.18-.28Z" fill="#fff"/>
      <rect x="8.16" y="48.49" width="2.2" height="10.38" transform="translate(-44.94 48.27) rotate(-74.51)" fill="#252525"/>
      <rect x="17.13" y="54.74" width="2.2" height="2.84" transform="translate(-40.76 58.73) rotate(-74.51)" fill="#252525"/>
      <path d="M24.17,20.03l-3.38-.94,1.98-7.16c1.04-3.75,8.16-2.21,11.18-1.37s9.92,3.18,8.88,6.93l-1.9,6.87-3.39-.94,1.82-6.57c-.52-.6-2.65-1.88-6.35-2.91s-6.19-1.02-6.94-.77l-1.9,6.86Z" fill="#252525"/>
      <path d="M39.69,14.39l-3.38-.94,1.69-6.09c.45-1.62-.5-3.3-2.12-3.75s-3.3,.5-3.75,2.12l-1.68,6.05-3.39-.94,1.68-6.05c.97-3.48,4.58-5.53,8.07-4.57s5.53,4.58,4.57,8.07l-1.69,6.09Z" fill="#252525"/>
      <path d="M23.58,31.18c-.61,2.22-2.91,3.51-5.12,2.9-2.22-.61-3.51-2.91-2.9-5.12s2.91-3.51,5.12-2.9,3.51,2.91,2.9,5.12Z" fill="#fff"/>
      <polygon points="33.52 58.12 28.49 54.6 22.44 55.67 24.24 49.79 21.35 44.37 27.49 44.26 31.76 39.84 33.76 45.65 39.28 48.34 34.37 52.04 33.52 58.12" fill="#fff"/>
    </g>
  </g>
</svg>