<?xml version="1.0" encoding="UTF-8"?>
<svg id="Layer_2" data-name="Layer 2" xmlns="http://www.w3.org/2000/svg" viewBox="0 0 54.35 77.01">
  <g id="icons">
    <g>
      <g>
        <g>
          <g>
            <path d="M43.86,67.93c1.87,2.04,5.06,2.19,7.11,.32,2.04-1.86,2.19-5.06,.32-7.11l-6.01-6.58-7.35,6.88,5.92,6.49Z" fill="#f3b383"/>
            <path d="M10.85,68.32c-1.05,2.56,.19,5.51,2.75,6.56,2.56,1.05,5.51-.19,6.56-2.75l3.2-7.82-9.26-3.93-3.25,7.94Z" fill="#f3b383"/>
            <path d="M16.68,76.91h0c-1.26,.22-2.56,.09-3.74-.4-3.46-1.42-5.13-5.39-3.71-8.85l3.92-9.59,12.5,5.3-3.86,9.43c-.88,2.16-2.79,3.7-5.11,4.11Zm-1.63-14.22l-2.58,6.3c-.33,.8-.32,1.69,.02,2.5,.34,.81,.97,1.44,1.77,1.77,.57,.23,1.19,.3,1.8,.19h0c1.12-.2,2.05-.94,2.47-1.98l2.55-6.22-6.03-2.56Z" fill="#252525"/>
            <path d="M48.77,71.21h0c-2.31,.41-4.64-.37-6.21-2.1l-7.22-7.91,10.85-8.24,6.39,7c1.22,1.33,1.84,3.07,1.76,4.88-.08,1.81-.86,3.48-2.2,4.7-.95,.86-2.11,1.44-3.38,1.66Zm-8.25-9.54l4.63,5.07c.76,.83,1.88,1.21,3,1.01,.61-.11,1.17-.38,1.62-.8,.64-.59,1.02-1.39,1.06-2.27,.04-.88-.26-1.72-.85-2.36l-4.23-4.63-5.24,3.98Z" fill="#252525"/>
            <path d="M42.52,22.89l-10.01,1.78c2.73-3.04,4.09-7.25,3.32-11.59C34.51,5.62,27.39,.64,19.92,1.97c-7.46,1.32-12.44,8.45-11.11,15.91,.77,4.33,3.49,7.82,7.11,9.73l-10.01,1.78c-2.72,.48-4.56,3.11-4.07,5.83h0c.48,2.72,3.11,4.56,5.83,4.07l8.76-1.56,2.1,11.82-4.43,10.82,9.26,3.93,5.32-13,9.73,10.66,7.74-6.45-8.54-9.35-2.1-11.82,8.76-1.56c2.72-.48,4.56-3.11,4.07-5.83h0c-.48-2.72-3.11-4.56-5.83-4.07Z" fill="#cb803a"/>
            <path d="M23.02,67.62c-.37,.07-.75,.01-1.09-.16l-9.02-4.52c-.82-.41-1.19-1.39-.84-2.24l4.64-11.34-1.7-9.59-7.03,1.25c-3.68,.65-7.21-1.81-7.87-5.5s1.81-7.22,5.5-7.87l5.95-1.06c-2.32-2.23-3.89-5.15-4.47-8.42C5.59,9.78,11.21,1.73,19.62,.24c8.4-1.49,16.45,4.13,17.95,12.53,.58,3.26,.11,6.55-1.3,9.44l5.95-1.06c3.68-.65,7.21,1.81,7.87,5.5s-1.81,7.21-5.5,7.87l-7.03,1.25,1.7,9.59,8.19,8.97c.32,.35,.49,.82,.46,1.3-.03,.48-.26,.92-.63,1.23l-7.74,6.45c-.72,.6-1.79,.53-2.42-.17l-7.86-8.61-4.92,12.02c-.19,.45-.55,.81-1.01,.98-.1,.04-.21,.07-.31,.08Zm-7.09-7.09l5.87,2.94,5.25-12.83c.23-.56,.73-.96,1.32-1.06s1.2,.1,1.6,.55l8.6,9.42,5.04-4.2-7.3-7.99c-.22-.25-.37-.55-.43-.88l-2.1-11.82c-.17-.95,.47-1.87,1.42-2.04l8.76-1.56c1.78-.32,2.97-2.02,2.65-3.8s-2.02-2.97-3.8-2.65l-10.01,1.78c-.74,.13-1.48-.22-1.84-.88-.36-.66-.27-1.47,.23-2.03,2.49-2.77,3.55-6.45,2.9-10.1-1.15-6.5-7.38-10.84-13.87-9.69-6.5,1.15-10.84,7.38-9.69,13.87,.65,3.65,2.91,6.75,6.2,8.49,.66,.35,1.03,1.08,.91,1.82-.12,.74-.69,1.33-1.43,1.46l-10.01,1.78c-1.78,.32-2.97,2.02-2.65,3.8s2.02,2.97,3.8,2.65l8.76-1.56c.96-.17,1.87,.47,2.04,1.42l2.1,11.82c.06,.33,.02,.66-.1,.97l-4.22,10.3Z" fill="#252525"/>
          </g>
          <g>
            <path d="M18.58,14.32c.15,.83-.41,1.63-1.24,1.78s-1.63-.41-1.78-1.24,.41-1.63,1.24-1.78,1.63,.41,1.78,1.24Z" fill="#252525"/>
            <path d="M28.46,12.57c.15,.83-.41,1.63-1.24,1.78s-1.63-.41-1.78-1.24,.41-1.63,1.24-1.78,1.63,.41,1.78,1.24Z" fill="#252525"/>
          </g>
          <path d="M23.61,22.75c-2.16,.38-4.46-.07-6.85-1.37-.53-.29-.73-.96-.44-1.49,.29-.53,.96-.73,1.49-.44,3.88,2.11,7.19,1.52,10.14-1.8,.4-.45,1.1-.5,1.55-.09,.45,.4,.5,1.1,.09,1.55-1.81,2.04-3.82,3.26-5.98,3.64Z" fill="#252525"/>
          <path d="M26.6,30.75c.15,.83-.41,1.63-1.24,1.78s-1.63-.41-1.78-1.24,.41-1.63,1.24-1.78,1.63,.41,1.78,1.24Z" fill="#fff"/>
          <path d="M28.22,39.89c.15,.83-.41,1.63-1.24,1.78s-1.63-.41-1.78-1.24,.41-1.63,1.24-1.78,1.63,.41,1.78,1.24Z" fill="#fff"/>
        </g>
        <rect x="36.24" y="26.85" width="6.44" height="2.2" transform="translate(-4.28 7.33) rotate(-10.07)" fill="#fff"/>
      </g>
      <rect x="16.95" y="35.52" width="5.13" height="2.2" transform="translate(-6.1 3.98) rotate(-10.07)" fill="#252525"/>
      <rect x="23.87" y="34.5" width="2.88" height="2.2" transform="translate(-5.83 4.97) rotate(-10.07)" fill="#252525"/>
    </g>
  </g>
</svg>