<?xml version="1.0" encoding="UTF-8"?>
<svg id="Layer_2" data-name="Layer 2" xmlns="http://www.w3.org/2000/svg" viewBox="0 0 60.38 63.57">
  <g id="icons">
    <g>
      <g>
        <g>
          <path d="M5.91,61.35c3.37,1.34,7.2-.31,8.54-3.69L29.31,20.21c1.68-4.24,6.69-6.4,10.93-4.72,4.24,1.68,6.4,6.69,4.72,10.93l-2.61,6.57c-1.34,3.38,.31,7.2,3.69,8.54h0c3.37,1.34,7.2-.31,8.54-3.69l2.5-6.31c4.37-11.01-.76-23.64-11.71-28.16-11.09-4.58-23.87,.86-28.28,11.98L2.22,52.81c-1.34,3.38,.31,7.2,3.69,8.54h0Z" fill="#d62027"/>
          <path d="M43.57,2.73c-8.18-2.56-16.96,.06-22.48,6.19-1.49,2.08-2.95,4.6-4.37,7.37L3.09,50.62s0,0,0,0c-.71,1.8-1.13,3.36-1.33,4.73,.04,2.12,1.11,4.13,2.9,5.34,3.05-8.94,13.59-39.01,20.08-47.53,7.65-10.05,20.82-8.49,20.82-8.49-.3-.7-.99-1.37-1.98-1.94Z" fill="#e93d4a"/>
          <g>
            <rect x="5.83" y="40.74" width="10.07" height="13.28" transform="translate(-37.18 40) rotate(-68.35)" fill="#d3d3d3"/>
            <rect x="13.11" y="22.41" width="10.07" height="13.28" transform="translate(-15.55 35.2) rotate(-68.35)" fill="#d3d3d3"/>
            <rect x="22.6" y="5.31" width="10.07" height="13.28" transform="translate(-.42 22.87) rotate(-44.66)" fill="#d3d3d3"/>
            <g>
              <path d="M6.55,40.25l-3.72,9.36,.56,.22,4.45,1.77c1.04-2.88,2.22-6.11,3.49-9.45l-4.51-1.79-.27-.11Z" fill="#fff"/>
              <path d="M13.83,21.92l-3.72,9.36,.06,.02,4.68,1.86c1.32-3.24,2.66-6.39,3.98-9.26l-4.82-1.91-.18-.07Z" fill="#fff"/>
              <path d="M20.7,9.47l-1.31,1.29,.28,.28,3.85,3.89c.42-.66,.83-1.26,1.22-1.78,1.77-2.33,3.84-4.03,5.97-5.28l-4.15-4.2-5.86,5.79Z" fill="#fff"/>
              <path d="M44.43,3.31l-.87,1.27c1.24,0,1.99,.09,1.99,.09-.21-.47-.59-.93-1.12-1.36Z" fill="#fff"/>
            </g>
            <rect x="38.7" y="5.55" width="13.7" height="10.07" transform="translate(11.07 42.18) rotate(-55.58)" fill="#d3d3d3"/>
            <rect x="46.41" y="21.16" width="10.07" height="13.28" transform="translate(12.3 71.25) rotate(-76.36)" fill="#d3d3d3"/>
          </g>
          <path d="M8.33,63.57h0c-1.05,0-2.09-.2-3.07-.59-4.27-1.69-6.37-6.55-4.67-10.82L15.45,14.71c1.75-4.42,4.78-8.15,8.75-10.78,3.87-2.57,8.37-3.93,12.99-3.93,3.04,0,6.02,.59,8.84,1.76,11.73,4.84,17.42,18.49,12.68,30.43l-2.5,6.31c-1.27,3.2-4.31,5.26-7.75,5.26-1.05,0-2.09-.2-3.07-.59-2.07-.82-3.69-2.4-4.58-4.44-.88-2.04-.92-4.31-.09-6.38l2.61-6.57c.64-1.62,.6-3.42-.12-5.08-.72-1.66-2-2.93-3.62-3.57-.75-.3-1.55-.45-2.37-.45-2.77,0-5.29,1.68-6.29,4.18l-14.87,37.45c-1.27,3.19-4.31,5.26-7.74,5.26ZM37.19,3.51c-8.08,0-15.51,5.02-18.47,12.5L3.85,53.46c-.98,2.47,.23,5.28,2.7,6.26,.57,.23,1.17,.34,1.78,.34h0c1.99,0,3.75-1.19,4.48-3.04L27.68,19.56c1.52-3.83,5.36-6.4,9.55-6.4,1.26,0,2.5,.23,3.66,.7,2.49,.99,4.46,2.92,5.55,5.44,1.09,2.52,1.15,5.28,.16,7.77l-2.61,6.57c-.47,1.2-.46,2.51,.05,3.69,.51,1.18,1.45,2.09,2.65,2.57,.57,.23,1.17,.34,1.78,.34,1.99,0,3.75-1.19,4.48-3.04l2.5-6.31c4.04-10.16-.79-21.78-10.75-25.89-2.4-.99-4.92-1.49-7.5-1.49Z" fill="#252525"/>
        </g>
        <rect x="5.27" y="45.87" width="5.6" height="2.2" fill="#252525"/>
        <rect x="13.24" y="45.87" width="2.56" height="2.2" fill="#252525"/>
      </g>
      <path d="M54.67,26.86l-2.19-.18c.7-8.55-3.81-13.97-3.85-14.02l1.67-1.42c.21,.25,5.14,6.13,4.37,15.63Z" fill="#fff"/>
    </g>
  </g>
</svg>