<?xml version="1.0" encoding="UTF-8"?>
<svg id="Layer_2" data-name="Layer 2" xmlns="http://www.w3.org/2000/svg" viewBox="0 0 56.68 72.66">
  <g id="icons">
    <g>
      <g>
        <path d="M44.99,48.32c-2.3,11.01-13.09,18.07-24.1,15.77-11.01-2.3-18.07-13.09-15.77-24.1,2.3-11.01,13.09-18.07,24.1-15.77,11.01,2.3,18.07,13.09,15.77,24.1Z" fill="#fcd2be"/>
        <path d="M24.99,23.79s11.36,4.64,8.83,22.2c-2.52,17.56-12,18.28-12,18.28,0,0,13.81,3.06,20.52-10.13,6.71-13.19,.57-30.1-17.36-30.35Z" fill="#f2beaa"/>
        <path d="M20.53,65.81C8.59,63.32,.91,51.57,3.4,39.63c2.49-11.94,14.24-19.63,26.18-17.13,11.94,2.49,19.63,14.24,17.13,26.18-2.49,11.94-14.24,19.63-26.18,17.13ZM28.86,25.94c-10.04-2.1-19.92,4.37-22.02,14.41-2.1,10.04,4.37,19.92,14.41,22.02,10.05,2.1,19.92-4.37,22.02-14.41,2.1-10.05-4.37-19.92-14.41-22.02Z" fill="#252525"/>
        <g>
          <path d="M20.66,41.74c-.24,1.14-1.36,1.88-2.5,1.64-1.14-.24-1.88-1.36-1.64-2.5s1.36-1.87,2.5-1.64,1.87,1.36,1.64,2.5Z" fill="#252525"/>
          <path d="M34.18,44.56c-.24,1.14-1.36,1.88-2.5,1.64s-1.88-1.36-1.64-2.5,1.36-1.87,2.5-1.64,1.87,1.36,1.64,2.5Z" fill="#252525"/>
        </g>
        <path d="M43.47,53.98c-2.2-1.98-3.69-2.05-6.99-1.54-3.31,.5-4.72,.62-6.54-1.37-1.82-1.99-4.86-1.55-4.86-1.55-.59,.04-1.23,.46-1.23,.46,0,0-.42-.64-.95-.91,0,0-2.62-1.62-5.08-.52-2.46,1.09-3.71,.42-6.54-1.37-2.83-1.78-4.22-2.32-7.03-1.38-2.81,.94-3.79,4.6,.02,7.07,3.81,2.46,.21,6.42,5.78,9.42,5.57,3.01,3.92,7.19,9.46,8.47,5.59,1.05,5.75-3.44,12.06-3.97,6.3-.53,4.59-5.59,9.06-6.33,4.48-.73,5.05-4.48,2.85-6.47Z" fill="#d3d3d3"/>
        <path d="M10.47,46.68s-3.49,.43-2.36,3.29c1.13,2.86,3.86,3.19,4.1,6.33,.24,3.15,2.02,4.89,4.98,6.4,2.96,1.51,3.24,6.16,5.99,6.67,2.75,.51-2.69,1.76-4.36,.64-1.67-1.12-7.54-6.28-9.9-8.44-2.36-2.16-2.41-5.97-4.48-8.26-2.07-2.29-5.77-2.8-2.4-5.56,3.36-2.76,6.19-3.12,8.44-1.07Z" fill="#fff"/>
        <path d="M19.14,72.46h-.03c-3.66-.85-4.9-2.88-6-4.68-.88-1.43-1.7-2.78-3.9-3.96-3.83-2.07-4.23-4.74-4.52-6.69-.22-1.47-.36-2.15-1.37-2.8C.95,52.8-.24,50.64,.04,48.41c.25-1.98,1.65-3.62,3.65-4.29,1.67-.55,3-.68,4.33-.4,1.34,.28,2.55,.93,4.19,1.96,1.35,.85,2.3,1.42,3.05,1.58,.39,.08,.88,.1,1.85-.33,1.24-.55,2.63-.68,4.11-.37,1.31,.27,2.29,.81,2.55,.97,.19,.1,.36,.22,.52,.35,.2-.05,.4-.09,.61-.11,.3-.04,1.41-.14,2.73,.13,1.48,.31,2.7,.97,3.62,1.98,.71,.78,1.17,.96,1.56,1.04,.75,.16,1.84,.01,3.42-.23,1.92-.29,3.29-.4,4.63-.12,1.33,.28,2.5,.92,3.8,2.1,1.57,1.41,2.19,3.48,1.63,5.39-.63,2.16-2.59,3.66-5.37,4.12-1.19,.19-1.59,.76-2.38,2.02-1.05,1.67-2.49,3.96-6.82,4.32-2.49,.21-3.79,1.11-5.16,2.07-1.73,1.2-3.68,2.57-7.37,1.88h-.04ZM7.3,47.16c-.7-.15-1.43-.06-2.5,.3-.71,.23-1.19,.77-1.27,1.4-.11,.84,.51,1.76,1.69,2.53,2.38,1.54,2.69,3.59,2.94,5.23,.25,1.68,.43,2.89,2.72,4.13,3.03,1.64,4.25,3.62,5.22,5.22,.98,1.6,1.57,2.56,3.76,3.07,2.22,.41,3.14-.24,4.68-1.31,1.53-1.07,3.44-2.4,6.87-2.69,2.59-.22,3.24-1.26,4.14-2.69,.88-1.41,1.98-3.16,4.78-3.62,1.39-.23,2.32-.83,2.56-1.64,.18-.61-.06-1.29-.61-1.79-.84-.76-1.47-1.12-2.17-1.27-.82-.17-1.9-.07-3.38,.16-1.96,.3-3.34,.47-4.67,.19s-2.34-.92-3.43-2.11c-.41-.45-1-.76-1.74-.91-.85-.18-1.58-.09-1.59-.09h-.12c-.07,.02-.27,.12-.4,.2l-1.49,.97-.92-1.48c-.08-.11-.23-.28-.3-.33l-.1-.06h0s-.63-.37-1.48-.55c-.74-.16-1.4-.11-1.96,.14-1.48,.66-2.71,.83-3.99,.56s-2.52-.99-4.2-2.04c-1.27-.8-2.22-1.33-3.04-1.5Z" fill="#252525"/>
        <g>
          <g>
            <rect x="6.35" y="26.37" width="41.53" height="11.45" rx="1.67" ry="1.67" transform="translate(7.13 -4.86) rotate(11.79)" fill="#d3d3d3"/>
            <rect x="4.27" y="26.68" width="10.51" height="4.46" transform="translate(-20.73 32.33) rotate(-78.21)" fill="#fff"/>
            <path d="M44.28,43.33L6.89,35.53c-1.85-.39-3.04-2.21-2.65-4.06l1.66-7.94c.39-1.85,2.21-3.04,4.06-2.65l37.39,7.81c1.85,.39,3.04,2.21,2.65,4.06l-1.66,7.94c-.39,1.85-2.21,3.04-4.05,2.66ZM7.69,32.1l37.22,7.77,1.62-7.77L9.32,24.33l-1.62,7.77Z" fill="#252525"/>
            <g>
              <path d="M52.66,12.97s.39-12.07-17.12-11.17C18.02,2.7,9.04,22.48,9.04,22.48l38.63,8.07c1.59-5.03-3.17-3.2-4.17-7.42-.99-4.23,2.94-7.25,2.94-7.25l6.21-2.9Z" fill="#d62027"/>
              <path d="M31,8.41c11.1-6.08,20.55,.11,20.55,.11-1.19-2.08-3.04-3.83-5.32-5.07-2.48-1.17-5.92-1.89-10.69-1.64-3.28,.17-6.35,1.37-9.15,3.22,0,0,0,0-.01,0-.15,.1-.3,.2-.46,.31-.1,.07-.2,.14-.3,.21-.02,.01-.04,.03-.06,.04C15.35,12.95,9.04,22.48,9.04,22.48l5.99,.85s4.88-8.84,15.98-14.92Z" fill="#e93d4a"/>
              <path d="M48.87,32.59L6.53,23.75l.91-2c.1-.21,2.41-5.24,6.96-10.43C20.52,4.34,27.8,.44,35.45,.05c6.82-.35,11.96,1.13,15.28,4.39,3.8,3.73,3.69,8.39,3.69,8.59l-1.76-.06-1.76-.05c0-.14,.03-3.4-2.68-6.02-2.6-2.51-6.84-3.64-12.6-3.34-6.75,.35-12.98,3.71-18.53,10.01-2.57,2.91-4.39,5.82-5.43,7.67l34.48,7.2c-.14-.18-.54-.42-.92-.65-1.13-.67-2.83-1.68-3.44-4.26-1.24-5.27,3.38-8.89,3.58-9.04l2.14,2.79s-3.02,2.41-2.3,5.45c.25,1.08,.8,1.44,1.81,2.05,1.36,.81,3.63,2.16,2.32,6.31l-.48,1.52Z" fill="#252525"/>
              <path d="M54.82,18.45c-.51,2.43-2.88,3.98-5.31,3.48-2.43-.51-3.98-2.88-3.48-5.31s2.88-3.98,5.31-3.48c2.43,.51,3.98,2.88,3.48,5.31Z" fill="#d3d3d3"/>
              <path d="M50.65,13.67s-1.83,.94-1.55,3.58c.27,2.65,3.97,3.24,3.97,3.24,0,0-2.93,2.58-4.86-.08-1.94-2.66-3.2-2.48-2.02-4.32,1.17-1.83,4.01-2.68,4.47-2.43Z" fill="#fff"/>
              <path d="M49.15,23.65c-3.37-.7-5.54-4.02-4.84-7.39s4.02-5.54,7.39-4.84c3.37,.7,5.54,4.02,4.84,7.39s-4.02,5.54-7.39,4.84Zm1.83-8.79c-1.48-.31-2.93,.64-3.23,2.12s.64,2.93,2.12,3.23,2.92-.64,3.23-2.12-.64-2.93-2.12-3.23Z" fill="#252525"/>
            </g>
          </g>
          <rect x="39.4" y="16.51" width="2.2" height="6.2" transform="translate(13.02 55.24) rotate(-78.21)" fill="#252525"/>
          <rect x="32.18" y="16.72" width="2.2" height="2.77" transform="translate(8.75 46.98) rotate(-78.21)" fill="#252525"/>
        </g>
      </g>
      <path d="M33.16,10.74l-1.34-1.74c6.59-5.08,12.81-2.56,13.07-2.45l-.85,2.03c-.22-.09-5.34-2.11-10.89,2.16Z" fill="#fff"/>
    </g>
  </g>
</svg>