<svg xmlns="http://www.w3.org/2000/svg" xmlns:xlink="http://www.w3.org/1999/xlink" viewBox="0 0 524.47 631.83" xmlns:v="https://vecta.io/nano"><style><![CDATA[.B{fill:#0c0c0c}.C{fill:#ed4d52}.D{fill:#cceaee}.E{fill:#231f20}.F{fill:#d3cc8b}.G{fill:#528d8a}.H{opacity:.17}.I{fill:#fff}.J{fill:#8cd1ca}.K{fill:#8f8b54}.L{fill:#866a58}]]></style><g opacity=".52"><path d="M59.48,84.1c0-13.93,8.79-25.8,21.13-30.37-3.5-1.3-7.29-2.01-11.25-2.01-17.88,0-32.38,14.5-32.38,32.38s14.5,32.38,32.38,32.38c3.96,0,7.75-.71,11.25-2.01-12.34-4.57-21.13-16.44-21.13-30.37Z" fill="#f1de7d"/><use xlink:href="#B" class="B"/></g><path d="M457.13 359.83l1.45-3.48.88-2.24 1.2-3.11.91-2.47 1.03-2.9.92-2.67.86-2.66.93-2.94.51-1.73 2.22-7.96.22-.81 1-4.12.33-1.39.91-4.16.27-1.31.85-4.36.17-.96c2.44-13.53 3.74-27.47 3.74-41.71 0-128.96-104.54-233.5-233.5-233.5S8.55 139.91 8.55 268.87c0 4.72.16 9.4.43 14.05h0c.49 8.3 1.42 16.48 2.76 24.52l.14.84.73 4.06c.07.4.15.79.23 1.19l.78 3.86.28 1.28.85 3.82.2.83c.59 2.49 1.23 4.96 1.9 7.41l.41 1.5.8 2.74.73 2.46.79 2.49.87 2.69.78 2.31 1.02 2.9.76 2.09 1.24 3.26.65 1.69 2.01 4.91c35.45 83.8 118.43 142.59 215.14 142.59s174.92-55.49 211.97-135.48l2.35-5.24.77-1.81z" fill="#acdee3"/><path d="M242.05 502.87c-94.25 0-178.88-56.09-215.6-142.9l-2.01-4.92-.42-1.08-.24-.62-1.24-3.26-.68-1.88-.07-.21-1.02-2.91-.78-2.31-.88-2.7-.79-2.5-.65-2.19-.26-.89-.62-2.14-.24-.88-.17-.62c-.68-2.48-1.32-4.98-1.91-7.43l-.2-.83-.86-3.83-.28-1.29-.78-3.87-.23-1.19-.73-4.07-.14-.84c-1.35-8.09-2.27-16.36-2.76-24.57a237.14 237.14 0 0 1-.43-14.08c0-62.5 24.34-121.27 68.54-165.46 44.18-44.19 102.94-68.53 165.45-68.53s121.27 24.34 165.46 68.54c44.2 44.2 68.54 102.96 68.54 165.46a235.48 235.48 0 0 1-3.75 41.79l-.17.96-.85 4.37-.28 1.32-.91 4.16-.33 1.39-1.01 4.13-.21.81c-.68 2.61-1.43 5.3-2.23 7.98l-.21.7-.31 1.04-.73 2.29-.27.85-.8 2.47-.92 2.68-1.03 2.9-.92 2.48-1.2 3.11-.11.27-.78 1.97-1.45 3.49-.27.64-.5 1.18-2.35 5.25c-18.51 39.96-47.85 73.83-84.83 97.94-37.96 24.75-82.08 37.83-127.6 37.83zm0-467c-128.48 0-233 104.52-233 233 0 4.54.14 9.12.43 14.02.49 8.18 1.41 16.41 2.75 24.47l.14.84.73 4.05.21 1.11.79 3.93.28 1.28.85 3.81.2.83a211.26 211.26 0 0 0 1.9 7.39l.17.63c.08.29.15.58.24.87l.62 2.12.26.89.65 2.18.78 2.49.87 2.69.78 2.3 1.02 2.89.07.2.68 1.88 1.24 3.25.24.62.41 1.07 2 4.9c36.57 86.44 120.84 142.29 214.68 142.29s173.48-53.06 211.52-135.19l2.34-5.23.5-1.17.27-.64 1.45-3.47.78-1.96.11-.27 1.19-3.1.91-2.47 1.02-2.89.92-2.67.8-2.46.27-.85.72-2.27.3-1.02.21-.71a234.26 234.26 0 0 0 2.22-7.94l.21-.81 1-4.11.33-1.38.91-4.15.27-1.31.85-4.35.17-.96a234.58 234.58 0 0 0 3.73-41.62c0-128.48-104.52-233-233-233z" class="B"/><path d="M57.04 354.72c3.54.67 84.67 53.17 111.83 54.59 27.16 1.41 113.27 22.59 163.72 0s80.45-54.59 80.45-54.59 19.63 2.42 40.9 9.21c13.81-29.81 21.53-63.01 21.53-98.02 0-128.96-104.54-233.5-233.5-233.5S8.46 136.95 8.46 265.91c0 32.25 6.54 62.97 18.36 90.91 9.43-3.19 19.51-4.14 30.22-2.1z" class="G"/><path d="M271.82 420.17c-27.52 0-55.95-4.12-76.7-7.13-10.78-1.56-20.09-2.91-26.19-3.23-20.84-1.08-73.08-31.95-98.18-46.79-7.24-4.28-12.96-7.66-13.72-7.8-10.11-1.93-20.2-1.23-29.96 2.08l-.44.15-.18-.43c-12.21-28.85-18.4-59.5-18.4-91.1 0-62.5 24.34-121.27 68.54-165.46 44.19-44.21 102.95-68.55 165.46-68.55s121.27 24.34 165.46 68.54c44.2 44.2 68.54 102.96 68.54 165.46 0 34.28-7.26 67.33-21.57 98.23l-.19.4-.42-.13c-19.7-6.29-38.22-8.85-40.56-9.16-2.57 2.67-32.46 33.04-80.43 54.51-15.64 7-35.61 10.4-61.06 10.4zM45.88 353.14c3.74 0 7.55.37 11.34 1.09.89.17 4.95 2.55 14.04 7.92 25.04 14.79 77.13 45.58 97.73 46.65 6.14.32 15.47 1.67 26.28 3.24 20.72 3 49.11 7.12 76.56 7.12 25.31 0 45.15-3.38 60.65-10.32 49.78-22.29 79.99-54.15 80.29-54.47l.17-.19.25.03c.2.02 19.66 2.47 40.57 9.1 14.13-30.66 21.29-63.43 21.29-97.41 0-128.48-104.52-233-233-233s-233 104.53-233 233.01c0 31.31 6.1 61.68 18.14 90.29 6.13-2.03 12.42-3.05 18.69-3.05z" class="B"/><path d="M62.87,85.24c0-13.93,8.79-25.8,21.13-30.37-3.5-1.3-7.29-2.01-11.25-2.01-17.88,0-32.38,14.5-32.38,32.38s14.5,32.38,32.38,32.38c3.96,0,7.75-.71,11.25-2.01-12.34-4.57-21.13-16.44-21.13-30.37Z" fill="#f1de7d"/><use xlink:href="#B" x="3.39" y="1.14" class="B"/><path d="M241.53,502.37c93.95,0,174.92-55.49,211.97-135.48,11.8-25.47,19.13-53.43,21.02-82.87-109.97,43.93-248.26,11.39-353.92-15.15-47.52-11.94-84.75-1.93-112.14,14.05,1.61,27.12,7.83,53,17.92,76.86,35.45,83.8,118.43,142.59,215.14,142.59Z" class="D"/><path d="M241.53 502.87c-94.25 0-178.88-56.09-215.6-142.9-10.34-24.43-16.38-50.34-17.96-77.02l-.02-.31.27-.15c22.04-12.85 46.14-19.37 71.64-19.37 13.21 0 26.96 1.77 40.87 5.27 73.93 18.57 152.47 36.7 228.59 36.7 47.87 0 88.77-7.04 125.03-21.53l.74-.29-.05.79c-1.86 28.93-8.95 56.88-21.07 83.05-18.51 39.96-47.85 73.83-84.83 97.94-37.96 24.75-82.08 37.83-127.6 37.83zM8.98 283.2c1.6 26.46 7.62 52.15 17.87 76.38 36.57 86.44 120.84 142.29 214.68 142.29s173.48-53.06 211.52-135.19c11.96-25.82 19-53.37 20.93-81.9-36.2 14.34-76.98 21.31-124.66 21.31-76.23 0-154.84-18.15-228.83-36.73-13.83-3.48-27.5-5.24-40.63-5.24-25.22 0-49.06 6.42-70.87 19.08z" class="B"/><path d="M262.91 54.88c-2.26-.07-4.39.44-6.43 1.42l-2.83 1.29c-.31.11-.52.11-.69.05-.27-.1-.43-.38-.51-.87-.18-1.01-.38-2.04-.72-3l-3.01-8.15c-.79-2.28-.45-4.66-.46-7.01 0-1.59.33-2.04 1.88-2.52l3.34-1.11c.73-.28 1.33-.74 1.55-1.57.13-.5.32-.98.51-1.46l.76-1.62-1.24-.1c-2.39 0-4.77 0-6.99-1.13-.29-.14-.63-.22-.95-.23l-4.76-.17-.13.07a.81.81 0 0 1-.03-.2c0-.16.04-.32.06-.49.4-2.49 1.32-4.78 2.44-7.03.38-.77.57-1.65.77-2.49.05-.2-.23-.48-.36-.72-.26.16-.63.26-.74.49-.22.46-.28 1-.42 1.5-.31 1.1-.91 1.32-1.69.5-1.52-1.59-2.67-3.33-1.94-5.73.13-.43-.11-.98-.24-1.45-.02-.07-.51-.15-.57-.06-.3.42-.56.88-.78 1.35-.07.15.02.38.04.56.06.41.2.82.16 1.22-.05.41-.17 1.02-.45 1.16-.53.26-.93-.2-1.08-.71l-.67-2.53-.82-4.34h-.33c-.16.54-.45 1.08-.46 1.62-.03 1.37.08 2.74.12 4.11v1.68c-1.63-1.19-2.48-2.63-2.97-4.37-1.36 1.27-1.52 2.54-.29 3.57 1.63 1.37 3.42 2.54 5.16 3.76.67.47 1.41.84 2.12 1.25 1.7.98 2.1 2.59 2.01 4.36-.03.5-.45 1.02-.78 1.46-.41.53-.89 1.02-1.39 1.47-.12.11-.31.15-.5.17-.04-.05-.09-.09-.13-.15l-1.86-1.23c-.27-.15-.66-.1-.99-.15 0 .33-.12.73.02.99.63 1.19 1.09 2.54 2.71 2.84.28.05.57.55.69.9.14.43.14.92.15 1.38l.07 6.91-70.1 42.4-.61-1.65c-.79-2.28-.45-4.67-.46-7.01 0-1.59.33-2.04 1.88-2.52l3.34-1.11c.73-.28 1.33-.74 1.55-1.57.13-.5.31-.98.51-1.45l.76-1.62-1.24-.1c-2.39 0-4.77 0-6.99-1.13a2.37 2.37 0 0 0-.95-.23l-4.76-.17-.13.07a.81.81 0 0 1-.03-.2c0-.16.04-.32.06-.49.4-2.48 1.32-4.78 2.44-7.02.38-.77.57-1.65.77-2.49.05-.2-.23-.48-.36-.72-.26.16-.63.26-.74.49-.22.46-.28 1-.42 1.5-.31 1.1-.91 1.32-1.69.5-1.52-1.59-2.67-3.33-1.94-5.73.13-.43-.11-.98-.24-1.45-.02-.08-.51-.15-.57-.06-.3.42-.56.88-.78 1.35-.07.15.02.38.04.57.06.41.2.82.16 1.22-.05.41-.17 1.02-.45 1.16-.53.26-.93-.2-1.08-.71l-.67-2.53-.82-4.34h-.33c-.16.54-.45 1.08-.46 1.62-.03 1.37.08 2.74.12 4.11v1.68c-1.63-1.19-2.48-2.63-2.97-4.37-1.36 1.27-1.52 2.54-.29 3.57 1.63 1.37 3.42 2.54 5.16 3.76.67.47 1.41.84 2.12 1.25 1.7.98 2.1 2.59 2.01 4.36-.03.5-.45 1.02-.78 1.46-.41.53-.89 1.02-1.39 1.47-.12.11-.31.15-.5.17-.04-.05-.09-.09-.13-.15l-1.86-1.23c-.27-.15-.66-.1-.99-.15 0 .33-.12.73.02.99.62 1.19 1.09 2.54 2.71 2.84.28.05.57.55.69.9.14.43.14.92.15 1.38l.07 7.43-86.36 52.34.06-.16.05-8.71-9.58 8.66-16.16-1.81c-.47-.53-.91-.95-1.32-1.2-1.71-1.05-3.63.16-4.65.54l-.41-.05.08.14c-.46.08-.57-.26-.08-1.67 1.43-4.08-3.44-5.22-2.9-5.77.55-.55-.31-.76-.31-.76s-3.16-2.36-3.2-3.55c-.04-1.2-1.69-1.19-1.69-1.19l-1.13-1.42s-.33-3.27-8.29-4.68-9.95 7.66-9.95 7.66-.46.41-1.72 4.11c-1.26 3.71 4.72 4.04 6.05 2.95 1.32-1.09-1.36-1.99-2.34-2.14s.05-4.87 3.71-5.36 3.35 2.28 2.3 4.14.81 3.83.81 3.83l1.64 2.23c.52 3.26 4.16 6.11 5.06 6.77-.2.27-.59.97-1.32 2.64-1.47 3.31.4 10.87 1.11 13.48l-.05.02.02.12-1.78.64c-.83-1.59-4.2-7.79-8-11.51-2.64-2.59-5.26-1.93-7.83-.23-.43-1.25-1.06-2.92-1.56-3.55-.84-1.07-1.12-3.21-1.66-4.1-.54-.88-1.17-.08-1.17-.08l-1.1 2.87s-2.9-.48-4.13.02 1.38 3.41 1.38 3.41l5.43 3.6-2.24 1.94c-3.53 3.01-.71 12.19.26 14.99l-1.96.7 1.64 6.23s7.69-4.33 11.31 3.52c2.82 6.11 11.94 7.95 15.86 8.46h0c1.12.15 1.81.19 1.81.19l.67-.34 1.97 4.86-7.14 2.89c-4.89 1.54-8.58-3.47-8.58-3.47l-2.46 1c3.39 5.91 11.88 4.56 11.88 4.56l67.56-27.37-.84-2.08-11.32 4.59-1.95-4.82 5.65-2.19-2.11-5.22 38.42-26.47c-.75 1.04-1.55 2.05-2.38 3.03-1.17 1.39-1.7 2.88-1.53 4.68.22 2.35.25 4.7-.43 7.01-.37 1.26-.83 2.41-2.02 3.17-.75.48-1.12 2.68-.59 3.42.12.17.73.24.85.11 1.49-1.56 3.08-3.07 4.31-4.82.6-.85.52-2.19.69-3.32.23-1.54.22-3.14.63-4.63.95-3.47 3.17-6.09 6.08-8.13 2.04-1.43 4.19-2.69 6.26-4.09.23-.15.43-.33.64-.5-.33 1.27-.84 2.62-1.62 3.14-1.64 1.1-3.91 1.92-3.84 5s-2.33 5.55-2.88 6.23c-.55.69-1.85 1.1-2.74 2.06s.41 3.49 1.1 3.29c.69-.21 2.95-2.88 2.95-3.63s2.6-5.48 2.6-5.48 6.99-7.67 8.7-8.84c1.71-1.16 1.3-8.98 1.3-8.98-.04-.04-.09-.07-.13-.11a9.01 9.01 0 0 1 2.17-.91l11.1-2.94c4.71-1.11 9.27-2.64 13.63-4.69.85-.4 1.68-.86 2.5-1.33l.93.22s-3.61 6.03-5.34 6.42-1.01 1.48 0 1.67c1.01.18 3.9.36 4.19-.45.29-.82 3.75-6.63 3.9-7.82.08-.68-.08-1.41-.42-1.97l1.17-.69 1.92-1.08-.34 4.62c-.02.22-.08.44-.08.65 0 1.6-.51 2.94-1.85 3.91-.32.23-.6.57-.81.92-.43.71-.12 1.29.4 1.83s.98.13 1.29-.16c1.38-1.32 2.82-2.62 3.99-4.12.49-.63.43-1.75.46-2.65.03-.87-.27-1.75-.19-2.61.07-.76.36-1.54.72-2.22.49-.93 1.15-1.77 1.73-2.65v-1.15c-.58-1.16-1.61-1.6-2.82-1.63-.32 0-.63.02-.95.03l21.89-14.87c.63-.05 1.26-.29 1.82-.73.69-.54 1.34-1.13 2.05-1.64.4-.29.74-.43 1.05-.44 1.73 3.7 1.32 7.31-.79 10.72-1.02 1.65-2.23 3.19-3.48 4.67-1.17 1.39-1.7 2.88-1.53 4.68.22 2.35.25 4.7-.43 7.01-.37 1.26-.83 2.41-2.02 3.17-.75.48-1.12 2.68-.59 3.42.12.17.73.24.85.11 1.49-1.56 3.08-3.07 4.31-4.82.6-.85.52-2.19.69-3.32.23-1.54.22-3.14.63-4.63.95-3.47 3.17-6.09 6.08-8.12 2.04-1.43 4.19-2.69 6.26-4.09.23-.15.43-.33.64-.5-.33 1.27-.84 2.62-1.62 3.14-1.64 1.1-3.91 1.92-3.84 5s-2.33 5.55-2.88 6.23c-.55.69-1.85 1.1-2.74 2.06s.41 3.49 1.1 3.29c.68-.21 2.95-2.88 2.95-3.63s2.6-5.48 2.6-5.48 6.99-7.67 8.7-8.84c1.71-1.16 1.3-8.98 1.3-8.98-.04-.04-.09-.07-.13-.11a9.01 9.01 0 0 1 2.17-.91l11.1-2.94c4.71-1.11 9.27-2.64 13.63-4.69.85-.4 1.68-.86 2.5-1.33l.93.22s-3.61 6.03-5.34 6.42-1.01 1.48 0 1.67c1.01.18 3.9.36 4.19-.45.29-.82 3.75-6.63 3.9-7.82.08-.68-.08-1.41-.42-1.97l1.17-.69 1.92-1.08-.34 4.62c-.02.22-.08.44-.08.65 0 1.6-.5 2.94-1.85 3.91-.32.23-.6.57-.81.92-.43.71-.12 1.29.4 1.83s.98.13 1.29-.16c1.38-1.32 2.82-2.62 3.99-4.12.49-.63.43-1.75.46-2.65.03-.87-.27-1.75-.19-2.61.07-.76.36-1.54.72-2.22.49-.93 1.15-1.77 1.73-2.65v-1.15c-.58-1.16-1.61-1.6-2.82-1.63zm-23.72-25.6a1.92 1.92 0 0 0 .08.03c-.03 0-.05-.02-.08-.03zm-.09 14.19c-.27 2.69-.99 5.23-2.37 7.53l-14.41 9.44c-1.9.59-3.85 1.05-5.84 1.36-1.1.17-2.06.59-2.95 1.32-.66.54-1.44.96-2.22 1.35 0 0-2.54 1.97-2.72 4.19-.06.32-.16.63-.25.94l-2.93 1.92c-.79.25-1.59.47-2.4.59-.53.08-1.18-.28-1.71-.56-.52-.27-.96-.7-1.57-1.15.15 1.53.43 2.9 1.36 3.95L172.6 93.02c-.16-.14-.26-.39-.32-.75-.18-1.01-.38-2.04-.72-3l-1.3-3.5 68.84-42.31zm-80.07 21.32a1.92 1.92 0 0 0 .08.03c-.03 0-.05-.02-.08-.03zM38.65 172.71l3.68-1.86 18.07-7-.04.02 2.1 5.18-23.75 9.62 2.02-.82-2.08-5.14zm44.62-12.1l-19.58 7.93 2.05-.83-2.08-5.13 18.47-7.16-.79.44 1.93 4.76zm-2.7-32.24l78.31-48.8c-.43 3.4-1.59 6.57-4.01 9.27-1.77 1.97-4.04 3.26-6.35 4.48-3.83 2.03-7.91 3.32-12.19 3.99-1.1.17-2.06.59-2.95 1.32-.66.54-1.44.95-2.22 1.35h0s-2.54 1.98-2.72 4.19c-.06.32-.16.64-.25.95-.34.77-.98 1.28-1.77 1.54-1.17.39-2.35.78-3.56.97-.53.08-1.18-.28-1.71-.56-.52-.27-.96-.7-1.57-1.15.19 1.91.56 3.59 2.17 4.67 1.09.73 2.5.61 3.6-.26.69-.54 1.34-1.13 2.05-1.64.4-.29.74-.43 1.05-.44 1.12 2.4 1.33 4.76.77 7.05L86.89 144l-6.32-15.61z" fill="#9a8c50"/><path d="M29.07 184.79c-2.76 0-7.77-.64-10.23-4.94l-.29-.5 3.35-1.36.23.31s2.67 3.56 6.29 3.56a5.73 5.73 0 0 0 1.73-.27l6.64-2.69-1.58-3.89-.3.15h-.13s-.73-.05-1.85-.2c-3.91-.51-13.31-2.4-16.24-8.75-1.35-2.94-3.44-4.42-6.21-4.42-2.37 0-4.38 1.11-4.4 1.13l-.56.32-1.92-7.3 1.92-.69c-1.29-3.86-3.47-12.06.05-15.06l1.18-1.03.55-.48-4.98-3.32c-.49-.54-2.06-2.41-1.81-3.5a.96.96 0 0 1 .61-.7c.44-.18 1.04-.26 1.85-.26a16.07 16.07 0 0 1 2.14.16l1.03-2.63c.04-.05.43-.53.99-.53.27 0 .67.11 1 .65.26.43.46 1.06.66 1.73.25.83.54 1.77.97 2.32.38.49.86 1.53 1.43 3.1 3.11-1.87 5.63-1.62 7.92.62 3.57 3.5 6.74 9.09 7.89 11.25l.98-.35-.02-.11h.01c-.86-3.25-2.41-10.14-.97-13.39.47-1.07.84-1.83 1.11-2.31-1.36-1.06-4.31-3.66-4.86-6.69l-1.57-2.13s-2.06-2.22-.85-4.38c.52-.92.86-2.15.45-2.84-.31-.53-1.06-.72-2.26-.56-1.95.26-2.89 1.85-3.21 2.53-.43.92-.45 1.64-.39 1.87.5.1 2.67.61 2.98 1.75.07.26.1.76-.51 1.26-.5.41-1.46.66-2.58.66-.67 0-2.95-.11-3.99-1.57-.35-.49-.69-1.34-.27-2.59.96-2.83 1.48-3.82 1.73-4.18.26-1 2.31-8.09 8.78-8.09.55 0 1.13.05 1.72.16 7.32 1.3 8.49 4.22 8.67 4.96l.91 1.15c.77.07 1.9.48 1.94 1.66.02.58 1.53 2.06 2.93 3.12.21.07.62.25.73.66a.82.82 0 0 1-.08.61c.1.08.24.17.35.25 1.16.78 3.57 2.41 2.44 5.64-.15.43-.23.71-.26.89h.13c.14-.04.28-.11.45-.18.72-.32 1.71-.75 2.75-.75a3.39 3.39 0 0 1 1.77.49c.4.24.83.62 1.31 1.15l15.75 1.76 10.26-9.27-.05 9.08 85.3-51.7a120.71 120.71 0 0 0-.04-5.04l-.03-2.1c0-.47-.01-.89-.12-1.23-.09-.28-.27-.54-.35-.58-1.62-.29-2.24-1.54-2.79-2.64-.07-.15-.15-.3-.23-.45-.16-.31-.13-.67-.1-.95.01-.09.02-.19.02-.28v-.57l.56.07c.09.01.18.01.28.02.28.01.6.03.89.19a13.91 13.91 0 0 1 1.34.87c.18.13.36.25.55.38l.03.02c.56-.51.98-.95 1.31-1.39l.07-.09c.27-.35.6-.78.62-1.1.1-1.91-.46-3.15-1.76-3.9l-.64-.36c-.51-.28-1.03-.57-1.52-.91l-1.04-.72c-1.39-.96-2.83-1.96-4.15-3.06-.65-.55-.99-1.18-1.01-1.87-.02-.82.41-1.64 1.28-2.45l.6-.56.22.79c.4 1.43 1.03 2.53 1.99 3.44v-.61l-.05-1.32c-.04-.92-.08-1.87-.07-2.81 0-.46.16-.88.32-1.28.06-.16.12-.32.17-.48l.11-.36h1.12l.31 1.7.58 3.04a26.73 26.73 0 0 0 .66 2.48c.09.28.24.43.31.43.08-.04.19-.27.25-.79.02-.19-.03-.42-.08-.67-.03-.14-.06-.28-.08-.43l-.02-.12c-.04-.19-.1-.46.02-.72.25-.53.53-1.01.83-1.43.12-.16.31-.24.56-.24.29 0 .78.06.89.47l.08.28c.14.45.3.97.15 1.45-.68 2.23.48 3.83 1.82 5.24.32.33.48.34.5.34.06 0 .22-.15.35-.63l.12-.48c.08-.36.16-.73.33-1.09.15-.32.46-.47.71-.59.07-.04.15-.07.21-.11l.46-.29.25.48c.03.06.08.12.12.19.16.24.37.53.28.88l-.03.14c-.19.83-.39 1.68-.78 2.46-1.31 2.65-2.05 4.77-2.39 6.88v.05l1.81.06 2.58.09c.42.02.83.12 1.15.29 2.09 1.06 4.32 1.06 6.69 1.07.33 0 .58.03.88.06l1.19.1-.59 1.23a21.44 21.44 0 0 0-.47 1.02c-.23.55-.38.99-.49 1.39-.24.89-.86 1.53-1.86 1.91-1.04.4-2.11.73-3.15 1.05l-.22.07c-1.35.42-1.53.67-1.53 2.04 0 .56-.01 1.12-.03 1.69-.05 1.81-.11 3.51.47 5.17.12.35.25.7.38 1.05v.02l69.35-41.94c.01-1.52-.01-3.06-.04-4.55l-.03-2.07c0-.47-.01-.89-.12-1.23-.09-.28-.27-.54-.35-.58-1.61-.29-2.24-1.54-2.79-2.64-.07-.15-.15-.3-.23-.45-.17-.31-.13-.67-.1-.95.01-.09.02-.19.02-.28v-.57l.57.07c.09.01.19.02.28.02.28.01.59.03.88.19.47.26.9.56 1.35.87.18.13.36.25.55.38l.03.02c.56-.51.98-.95 1.31-1.39l.07-.09c.27-.35.6-.78.61-1.1.1-1.91-.46-3.15-1.76-3.9l-.63-.35c-.51-.28-1.04-.57-1.53-.92l-1.04-.72c-1.39-.96-2.83-1.95-4.16-3.06-.65-.55-.99-1.18-1.01-1.87-.02-.82.41-1.64 1.28-2.45l.6-.56.22.79c.4 1.43 1.03 2.53 1.99 3.44v-.61l-.05-1.32c-.04-.92-.08-1.87-.07-2.82 0-.46.17-.88.32-1.28l.17-.47.11-.36h1.12l.32 1.7.58 3.04c.16.75.37 1.57.66 2.48.09.28.24.43.3.43.08-.04.19-.26.25-.79.02-.19-.03-.42-.08-.66a6.49 6.49 0 0 1-.08-.43l-.02-.13c-.04-.19-.1-.46.02-.72.25-.53.53-1.01.83-1.43.12-.16.31-.24.56-.24.28 0 .78.06.89.46l.08.28c.14.45.3.97.15 1.45-.68 2.23.48 3.83 1.82 5.24.32.33.48.34.5.34.06 0 .22-.15.35-.63.05-.16.08-.32.12-.49.08-.36.16-.73.33-1.09.15-.32.46-.47.71-.59.08-.04.15-.07.21-.11l.46-.29.25.48c.03.06.08.12.12.19.16.23.37.53.28.88l-.04.15c-.19.82-.39 1.67-.77 2.45-1.31 2.65-2.05 4.77-2.39 6.88v.05l1.82.06 2.57.09c.42.02.83.12 1.15.29 2.08 1.06 4.32 1.06 6.69 1.07.33 0 .58.03.89.06l1.18.1-.59 1.24c-.18.37-.33.69-.47 1.01-.16.38-.35.88-.49 1.39-.24.89-.86 1.53-1.86 1.91-1.04.4-2.12.73-3.15 1.05l-.22.07c-1.35.42-1.53.67-1.53 2.04 0 .56-.01 1.12-.03 1.68-.05 1.81-.11 3.51.47 5.17.51 1.46 1.07 2.94 1.61 4.36l1.41 3.78c.36 1.01.57 2.08.74 3.09.06.33.14.47.19.48.15.01.24 0 .35-.05.73-.27 1.46-.63 2.16-.97l.63-.31c2.17-1.04 4.4-1.53 6.66-1.47 1.54.05 2.64.69 3.25 1.91l.05.11v1.42l-.08.13-.54.79c-.43.62-.83 1.2-1.16 1.82-.26.5-.59 1.25-.66 2.03-.04.4.03.82.09 1.27.06.42.12.86.11 1.31v.39c-.03.88-.05 1.88-.57 2.55-1 1.29-2.21 2.44-3.37 3.54l-.66.63c-.21.2-.59.56-1.11.56h0c-.32 0-.62-.14-.89-.42-.3-.31-1.2-1.24-.47-2.44.19-.31.5-.74.94-1.06 1.12-.81 1.64-1.93 1.64-3.51a2.4 2.4 0 0 1 .05-.46c.01-.08.03-.15.03-.23l.27-3.7-1.11.62-.76.45a3.74 3.74 0 0 1 .26 1.84c-.1.79-1.23 2.92-2.71 5.62-.55 1.01-1.12 2.05-1.21 2.3-.23.64-1.08.94-2.69.94a13.5 13.5 0 0 1-2.06-.16c-.82-.15-1.44-.73-1.46-1.35 0-.36.17-1 1.43-1.29.97-.22 3.19-3.24 4.67-5.61l-.07-.02a35.34 35.34 0 0 1-2.36 1.25c-4.19 1.98-8.81 3.57-13.73 4.73-3 .71-6.03 1.54-8.97 2.35l-2.11.58c-.59.16-1.15.38-1.67.65.08 1.62.27 8.06-1.53 9.28-1.58 1.07-8 8.09-8.57 8.72-1.19 2.16-2.48 4.74-2.51 5.2 0 .98-2.43 3.84-3.3 4.1l-.23.03c-.79 0-1.34-1.11-1.48-1.45-.48-1.1-.44-2.11.1-2.7.51-.55 1.13-.93 1.67-1.26.43-.26.84-.51 1.05-.77l.23-.27c.78-.91 2.6-3.06 2.54-5.64-.06-2.91 1.8-4.04 3.31-4.96l.75-.47c.33-.22.66-.71.95-1.41l-2.2 1.42c-1.15.73-2.33 1.48-3.46 2.27-3.1 2.17-5.03 4.74-5.88 7.85-.25.91-.34 1.85-.43 2.85a32.29 32.29 0 0 1-.19 1.72c-.04.29-.07.6-.1.9-.08.93-.17 1.89-.68 2.63-.99 1.41-2.21 2.67-3.39 3.88l-.96 1c-.14.15-.35.22-.63.22-.12 0-.73-.02-.99-.39-.51-.71-.32-1.95-.25-2.31.08-.41.34-1.42.98-1.83.98-.62 1.42-1.57 1.81-2.89.7-2.39.6-4.79.41-6.82-.18-1.88.36-3.53 1.65-5.05 1.03-1.22 2.35-2.85 3.44-4.61 2.02-3.28 2.33-6.6.92-9.88-.14.06-.29.15-.46.27-.44.32-.86.67-1.28 1.01l-.75.62c-.59.46-1.26.75-1.95.83l-20.47 13.91c1.22.18 2.1.8 2.62 1.85l.05.11v1.42l-.08.13-.54.8c-.43.61-.83 1.19-1.16 1.82-.38.71-.61 1.41-.66 2.03-.04.4.02.82.09 1.27.06.42.12.86.11 1.31v.39c-.03.88-.05 1.88-.57 2.55-1 1.3-2.21 2.44-3.38 3.55l-.65.62c-.2.2-.59.56-1.11.56-.32 0-.62-.14-.89-.42-.3-.31-1.2-1.24-.47-2.44.19-.31.5-.74.94-1.06 1.12-.81 1.64-1.93 1.64-3.51 0-.15.02-.3.05-.46.01-.08.03-.16.03-.23l.27-3.7-1.11.62-.76.45a3.74 3.74 0 0 1 .26 1.84c-.1.79-1.23 2.92-2.71 5.62-.55 1.01-1.12 2.05-1.21 2.3-.23.64-1.08.94-2.69.94a13.5 13.5 0 0 1-2.06-.16c-.82-.15-1.44-.73-1.46-1.35 0-.36.17-1 1.43-1.29.97-.22 3.19-3.24 4.67-5.61l-.07-.02a33.56 33.56 0 0 1-2.36 1.25c-4.19 1.97-8.81 3.56-13.73 4.73-3.01.71-6.05 1.55-8.99 2.36l-2.09.57c-.59.16-1.15.38-1.67.65.08 1.62.27 8.06-1.53 9.28-1.58 1.07-8 8.09-8.57 8.72-1.19 2.16-2.48 4.74-2.51 5.2 0 .98-2.43 3.84-3.3 4.1l-.23.03c-.79 0-1.34-1.11-1.48-1.44-.48-1.1-.44-2.11.1-2.7.51-.55 1.13-.92 1.67-1.26.43-.26.84-.51 1.05-.77l.23-.27c.78-.92 2.6-3.06 2.54-5.64-.06-2.91 1.8-4.04 3.31-4.96l.75-.47c.33-.22.66-.71.95-1.41l-2.2 1.42c-1.15.73-2.34 1.49-3.47 2.28-3.1 2.17-5.03 4.74-5.88 7.85-.25.91-.34 1.85-.43 2.85a32.29 32.29 0 0 1-.19 1.72c-.04.29-.07.6-.1.9-.08.93-.17 1.89-.68 2.63-.99 1.41-2.21 2.66-3.39 3.88l-.97 1c-.14.15-.35.22-.63.22-.12 0-.73-.02-.99-.39-.51-.71-.32-1.94-.25-2.3.08-.42.34-1.42.98-1.83.98-.62 1.42-1.57 1.81-2.89.7-2.39.6-4.79.41-6.82-.18-1.88.36-3.53 1.65-5.05.13-.16.26-.31.39-.46l-35.43 24.41 2.15 5.32-5.65 2.19 1.58 3.89 11.32-4.59 1.22 3.01-.46.19-67.67 27.4s-.89.14-2.16.14zm-9.06-4.95c2.31 3.42 6.63 3.95 9.06 3.95 1.01 0 1.75-.09 1.95-.12l67.04-27.16-.47-1.16-11.32 4.59-2.33-5.76 5.65-2.19-2.07-5.12 41.11-28.32-1.67 2.33c-.69.96-1.47 1.96-2.4 3.06-1.12 1.32-1.57 2.69-1.41 4.32.2 2.13.3 4.64-.45 7.2-.36 1.21-.85 2.57-2.23 3.45-.17.11-.41.52-.54 1.18s-.07 1.22.05 1.47c.05.01.13.03.2.03.29-.31.59-.61.89-.92 1.15-1.19 2.35-2.41 3.29-3.75.36-.51.43-1.34.5-2.14l.1-.96c.08-.55.13-1.11.18-1.66.09-1 .19-2.03.46-3.02.91-3.29 3.02-6.12 6.27-8.4 1.15-.8 2.35-1.56 3.5-2.3l2.76-1.79c.17-.12.33-.25.49-.38l1.3-1.06-.38 1.48c-.46 1.8-1.06 2.92-1.83 3.43-.25.17-.52.33-.79.49-1.48.9-2.88 1.75-2.82 4.08.07 2.96-1.93 5.31-2.78 6.31l-.21.25c-.32.4-.8.69-1.31 1s-1.04.63-1.46 1.08c-.18.19-.22.6-.1 1.08.16.68.55 1.24.75 1.36.64-.33 2.48-2.59 2.53-3.13 0-.79 1.86-4.26 2.67-5.72l.07-.1c.29-.31 7.05-7.73 8.79-8.91 1-.68 1.24-5.21 1.09-8.33l-.35-.32.45-.45c.7-.41 1.47-.74 2.29-.96l2.09-.57 9.03-2.37c4.85-1.15 9.41-2.71 13.53-4.66.9-.42 1.75-.9 2.46-1.31l.17-.1 1.78.43-.35.58c-.62 1.04-3.81 6.23-5.66 6.65-.57.13-.66.3-.66.3 0 .07.24.31.64.38.41.07 1.15.15 1.88.15 1.25 0 1.69-.21 1.75-.29.1-.3.53-1.08 1.27-2.43.94-1.72 2.51-4.6 2.6-5.26.07-.56-.06-1.18-.35-1.65l-.26-.43.61-.37 1-.59 1.21-.68 1.53-.85-.41 5.55c0 .11-.03.22-.04.32a1.43 1.43 0 0 0-.03.29c0 1.9-.67 3.32-2.05 4.32-.24.17-.48.45-.68.77-.21.34-.22.65.34 1.22.07.07.13.11.17.11.12 0 .34-.21.41-.28l.66-.63c1.14-1.08 2.32-2.2 3.28-3.44.32-.41.33-1.23.35-1.96v-.41c.02-.36-.03-.74-.09-1.14-.07-.48-.14-.98-.09-1.5.08-.94.47-1.83.77-2.41.36-.68.8-1.31 1.22-1.92l.45-.65v-.88c-.45-.82-1.2-1.22-2.34-1.25h-.12c-.18 0-.35 0-.53.02l-2.03.09 23.45-15.94h.13c.54-.05 1.08-.27 1.54-.64l.74-.6c.44-.36.87-.73 1.33-1.06.49-.35.91-.52 1.32-.54h.33l.14.29c1.74 3.73 1.47 7.49-.82 11.19-1.12 1.81-2.47 3.48-3.53 4.73-1.12 1.32-1.57 2.69-1.41 4.32.2 2.13.3 4.64-.45 7.2-.36 1.21-.85 2.57-2.23 3.45-.17.11-.41.52-.54 1.18s-.07 1.22.05 1.47c.05.01.13.03.2.03.29-.31.59-.61.89-.92 1.16-1.19 2.35-2.41 3.29-3.76.36-.51.43-1.34.5-2.14l.1-.96c.08-.55.13-1.11.18-1.66.09-1 .19-2.03.46-3.02.91-3.29 3.02-6.12 6.27-8.4 1.15-.8 2.34-1.56 3.5-2.3l2.77-1.79c.17-.12.33-.25.49-.38l1.3-1.06-.38 1.48c-.46 1.8-1.06 2.92-1.83 3.43-.25.17-.52.33-.79.49-1.48.9-2.88 1.75-2.82 4.08.07 2.96-1.93 5.31-2.78 6.31l-.21.25c-.32.4-.8.69-1.31 1s-1.04.63-1.46 1.08c-.18.19-.22.6-.1 1.08.16.68.55 1.24.75 1.37.64-.33 2.48-2.59 2.53-3.13 0-.79 1.86-4.26 2.67-5.72l.07-.1c.29-.32 7.05-7.73 8.79-8.92 1-.68 1.24-5.21 1.09-8.33l-.34-.32.45-.45c.7-.41 1.47-.73 2.29-.96l2.11-.58 9-2.36c4.85-1.14 9.4-2.71 13.53-4.66.9-.42 1.75-.9 2.46-1.31l.17-.1 1.78.43-.35.58c-.62 1.04-3.81 6.23-5.66 6.65-.57.13-.66.3-.66.3 0 .07.24.31.64.38.41.07 1.15.15 1.88.15 1.25 0 1.69-.21 1.75-.29.1-.3.53-1.08 1.27-2.43.94-1.72 2.51-4.6 2.59-5.26.07-.56-.06-1.18-.35-1.65l-.26-.43.57-.34 1.04-.62 1.19-.67 1.55-.87-.41 5.55c0 .11-.03.22-.04.32-.02.1-.04.19-.04.29 0 1.9-.67 3.31-2.05 4.32-.24.17-.48.44-.68.77-.21.34-.22.65.34 1.22.07.07.13.11.17.11.12 0 .33-.21.41-.29l.66-.63c1.14-1.08 2.32-2.2 3.27-3.43.32-.41.33-1.23.35-1.96v-.41c.02-.36-.03-.74-.09-1.14-.07-.48-.14-.98-.09-1.5.08-.95.47-1.83.77-2.41.36-.68.8-1.31 1.23-1.93a24.4 24.4 0 0 0 .44-.64v-.88c-.45-.82-1.2-1.22-2.34-1.25-2.1-.07-4.17.4-6.2 1.37l-.62.3c-.72.35-1.47.72-2.25 1.01-.39.15-.73.16-1.04.05-.59-.21-.76-.82-.83-1.25-.17-.97-.37-1.99-.7-2.92l-1.4-3.76-1.62-4.39c-.63-1.83-.58-3.71-.52-5.52a45.4 45.4 0 0 0 .03-1.65c0-1.81.47-2.46 2.23-3l.22-.07c1.02-.32 2.08-.65 3.09-1.03.7-.27 1.09-.66 1.25-1.24.15-.57.37-1.11.53-1.52.13-.33.29-.65.46-1.01-.17-.02-.33-.03-.49-.03-2.45 0-4.92-.02-7.21-1.18-.2-.1-.47-.17-.75-.18l-2.55-.09-2.07-.07-.6.31-.13-.64c-.02-.1-.04-.2-.04-.32 0-.16.03-.31.06-.46.37-2.31 1.14-4.52 2.5-7.26.33-.67.52-1.47.7-2.23l.02-.07s-.02-.03-.02-.04a1.37 1.37 0 0 0-.14.08c-.1.23-.17.53-.24.85a10.58 10.58 0 0 1-.13.54c-.32 1.12-.89 1.36-1.31 1.36-.4 0-.81-.22-1.22-.65-1.48-1.55-2.89-3.5-2.06-6.22.05-.18-.03-.49-.12-.78-.19.29-.37.62-.53.97.02-.04.04.04.05.09.01.07.03.14.04.2.02.12.04.24.07.36.06.3.13.63.09.98-.1.85-.33 1.35-.72 1.55-.72.36-1.5-.09-1.78-1-.3-.95-.52-1.79-.69-2.57l-.59-3.06v-.02c-.02.09-.04.18-.04.27-.02.91.02 1.85.06 2.75l.05 1.33c.01.34 0 .68 0 1.07v1.61l-.8-.58a8.04 8.04 0 0 1-2.88-3.8c-.28.38-.42.75-.41 1.09 0 .39.23.77.65 1.13 1.28 1.08 2.71 2.06 4.08 3.01l1.05.73c.45.31.93.58 1.44.86l.64.36c1.64.95 2.38 2.52 2.26 4.82-.03.62-.47 1.19-.82 1.65l-.07.09c-.37.49-.83.98-1.45 1.53-.04.04-.09.08-.14.11l-.02.13-.16.47-.08-.03.19-.53c-.19.09-.39.13-.57.15l-.25.03-.17-.19s-.08-.08-.11-.12c-.17-.12-.34-.23-.5-.35-.43-.3-.83-.58-1.26-.81a.91.91 0 0 0-.29-.06c0 .1-.01.19 0 .23l.24.46c.51 1.02.95 1.9 2.12 2.11.68.12 1.03 1.12 1.07 1.24.16.49.17 1.01.17 1.48 0 .74.02 1.43.04 2.12l.04 4.86v.28L168.8 83.5l-.43-1.16-.39-1.07c-.63-1.83-.58-3.71-.52-5.52a45.4 45.4 0 0 0 .03-1.65c0-1.81.47-2.46 2.23-3l.23-.07c1.02-.32 2.08-.65 3.09-1.03.7-.27 1.09-.66 1.25-1.24.12-.45.29-.93.53-1.52.13-.33.29-.64.46-1-.17-.02-.33-.03-.49-.03-2.45 0-4.91-.02-7.21-1.18-.2-.1-.47-.17-.75-.18l-2.57-.09-2.05-.07-.6.31-.14-.64c-.02-.1-.04-.21-.04-.33 0-.15.03-.31.06-.46.37-2.29 1.13-4.5 2.49-7.25.33-.68.52-1.47.7-2.24v-.06s0-.03-.01-.04a1.37 1.37 0 0 0-.14.08c-.1.23-.17.53-.24.85a10.58 10.58 0 0 1-.13.54c-.32 1.12-.89 1.36-1.31 1.36-.4 0-.81-.22-1.22-.65-1.48-1.55-2.89-3.5-2.06-6.22.05-.18-.03-.49-.12-.78-.19.29-.37.62-.53.97.02-.04.04.04.05.09.01.07.03.13.04.2.02.12.04.24.07.36.06.3.13.64.09.98-.1.85-.33 1.35-.72 1.55-.72.36-1.5-.08-1.78-1a25.58 25.58 0 0 1-.68-2.57l-.59-3.06v-.02c-.02.09-.03.18-.04.27-.02.91.02 1.85.06 2.75l.05 1.33c.01.34 0 .68 0 1.07v1.61l-.8-.58a8.04 8.04 0 0 1-2.88-3.8c-.28.38-.42.75-.41 1.09 0 .39.23.77.65 1.13 1.29 1.08 2.71 2.06 4.08 3.01l1.05.73c.45.31.93.58 1.44.86.22.12.44.24.65.37 1.64.95 2.38 2.52 2.26 4.82-.03.63-.47 1.2-.82 1.65l-.06.08c-.37.49-.83.98-1.45 1.53-.05.05-.11.09-.17.12l-.16.58-.07-.03.19-.53c-.18.09-.38.13-.57.15l-.25.03-.17-.19s-.08-.08-.11-.12c-.17-.12-.34-.23-.5-.35-.43-.3-.83-.58-1.26-.81a.91.91 0 0 0-.29-.06c0 .1-.01.19 0 .23a9.86 9.86 0 0 1 .23.46c.51 1.02.95 1.9 2.12 2.12.68.12 1.03 1.12 1.07 1.24.16.49.17 1.02.18 1.48 0 .75.02 1.45.04 2.14l.03 5.35v.28l-87.81 53.22.51-1.41.04-7.49-8.91 8.05-16.58-1.85-.13-.15c-.46-.53-.86-.9-1.2-1.11-.38-.23-.79-.34-1.25-.34-.84 0-1.68.37-2.35.67-.12.05-.24.11-.35.15l.06.1-.74.12c-.48.08-.73-.16-.83-.29-.12-.18-.18-.39-.15-.7l-.15-.25.19.02c.05-.29.16-.65.32-1.11.81-2.3-.57-3.48-2.05-4.48-.55-.37-.87-.59-.91-.98-.02-.15.03-.3.12-.43l-.18-.09c-.79-.59-3.36-2.61-3.41-3.94-.03-.7-1.18-.71-1.19-.71h-.24l-1.37-1.72-.02-.15s-.5-2.93-7.88-4.24c-.53-.09-1.05-.14-1.54-.14-6.12 0-7.76 7.11-7.83 7.42l-.04.16-.12.11h0s-.45.59-1.57 3.9c-.23.69-.19 1.24.13 1.68.5.7 1.75 1.15 3.18 1.15.98 0 1.68-.22 1.94-.43.13-.11.18-.2.18-.22-.09-.33-1.3-.89-2.27-1.04-.18-.03-.78-.21-.77-1.28.02-1.51 1.39-4.66 4.49-5.07 2.04-.27 2.9.45 3.25 1.05.64 1.1.19 2.7-.45 3.83-.86 1.52.73 3.23.74 3.25l1.75 2.37.02.12c.5 3.1 4.13 5.91 4.86 6.44l.41.3-.31.4c-.13.17-.46.72-1.27 2.54-1.41 3.19.51 10.87 1.14 13.15l.12.43-.09.04.02.14-2.58.92-.2-.39c-.92-1.75-4.2-7.76-7.91-11.38-2.11-2.06-4.23-2.14-7.21-.17l-.54.36-.21-.61c-.6-1.75-1.13-2.96-1.48-3.41-.54-.69-.86-1.73-1.14-2.64-.19-.61-.36-1.18-.56-1.5-.09-.15-.15-.18-.15-.18-.03 0-.1.05-.16.1l-1.21 3.17-.4-.07s-1.23-.2-2.38-.2c-.83 0-1.26.1-1.47.19-.13.3.61 1.54 1.52 2.57l5.93 3.93-.5.43-1.05.91-1.19 1.04c-2.61 2.23-1.5 8.92.41 14.44l.16.47-1.99.71 1.36 5.19c.83-.37 2.46-.97 4.32-.97 2.19 0 5.21.87 7.12 5 2.72 5.9 11.72 7.68 15.47 8.18.81.11 1.39.16 1.64.17l1.03-.52 2.36 5.83-7.6 3.08c-.7.22-1.39.33-2.07.33-3.49 0-6.07-2.73-6.85-3.66l-1.57.63zm18.89-.7l-.38-.93h0l1.56-.63-2.07-5.1 4.09-2.07 18.11-7.02.21.46.39-.16 2.29 5.64-24.21 9.81zm.39-6.18l1.72 4.25 20.8-8.43-1.73-4.26-17.57 6.81-3.22 1.63zm24.59-3.94l-.38-.93 1.59-.64-2.08-5.14 18.95-7.35.42.9-.4.22 1.95 4.81-20.04 8.12zm.44-6.15l1.7 4.2 16.6-6.73-1.6-3.95-16.7 6.48zm22.35-18.12l-6.71-16.57 79.56-49.58-.13 1.04c-.49 3.87-1.85 6.99-4.14 9.54-1.83 2.04-4.21 3.39-6.48 4.59-3.77 1.99-7.92 3.35-12.35 4.04-1.02.16-1.91.55-2.71 1.21-.69.56-1.47.98-2.23 1.36-.09.07-2.37 1.89-2.52 3.83-.06.34-.14.62-.23.9l-.05.16c-.41.93-1.12 1.55-2.09 1.87-1.21.4-2.41.8-3.64.99-.65.1-1.35-.25-1.94-.56a4.98 4.98 0 0 1-.76-.49c.25 1.38.71 2.38 1.79 3.1.87.59 2.09.49 3.01-.24l.74-.6c.44-.36.87-.73 1.33-1.06.49-.35.91-.52 1.32-.54h.33l.14.29c1.14 2.43 1.41 4.92.81 7.38l-.05.19-.16.11-42.84 29.04zm-5.47-16.17l5.93 14.65 41.66-28.24c.46-2.06.25-4.13-.62-6.17-.14.06-.29.15-.46.27-.44.32-.86.67-1.28 1.01l-.75.62c-1.25.99-2.96 1.11-4.19.29-1.86-1.25-2.21-3.25-2.39-5.03l-.09-.95-37.8 23.56zm37.93-23.64l.77.58c.2.15.38.3.55.43.34.27.64.51.95.67.48.25.98.51 1.32.51 1.23-.18 2.39-.57 3.5-.94.54-.18 1.18-.52 1.51-1.25l.04-.13c.07-.25.15-.49.19-.74.14-1.79 1.67-3.4 2.45-4.11l-.12-.11.64-.33c.73-.37 1.5-.77 2.13-1.29.94-.77 1.99-1.24 3.19-1.42 4.31-.67 8.36-2 12.03-3.94 2.29-1.21 4.48-2.45 6.21-4.37 1.94-2.16 3.16-4.76 3.73-7.93l-39.1 24.37zm53.45-11.28l-.29-.26c-.24-.22-.39-.55-.48-1.03-.17-.96-.37-1.99-.7-2.92l-1.21-3.25-.24-.63.35-.22 69.71-42.84-.1 1.01c-.3 2.99-1.1 5.52-2.44 7.74l-.15.16-14.53 9.5c-1.92.6-3.91 1.06-5.91 1.37-1.02.16-1.91.56-2.71 1.21-.68.56-1.47.98-2.23 1.36-.08.07-2.37 1.89-2.52 3.83-.06.34-.14.62-.23.89l-.1.33-3.21 2.08c-.72.22-1.57.47-2.47.61-.65.1-1.35-.25-1.94-.56a4.98 4.98 0 0 1-.76-.49c.18.98.48 1.8 1.07 2.46l.38.43-29.3 19.2zm-1.68-7.68l1.16 3.12c.36 1.01.57 2.08.74 3.09a.36.36 0 0 0 .02.11l27.57-18.07c-.76-1.11-.99-2.46-1.13-3.78l-.11-1.13.91.68c.2.15.38.29.55.43.34.27.64.51.95.67.48.25.98.51 1.32.51.89-.13 1.68-.36 2.34-.56l2.72-1.78c.07-.24.14-.47.19-.71.14-1.79 1.67-3.4 2.46-4.11l-.12-.11.64-.33c.73-.37 1.5-.77 2.13-1.29.94-.77 1.99-1.24 3.19-1.42a39.29 39.29 0 0 0 5.7-1.32l14.25-9.34c1.07-1.81 1.77-3.85 2.12-6.21l-67.6 41.54z" fill="#111212"/><path d="M325.56 139.77c-2.68 0-5.15.49-7.13 1.32-2.03-.95-4.6-1.51-7.39-1.51-3.62 0-6.87.95-9.06 2.45l-2.89-.14c-6.2 0-11.22 1.91-11.22 4.26s5.02 4.26 11.22 4.26c.62 0 1.23-.02 1.82-.06 2.11 1.99 5.86 3.31 10.13 3.31 3.3 0 6.28-.79 8.45-2.06 1.77.58 3.85.92 6.08.92 6.48 0 11.73-2.86 11.73-6.38s-5.25-6.38-11.73-6.38z" class="J"/><path d="M311.04 154.16c-4.17 0-8-1.23-10.31-3.3-.54.03-1.08.05-1.64.05-6.57 0-11.72-2.09-11.72-4.76s5.15-4.76 11.72-4.76c.93 0 1.86.04 2.76.13 2.35-1.55 5.69-2.44 9.19-2.44 2.7 0 5.25.51 7.4 1.47 2.08-.83 4.54-1.27 7.12-1.27 6.86 0 12.23 3.02 12.23 6.88s-5.37 6.88-12.23 6.88c-2.12 0-4.19-.3-6.02-.88-2.31 1.3-5.32 2.02-8.5 2.02zm-9.95-4.32l.16.15c2.11 1.99 5.77 3.17 9.79 3.17 3.1 0 6.01-.71 8.19-1.99l.2-.12.22.07c1.78.59 3.82.9 5.92.9 6.19 0 11.23-2.64 11.23-5.88s-5.04-5.88-11.23-5.88c-2.54 0-4.94.44-6.94 1.28l-.2.08-.2-.09c-2.06-.96-4.54-1.47-7.18-1.47-3.38 0-6.58.86-8.78 2.37l-.15.1-.18-.02c-.93-.09-1.88-.14-2.84-.14-6.32 0-10.72 1.98-10.72 3.76s4.4 3.76 10.72 3.76c.61 0 1.21-.02 1.79-.06h.22z" class="B"/><path d="M103.24 97.36c-2.68 0-5.15.49-7.13 1.32-2.03-.95-4.6-1.51-7.39-1.51-3.62 0-6.87.95-9.06 2.45l-2.89-.14c-6.2 0-11.22 1.91-11.22 4.26S70.58 108 76.77 108c.62 0 1.23-.02 1.82-.06 2.11 1.99 5.86 3.31 10.13 3.31 3.3 0 6.28-.79 8.45-2.06 1.77.58 3.85.92 6.08.92 6.48 0 11.73-2.86 11.73-6.38s-5.25-6.38-11.73-6.38z" class="J"/><path d="M88.71 111.75c-4.17 0-8-1.23-10.31-3.3a29.04 29.04 0 0 1-1.64.05c-6.57 0-11.72-2.09-11.72-4.76s5.15-4.76 11.72-4.76c.93 0 1.86.04 2.76.13 2.35-1.55 5.69-2.44 9.19-2.44 2.7 0 5.25.51 7.4 1.47 2.08-.83 4.54-1.27 7.12-1.27 6.86 0 12.23 3.02 12.23 6.88s-5.37 6.88-12.23 6.88c-2.12 0-4.19-.3-6.02-.88-2.31 1.3-5.32 2.02-8.5 2.02zm-9.95-4.32l.16.15c2.11 1.99 5.77 3.17 9.79 3.17 3.1 0 6.01-.71 8.19-1.99l.2-.12.22.07c1.78.59 3.82.9 5.92.9 6.19 0 11.23-2.64 11.23-5.88s-5.04-5.88-11.23-5.88c-2.54 0-4.94.44-6.94 1.28l-.2.08-.2-.09c-2.06-.96-4.55-1.47-7.18-1.47-3.38 0-6.58.86-8.78 2.37l-.15.1-.18-.02c-.93-.09-1.88-.14-2.84-.14-6.32 0-10.72 1.98-10.72 3.76s4.4 3.76 10.72 3.76c.61 0 1.21-.02 1.79-.06h.22z" class="B"/><path d="M38.2 86.38c-2.68 0-5.15.49-7.13 1.32-2.03-.95-4.6-1.51-7.39-1.51-3.62 0-6.87.95-9.06 2.46l-2.89-.14c-6.2 0-11.22 1.91-11.22 4.26s5.03 4.26 11.22 4.26c.62 0 1.23-.02 1.82-.06 2.11 1.99 5.86 3.31 10.13 3.31 3.3 0 6.28-.79 8.45-2.06 1.77.59 3.85.92 6.08.92 6.48 0 11.73-2.86 11.73-6.38s-5.25-6.38-11.73-6.38z" class="J"/><path d="M23.68 100.78c-4.17 0-8-1.23-10.31-3.3a29.2 29.2 0 0 1-1.64.04C5.16 97.52.01 95.43.01 92.76S5.16 88 11.73 88c.93 0 1.86.04 2.76.13 2.35-1.55 5.69-2.44 9.19-2.44 2.7 0 5.25.51 7.4 1.47 2.08-.83 4.54-1.27 7.12-1.27 6.86 0 12.23 3.02 12.23 6.88s-5.37 6.88-12.23 6.88c-2.12 0-4.19-.3-6.02-.88-2.31 1.3-5.32 2.02-8.5 2.02zm-9.95-4.32l.16.15c2.11 1.99 5.77 3.18 9.79 3.18 3.1 0 6.01-.71 8.19-1.99l.2-.12.22.07c1.78.59 3.83.9 5.92.9 6.19 0 11.23-2.64 11.23-5.88s-5.04-5.88-11.23-5.88c-2.54 0-4.94.44-6.94 1.28l-.2.09-.2-.09c-2.06-.96-4.54-1.47-7.18-1.47-3.38 0-6.58.86-8.78 2.37l-.15.1-.18-.02c-.92-.09-1.88-.14-2.84-.14-6.32 0-10.72 1.98-10.72 3.76s4.4 3.76 10.72 3.76c.61 0 1.21-.02 1.79-.06h.22z" class="B"/><path d="M467.76,129.03c-6,0-11.54,1.1-15.96,2.95-4.55-2.12-10.3-3.38-16.55-3.38-8.11,0-15.38,2.13-20.28,5.49-2.06-.21-4.23-.32-6.47-.32-13.87,0-25.12,4.27-25.12,9.54s11.25,9.54,25.12,9.54c1.39,0,2.75-.04,4.07-.13,4.73,4.45,13.12,7.41,22.68,7.41,7.38,0,14.06-1.76,18.9-4.61,3.97,1.31,8.62,2.06,13.6,2.06,14.5,0,26.25-6.39,26.25-14.28s-11.75-14.28-26.25-14.28Z" class="J"/><path d="M435.25 160.63c-9.29 0-17.82-2.76-22.86-7.4-1.3.08-2.6.11-3.89.11-14.37 0-25.62-4.41-25.62-10.04s11.25-10.04 25.62-10.04c2.14 0 4.27.1 6.33.31 5.17-3.48 12.6-5.48 20.42-5.48 6.05 0 11.77 1.15 16.56 3.34 4.64-1.9 10.14-2.9 15.95-2.9 14.75 0 26.75 6.63 26.75 14.78s-12 14.78-26.75 14.78c-4.78 0-9.46-.7-13.54-2.02-5.1 2.95-11.83 4.57-18.96 4.57zm-22.5-8.42l.16.15c4.84 4.56 13.19 7.27 22.34 7.27 7.05 0 13.67-1.61 18.65-4.54l.2-.12.22.07c4.04 1.33 8.69 2.04 13.44 2.04 14.2 0 25.75-6.18 25.75-13.78s-11.55-13.78-25.75-13.78c-5.76 0-11.21 1.01-15.77 2.91l-.2.08-.2-.09c-4.7-2.18-10.34-3.34-16.33-3.34-7.7 0-14.99 1.97-20 5.41l-.15.1-.18-.02a64.48 64.48 0 0 0-6.42-.32c-13.35 0-24.62 4.14-24.62 9.04s11.28 9.04 24.62 9.04c1.33 0 2.69-.04 4.04-.13h.22z" class="B"/><path d="M334.94 43.42c-4.62 0-8.87.92-12.28 2.47-3.5-1.77-7.92-2.83-12.73-2.83-6.24 0-11.83 1.79-15.61 4.6-1.59-.17-3.25-.27-4.97-.27-10.67 0-19.33 3.58-19.33 7.99s8.65 7.99 19.33 7.99a45.6 45.6 0 0 0 3.13-.11c3.64 3.73 10.09 6.21 17.45 6.21 5.68 0 10.82-1.48 14.54-3.86 3.05 1.1 6.63 1.73 10.46 1.73 11.15 0 20.19-5.35 20.19-11.95s-9.04-11.95-20.19-11.95z" class="J"/><path d="M309.93 69.96c-7.16 0-13.74-2.31-17.64-6.19a48.1 48.1 0 0 1-2.94.09c-11.12 0-19.83-3.73-19.83-8.49s8.71-8.49 19.83-8.49c1.63 0 3.26.08 4.84.25 4-2.91 9.72-4.58 15.75-4.58 4.65 0 9.05.96 12.74 2.78 3.57-1.58 7.81-2.41 12.27-2.41 11.41 0 20.69 5.59 20.69 12.45s-9.28 12.45-20.69 12.45c-3.67 0-7.26-.58-10.4-1.68-3.94 2.46-9.12 3.81-14.61 3.81zm-17.25-7.22l.16.17c3.7 3.79 10.09 6.05 17.09 6.05 5.4 0 10.47-1.34 14.27-3.78l.21-.13.23.08c3.09 1.11 6.65 1.7 10.29 1.7 10.86 0 19.69-5.14 19.69-11.45s-8.83-11.45-19.69-11.45c-4.41 0-8.58.84-12.07 2.42l-.22.1-.21-.11c-3.59-1.82-7.92-2.78-12.5-2.78-5.89 0-11.47 1.64-15.31 4.5l-.16.12-.2-.02c-1.6-.18-3.26-.26-4.92-.26-10.21 0-18.83 3.43-18.83 7.49s8.62 7.49 18.83 7.49c1.03 0 2.07-.03 3.1-.11l.23-.02z" class="B"/><path d="M120.35,176.93c-4.62,0-8.87,.92-12.28,2.47-3.5-1.77-7.92-2.83-12.73-2.83-6.24,0-11.83,1.79-15.61,4.6-1.59-.17-3.25-.27-4.98-.27-10.68,0-19.33,3.58-19.33,7.99s8.65,7.99,19.33,7.99c1.07,0,2.11-.04,3.13-.11,3.64,3.73,10.09,6.21,17.45,6.21,5.68,0,10.82-1.48,14.54-3.86,3.05,1.1,6.63,1.73,10.46,1.73,11.15,0,20.19-5.35,20.19-11.95s-9.04-11.95-20.19-11.95Z" class="J"/><path d="M95.35 203.48c-7.16 0-13.74-2.31-17.64-6.19-.98.06-1.97.09-2.94.09-11.12 0-19.83-3.73-19.83-8.49s8.71-8.49 19.83-8.49a45.27 45.27 0 0 1 4.83.25c4-2.91 9.72-4.58 15.75-4.58 4.65 0 9.05.96 12.74 2.78 3.57-1.58 7.81-2.41 12.27-2.41 11.41 0 20.69 5.59 20.69 12.45s-9.28 12.45-20.69 12.45c-3.67 0-7.26-.58-10.4-1.68-3.94 2.46-9.12 3.81-14.61 3.81zm-17.25-7.22l.16.16c3.7 3.79 10.09 6.05 17.09 6.05 5.4 0 10.47-1.34 14.27-3.78l.21-.13.23.08c3.09 1.11 6.65 1.7 10.29 1.7 10.86 0 19.69-5.14 19.69-11.45s-8.83-11.45-19.69-11.45c-4.41 0-8.58.84-12.07 2.42l-.22.1-.21-.11c-3.59-1.82-7.92-2.78-12.5-2.78-5.89 0-11.47 1.64-15.31 4.5l-.16.12-.2-.02c-1.6-.18-3.26-.27-4.92-.27-10.21 0-18.83 3.43-18.83 7.49 0 4.46 10.48 8.16 21.93 7.38l.23-.02z" class="B"/><path d="M177.16 219.06s-7.11 1.6-8.61 9.1-.5 4.67-4.5 11.08c-4 6.42-39.5 29.92-40 60.42s13 35.5 13 35.5-16.5 36.5 4.5 62 126 31.5 139.5 22 55-41 37.5-103-1-3-1-3 20 .23 14-20.39c-6-20.61-43-53.53-43-53.53s-4-1.78-7.5-20.18-103.89 0-103.89 0z" class="I"/><path d="M249.69 423.92c-36.02 0-93.5-8.2-108.52-26.44-19.68-23.89-6.58-57.72-4.77-62.06-2.47-1.22-13.3-8.15-12.85-35.76.39-23.63 21.68-43.17 33.11-53.67 3.39-3.11 6.07-5.57 6.96-7l1.87-2.92q1.45-2.21 2.05-5.36l.51-2.64c1.55-7.73 8.92-9.47 8.99-9.49.47-.09 45.03-8.19 75.51-8.19 18.15 0 27.9 2.89 28.98 8.58 3.36 17.65 7.19 19.81 7.23 19.83l.12.08c1.52 1.35 37.18 33.25 43.15 53.77 1.87 6.41 1.45 11.52-1.25 15.18-3.58 4.86-10.05 5.68-12.42 5.82l.67 2.39c11.86 42.04-1.17 77.84-37.69 103.54-3.93 2.76-15.46 4.35-31.65 4.35zm2.87-212.54c-30.38 0-74.86 8.09-75.31 8.17-.26.06-6.79 1.63-8.21 8.71l-.51 2.63c-.63 3.32-.65 3.37-2.2 5.72l-1.86 2.9c-.96 1.55-3.55 3.92-7.13 7.21-11.33 10.4-32.41 29.75-32.79 52.95-.49 29.71 12.54 34.97 12.67 35.02l.5.19-.22.49c-.16.36-16.13 36.51 4.43 61.48 14.81 17.99 71.93 26.08 107.75 26.08 15.99 0 27.31-1.52 31.07-4.17 36.15-25.44 49.05-60.86 37.31-102.45l-.74-2.64h-.13l-.13-.37-6.74-24.33-.29-.98.06-.02c-.07-.36-.03-.4 0-.46l.15-.2h.25c.16 0 .26 0 .44.42h.05l.16.61c.27.81.68 2.27 1.42 4.88l5.5 19.43c1.8-.09 8.44-.73 11.89-5.42 2.5-3.4 2.87-8.21 1.1-14.31-5.8-19.94-41.41-52.01-42.81-53.26-.64-.38-4.43-3.31-7.7-20.5-.97-5.08-10.65-7.77-28-7.77z" class="B"/><path d="M137.25,335.62l-.41-.91c.42-.19,42.06-19.21,37.64-65.79l1-.09c4.48,47.31-37.81,66.61-38.23,66.8Z" class="E"/><path d="M166.47 207.59s-8.56 18.3-7.01 23.61c1.4 4.8-17.43 5.94-5.1 13.9 5.6 3.61 128.05 13.84 134.32-5.35 0 0-2.54-7.69-5.29-13.81-.82-1.83.13-6.72-.22-9.71-1.05-8.98-6.7-19.97-6.7-19.97-2.16 23.43-95.63 25.82-110.01 11.33z" class="C"/><path d="M230.8 251.57c-34.06 0-73.27-3.83-76.71-6.05-3.09-1.99-4.5-3.7-4.43-5.36.08-2.17 2.68-3.57 5.19-4.92 2.34-1.26 4.55-2.45 4.13-3.9-1.58-5.43 6.68-23.21 7.04-23.97l.3-.65.5.51c5.35 5.39 23.12 8.87 45.26 8.87 30.84 0 62.69-6.83 63.89-19.9l.16-1.71.79 1.53c.06.11 5.71 11.17 6.76 20.14.15 1.32.06 2.98-.02 4.58-.11 1.99-.22 4.05.2 4.99 2.72 6.07 5.28 13.78 5.3 13.86l.05.16-.05.16c-3.15 9.64-33.47 11.66-58.36 11.66zm-64.17-43.14c-1.47 3.25-8.01 18.1-6.69 22.63.65 2.22-2.03 3.66-4.62 5.06-2.26 1.22-4.6 2.48-4.67 4.08-.05 1.24 1.29 2.75 3.98 4.48 2.93 1.89 40.84 5.89 76.17 5.89s54.8-3.84 57.36-10.82c-.38-1.13-2.73-8.06-5.21-13.6-.52-1.16-.41-3.24-.29-5.45.08-1.56.17-3.17.03-4.41-.81-6.95-4.46-15.22-5.98-18.43-3.49 13.21-35.4 19.25-64.61 19.25-17.39 0-38.21-2.29-45.45-8.68z" class="B"/><path d="M170.75,210.45c-1.31,5.67-3.23,12.76-5.79,19.37-2.94,7.56-7.83,12-11.75,14.49,.35,.26,.73,.52,1.16,.79,1.19,.77,7.68,1.84,17.2,2.86,7.43-9.6,11.18-23.44,13.03-33.48-5.61-1-10.37-2.34-13.85-4.02Z" class="F"/><path d="M171.79 248.48l-.28-.03c-4.64-.5-15.63-1.78-17.42-2.93a29.49 29.49 0 0 1-1.18-.81l-.59-.43.62-.39c3.64-2.32 8.6-6.67 11.55-14.25 2.15-5.53 4.09-12.02 5.77-19.3l.14-.61.56.27c3.34 1.61 7.95 2.95 13.72 3.98l.49.09-.09.49c-1.84 10.02-5.62 23.99-13.13 33.7l-.17.22zm-17.69-4.16c.17.12.35.24.54.36.85.55 5.69 1.56 16.7 2.75 7.16-9.38 10.83-22.76 12.67-32.55-5.31-.97-9.65-2.22-12.91-3.71-1.66 7.08-3.57 13.41-5.68 18.83-2.88 7.41-7.63 11.84-11.33 14.32z" class="B"/><path d="M196.21 215.96c-.92 6.1-2.53 14.7-5.09 22.7-1.43 4.45-3.56 7.91-5.84 10.56l17 1.09c5.49-11.39 7.4-25.35 8.06-33.7-4.87-.04-9.64-.26-14.14-.64z" class="F"/><path d="M202.59 250.82l-.33-.02-17.02-1.09-.98-.08.64-.75c2.56-2.98 4.49-6.47 5.74-10.38 2.58-8.05 4.18-16.75 5.07-22.62l.07-.46.47.04c4.48.38 9.22.6 14.1.64h.54l-.04.54c-.74 9.32-2.75 22.76-8.11 33.88l-.14.3zm-16.31-2.03l15.69 1c5.33-11.25 7.19-25.08 7.83-32.69-4.55-.05-8.98-.25-13.18-.6-.91 5.9-2.5 14.41-5.03 22.31-1.19 3.71-2.97 7.07-5.31 9.98z" class="B"/><path d="M226.87 215.12c-.82 6.15-2.46 16.18-5.41 25.42-1.3 4.07-3.94 7.72-6.02 10.3 5.95.1 12.68-.28 18.55-.38 6.14-13.84 7.3-30.64 7.51-37.11-4.7.76-9.63 1.35-14.63 1.77z" class="F"/><path d="M217.47 251.35h0c-.69 0-1.37 0-2.05-.02l-1.02-.02.64-.8c1.92-2.39 4.63-6.03 5.94-10.14 2.88-9.01 4.52-18.75 5.39-25.33l.05-.4.4-.03c5.08-.42 9.99-1.01 14.59-1.76l.6-.1-.02.61c-.22 6.59-1.39 23.4-7.55 37.29l-.13.29h-.32l-6.53.18-10 .22zm-1.01-1c3.54.03 7.32-.09 10.98-.21l6.22-.17c5.8-13.26 7.05-29.17 7.32-36.02a187.32 187.32 0 0 1-13.66 1.64c-.89 6.61-2.54 16.2-5.38 25.11-1.22 3.82-3.58 7.23-5.48 9.66z" class="B"/><path d="M267.04 207.09c-3.64 1.92-8.16 3.53-13.25 4.86.71 6.07 1.61 16.23 1.05 25.93-.29 5.16-1.73 9.35-3.5 12.65 6.04-.35 11.68-.89 16.66-1.65 3.94-15.72.5-34.94-.97-41.79z" class="F"/><path d="M250.48 251.08l.42-.79c2.03-3.78 3.19-7.96 3.44-12.44.54-9.42-.28-19.25-1.05-25.84l-.05-.43.42-.11c5.24-1.37 9.67-2.99 13.14-4.82l.58-.31.14.64c1.6 7.41 4.89 26.35.97 42.01l-.08.32-.33.05c-4.77.73-10.39 1.29-16.71 1.65l-.89.05zm3.86-38.75c.76 6.62 1.54 16.29 1.01 25.58-.25 4.31-1.31 8.37-3.15 12.07 5.79-.36 10.97-.87 15.41-1.54 3.64-14.96.69-32.9-.92-40.6-3.35 1.69-7.5 3.2-12.35 4.49z" class="B"/><ellipse cx="218.74" cy="180.95" rx="60.25" ry="53.5" class="I"/><path d="M166.3 164.77s-4.47 30.85-2.49 38.2c0 0-5.13-10.41-5.18-17.41s1.45-20.62 3.95-23 3.72 2.21 3.72 2.21z" fill="#b0e0ea"/><path d="M218.74,234.95c-33.5,0-60.75-24.22-60.75-54s27.25-54,60.75-54,60.75,24.22,60.75,54-27.25,54-60.75,54Zm0-107c-32.95,0-59.75,23.78-59.75,53s26.8,53,59.75,53,59.75-23.78,59.75-53-26.8-53-59.75-53Z" class="B"/><path d="M177.45 131.89c-.19-.05-.29-.09-.32-.13-.83-1.24.67-3.44.67-3.44l2.38-7.22 16.29-49.46c2.33-7.15 12.67-19.53 35.17-20.91s35 4.26 38.83 28.48l1.83 6.88-6.83 13.34-10.5-5.09 8.17 44.16-85.68-6.61" class="C"/><path d="M254.98 94.96c-1.03-.55-25.35-13.52-30.04-23.88l.91-.41c4.54 10.04 29.34 23.27 29.59 23.41l-.47.88z" class="E"/><ellipse cx="205.79" cy="177.69" rx="5.75" ry="7.38" class="B"/><use xlink:href="#C"/><path d="M290.55,385.86c0,3.4-2.74,6.15-6.11,6.15s-6.11-2.75-6.11-6.15,2.74-6.15,6.11-6.15,6.11,2.75,6.11,6.15Z" class="B"/><path d="M284.44,392.51c-3.64,0-6.61-2.98-6.61-6.65s2.96-6.65,6.61-6.65,6.61,2.98,6.61,6.65-2.97,6.65-6.61,6.65Zm0-12.3c-3.09,0-5.61,2.54-5.61,5.65s2.52,5.65,5.61,5.65,5.61-2.54,5.61-5.65-2.52-5.65-5.61-5.65Z" class="F"/><path d="M295.35,344.03c0,3.4-2.74,6.15-6.11,6.15s-6.11-2.75-6.11-6.15,2.74-6.15,6.11-6.15,6.11,2.75,6.11,6.15Z" class="B"/><path d="M289.24,350.68c-3.64,0-6.61-2.98-6.61-6.65s2.97-6.65,6.61-6.65,6.61,2.98,6.61,6.65-2.96,6.65-6.61,6.65Zm0-12.3c-3.09,0-5.61,2.54-5.61,5.65s2.52,5.65,5.61,5.65,5.61-2.54,5.61-5.65-2.52-5.65-5.61-5.65Z" class="F"/><path d="M288.67,308.38c0,3.4-2.74,6.15-6.11,6.15s-6.11-2.75-6.11-6.15,2.74-6.15,6.11-6.15,6.11,2.75,6.11,6.15Z" class="B"/><path d="M282.56,315.03c-3.64,0-6.61-2.98-6.61-6.65s2.97-6.65,6.61-6.65,6.61,2.98,6.61,6.65-2.96,6.65-6.61,6.65Zm0-12.3c-3.09,0-5.61,2.54-5.61,5.65s2.52,5.65,5.61,5.65,5.61-2.54,5.61-5.65-2.52-5.65-5.61-5.65Z" class="F"/><path d="M281.35,277.91c0,3.4-2.74,6.15-6.11,6.15s-6.11-2.75-6.11-6.15,2.74-6.15,6.11-6.15,6.11,2.75,6.11,6.15Z" class="B"/><path d="M275.24,284.56c-3.64,0-6.61-2.98-6.61-6.65s2.96-6.65,6.61-6.65,6.61,2.98,6.61,6.65-2.96,6.65-6.61,6.65Zm0-12.3c-3.09,0-5.61,2.54-5.61,5.65s2.52,5.65,5.61,5.65,5.61-2.54,5.61-5.65-2.52-5.65-5.61-5.65Z" class="F"/><ellipse cx="252.17" cy="177.69" rx="5.75" ry="7.38" class="B"/><use xlink:href="#C" x="46.38"/><path d="M227.36 185.45l5-2.5 21-1.5s1.75-2 0 2-12.61 16.25-12.61 16.25-7.14 1.25-10.89-2-4.5-9.25-2.5-12.25z" fill="#ba5e49"/><path d="M237.56 200.44c-2.42 0-5.78-.41-8.03-2.36-3.99-3.46-4.67-9.78-2.59-12.9l.07-.11 5.31-2.61 20.8-1.49c.33-.34.63-.52.89-.52h.27l.24.27c.19.29.27.71-.7 2.93-1.76 4.03-12.25 15.88-12.69 16.38l-.12.13-.17.03c-.06.01-1.41.24-3.27.24zm-9.86-14.6c-1.77 2.82-1.09 8.39 2.48 11.49 2.02 1.75 5.12 2.11 7.38 2.11a21.19 21.19 0 0 0 2.93-.2c1.18-1.34 10.81-12.32 12.41-15.98.25-.57.42-1 .53-1.3h-.03l-20.9 1.5-4.79 2.39z" class="B"/><path d="M230.14 218.47c-10.65 0-15.77-7.17-15.84-7.28l.82-.57c.44.64 11.03 15.39 34.65-.13l.55.84c-8.15 5.36-14.85 7.15-20.18 7.15zm.7-132.3c-1.09-8.44-5.29-13.96-5.33-14.01l.79-.61c.18.23 4.4 5.77 5.53 14.49l-.99.13zm6.19.99c-.39-1.91-4.64-6.93-6.24-8.7l.74-.67c.24.27 5.96 6.61 6.48 9.17l-.98.2zm9.95 6.53c-7.03-7.79-7.11-8.05-7.15-8.18l.48-.14.42-.26c.05.07.65.89 6.99 7.91l-.74.67zm-9.56 100.14c-6.15-4.79-1.27-11.42-1.22-11.48l.8.6c-.18.24-4.33 5.91 1.04 10.09l-.61.79zm5.26-6.23c-.92-1.05-1.29-2.1-1.08-3.13.36-1.79 2.33-2.77 2.41-2.82l.44.9s-1.62.81-1.87 2.12c-.14.71.15 1.47.85 2.27l-.75.66zm-90.65 52.86c-.56-2.57 4.51-6.04 5.09-6.42l.56.83c-1.97 1.32-4.98 3.94-4.66 5.38l-.98.21zm9.18-14.35c-.76-5.38 3.01-14.65 3.17-15.04l.92.38c-.04.09-3.83 9.4-3.11 14.52l-.99.14zm7.21 6.14c-1.63-5.43.58-16.66.67-17.13l.98.19c-.02.11-2.25 11.46-.69 16.65l-.96.29zm-3.89 13.43c-5.41-4.38-1.93-12.02-1.9-12.1l.91.42c-.03.07-3.18 7.01 1.62 10.9l-.63.78zm113.21-21.05l-.95-.31c3.25-9.94 1.72-22.37 1.7-22.49l.99-.13c.02.13 1.58 12.77-1.74 22.93zm3.35 14.31l-.81-.58c5.27-7.39 3.3-10.79 3.28-10.82l.84-.54c.1.16 2.4 3.92-3.31 11.94z" class="E"/><path d="M375.7 338.19l-18.75 3 12-21.33 2.25-56.25-4.5-114.8 25-3.23v161.19l14 26.77-7.25 3.26s-4.75 7.88-6.75 5.88-16-4.5-16-4.5z" class="L"/><path d="M392.47 343.52c-.43 0-.82-.16-1.12-.47-1.54-1.54-11.74-3.64-15.65-4.35l-19.69 3.15 12.45-22.12 2.25-56.13-4.52-115.22 26.02-3.36v161.64l14.19 27.13-7.59 3.42c-.66 1.08-4 6.31-6.33 6.31zm-16.77-5.83h.08c1.45.27 14.21 2.6 16.27 4.65a.56.56 0 0 0 .42.18c1.43 0 4.16-3.65 5.55-5.96l.08-.13 6.91-3.11-13.81-26.41V146.16l-23.98 3.1 4.48 114.34-2.25 56.41-.06.1-11.49 20.42 17.81-2.85z" class="B"/><path d="M415.76 247.14l-15.93-19.25-18 19.25-11.37-20.82-23.51 30.5-6.82-10.74-17.44 10.1L377.28 2.21l61.41 244.93-14.4-12.34-8.53 12.34z" class="K"/><g class="B"><path d="M346.91 257.69l-6.95-10.94-18 10.42.24-1.1L377.24 0l62.32 248.54-15.18-13-8.59 12.42-15.98-19.32-18.09 19.34-11.34-20.75-23.47 30.46zm-6.62-12.29l6.7 10.55 23.54-30.54 11.41 20.88 17.92-19.16 15.86 19.18 8.47-12.25 13.63 11.67-60.5-241.32-53.9 250.77 16.88-9.77zm39.9 54.57c-.5-11.81-9.87-48.32-9.96-48.68l.97-.25c.09.37 9.48 36.97 9.99 48.89l-1 .04zm6.289-42.74l.992-.124 4.753 37.994-.992.124zm2.356-11.482l.995-.102 2.375 23.179-.995.102z"/><path d="M379.47 172.57c-5.95 0-11.62-5.58-13-7.05-2.37 1.64-4.74 2.06-7.04 1.23-8.38-3.01-13-21.49-13.19-22.27l.97-.24c.05.19 4.68 18.74 12.56 21.57 2.08.75 4.26.29 6.47-1.36l.37-.27.3.34c.1.11 9.71 10.77 17.13 5.59l.57.82a8.77 8.77 0 0 1-5.14 1.63zm-4.57-22.21c-2.47 0-4.75-1.51-6.77-4.49l.83-.56c1.93 2.84 4.06 4.2 6.31 4.04 5.95-.42 11.19-10.93 11.25-11.04l.33-.67.49.57c1.33 1.52 2.74 2.13 4.31 1.87 7.15-1.19 14.75-19.6 14.83-19.79l.93.38c-.32.78-7.89 19.12-15.59 20.4-1.71.28-3.31-.28-4.73-1.67-1.28 2.39-6.06 10.56-11.75 10.96-.14.01-.29.02-.43.02zm-4.4-18.16c-2.2 0-3.96-.62-5.21-1.86-1.31-1.29-1.74-2.91-1.89-3.86-1.46.66-2.87.7-4.18.09-4.66-2.14-6.47-11.67-6.54-12.07l.98-.18c.02.09 1.79 9.42 5.98 11.35 1.22.56 2.51.43 3.94-.4l.75-.43v.87s.03 2.34 1.67 3.94c1.1 1.07 2.69 1.62 4.7 1.56l.02 1h-.22zm11.23-28.93c-1.93 0-4.14-1.03-6.6-3.07l.64-.77c2.96 2.46 5.44 3.33 7.39 2.58 3.24-1.24 4.07-6.59 4.08-6.64l.12-.8.66.46c1.12.78 2.14.96 3.13.56 4.01-1.62 6.05-11.9 6.07-12l.98.19c-.09.44-2.16 10.91-6.68 12.74-1.11.45-2.26.36-3.44-.27-.37 1.64-1.54 5.54-4.56 6.7a4.9 4.9 0 0 1-1.79.33zm-7.05-25.53c-.72 0-1.35-.18-1.9-.55-.95-.65-1.37-1.71-1.56-2.47-1.32.92-2.6 1.18-3.8.78-3.35-1.11-4.73-7.09-4.79-7.35l.97-.22c.01.06 1.32 5.68 4.13 6.62 1.04.35 2.23-.03 3.51-1.12l.77-.65.06 1.01s.12 1.8 1.27 2.58c.68.46 1.63.5 2.82.1l.32.95c-.65.22-1.26.33-1.81.33zm3.45-18.67l-.11-.99c1.53-.17 2.59-.71 3.14-1.6.91-1.47.2-3.46.19-3.48l-.38-1.03 1.03.39c2.46.94 4.2.95 5.15.01 1.96-1.92.5-7.59-.23-9.62l.94-.34c.12.32 2.81 7.91-.01 10.67-1.13 1.1-2.92 1.27-5.32.52.15.89.2 2.24-.52 3.4s-2.03 1.86-3.88 2.07zm-7.94 159.22c-2.34 0-4.78-.63-7.29-1.88l.45-.9c4.08 2.03 7.93 2.32 11.43.84 7.94-3.34 11.66-14.63 11.7-14.74l.17-.54.52.24c6.69 3.18 12.91 3.58 18.48 1.19 11.35-4.88 16.35-19.86 16.4-20.01l.95.31c-.21.63-5.18 15.55-16.95 20.62-5.7 2.45-12.03 2.13-18.81-.96-.86 2.37-4.64 11.69-12.07 14.82-1.6.67-3.26 1.01-4.98 1.01zm-47.04 38.08l-.92-.39c.53-1.24 12.98-30.43 22.14-32l.17.99c-8.63 1.47-21.26 31.1-21.39 31.4zm17.48-10.27l-1-.04c.01-.33.42-8.21 7.84-12.05l.46.89c-6.91 3.58-7.3 11.13-7.31 11.21zm58.71-18.15c-.38-3.1-2.03-11.49-5.11-13.04l.45-.89c4.19 2.11 5.59 13.34 5.65 13.82l-.99.12z"/></g><path d="M62.9 309.04l-8.42 1.35 5.39-9.58 1.01-25.27-2.02-51.56 11.23-1.45v72.4l6.29 12.03-3.26 1.47s-2.13 3.54-3.03 2.64-7.19-2.02-7.19-2.02z" class="L"/><path d="M70.43 311.71c-.27 0-.51-.1-.7-.29-.49-.49-3.84-1.33-6.84-1.87l-9.36 1.5 5.84-10.38 1.01-25.14-2.04-51.98 12.25-1.58v72.85l6.48 12.39-3.6 1.62c-.51.83-1.9 2.89-3.03 2.89zm-7.53-3.17h.08c1.08.21 6.49 1.21 7.45 2.17.39-.02 1.45-1.22 2.25-2.54l.08-.13 2.91-1.31-6.1-11.66v-71.96l-10.21 1.32 2 51.11-1.02 25.43-4.94 8.78 7.48-1.2z" class="B"/><path d="M80.89 268.14l-7.15-8.64-8.09 8.64-5.11-9.34-10.56 13.7-3.06-4.83-7.83 4.54 24.52-114.08 27.58 110.01-6.47-5.54-3.83 5.54z" class="K"/><g class="B"><path d="M49.94 273.37l-3.19-5.02-8.39 4.86 25.21-117.28 28.49 113.62-7.24-6.2-3.89 5.63-7.21-8.72-8.17 8.74-5.07-9.28-10.52 13.66zM47.08 267l2.94 4.63 10.59-13.74 5.14 9.41 8-8.56 7.09 8.58 3.77-5.45 5.7 4.88-26.68-106.41L39.8 271.21l7.27-4.21zm17.56 24.89c-.23-5.28-4.42-21.65-4.47-21.81l.97-.25c.17.68 4.27 16.64 4.5 22.02l-1 .04zm2.836-19.173l.992-.124 2.135 17.067-.992.124zm1.036-5.168l.995-.102 1.066 10.406-.995.102z"/><path d="M64.6 234.93c-2.59 0-5.04-2.23-5.89-3.08-1.08.68-2.16.84-3.22.46-3.9-1.4-6.01-9.84-6.1-10.2l.97-.24c.02.08 2.07 8.28 5.47 9.49.86.31 1.72.12 2.65-.57l.37-.27.31.34s4.2 4.65 7.33 2.47l.57.82c-.8.56-1.64.78-2.46.78zm-2.07-9.98c-1.2 0-2.3-.72-3.27-2.14l.83-.56c.81 1.19 1.67 1.76 2.59 1.69 2.08-.15 4.19-3.52 4.82-4.81l.33-.67.49.57c.53.6 1.08.85 1.68.75 2.54-.42 5.52-6.44 6.45-8.72l.93.38c-.36.89-3.67 8.74-7.21 9.33-.76.13-1.46-.07-2.1-.59-.77 1.37-2.85 4.59-5.33 4.76h-.22zm-1.97-8.16c-1.06 0-1.92-.31-2.53-.91-.5-.5-.74-1.09-.86-1.55a2.31 2.31 0 0 1-1.79-.09c-2.22-1.02-3.06-5.43-3.1-5.62l.98-.18c.21 1.13 1.08 4.23 2.53 4.9.46.21.96.16 1.52-.17l.75-.44v.87s.02.94.67 1.58c.44.43 1.08.63 1.91.62l.02 1h-.1zm5.05-12.99c-.93 0-1.99-.48-3.14-1.44l.64-.77c1.25 1.04 2.27 1.41 3.04 1.11 1.08-.41 1.56-2.14 1.66-2.77l.12-.8.66.46c.55.39.92.31 1.14.22 1.38-.56 2.32-3.93 2.56-5.19l.98.19c-.1.52-1.04 5.06-3.17 5.92a1.96 1.96 0 0 1-1.46 0c-.24.89-.84 2.38-2.14 2.88-.29.11-.59.16-.9.16zm-3.17-11.46a1.71 1.71 0 0 1-1-.3c-.36-.25-.57-.59-.7-.91-.56.3-1.11.37-1.64.19-1.62-.54-2.26-3.2-2.33-3.5l.98-.22c.14.62.75 2.47 1.67 2.77.38.12.81-.02 1.31-.45l.77-.66.05 1.01c.01.18.12.72.45.94.23.16.58.16 1.02.01l.32.95c-.32.11-.62.16-.9.16zm1.58-8.4l-.11-.99c.6-.07 1-.26 1.21-.58.34-.54.07-1.32.06-1.33l-.36-1.02 1.01.39c.68.26 1.59.49 2.02.07.69-.68.26-2.83-.17-4.03l.94-.34c.14.38 1.3 3.74-.07 5.08-.52.51-1.28.64-2.27.41.01.4-.05.87-.31 1.3-.37.6-1.03.95-1.95 1.06zm-3.6 71.52c-1.09 0-2.23-.29-3.4-.88l.45-.89c1.76.88 3.41 1 4.91.37 3.45-1.45 5.08-6.4 5.1-6.45l.18-.54.52.24c2.93 1.39 5.65 1.57 8.07.53 4.98-2.14 7.19-8.75 7.21-8.82l.95.31c-.09.29-2.37 7.1-7.77 9.43-2.56 1.1-5.38 1-8.4-.32-.55 1.41-2.28 5.2-5.47 6.54a5.94 5.94 0 0 1-2.34.48zm12.82 4.1c-.23-1.88-1.01-5.08-2.15-5.65l.45-.89c1.98.99 2.62 5.87 2.69 6.42l-.99.12zm346.86-36.19c-2.02-5.57-8.06-20.25-11.76-21.37l.29-.96c4.85 1.46 11.65 19.89 12.41 21.99l-.94.34z"/></g><path d="M213.88 211.72c-.85 0-1.62-.38-2.18-.65-.23-.11-.55-.27-.65-.27v-1c.33 0 .67.17 1.09.37.7.34 1.58.77 2.42.41.89-.38 1.67-1.58 2.3-3.57l.95.31c-.74 2.31-1.68 3.67-2.86 4.18a2.76 2.76 0 0 1-1.06.22zm38.23.12c-1.22 0-2.14-.26-2.8-.79-1.07-.86-1.11-2.19-1.14-3.07 0-.26-.02-.61-.07-.7l.88-.47c.15.29.17.66.18 1.14.03.78.06 1.75.77 2.33.75.61 2.18.73 4.23.35l.18.98c-.83.15-1.58.23-2.24.23z" class="E"/><path d="M175.28 233.13c.25 2.56.54 8.24 0 9.18a4.12 4.12 0 0 1-3.58 2.05c-1.83 0-6.38-1.33-6.86-1.5s-4.78-4.61-4.54-4.92-.92-4.48 1.68-5.84c2.59-1.36 5.14-4.23 7.6-3.9s5.95.18 7.29 1c1.33.82-1.59 3.93-1.59 3.93z" fill="#f3e9af"/><path d="M171.7 244.86c-1.99 0-6.67-1.4-7.02-1.53-.6-.21-4.62-4.35-4.86-5.17l-.07-.25.09-.16c0-.1-.01-.36-.03-.57-.11-1.41-.32-4.34 1.94-5.53.82-.43 1.67-1.04 2.49-1.63 1.75-1.26 3.58-2.57 5.41-2.32l2.6.22c2 .12 3.88.24 4.88.86a1.21 1.21 0 0 1 .57.89c.16 1.22-1.33 3.01-1.9 3.64.11 1.32.64 7.99-.08 9.25-.64 1.11-2.04 2.3-4.01 2.3zm-10.88-6.9c.47.8 3.71 4.16 4.23 4.45.47.16 4.92 1.46 6.65 1.46 1.95 0 2.9-1.38 3.15-1.8.37-.65.28-5.42-.06-8.88l-.02-.23.16-.17c.8-.85 1.88-2.34 1.8-2.99-.01-.08-.04-.13-.11-.17-.79-.49-2.64-.6-4.42-.71l-2.67-.22c-1.47-.2-3.02.94-4.69 2.14l-2.61 1.7c-1.68.88-1.5 3.28-1.41 4.57.03.39.05.65.02.85z" class="B"/><path d="M374.58 14.76c1.18.03 1.62 19.93 1.75 23.18s.08 6-1.77 10-5.94 12.5-6.02 14-.33 6.79-1.33 7.52-4.62 4.82-5.27 5.98-1.16 3.53-1.16 3.53 6.18-64.4 13.8-64.21z" class="D"/><path d="M361.27 79.08l-.99-.15c.64-6.62 6.43-64.67 14.27-64.67.82.02 1.55.04 2.22 21.71l.06 1.96c.13 3.3.07 6.15-1.82 10.23l-.94 2.01c-1.86 3.97-4.97 10.62-5.04 11.81v.18c-.27 4.81-.73 7.12-1.54 7.71-.98.72-4.53 4.74-5.13 5.82s-1.1 3.37-1.1 3.4zm13.11-63.8c-4.9.86-10.16 35.27-12.69 59.61 1-1.48 4.2-5.09 5.22-5.83.23-.17.8-1.19 1.12-6.96v-.19c.08-1.27 2.38-6.27 5.14-12.18l.94-2c1.8-3.89 1.85-6.5 1.73-9.77a88.25 88.25 0 0 1-.06-1.96c-.39-12.51-.85-19.47-1.38-20.72z" class="B"/><path d="M395.87 76.34c-1.21-.07-7.77 19.85-7.22 21.85s-1.45 11.75 1.55 13.25 4 2.18 4.75 2.96c.75.79-1.5 1.04.75.79s7.83 5.99 10.09 7.86 4.2 9.63 4.2 9.63.4-20.45-3.06-26.49-.15-29.21-11.06-29.85z" class="D"/><path d="M410.42 136.44l-.91-3.63c-.53-2.12-2.29-7.92-4.04-9.37-.61-.5-1.43-1.29-2.37-2.21-2.29-2.21-5.75-5.54-7.26-5.54l-1.09.1h-.37l-.18-.37-.11-.35.4-.29s.05-.03.08-.05c-.7-.72-1.63-1.36-4.58-2.83-2.34-1.17-2.06-6.06-1.83-9.98.09-1.56.17-3.03.02-3.58-.61-2.2 5.29-19.82 6.98-22.04.15-.19.38-.45.71-.45 7.67.45 8.72 11.17 9.56 19.78.42 4.31.82 8.37 1.94 10.33 3.49 6.09 3.14 25.91 3.13 26.75l-.07 3.75zm-14.58-21.75c1.77 0 4.53 2.52 7.95 5.82.93.9 1.74 1.68 2.32 2.16 1.37 1.13 2.59 4.16 3.39 6.57-.06-6.06-.5-18.43-3-22.8-1.23-2.14-1.62-6.12-2.07-10.73-.84-8.6-1.8-18.34-8.45-18.86-1.49 1.55-7.31 19.53-6.84 21.21.2.72.12 2.12.02 3.91-.19 3.25-.47 8.15 1.28 9.03 3.17 1.59 4.13 2.28 4.89 3.07.22.23.29.46.3.64h.03c.06 0 .13-.01.19-.01z" class="B"/><path d="M354.02 110.41c2.98-.83 14.17 19.13 14.55 24.08s1.93 8.41 2.13 11.1 1 8.17 0 10.51-2.17 6.54-2.17 6.54 2.41-1.69-3.01 1.06-6.82 9.25-6.57 10 3.4.25 1.82 5.25c-1.57 5-5.65 8.33-5.65 8.33l-4.42 2.17-18.03 12.33s-.22-38.51 5.03-45.67 8.39-43.48 16.32-45.69z" class="D"/><path d="M332.18 202.71v-.94c-.01-1.58-.16-38.76 5.12-45.97 2.1-2.86 3.89-10.71 5.8-19.02 2.87-12.53 5.83-25.48 10.79-26.86a1.15 1.15 0 0 1 .33-.04c3.78 0 14.5 19.92 14.86 24.57.21 2.8.8 5.09 1.32 7.1.39 1.51.72 2.81.81 4l.15 1.7c.29 2.96.68 7.01-.19 9.04-.66 1.54-1.39 3.89-1.81 5.32h.03l.16.37c.12.38-.16.66-.72 1.05l-1.15.81.21-.76c-.55.25-1.26.61-2.14 1.05-5.17 2.63-6.46 8.73-6.32 9.41 0-.03.2.06.34.12.98.44 2.8 1.25 1.48 5.42-1.6 5.08-5.64 8.42-5.81 8.56l-.1.06-4.42 2.17-18.75 12.82zm22.04-91.83c-4.44 1.23-7.47 14.46-10.14 26.13-1.93 8.42-3.75 16.37-5.96 19.39-4.64 6.33-4.92 38.48-4.94 44.43l17.25-11.79 4.43-2.18c.43-.36 4.02-3.53 5.45-8.06 1.05-3.32-.1-3.83-.94-4.21-.37-.17-.75-.34-.88-.73-.32-.96 1.15-7.73 6.82-10.6 1.36-.69 2.35-1.16 2.95-1.41h0c.39-1.35 1.24-4.15 2-5.94.77-1.8.38-5.87.12-8.56l-.16-1.72c-.08-1.1-.41-2.36-.78-3.82-.5-1.96-1.13-4.39-1.35-7.28-.39-5.08-11.27-23.65-13.86-23.65z" class="B"/><path d="M412.24 158.72s-10.5 10.62-10.25 14.75.74 8.38 0 10c-.75 1.62-.02 2.28 2.49 6.7s7.76 8.04 7.76 11.58 6.57 7.82 6.57 7.82 2.18 6.42 3.18 6.1 2.75-1.44 3.25.62 3.68 4.23 5.5 6.92 3.25 3.84 3.25 3.84l-7.5-38.71c0-2.5-2-9.49-2-9.49l-3.92-7.8s-1.7-5.46-1.76-4.96c-.07.5 6.43-8.5-6.57-7.38z" class="D"/><path d="M434.76 228.31l-1.09-.88c-.06-.05-1.51-1.23-3.35-3.95-.74-1.09-1.72-2.1-2.66-3.08-1.33-1.38-2.59-2.68-2.91-4-.2-.83-.57-.83-.77-.83-.38 0-.87.19-1.29.36l-.54.21-.23.04c-.91 0-2.09-2.12-3.52-6.29-1.01-.68-6.65-4.63-6.65-8.14 0-1.94-1.86-4.05-3.83-6.29-1.4-1.59-2.84-3.23-3.87-5.04l-1.13-1.95c-1.62-2.78-2.11-3.62-1.38-5.2.56-1.21.33-4.42.11-7.52l-.15-2.25c-.26-4.3 9.96-14.69 10.39-15.13l.13-.13.18-.02c4.78-.42 7.62.48 8.44 2.64.76 1.99-.55 4.42-1.19 5.3.4.94 1.15 3.28 1.6 4.75l3.89 7.72c.12.38 2.05 7.18 2.05 9.72 0 1.93 4.9 26.1 7.49 38.61l.28 1.37zm-10.78-13.74c.62 0 1.42.28 1.74 1.59.26 1.06 1.42 2.27 2.66 3.54.97 1.01 1.98 2.05 2.77 3.21a24.93 24.93 0 0 0 2.01 2.6l-7.17-37.18c0-2.4-1.96-9.29-1.98-9.36l-3.88-7.71c-.62-1.96-1.31-4.07-1.59-4.72l-.25-.28.09-.68.27-.02c.46-.62 1.69-2.8 1.05-4.4-.68-1.7-3.28-2.06-5.35-2.06a25.56 25.56 0 0 0-1.88.08c-2.96 3.02-10.17 11.08-9.98 14.24l.15 2.24c.25 3.52.46 6.56-.2 8.01-.5 1.08-.25 1.56 1.34 4.28l1.13 1.96c.98 1.72 2.39 3.33 3.75 4.88 2.1 2.38 4.08 4.63 4.08 6.95 0 2.69 4.58 6.25 6.34 7.4l.15.09.06.16c.85 2.51 2.09 5.35 2.65 5.75.12-.04.25-.1.39-.15.51-.2 1.09-.44 1.67-.44z" class="B"/><path d="M430.88 325.66c-.35-7.07-8.17-6.77-10.83-7.06-2.67-.28-11.33-5.56-14.67-.76-3.33 4.8-6.78 14.26-6.78 14.26l-13.72 5.88s-8.93 1.33-7.38 3 3.05 5.67 2.63 7-16.42 2.67-9.75 6.33c6.67 3.67 18.59 4 22.63 3s12.7-5.67 16.7-5.33c4 .33 22-9.65 21.17-26.33z" class="D"/><path d="M387.49 358.3c-5.27 0-12.59-.93-17.35-3.55-1.37-.75-1.98-1.51-1.87-2.31.22-1.63 3.33-2.51 7.7-3.57 1.54-.37 3.45-.84 3.73-1.13.29-1-1.06-4.81-2.56-6.43-.4-.43-.33-.84-.26-1.05.53-1.51 5.63-2.44 7.87-2.77l13.46-5.76c.53-1.44 3.67-9.7 6.77-14.17 1.03-1.48 2.61-2.23 4.72-2.23 2.51 0 5.29 1.03 7.52 1.86 1.22.45 2.28.84 2.89.91.28.03.62.05.99.08 3.23.22 9.95.69 10.29 7.45.42 8.36-3.81 14.65-7.43 18.45-5.22 5.49-11.5 8.41-14.03 8.41h0-.25c-2.44-.19-6.82 1.59-10.66 3.16-2.25.92-4.37 1.79-5.88 2.16-1.3.32-3.31.5-5.64.5zm22.2-41.97c-1.78 0-3.06.59-3.89 1.8-3.26 4.69-6.69 14.05-6.72 14.15l-.07.2-.2.09-13.84 5.91c-3.63.54-6.96 1.54-7.14 2.13 1.62 1.73 3.3 5.89 2.79 7.53-.2.65-1.24.95-4.4 1.72-2.38.58-6.8 1.65-6.94 2.73-.02.12.03.57 1.36 1.3 4.59 2.53 11.72 3.42 16.87 3.42 2.23 0 4.2-.17 5.4-.47 1.44-.36 3.53-1.21 5.74-2.11 3.96-1.62 8.48-3.45 11.12-3.23h.16 0c2.29 0 8.35-2.88 13.31-8.1 3.48-3.66 7.55-9.7 7.15-17.71-.29-5.87-6.19-6.28-9.36-6.5l-1.03-.08c-.74-.08-1.8-.47-3.13-.97-2.16-.8-4.85-1.8-7.17-1.8z" class="B"/><path d="M55.44 196.94c.03.74 1.14 11.88 6.02 12.38s11.71 15.12 14.92 18.12l6 5.55s3.42-25.15-6-33.98c-9.42-8.82-11.51-1.18-13.59-1.12-2.08.05-7.62-7.7-7.35-.95z" class="D"/><path d="M82.74 234.01l-.7-.64-6.01-5.56c-1.16-1.09-2.72-3.54-4.52-6.38-3.2-5.04-7.17-11.31-10.11-11.61-5.54-.57-6.46-12.73-6.47-12.85-.06-1.46.14-2.37.62-2.87a1.33 1.33 0 0 1 .98-.41c1.03 0 2.29 1 3.62 2.06.93.74 2.08 1.65 2.61 1.65.33 0 .82-.46 1.33-.93 1-.93 2.38-2.2 4.53-2.2 2.29 0 4.94 1.43 8.09 4.38 9.5 8.9 6.3 33.37 6.16 34.41l-.13.94zm-26.2-39.32c-.12 0-.19.03-.26.1-.15.16-.4.65-.34 2.14.07 1.77 1.39 11.47 5.57 11.9 3.42.35 7.37 6.58 10.85 12.07 1.69 2.66 3.29 5.18 4.36 6.18l5.28 4.89c.5-4.67 2.13-25-5.96-32.58-2.91-2.73-5.4-4.11-7.4-4.11-1.76 0-2.92 1.07-3.85 1.93-.68.63-1.27 1.18-1.97 1.19h0c-.91 0-2-.87-3.26-1.87-1.03-.82-2.31-1.84-2.99-1.84z" class="B"/><path d="M56.71 191.84c.99-.89 5.44-5.51 7.25-7.77 1.82-2.25 2.62-4.88 2.8-6.25.18-1.38.62-4.61.28-5.96s-.07-4.22-.71-4.79c-.63-.57-.71-4.2-1.2-4.5s-1.06-2.57-1.17-3.01.54-.62-.36-1.43-9.38 26.19-6.89 34.56" class="D"/><path d="M56.23 192.84c-2.47-8.29 5.49-34.17 7-35.13a.57.57 0 0 1 .71.05c.72.65.74 1.11.55 1.61-.01.03-.03.08-.03.1.59 2.34.95 2.67.96 2.69.4.24.52.93.74 2.34.11.69.31 1.99.52 2.21.5.44.58 1.44.66 3.02.04.75.08 1.52.2 2.02.36 1.45-.08 4.74-.27 6.15-.21 1.6-1.1 4.25-2.91 6.5s-6.22 6.83-7.27 7.79c.03.13.07.26.1.38l-.96.29zm7.35-33.98c-1.65 3.02-7.8 23.4-6.7 32.13 1.5-1.48 5.11-5.26 6.7-7.23 1.79-2.23 2.54-4.82 2.7-6 .17-1.23.61-4.51.29-5.77-.15-.59-.19-1.41-.23-2.21-.04-.79-.1-2.11-.33-2.33-.43-.39-.61-1.32-.84-2.8-.09-.61-.24-1.52-.36-1.71-.13-.06-.6-.34-1.33-3.25-.07-.3.01-.52.07-.68.01-.04.04-.1.04-.12 0 0 0-.01-.01-.03z" class="B"/><path d="M42.2 266.87c1.03 2.23 9.5-4.27 12.27-8.5s4.68-4.02 5.2-8.1 1.3-9.68 2.04-14.01c.74-4.32.51-14.57 0-15.32s-5.81-11.15-7.24-12.42c-1.43-1.26-2.28-1.36-2.28-1.36l-9.99 40.79c-1.25 6.24-3.5 11.34 0 18.91z" class="D"/><path d="M43.04 267.83h0c-.82 0-1.16-.47-1.29-.74-2.99-6.47-1.88-11.2-.71-16.2l.67-3.02c1.24-6.18 9.91-40.47 10-40.81l.11-.42.43.05c.1.01 1.05.15 2.55 1.48 1.02.9 3.54 5.5 6.02 10.14l1.3 2.37c.7 1.03.76 11.73.08 15.69-.85 4.99-1.7 11.44-2.03 13.99-.35 2.68-1.28 3.65-2.57 4.99-.79.82-1.68 1.74-2.71 3.32-2.38 3.62-9.15 9.18-11.85 9.18zm9.51-60.01l-9.85 40.24c-.21 1.04-.45 2.06-.68 3.05-1.13 4.83-2.2 9.4.64 15.55.02.05.08.16.38.16 2.18 0 8.67-5.14 11.02-8.73 1.09-1.66 2.05-2.66 2.83-3.46 1.24-1.29 1.99-2.07 2.3-4.42.33-2.55 1.18-9.02 2.04-14.03.72-4.21.48-14.09.07-14.98-.13-.19-.55-.97-1.34-2.44-1.69-3.15-4.83-9.01-5.8-9.86-.71-.62-1.25-.94-1.6-1.09z" class="B"/><path d="M55.08 302.44s-5.89 3.5-3.82 4.62 1.43-.65 5.69-1.07c4.25-.43 7.07 3.26 7.07 3.26s-1.19-1.88 3.94-3.41 11.25 4.47 12 1.22 4.62 3.88.62 6.88-19 8-24.75 4.75-10.25-3.88-10.25-5.88-1.75-3 0-4.5 4.12-8.5 9.5-5.88z" class="D"/><path d="M61.01 320.25c-2.28 0-4.11-.38-5.43-1.12-2.22-1.25-4.27-2.12-5.91-2.82-2.76-1.17-4.59-1.94-4.59-3.49 0-.64-.21-1.17-.41-1.69-.37-.94-.79-2.01.59-3.19.38-.32.82-.99 1.34-1.76 1.36-2.03 3.22-4.81 6.19-4.81.81 0 1.65.21 2.52.63l.83.41-.8.47c-1.94 1.16-4.03 2.84-4.02 3.56 0 .03 0 .1.18.2.39.21.66.31.87.31s.39-.1.74-.3c.65-.37 1.64-.92 3.79-1.14 3.1-.32 5.47 1.4 6.66 2.53.46-1.06 1.89-1.95 4.25-2.65a7 7 0 0 1 1.97-.28c2.12 0 4.28.86 6.01 1.55 1.22.49 2.27.91 2.96.91.43 0 .61-.16.71-.59.24-1.06.81-1.22 1.13-1.22.86 0 1.55 1.14 1.91 2.2.64 1.91.6 4.74-1.62 6.4-3.17 2.38-12.91 5.91-19.87 5.91zm-8.23-17.89c-2.43 0-4.06 2.42-5.36 4.37-.56.83-1.04 1.56-1.52 1.97-.84.72-.66 1.17-.31 2.07.21.55.48 1.23.48 2.05 0 .89 1.67 1.59 3.98 2.57 1.67.71 3.75 1.59 6.02 2.87 1.17.66 2.83.99 4.94.99 6.76 0 16.2-3.41 19.27-5.71 2.05-1.54 1.59-4.12 1.39-4.87-.32-1.27-.89-1.88-1.07-1.93 0 .02-.08.12-.16.44-.21.9-.79 1.37-1.69 1.37s-2.02-.45-3.33-.98c-1.74-.69-3.71-1.48-5.64-1.48a6.11 6.11 0 0 0-1.69.23c-2.74.82-3.45 1.68-3.63 2.12-.13.32-.03.53-.02.55l-.83.56s-2.69-3.46-6.62-3.07c-1.94.2-2.78.67-3.4 1.02-.74.42-1.36.66-2.58 0-.6-.33-.7-.8-.7-1.06-.02-1.3 2.22-2.97 3.65-3.91-.41-.12-.81-.18-1.19-.18z" class="B"/><path d="M252.17 314.19l-1.41 22.63h1.41l1.66-22.98-1.66.35z" class="C"/><use xlink:href="#D" class="B"/><path d="M255.25 313.62l-1.42 22.63h1.42l1.66-22.98-1.66.35z" class="C"/><use xlink:href="#E" class="B"/><path d="M258.84 312.93l-1.41 22.62h1.41l1.67-22.97-1.67.35z" class="C"/><use xlink:href="#E" x="3.6" y="-0.7" class="B"/><path d="M262.3 312.18l-1.42 22.62h1.42l1.66-22.98-1.66.36z" class="C"/><use xlink:href="#D" x="10.12" y="-2.02" class="B"/><path d="M265.66 311.42l-1.42 22.63h1.42l1.66-22.98-1.66.35z" class="C"/><use xlink:href="#D" x="13.48" y="-2.77" class="B"/><path d="M268.73 310.93l-1.41 22.62h1.41l1.66-22.97-1.66.35z" class="C"/><use xlink:href="#E" x="13.49" y="-2.7" class="B"/><path d="M271.81 310.12l-1.42 22.63h1.42l1.66-22.98-1.66.35z" class="C"/><use xlink:href="#D" x="19.63" y="-4.07" class="B"/><path d="M275.12 309.42l-1.42 22.63h1.42l1.66-22.98-1.66.35z" class="C"/><use xlink:href="#E" x="19.87" y="-4.2" class="B"/><path d="M278.19 308.73l-1.41 22.63h1.41l1.66-22.98-1.66.35z" class="C"/><use xlink:href="#D" x="26.02" y="-5.46" class="B"/><path d="M220.84 250.97s32.86 29.23 31.34 42.73 0 20.5 0 20.5l28.23-6s4.8-55.09-25.23-57.92l-34.34.69z" class="C"/><path d="M251.79 314.79l-.11-.49c-.06-.29-1.52-7.24 0-20.66 1.47-13.09-30.85-42.01-31.17-42.3l-.95-.85 35.62-.72c30.23 2.85 25.78 57.91 25.73 58.46l-.03.37-29.08 6.18zm-29.68-63.35c5.48 5 31.97 29.85 30.56 42.31-1.27 11.29-.4 18.05-.1 19.85l27.36-5.82c.34-4.79 3.11-54.38-24.8-57.01l-33.02.67z" class="B"/><path d="M258.25 251.16c-9.63 3.48-19.33 7.43-26.35 10.37 4.11 4.25 8.76 9.39 12.62 14.54l31.85-6.46c-3.27-8.95-8.81-16.46-18.12-18.46z" class="F"/><path d="M244.31 276.63l-.19-.26c-3.3-4.4-7.53-9.28-12.58-14.49l-.51-.53.67-.28c6.6-2.77 16.53-6.82 26.37-10.38l.13-.05.14.03c8.37 1.79 14.59 8.11 18.49 18.77l.2.55-.58.11-31.84 6.45-.31.07zm-11.54-14.92c4.75 4.94 8.77 9.58 11.96 13.8l30.97-6.28c-3.76-9.92-9.61-15.83-17.41-17.56-9.45 3.42-18.97 7.29-25.51 10.03z" class="B"/><path d="M278.59 278.34c-9.55 3.33-19.52 7.29-27.19 10.46.65 1.92.95 3.71.77 5.28-.59 5.22-.72 9.46-.66 12.7 8.17-1.93 18.95-4.16 29.17-6.2 0-5.83-.37-14.1-2.09-22.24z" class="F"/><path d="M251.02 307.41v-.62c-.08-3.94.14-8.23.65-12.77.16-1.41-.09-3.11-.75-5.06l-.15-.44.43-.18c9.96-4.12 19.37-7.74 27.21-10.47l.54-.19.12.56c1.75 8.3 2.11 16.74 2.11 22.35v.41l-.4.08-29.15 6.19-.6.14zm1-18.32c.59 1.91.81 3.61.65 5.05-.48 4.25-.7 8.29-.67 12.02 6.97-1.63 16.44-3.64 28.18-5.98-.01-5.43-.37-13.33-1.97-21.17-7.61 2.67-16.64 6.14-26.2 10.08z" class="B"/><path d="M224.02 250.74l7.88 6.16" class="I"/><path d="M223.711 251.158l.616-.788 7.88 6.157-.616.788z" class="E"/><path d="M230.44 250.85l7.41 5.13" class="I"/><path d="M230.15 251.247l.569-.822 7.418 5.131-.569.822z" class="E"/><path d="M237.27 250.53l5.42 4.45" class="I"/><path d="M236.948 250.883l.635-.773 5.415 4.451-.635.773z" class="E"/><path d="M265.95 264.38c-2.08-8.97-11.24-11.39-11.33-11.42l.25-.97c.1.03 9.84 2.6 12.06 12.16l-.97.23zm-7.23-2.22c-1.59-6.75-7.77-7.68-8.03-7.71l.13-.99c.07 0 7.12 1.04 8.87 8.48l-.97.23zm-7.79-3c-1.27-3.39-3.84-3.24-3.95-3.24l-.08-1s3.42-.24 4.96 3.88l-.94.35z" class="B"/><path d="M177.69,319.92l-.95-.33c5.4-15.62-1.87-46.46-1.95-46.77l.97-.23c.31,1.28,7.42,31.43,1.92,47.33Z" class="E"/><path d="M173.96 312.34l-.98-.19c1.59-8.39.01-20.18 0-20.3l.99-.13c.02.12 1.62 12.08 0 20.62zm-4.97 13.08l-.98-.19c1.59-8.39.01-20.18 0-20.3l.99-.13c.02.12 1.62 12.08 0 20.62z" class="B"/><path d="M159.89,246.44s-4.34,2.56-4.95,6.19" class="D"/><use xlink:href="#F" class="B"/><path d="M162.73,246.98s-4.34,2.56-4.95,6.19" class="D"/><use xlink:href="#F" x="2.84" y="0.54" class="B"/><path d="M166.56,247.43s-4.34,2.56-4.95,6.19" class="D"/><use xlink:href="#F" x="6.67" y="0.99" class="B"/><path d="M311.42,290.99s5.09,10.77,7.9,13.21" class="D"/><path d="M319 304.57c-2.86-2.48-7.82-12.93-8.03-13.37l.9-.43c.05.11 5.08 10.7 7.78 13.04l-.65.76z" class="B"/><path d="M315.89,306.76s2.62,3.19,4.62,3.63" class="D"/><path d="M320.41 310.87c-2.14-.47-4.79-3.66-4.9-3.8l.77-.64c.7.85 2.85 3.13 4.34 3.46l-.21.98z" class="B"/><path d="M287.28,242.03s6.05,2.35,9.8,10.44" class="D"/><path d="M296.63 252.69c-3.61-7.79-9.47-10.17-9.53-10.19l.36-.93c.25.1 6.28 2.52 10.07 10.7l-.91.42z" class="B"/><path d="M284.44 244.18s3.45.73 4.82 6.09" class="D"/><path d="M288.78 250.4c-1.27-4.96-4.32-5.7-4.45-5.73l.21-.98c.15.03 3.77.86 5.2 6.45l-.97.25z" class="B"/><path d="M281.35 245.64s2.05.62 2.05 3.31" class="D"/><path d="M283.89 248.94h-1c0-2.26-1.62-2.81-1.69-2.83l.29-.96c.83.25 2.4 1.36 2.4 3.78z" class="B"/><path d="M103.34 391.5l13.05-4.14" class="G"/><path d="M103.191 391.017l13.051-4.133.302.953-13.051 4.133z" class="B"/><path d="M103.65 394.44l6.22-2" class="G"/><path d="M103.524 393.946l6.215-2.004.307.952-6.215 2.004z" class="B"/><path d="M104.62 397.89l2.67-1.3" class="G"/><path d="M104.386 397.454l2.664-1.291.436.9-2.664 1.291z" class="B"/><path d="M105.41 400.68l2.51-.5" class="G"/><path d="M105.282 400.203l2.511-.5.195.981-2.511.5z" class="B"/><path d="M132.12 379.69l4.77 17.7" class="G"/><path d="M131.618 379.833l.966-.26 4.766 17.689-.966.26z" class="B"/><path d="M134.5 379.01l2.39 11.28" class="G"/><path d="M134.013 379.118l.978-.207 2.383 11.281-.978.207z" class="B"/><path d="M137.36 378.68l3.75 17.35" class="G"/><path d="M136.87 378.781l.977-.211 3.745 17.35-.977.211z" class="B"/><path d="M139.31 378.15l2.3 7.71" class="G"/><path d="M138.822 378.316l.958-.285 2.294 7.706-.958.285z" class="B"/><path d="M141.61 376.98l3.13 14.36" class="G"/><path d="M141.147 377.067l.977-.213 3.132 14.363-.977.213z" class="B"/><path d="M261.95,131.16s-4.5-4.28-7.78-5.09" class="C"/><path d="M261.61 131.53s-4.44-4.2-7.56-4.97l.24-.97c3.37.83 7.82 5.04 8.01 5.22l-.69.73z" class="B"/><path d="M260.2,122.64s-2.4-6.41-6.03-7.07" class="C"/><path d="M259.73 122.81c-.02-.06-2.35-6.15-5.65-6.75l.18-.98c3.86.7 6.3 7.11 6.41 7.39l-.94.35z" class="B"/><path d="M257.46,107.84s-2.04-8.9-5.88-10.15" class="C"/><path d="M256.97 107.95c-.02-.09-2.02-8.63-5.55-9.78l.31-.95c4.07 1.32 6.13 10.14 6.22 10.51l-.97.22z" class="B"/><path d="M270.35,78.48s-6.1-5.83-11.14-6.29" class="C"/><path d="M270 78.84c-.06-.06-6.03-5.71-10.84-6.15l.09-1c5.16.47 11.19 6.18 11.44 6.42l-.69.72z" class="B"/><path d="M264.71,62.23s-10.59-1.87-13.26,2.42" class="C"/><path d="M251.88 64.92l-.85-.53c2.81-4.53 13.32-2.73 13.77-2.65l-.17.98c-.1-.02-10.29-1.76-12.75 2.19z" class="B"/><path d="M177.6 127.97l5.14-15.63 4.08-10.67s4.64-17.4 5.95-18.29 3.78 45.88 5.89 47.39c0 0-4.3-1.82-6.73-1.61-2.44.21-7.62 2.18-9.23 2.94l-5.98-.23.89-3.9z" fill="#f48f98"/><g class="B"><path d="M263.74 139.04l-.64-.04c-38.96-2.52-85.58-5.77-86.38-6.96-.94-1.39.34-3.5.63-3.94l2.36-7.15L196 71.49c2.2-6.73 12.46-19.84 35.61-21.25 2.1-.13 4.1-.19 5.94-.19 20.47 0 30.15 8.43 33.42 29.09l1.87 7.01-7.14 13.95-10.05-4.87 8.1 43.82zm-86.25-7.66c2.99.98 52.03 4.44 85.03 6.58l-8.23-44.5 10.95 5.31 6.52-12.74-1.78-6.69c-3.23-20.38-12.32-28.3-32.44-28.3a94.84 94.84 0 0 0-5.88.19c-22.61 1.38-32.6 14.06-34.72 20.57l-16.29 49.46-2.44 7.34c-.33.48-1.12 1.98-.72 2.78z"/><path d="M177.47 130.59l-.81-.59c.18-.25 4.45-6.07 9.1-7.35l.27.96c-4.32 1.19-8.52 6.92-8.56 6.98zm3.07-9l-.97-.23c1.26-5.46 10.59-10.37 10.99-10.57l.46.89c-.09.05-9.32 4.9-10.48 9.91zm4.34-13.15l-.98-.21c1.57-7.3 9.74-14.92 10.09-15.24l.68.73c-.08.08-8.29 7.73-9.79 14.72z"/></g><path d="M268.8 84.71s-8.33-1.24-8.33 4.26-4.17 7.98-1.83 10.18c2.33 2.2 2.29 3.99 4.73 3.85 0 0 3.6 6.6 10.6 5.78 7-.83 8.5-2.75 8.5-2.75s9.67.55 11.67-5.09 0-7.02 0-7.02 3.17-2.34 2.33-6.33c-.83-3.99-5-11.14-12.5-8.25s-6.7 3.03-6.7 3.03-4.13-4.81-8.46 2.34z" class="F"/><path d="M272.77 109.36c-5.73 0-8.96-4.65-9.69-5.84-1.63 0-2.27-.88-3.07-1.98-.44-.6-.94-1.28-1.72-2.01-1.51-1.42-.77-2.96.08-4.74.71-1.49 1.6-3.34 1.6-5.81 0-3.15 2.46-4.88 6.92-4.88.72 0 1.31.05 1.65.08 1.63-2.58 3.44-3.89 5.38-3.89 1.57 0 2.77.87 3.35 1.39.73-.45 2.44-1.23 6.51-2.8 1.21-.47 2.4-.7 3.54-.7 5.6 0 8.88 5.72 9.63 9.32.71 3.38-1.22 5.64-2.11 6.47.57.8 1.29 2.8-.25 7.14-1.79 5.05-9.21 5.44-11.44 5.44h-.5c-.6.54-2.75 2.04-8.64 2.74-.42.05-.84.07-1.26.07zm-9.12-6.87l.15.28c.03.06 3.14 5.59 8.97 5.59a8.83 8.83 0 0 0 1.14-.07c6.6-.78 8.16-2.55 8.17-2.57l.16-.19h.26s.25.02.67.02c2.07 0 8.93-.34 10.5-4.77 1.81-5.11.19-6.43.18-6.44l-.52-.4.52-.4c.12-.09 2.9-2.21 2.14-5.82-.69-3.3-3.65-8.53-8.65-8.53-1.01 0-2.08.21-3.18.64-4.04 1.56-5.58 2.28-6.17 2.6l.61.67-1.83-.29v-.24c-.37-.36-1.44-1.27-2.83-1.27-1.64 0-3.22 1.24-4.7 3.68l-.17.28-.33-.05s-.78-.11-1.84-.11c-2.7 0-5.92.67-5.92 3.88 0 2.69-.94 4.66-1.7 6.24-.88 1.84-1.23 2.69-.3 3.58.84.8 1.4 1.55 1.84 2.15.82 1.11 1.2 1.64 2.52 1.57l.31-.02z" class="B"/><path d="M262.36 103.42h-.09l.02-1s4.74.07 6.15-3.32l.92.38c-1.58 3.78-6.28 3.93-7.01 3.93zm19.99-3.12c-.77 0-1.42-.19-1.92-.63l.67-.74c1.96 1.76 9.22-2.73 13.34-5.96l.62.79c-.98.77-8.48 6.56-12.71 6.56z" class="E"/><path d="M276.74,81.88s6.77,3.6,7.27,6.72" class="I"/><path d="M283.52 88.68c-.38-2.36-5.19-5.39-7.02-6.36l.47-.88c.29.15 7 3.75 7.54 7.08l-.99.16zm-7.28 1.55c-.02-4.71-9.53-5.13-9.62-5.13l.04-1c.43.02 10.56.46 10.58 6.13h-1z" class="E"/><path d="M243.2 51.57s-3.48 10.5-8.86 10c-5.39-.5-12.51-.34-12.89.02-.37.36-3.12 2.11-8.87 1.86s-9.41-1.66-9.41-1.66 1.04-12.09 7.66-14.09 14.57.75 14.57.75 11.8-11.75 17.8 3.12z" fill="#f3e9af"/><g class="B"><path d="M213.68 63.97c-.36 0-.74 0-1.12-.02-5.77-.25-9.42-1.63-9.57-1.69l-.35-.14.03-.37c.04-.51 1.14-12.46 8.02-14.53 1.65-.5 3.52-.75 5.55-.75 4.25 0 7.98 1.08 9.04 1.41.98-.91 4.97-4.34 9.36-4.34 3.89 0 6.93 2.64 9.03 7.84l.07.17-.06.17c-.14.42-3.5 10.36-8.97 10.36h0c-.14 0-.28 0-.42-.02-2.18-.2-4.85-.31-7.5-.31-2.97 0-4.72.14-5.06.25-.41.32-2.76 1.96-8.05 1.96zm-9.97-2.52c1.05.35 4.31 1.3 8.89 1.5 6.04.27 8.49-1.7 8.51-1.72.14-.13.5-.47 5.68-.47 1.56 0 4.61.04 7.6.32.11 0 .22.01.33.01h0c4.4 0 7.5-8.2 7.96-9.5-1.93-4.68-4.63-7.05-8.03-7.05-4.54 0-8.84 4.22-8.88 4.26l-.22.22-.29-.1s-4.26-1.45-9-1.45c-1.94 0-3.71.24-5.26.71-5.58 1.68-7.02 11.23-7.27 13.27z"/><path d="M162.46 162.24s3.76 3.22 5.26 3.73 5.13 1.04 6.95.54l5.69-1.56c1.38-.31 3.37-1.38 4.62-.88s3.87.56 5.19.44 7.61-.92 9.37-1.46c1.75-.54 7.31-1.26 9.38-2.17 2.07-.9 5.89-.82 7.57-1.78s6.12-1.41 7.37-1.97 3.12-1.38 4.44-1.5 2.12-.88 3.56 0l4.31 2.41c.75.27 4.43 2.35 5.06 2.72s3.19 1.55 3.94 1.62 6.95.76 8.12.25c1.18-.51 4.29-.44 4.62-.36.34.08 3.38 2.31 3.88 2.74s2.95 1.49 4.62 1.69c1.68.21 5.25 1.58 6.31 1.41s3.87-.92 3.87-.92 1.59 4.4 1.31 4.62c-.28.23-10.56 2.81-13.19 0s-3.39-5.44-8.26-5.56-9.75.26-14.18-2.09c-4.44-2.35-12.87-5.35-15.75-4.66s-10.56 2.38-15.56 4.66-20.25 3.65-22.12 3.03-4.62 3.12-11.62 2.19-14.76-1.83-15.66-3.88.89-3.26.89-3.26z" class="H"/></g><path d="M163.97 143.59s-9.67-7.43 4-8.39c0 0-1.67-6.05 9.17-3.44 10.83 2.61 10.08-8.16 28.29 2.73 0 0 15.88-5.21 20.71-3.28s9.88 5.48 9.88 5.48 10.79-3.55 17.62-2.72 21 3.3 24.83 10.45 6.33 14.17 3.5 16.37-3.67 9.9-14.5 6.47c-10.83-3.44-5.17-5.37-16.17-4.4s-17.33-9.22-24-6.88-35.67 9.9-41.67 8.53c-6-1.38-10.17 4.95-19.33.28-9.17-4.68-9.14-12.24-5.65-14.31 0 0-3.02-6.47 3.32-6.88z" class="F"/><path d="M215.64 149.93l-.99-.15c.95-6.15-9.44-14.82-9.55-14.9l.64-.77c.45.37 10.93 9.12 9.9 15.83zm37.33-.62c-9.86-1.05-18.03-12.53-18.37-13.02l.82-.57c.08.12 8.25 11.6 17.66 12.6l-.11.99zm-69.21 15.71c-.93 0-1.51-.09-1.53-.09l.16-.99c.37.06 9.02 1.36 13.05-7.42l.91.42c-3.31 7.2-9.67 8.08-12.59 8.08z" class="E"/><path d="M257.06 163.13c-.36 0-.56-.01-.58-.01l.07-1c.1 0 9.45.59 13.01-7.05l.91.42c-3.32 7.12-11.22 7.64-13.41 7.64z" class="B"/><g fill="#f8efb1"><path d="M160.25 150.82s2.46 11.62 5.46 13.79c0 0-5.29-2.88-6.37-6.42s-.58-5.54-.58-5.54l1.5-1.83zm3.7-7.42s-3.81 1.25-3.78 2.62.9 8.12 3.61 9.83 8.04 4.29 8.04 4.29-10.08-11.92-7.87-16.75z"/><path d="M166.2 135.44s-5.04 1.04-5.12 1.92-.67 2.46.17 3.46l1.96 2.35s1.48.81 3.47.65c1.99-.17 4.74.5 4.74.5s-6.04-7.58-5.21-8.88z"/></g><path d="M173.1 160.6c-9.6-.64-12.9-9.88-12.93-9.97l.95-.33c.03.09 3.12 8.71 12.05 9.3l-.07 1zm3.39-12.68c-3.79-4.72-13.09-3.76-13.18-3.75l-.11-.99c.4-.04 9.93-1.04 14.07 4.12l-.78.63z" class="E"/><path d="M174.33 138.3s-3.31-6.66-2.5-7.18c0 0-4.14.94-3.73 3.03.41 2.1 6.23 4.14 6.23 4.14z" fill="#f8efb1"/><path d="M177.94 142.45c-1.41-2.94-10.2-7.35-10.29-7.39l.45-.89c.37.19 9.18 4.61 10.74 7.86l-.9.43z" class="E"/><path d="M272.37 168.62c-1.48 0-3.18-.3-5.05-.9-4.47-1.42-6.23-2.62-7.39-3.41-1.69-1.16-2.24-1.52-8.58-.97-5.87.52-10.42-2.04-14.37-4.27-2.81-1.58-5.24-2.95-7.61-2.95a5.83 5.83 0 0 0-1.9.32c-6.01 2.11-31.1 8.72-39.91 8.72-.84 0-1.51-.06-2.03-.18a7.19 7.19 0 0 0-1.67-.19c-1.6 0-3.14.49-4.77 1.01-1.88.6-3.82 1.22-6.14 1.22s-4.49-.59-6.87-1.81c-4.94-2.52-7.96-6.33-8.08-10.21-.06-2.01.69-3.75 2.04-4.74-.37-.95-1.12-3.4-.04-5.21.56-.94 1.5-1.55 2.81-1.83-1.19-1.12-3.13-3.31-2.54-5.29.54-1.79 2.87-2.85 7.13-3.22-.05-.62 0-1.63.67-2.51 1.35-1.77 4.46-2.1 9.19-.96 1.14.28 2.19.41 3.21.41 2.19 0 3.81-.63 5.53-1.29 1.74-.68 3.54-1.37 5.95-1.37 3.58 0 7.89 1.57 13.55 4.93 1.65-.53 11.66-3.66 17.68-3.66 1.32 0 2.38.16 3.15.46 4.28 1.71 8.77 4.7 9.77 5.39 1.47-.47 9.11-2.8 15.29-2.8.83 0 1.6.04 2.31.13 7.78.94 21.39 3.58 25.21 10.71 4.92 9.19 6.06 14.91 3.37 17-.63.49-1.19 1.34-1.79 2.24-1.53 2.32-3.43 5.2-8.12 5.2zm-16.67-6.52c2.76 0 3.53.52 4.79 1.39 1.18.81 2.8 1.91 7.13 3.29 1.77.56 3.37.85 4.75.85 4.15 0 5.81-2.52 7.28-4.75.64-.97 1.25-1.89 2.01-2.48 2.19-1.7.89-7.29-3.63-15.74-3.61-6.74-16.87-9.28-24.45-10.19-.66-.08-1.4-.12-2.19-.12-6.56 0-15.13 2.8-15.22 2.82l-.24.08-.21-.15c-.05-.04-5.05-3.54-9.78-5.42-.65-.26-1.59-.39-2.78-.39-6.28 0-17.47 3.65-17.59 3.68l-.22.07-.2-.12c-5.6-3.35-9.8-4.9-13.23-4.9-2.22 0-3.86.63-5.59 1.31-1.73.67-3.51 1.36-5.89 1.36-1.09 0-2.22-.14-3.44-.44-4.24-1.02-7.08-.81-8.15.59-.74.96-.42 2.22-.41 2.24l.16.58-.6.04c-5.08.36-6.49 1.58-6.78 2.55-.52 1.73 2.03 4.16 3.05 4.95l1.05.81-1.32.09c-1.57.1-2.63.6-3.15 1.49-1.06 1.79.24 4.65.26 4.68l.19.41-.39.23c-1.25.74-1.97 2.27-1.91 4.08.11 3.5 2.93 6.99 7.54 9.35 2.24 1.14 4.34 1.7 6.41 1.7s4.03-.59 5.84-1.17c1.7-.54 3.31-1.06 5.07-1.06.65 0 1.27.07 1.9.21.44.1 1.05.15 1.81.15h0c8.71 0 33.61-6.57 39.58-8.67.73-.25 1.46-.38 2.23-.38 2.63 0 5.29 1.5 8.1 3.08 3.83 2.16 8.23 4.64 13.79 4.15 1.94-.17 3.36-.25 4.44-.25z" class="B"/><path d="M281.53,161.89l-.95-.31c.09-.29,2.25-7.08-3.58-10.68l.53-.85c6.51,4.02,4.03,11.77,4,11.85Z" class="E"/><g class="B"><path d="M176.96 131.42l.5-1.9s4.69-4.82 6.69-5.53l2-.72s-6.62 5.94-1.78 5.5 13.93-1.46 16.84 1.47c2.91 2.92 4.03 2.81 4.28 2.97s8.81-2.62 11.75-3.47c2.94-.84 11.87-.47 13.69 1.5 1.81 1.97 4.37 3.72 4.37 3.72l.72.31s9.81-3.19 13.94-2.81 6.41.38 6.5.41 5.97 1.41 5.97 1.41l.12 1.25s-8.41-2.46-11.44-1.72-15.1 2.89-15.1 2.89l-6.49-3.89c-.94-.47-3.28-2.06-7.37-1.81s-15.69 3.22-15.69 3.22l-.87.47s-7.92-5.4-12.91-5.15c-4.99.24-9.25 2.28-9.25 2.28l-4.34.59-2.31-1" class="H"/><path d="M226.68 72.19s7.59 10.49 11.76 11.9 17.01 10.42 17.01 10.42l7.1 40.99-35.87-63.32z" class="H"/><path d="M225.5 71.18s12.36 29.67 31.44 34.33l-1.98-11.17s-26.07-16.08-29.46-23.16zm-20.2-8.5l-2.19-.81-1.73 2.55s11.64 2.15 15.14.77 5.59-2.69 5.59-2.69l13.31.38c3.39.23 9.45-9.13 9.31-11.06-.12-1.73 0-.69 0-.69l-1.25.09s-3.5 7.75-5.31 8.81-3.06 1.81-5.75 1.56-10.56-.28-10.56-.28-1.11.37-3.75 1.88c-4.72.14-9.12.06-12.81-.51zm35.65 136.79s-5.33 1.04-7.71 0l-3.04-1.42 23.71-16.62s-7.08 15.33-12.96 18.04z" class="H"/><path d="M253.9 181.82l-7.94 12.36 5.74-12.59 2.2.23zm-87.83 24.9s6.46 9.29 8.12 10.5 8.92 7.12 8.92 7.12l9.08 4.86 7.33 2.51 6.75 1.71c.12.04 6.5 1.02 6.5 1.02h5.25l8.08-.23s5.95-1.21 5.98-1.09c.02.13 7.36-1.75 7.36-1.75l4.33-1.83 9.75-4.92 7.83-5.71 4.87-4.92 5.08-6.92 4.67-8.75.49-2.08 2.63 6.04s-4.67 24.62-27.71 31.62-57.15 6.93-60.93 5.09-25.19-23.01-25.82-27.3l1.42-5zm-35.18 158.19s2.35-23.97 6.16-29.75c0 0 8.47-4.27 10.81-6.71l7-5.75 9.06-10.36 6.06-10.64 3.48-9.91 1.83-14.84-.5-7.31s11.49 34.65 2.49 52.43c-9.01 17.78-41.45 17.74-46.39 42.84zm22.27-115.01c-.05-.09 3.79-3.89 3.79-3.89l23.25 2.91 22.54 1.6h10.08l11.88.12 16.8-.11 17.03-.39c.17-.05 6.67-1 6.67-1l5.62-.58 8.17-2.08 7.04-3.21 1.92-1.69 1.22-1.66 4.71 4.28s-23.71 9.03-37.51 10.73c-13.81 1.7-98.53 2.62-103.2-5.02z" class="H"/><path d="M220.84 251.35l11.37 10.67 12.31 14.05s6.33 9.1 6.69 12.27c0 0 1.15 2.35.96 5.36l-.5 7.32-.27 6.74c-.04.57.59 5.82.59 5.82l.21.96-1.21 22.79h-1.56s1.73-20.4.93-22.79-.57-18.33.41-20.89-7.9-15.29-7.9-15.29l-25.31-27.52 3.29.53zm96.73 61.99l-7.04-25.54s14.67 23.2 17.17 22.58c0 0-8.21 3.96-10.12 2.96z" class="H"/><path d="M310.53,287.8s-9.58,19.63,8.58,30.42l-8.58-30.42Z" class="H"/></g><path d="M113.07 424.77s-7.62 2.65-6.52 8.3c1.09 5.65.43 13.61 2.09 17.8 1.67 4.18 6.01 6.25 6.01 6.25s1.23 2.27 3.45 1.6c2.21-.67 3.12-.21 5.33-2.1 2.21-1.9 5.52-5.75 5.52-5.75s4.38-1.01 5.74 0 5.27-1.25 2.94-4.03 1.53-32.67-24.57-22.06z" class="D"/><path d="M117.3 459.34c-1.69 0-2.71-1.38-3-1.84-.78-.4-4.55-2.5-6.12-6.44-.99-2.48-1.17-6.1-1.37-9.94-.14-2.74-.29-5.57-.75-7.95-1.16-6 6.77-8.84 6.85-8.87 3.74-1.52 7.11-2.3 9.99-2.3 11.88 0 13.41 12.99 14.24 19.96.25 2.09.48 4.07.88 4.55 1.15 1.38.87 2.57.59 3.15-.59 1.26-2.03 1.95-3.07 1.95h0c-.45 0-.84-.12-1.15-.34-.18-.13-.64-.35-1.79-.35-1.35 0-2.89.3-3.38.4-.6.69-3.45 3.95-5.47 5.67-1.66 1.42-2.69 1.61-3.88 1.83-.49.09-1.01.18-1.63.37-.32.1-.63.14-.94.14zm5.6-36.34c-2.75 0-6 .75-9.64 2.23-.1.03-7.22 2.59-6.22 7.74.47 2.44.62 5.31.76 8.08.19 3.75.38 7.3 1.3 9.62 1.58 3.96 5.72 5.96 5.76 5.98l.15.07.08.14s.83 1.47 2.21 1.47c.21 0 .43-.03.66-.1.68-.21 1.24-.31 1.74-.4 1.14-.21 1.96-.36 3.41-1.61 2.16-1.85 5.44-5.65 5.47-5.69l.11-.12.16-.04c.08-.02 2.02-.46 3.76-.46 1.11 0 1.89.18 2.39.55.54.4 2.2-.11 2.72-1.22.31-.66.15-1.36-.46-2.09-.59-.71-.8-2.44-1.11-5.07-.84-7.14-2.26-19.08-13.25-19.08z" fill="#0b0b0b"/><path fill="#bc494c" d="M108.54 393.35l64.02-18.8 16.72 62.71-63.55 16.3-17.19-60.21z"/><path d="M125.38 454.16l-.13-.47-17.32-60.68 64.99-19.08 16.97 63.69-.49.12-64.02 16.42zm-16.22-60.47l16.92 59.26 62.59-16.05-16.45-61.72-63.05 18.51z" class="B"/><path d="M102.287 389.516l71.844-20.276 3.648 12.925-71.844 20.276z" class="L"/><path d="M105.57 403.07l-3.92-13.89 72.8-20.54 3.92 13.89-.48.14-72.32 20.41zm-2.68-13.2l3.37 11.96 70.88-20-3.38-11.96-70.88 20z" class="B"/><use xlink:href="#G" class="C"/><path d="M118.12 409.08a3.47 3.47 0 0 1-3.32-2.52c-.51-1.83.56-3.73 2.39-4.24a3.66 3.66 0 0 1 .93-.13 3.47 3.47 0 0 1 3.32 2.52 3.38 3.38 0 0 1-.32 2.62c-.45.8-1.19 1.38-2.07 1.63-.3.09-.62.13-.93.13zm0-5.89a2.5 2.5 0 0 0-.66.09c-1.3.36-2.06 1.71-1.7 3.01a2.49 2.49 0 0 0 3.01 1.7 2.46 2.46 0 0 0 1.47-1.15c.32-.57.4-1.23.22-1.86a2.45 2.45 0 0 0-2.35-1.79z" class="B"/><use xlink:href="#H" class="C"/><use xlink:href="#I" class="B"/><use xlink:href="#H" x="10.02" y="-2.79" class="C"/><path d="M138.16 403.48a3.45 3.45 0 0 1-3.31-2.52 3.39 3.39 0 0 1 .32-2.62c.45-.8 1.19-1.38 2.07-1.63.3-.09.62-.13.93-.13a3.47 3.47 0 0 1 3.32 2.52 3.38 3.38 0 0 1-.32 2.62c-.45.8-1.19 1.38-2.08 1.63a3.66 3.66 0 0 1-.93.13zm0-5.89a2.5 2.5 0 0 0-.66.09 2.46 2.46 0 0 0-1.47 1.15c-.32.57-.4 1.23-.22 1.86.35 1.27 1.73 2.06 3.01 1.7.63-.18 1.15-.58 1.47-1.15s.4-1.23.22-1.86a2.45 2.45 0 0 0-2.35-1.79z" class="B"/><use xlink:href="#H" x="20.04" y="-5.59" class="C"/><path d="M148.18 400.68a3.45 3.45 0 0 1-3.31-2.52 3.38 3.38 0 0 1 .32-2.62c.45-.8 1.19-1.38 2.08-1.63a3.66 3.66 0 0 1 .93-.13 3.47 3.47 0 0 1 3.32 2.52 3.38 3.38 0 0 1-.32 2.62c-.45.8-1.19 1.38-2.07 1.63a3.66 3.66 0 0 1-.93.13zm0-5.89a2.5 2.5 0 0 0-.66.09 2.46 2.46 0 0 0-1.47 1.15c-.32.57-.4 1.23-.22 1.86.35 1.27 1.73 2.06 3.01 1.7a2.46 2.46 0 0 0 1.47-1.15c.32-.57.4-1.23.22-1.86a2.45 2.45 0 0 0-2.35-1.79z" class="B"/><use xlink:href="#H" x="30.06" y="-8.39" class="C"/><path d="M158.2 397.89a3.47 3.47 0 0 1-3.32-2.52 3.38 3.38 0 0 1 .32-2.62c.45-.8 1.19-1.38 2.07-1.63.3-.09.62-.13.93-.13a3.47 3.47 0 0 1 3.32 2.52c.51 1.83-.56 3.73-2.39 4.24a3.66 3.66 0 0 1-.93.13zm0-5.89a2.5 2.5 0 0 0-.66.09 2.46 2.46 0 0 0-1.47 1.15c-.32.57-.4 1.23-.22 1.86.35 1.27 1.73 2.05 3.01 1.7 1.3-.36 2.06-1.71 1.7-3.01a2.45 2.45 0 0 0-2.35-1.79z" class="B"/><use xlink:href="#H" x="40.08" y="-11.19" class="C"/><path d="M168.23 395.09a3.47 3.47 0 0 1-3.32-2.52 3.39 3.39 0 0 1 .32-2.62c.45-.8 1.19-1.38 2.07-1.63a3.66 3.66 0 0 1 .93-.13 3.47 3.47 0 0 1 3.32 2.52 3.38 3.38 0 0 1-.32 2.62c-.45.8-1.19 1.38-2.08 1.63a3.66 3.66 0 0 1-.93.13zm0-5.89a2.5 2.5 0 0 0-.66.09 2.46 2.46 0 0 0-1.47 1.15c-.32.57-.4 1.23-.22 1.86.35 1.27 1.73 2.06 3.01 1.7.63-.18 1.15-.58 1.47-1.15s.4-1.23.22-1.86a2.45 2.45 0 0 0-2.35-1.79z" class="B"/><use xlink:href="#H" x="-4.83" y="16.1" class="C"/><path d="M123.31 422.38a3.47 3.47 0 0 1-3.32-2.52c-.51-1.83.56-3.73 2.39-4.24a3.66 3.66 0 0 1 .93-.13 3.45 3.45 0 0 1 3.31 2.52c.51 1.83-.56 3.73-2.39 4.24a3.66 3.66 0 0 1-.93.13zm0-5.89a2.5 2.5 0 0 0-.66.09c-1.3.36-2.06 1.71-1.7 3.01.35 1.27 1.73 2.05 3.01 1.7 1.3-.36 2.06-1.71 1.7-3.01a2.45 2.45 0 0 0-2.35-1.79z" class="B"/><use xlink:href="#H" x="5.19" y="13.3" class="C"/><path d="M133.33 419.58a3.47 3.47 0 0 1-3.32-2.52 3.38 3.38 0 0 1 .32-2.62c.45-.8 1.19-1.38 2.07-1.63a3.66 3.66 0 0 1 .93-.13 3.47 3.47 0 0 1 3.32 2.52c.51 1.83-.56 3.73-2.39 4.24-.3.09-.62.13-.93.13zm0-5.89a2.5 2.5 0 0 0-.66.09 2.46 2.46 0 0 0-1.47 1.15c-.32.57-.4 1.23-.22 1.86.35 1.27 1.74 2.06 3.01 1.7 1.3-.36 2.06-1.71 1.7-3.01a2.45 2.45 0 0 0-2.35-1.79z" class="B"/><use xlink:href="#H" x="15.21" y="10.51" class="C"/><path d="M143.35 416.78a3.47 3.47 0 0 1-3.32-2.52 3.38 3.38 0 0 1 .32-2.62c.45-.8 1.19-1.38 2.07-1.63a3.66 3.66 0 0 1 .93-.13 3.47 3.47 0 0 1 3.32 2.52c.51 1.83-.56 3.73-2.39 4.24a3.66 3.66 0 0 1-.93.13zm0-5.89a2.5 2.5 0 0 0-.66.09 2.46 2.46 0 0 0-1.47 1.15c-.32.57-.4 1.23-.22 1.86.35 1.27 1.73 2.06 3.01 1.7 1.3-.36 2.06-1.71 1.7-3.01a2.45 2.45 0 0 0-2.35-1.79z" class="B"/><use xlink:href="#H" x="25.23" y="7.71" class="C"/><path d="M153.38 413.98a3.47 3.47 0 0 1-3.32-2.52c-.51-1.83.56-3.73 2.39-4.24a3.66 3.66 0 0 1 .93-.13 3.47 3.47 0 0 1 3.32 2.52c.51 1.83-.56 3.73-2.39 4.24-.3.09-.62.13-.93.13zm0-5.89a2.5 2.5 0 0 0-.66.09c-1.3.36-2.06 1.71-1.7 3.01.35 1.27 1.73 2.05 3.01 1.7 1.3-.36 2.06-1.71 1.7-3.01a2.45 2.45 0 0 0-2.35-1.79z" class="B"/><use xlink:href="#H" x="35.26" y="4.91" class="C"/><path d="M163.4 411.18a3.47 3.47 0 0 1-3.32-2.52c-.51-1.83.56-3.73 2.39-4.24a3.66 3.66 0 0 1 .93-.13 3.47 3.47 0 0 1 3.32 2.52c.51 1.83-.56 3.73-2.39 4.24a3.66 3.66 0 0 1-.93.13zm0-5.89a2.5 2.5 0 0 0-.66.09c-1.3.36-2.06 1.71-1.7 3.01.35 1.27 1.73 2.06 3.01 1.7 1.3-.36 2.06-1.71 1.7-3.01a2.45 2.45 0 0 0-2.35-1.79z" class="B"/><use xlink:href="#G" x="55.3" y="-0.69" class="C"/><path d="M173.42 408.39a3.47 3.47 0 0 1-3.32-2.52c-.51-1.83.56-3.73 2.39-4.24a3.66 3.66 0 0 1 .93-.13 3.47 3.47 0 0 1 3.32 2.52c.51 1.83-.56 3.73-2.39 4.24-.3.09-.62.13-.93.13zm0-5.89a2.5 2.5 0 0 0-.66.09c-1.3.36-2.06 1.71-1.7 3.01a2.49 2.49 0 0 0 3.01 1.7c1.3-.36 2.06-1.71 1.7-3.01a2.45 2.45 0 0 0-2.35-1.79z" class="B"/><use xlink:href="#H" x="-2.3" y="27.88" class="C"/><path d="M125.84 434.16a3.45 3.45 0 0 1-3.31-2.52c-.51-1.83.56-3.73 2.39-4.24a3.66 3.66 0 0 1 .93-.13 3.47 3.47 0 0 1 3.32 2.52c.51 1.83-.56 3.73-2.39 4.24-.3.09-.62.13-.93.13zm0-5.89a2.5 2.5 0 0 0-.66.09c-1.3.36-2.06 1.71-1.7 3.01.35 1.27 1.74 2.06 3.01 1.7 1.3-.36 2.06-1.71 1.7-3.01a2.45 2.45 0 0 0-2.35-1.79z" class="B"/><use xlink:href="#H" x="7.72" y="25.09" class="C"/><path d="M135.87 431.36a3.47 3.47 0 0 1-3.32-2.52c-.51-1.83.56-3.73 2.39-4.24a3.66 3.66 0 0 1 .93-.13 3.47 3.47 0 0 1 3.32 2.52 3.38 3.38 0 0 1-.32 2.62c-.45.8-1.19 1.38-2.07 1.63-.3.09-.62.13-.93.13zm0-5.89a2.5 2.5 0 0 0-.66.09c-1.3.36-2.06 1.71-1.7 3.01.35 1.27 1.73 2.05 3.01 1.7a2.46 2.46 0 0 0 1.47-1.15c.32-.57.4-1.23.22-1.86a2.45 2.45 0 0 0-2.35-1.79z" class="B"/><use xlink:href="#H" x="17.75" y="22.29" class="C"/><path d="M145.89 428.56a3.45 3.45 0 0 1-3.31-2.52 3.39 3.39 0 0 1 .32-2.62c.45-.8 1.19-1.38 2.07-1.63a3.66 3.66 0 0 1 .93-.13 3.47 3.47 0 0 1 3.32 2.52 3.38 3.38 0 0 1-.32 2.62c-.45.8-1.19 1.38-2.07 1.63a3.66 3.66 0 0 1-.93.13zm0-5.89a2.5 2.5 0 0 0-.66.09 2.46 2.46 0 0 0-1.47 1.15c-.32.57-.4 1.23-.22 1.86.35 1.27 1.73 2.06 3.01 1.7a2.46 2.46 0 0 0 1.47-1.15c.32-.57.4-1.23.22-1.86a2.45 2.45 0 0 0-2.35-1.79z" class="B"/><use xlink:href="#H" x="27.77" y="19.49" class="C"/><path d="M155.91 425.77a3.45 3.45 0 0 1-3.31-2.52c-.51-1.83.56-3.73 2.39-4.24a3.66 3.66 0 0 1 .93-.13 3.47 3.47 0 0 1 3.32 2.52c.51 1.83-.56 3.73-2.39 4.24-.3.09-.62.13-.93.13zm0-5.89a2.5 2.5 0 0 0-.66.09c-1.3.36-2.06 1.71-1.7 3.01.35 1.27 1.73 2.06 3.01 1.7 1.3-.36 2.06-1.71 1.7-3.01a2.45 2.45 0 0 0-2.35-1.79z" class="B"/><use xlink:href="#H" x="37.79" y="16.69" class="C"/><path d="M165.93 422.97a3.47 3.47 0 0 1-3.32-2.52c-.51-1.83.56-3.73 2.39-4.24a3.66 3.66 0 0 1 .93-.13 3.47 3.47 0 0 1 3.32 2.52 3.38 3.38 0 0 1-.32 2.62c-.45.8-1.19 1.38-2.07 1.63a3.66 3.66 0 0 1-.93.13zm0-5.89a2.5 2.5 0 0 0-.66.09c-1.3.36-2.06 1.71-1.7 3.01.35 1.27 1.73 2.05 3.01 1.7a2.46 2.46 0 0 0 1.47-1.15c.32-.57.4-1.23.22-1.86a2.45 2.45 0 0 0-2.35-1.79z" class="B"/><use xlink:href="#H" x="47.81" y="13.89" class="C"/><path d="M175.95 420.17a3.47 3.47 0 0 1-3.32-2.52 3.38 3.38 0 0 1 .32-2.62c.45-.8 1.19-1.38 2.07-1.63a3.66 3.66 0 0 1 .93-.13 3.47 3.47 0 0 1 3.32 2.52 3.38 3.38 0 0 1-.32 2.62c-.45.8-1.19 1.38-2.07 1.63-.3.09-.62.13-.93.13zm0-5.89a2.5 2.5 0 0 0-.66.09 2.46 2.46 0 0 0-1.47 1.15c-.32.57-.4 1.23-.22 1.86.35 1.27 1.73 2.06 3.01 1.7a2.46 2.46 0 0 0 1.47-1.15c.32-.57.4-1.23.22-1.86a2.45 2.45 0 0 0-2.35-1.79z" class="B"/><use xlink:href="#J" class="C"/><path d="M130.34 447.56a3.47 3.47 0 0 1-3.32-2.52c-.51-1.83.56-3.73 2.39-4.24.3-.09.62-.13.93-.13a3.47 3.47 0 0 1 3.32 2.52c.51 1.83-.56 3.73-2.39 4.24a3.66 3.66 0 0 1-.93.13zm0-5.89a2.5 2.5 0 0 0-.66.09c-1.3.36-2.06 1.71-1.7 3.01.35 1.27 1.73 2.05 3.01 1.7 1.3-.36 2.06-1.71 1.7-3.01a2.45 2.45 0 0 0-2.35-1.79z" class="B"/><use xlink:href="#J" x="10.02" y="-2.8" class="C"/><path d="M140.36 444.76a3.47 3.47 0 0 1-3.32-2.52c-.51-1.83.56-3.73 2.39-4.24.3-.09.62-.13.93-.13a3.47 3.47 0 0 1 3.32 2.52 3.38 3.38 0 0 1-.32 2.62c-.45.8-1.19 1.38-2.07 1.63a3.66 3.66 0 0 1-.93.13zm0-5.89a2.5 2.5 0 0 0-.66.09c-1.3.36-2.06 1.71-1.7 3.01.35 1.27 1.74 2.06 3.01 1.7a2.46 2.46 0 0 0 1.47-1.15c.32-.57.4-1.23.22-1.86a2.45 2.45 0 0 0-2.35-1.79z" class="B"/><use xlink:href="#H" x="22.24" y="35.68" class="C"/><path d="M150.38 441.96a3.45 3.45 0 0 1-3.31-2.52c-.51-1.83.56-3.73 2.39-4.24.3-.09.62-.13.93-.13a3.47 3.47 0 0 1 3.32 2.52c.51 1.83-.56 3.73-2.39 4.24a3.66 3.66 0 0 1-.93.13zm0-5.89a2.5 2.5 0 0 0-.66.09c-1.3.36-2.06 1.71-1.7 3.01.35 1.27 1.73 2.06 3.01 1.7 1.3-.36 2.06-1.71 1.7-3.01a2.45 2.45 0 0 0-2.35-1.79z" class="B"/><use xlink:href="#H" x="32.26" y="32.89" class="C"/><use xlink:href="#I" x="32.27" y="32.88" class="B"/><use xlink:href="#H" x="42.29" y="30.09" class="C"/><path d="M170.43 436.36a3.45 3.45 0 0 1-3.31-2.52 3.39 3.39 0 0 1 .32-2.62c.45-.8 1.19-1.38 2.07-1.63.3-.09.62-.13.93-.13a3.47 3.47 0 0 1 3.32 2.52 3.38 3.38 0 0 1-.32 2.62c-.45.8-1.19 1.38-2.07 1.63a3.66 3.66 0 0 1-.93.13zm0-5.89a2.5 2.5 0 0 0-.66.09 2.46 2.46 0 0 0-1.47 1.15c-.32.57-.4 1.23-.22 1.86.35 1.27 1.73 2.06 3.01 1.7a2.46 2.46 0 0 0 1.47-1.15c.32-.57.4-1.23.22-1.86a2.45 2.45 0 0 0-2.35-1.79z" class="B"/><use xlink:href="#H" x="52.31" y="27.29" class="C"/><path d="M180.45 433.57a3.45 3.45 0 0 1-3.31-2.52 3.38 3.38 0 0 1 .32-2.62c.45-.8 1.19-1.38 2.07-1.63a3.66 3.66 0 0 1 .93-.13 3.47 3.47 0 0 1 3.32 2.52c.51 1.83-.56 3.73-2.39 4.24a3.66 3.66 0 0 1-.93.13zm0-5.89a2.5 2.5 0 0 0-.66.09 2.46 2.46 0 0 0-1.47 1.15c-.32.57-.4 1.23-.22 1.86.35 1.27 1.73 2.06 3.01 1.7 1.3-.36 2.06-1.71 1.7-3.01a2.45 2.45 0 0 0-2.35-1.79z" class="B"/><path d="M98 372.54c-.42 15.63 36.02 7.25 36.02 7.25s-35.6-22.88-36.02-7.25zm2.78.51c.24-9.2 21 4.78 21 4.78s-21.24 4.42-21-4.78z" class="K"/><path d="M114.9 382.53h0c-7.43 0-12.56-1.4-15.23-4.15-1.5-1.54-2.23-3.51-2.17-5.86.11-3.89 2.35-5.95 6.5-5.95 10.28 0 29.49 12.27 30.3 12.79l1 .64-1.16.27c-.1.02-9.92 2.26-19.23 2.26zm-10.91-14.95c-3.61 0-5.41 1.63-5.5 4.98-.06 2.06.58 3.79 1.89 5.13 2.48 2.55 7.37 3.84 14.52 3.84h0c7.29 0 14.91-1.39 17.8-1.98-4.21-2.59-20.06-11.98-28.71-11.98zm7.51 11.81c-4.81 0-8.12-.9-9.85-2.67-.95-.98-1.42-2.22-1.38-3.68.06-2.37 1.39-3.62 3.83-3.62 6 0 17.46 7.67 17.95 8l.98.66-1.16.24c-.05 0-5.21 1.07-10.37 1.07zm-7.4-8.97c-1.88 0-2.78.84-2.83 2.65-.03 1.2.33 2.17 1.1 2.96 1.51 1.55 4.66 2.37 9.13 2.37 3.57 0 7.13-.52 8.94-.83-2.99-1.9-11.66-7.15-16.34-7.15z" class="B"/><path d="M165.08 353.49c-8.61-13.05-26.76 25.18-26.76 25.18s35.37-12.14 26.76-25.18zm-18.47 17.4s10.51-22.7 15.48-14.96-15.48 14.96-15.48 14.96z" class="K"/><path d="M137.36 379.53l.51-1.07c.55-1.15 13.49-28.18 22.92-28.18 1.83 0 3.42.99 4.71 2.94 1.49 2.25 1.82 4.63.99 7.06-3.53 10.37-27 18.52-28 18.87l-1.12.38zm23.43-28.25c-7.79 0-18.91 21.35-21.47 26.5 4.83-1.8 23.28-9.19 26.22-17.82.74-2.16.45-4.18-.88-6.19-1.11-1.67-2.37-2.49-3.87-2.49zm-15.13 20.48l.5-1.08c.32-.69 7.87-16.86 13.46-16.86 1.14 0 2.11.62 2.9 1.84.9 1.4 1.09 2.89.57 4.41-2.13 6.22-15.73 11.09-16.31 11.3l-1.12.4zm13.96-16.94c-3.81 0-9.53 10.07-12.02 15.16 3.35-1.32 12.91-5.47 14.54-10.24.42-1.24.27-2.4-.47-3.55-.6-.93-1.27-1.38-2.05-1.38z" class="B"/><path d="M148.51 448.25l-17.76-68.17 16.3-4.66 21.21 67.23-19.75 5.6z" class="K"/><path d="M148.15 448.87l-.13-.49-17.88-68.63 17.25-4.93L168.9 443l-20.74 5.88zm-16.8-68.43l17.51 67.19 18.77-5.32-20.9-66.27-15.37 4.4z" class="B"/><path d="M139.31 457.19s6.13-19.18 20.04-22.12 27.46-5.1 27.46-5.1l19.39 11.49s-.21-.23 4.14.5c4.36.73 9.48-2.23 13.67 0s18.67 6.9 18.67 6.9-64.76 12.83-103.87 10.83l.5-2.5z" class="D"/><g class="B"><path d="M147.67 460.41c-3.14 0-6.12-.07-8.88-.21l-.58-.03.61-3.07c.27-.85 6.4-19.54 20.43-22.51a628.06 628.06 0 0 1 27.49-5.1l.18-.03.16.09 19.21 11.38h.1c.54 0 1.9.18 4.04.54.45.08.92.11 1.45.11 1.31 0 2.65-.23 4.08-.47 1.42-.24 2.89-.49 4.31-.49 1.54 0 2.84.3 3.98.91 4.1 2.19 18.44 6.82 18.58 6.87l1.83.59-1.89.37c-.56.11-56.23 11.05-95.12 11.05zm-8.25-1.18a178.67 178.67 0 0 0 8.25.18c34.73 0 82.93-8.76 93.03-10.67-4.05-1.34-13.58-4.56-16.91-6.34-1-.53-2.14-.79-3.51-.79s-2.77.24-4.14.48c-1.99.34-4.14.65-5.86.36l-2.89-.44 1.41 1.56-22.07-13.08a627.1 627.1 0 0 0-27.26 5.06c-13.46 2.85-19.61 21.6-19.67 21.79l-.37 1.88z"/><path d="M126.08 452.95l54.66 29.73-7.31 8.92 22.69 10.77 15-13.36s-6.33 15.33 0 18.67c6.33 3.33 16-21 13.33-24.33 0 0 29.26 7 32.46-.67s-31.13-6-31.13-6l21.33-16.77-15-6.96-3.76 4.73s-14.21-13.69-18.09-15.22-20.55-15.64-23.19-12.91c-1.23 1.28-17.82 1.07-31.81 6.94-5.69 2.39-7.02 4.95-11.45 10.57-3.55 4.51-12.04 5.28-17.74 5.89zM58.23 306.78l16.01 31.1h-5.91l-4.75-1.06 2.65 8.44-14.97-5.5 56.03 49.67 24.83-9.73-28.47-57.69-5.66 11.25-4.88-3.74-1.05 6.11-15.68-28.66s-4.97-2.2-7.09-1.49-4.33 2.04-4.33 2.04-6.25-2.05-6.62-1.54c-.38.5-.09.81-.09.81zm298.72 34.41l37.28 28.57 12.16 9.44-25.06.5 12.03 6.15-20.25-2.86 51.64 32.1s28.81-43.15 29.21-47.99l-18.1-18.34 1.84 17-11.09-7.46 4.3 16.46-28.8-47s-17.32 11.13-26.41 10.94-18.75 2.49-18.75 2.49z" class="H"/></g><g fill="#c69c6d" stroke="#000" stroke-linejoin="round" stroke-width="1.2"><path d="M348.41 242.12l-7.06-1.47s-.13.88-.53 2.52l4.49.94s1.43.39 1.2 1.52l-1.12 5.38c-.24 1.17-2.94 5.07-6.53 5.86-1.96.43-3.83.16-5.14-.17-1.85 1.27-3.43 1.7-3.43 1.7s4.51 2.1 9.38 1.03c4.87-1.06 8.51-6.35 8.85-7.94l1.52-7.3c.32-1.54-1.62-2.06-1.62-2.06zm-46.42-9.69l7.06 1.47s-.23.86-.52 2.52l-4.49-.94s-1.47-.22-1.71.92l-1.12 5.38c-.24 1.17.66 5.83 3.64 7.98 1.62 1.18 3.45 1.68 4.78 1.9 1.19 1.9 2.46 2.93 2.46 2.93s-4.97.12-9.01-2.81c-4.03-2.92-5.26-9.23-4.93-10.82l1.52-7.3c.32-1.53 2.31-1.24 2.31-1.24zm6.209-9.574l38.177 7.969-1.635 7.831-38.177-7.969z"/><path d="M310 231.42s-10.07 23.04 10.55 27.35 20.85-20.79 20.85-20.79l-31.4-6.56z"/><path d="M317.449 258.116l6.813 1.422-3.351 16.054-6.813-1.422z"/><path d="M308.031 272.904l18.619 3.886-.717 3.436-18.619-3.886z"/><path d="M301.639 275.149l30.121 6.287-4.773 22.867-30.121-6.287z"/></g><path d="M332.67 302.1s-5.82-9.76-14.42-2.59-.7 13.66-.7 13.66 6.31-.16 10.7-2.9c4.4-2.74 4.42-8.16 4.42-8.16" stroke="#000" stroke-miterlimit="10" stroke-width="1.3" class="I"/><path d="M476.05,545.43s0-19.43-4.73-22.98c.66-3.63,3.82-10.2,4.23-14.46-5.57-14.66-16.71-42.54-40.78-72.92-34.93-44.08-104.09-57.2-117.79-56.68-19.87,41.49-47.75,42.34-55.78,44.37-9.39,4.31-78.8-8.39-78.8-8.39l-8.94-32.4,3.06-1.49-3.65-12.93-26.04,7.72,5.09-.11,20.11,55.26c8.16,8.2,116.45,177.24,222.2,144.78,1.89,1.49,0,13,23.87,11.26,0,0,35.12,31.11,46.92,36.37,102.96,45.96,48.76-99.93,11.02-77.39Z" class="B H"/><defs ><path id="B" d="M69.36 116.98c-18.13 0-32.88-14.75-32.88-32.88s14.75-32.88 32.88-32.88a32.85 32.85 0 0 1 11.42 2.04l1.27.47-1.27.47c-12.44 4.61-20.8 16.63-20.8 29.9s8.36 25.29 20.8 29.9l1.27.47-1.27.47a32.89 32.89 0 0 1-11.42 2.04zm0-64.76c-17.58 0-31.88 14.3-31.88 31.88s14.3 31.88 31.88 31.88a31.84 31.84 0 0 0 9.81-1.54c-12.13-5.08-20.19-17.1-20.19-30.34s8.06-25.26 20.19-30.34c-3.16-1.02-6.46-1.54-9.81-1.54z"/><path id="C" d="M205.79,185.57c-3.45,0-6.25-3.53-6.25-7.88s2.8-7.88,6.25-7.88,6.25,3.53,6.25,7.88-2.8,7.88-6.25,7.88Z"/><path id="D" d="M252.64 337.32h-2.41l1.47-23.54 2.68-.57-1.74 24.11zm-1.35-1h.42l1.58-21.85-.64.14-1.36 21.71z"/><path id="E" d="M255.71 336.75h-2.41l1.47-23.54 2.68-.57-1.74 24.1zm-1.35-1h.42l1.58-21.85-.64.14-1.36 21.71z"/><path id="F" d="M155.43 252.71l-.99-.17c.64-3.81 5.01-6.43 5.19-6.54l.51.86s-4.15 2.49-4.72 5.84z"/><path id="G" d="M120.96 404.84c.44 1.57-.48 3.19-2.04 3.63s-3.19-.48-3.63-2.04c-.44-1.57.48-3.19 2.04-3.63 1.57-.44 3.19.48 3.63 2.04z"/><path id="H" d="M130.98 402.04c.44 1.57-.48 3.19-2.04 3.63-1.57.44-3.19-.48-3.63-2.04-.44-1.57.48-3.19 2.04-3.63 1.57-.44 3.19.48 3.63 2.04z"/><path id="I" d="M128.14 406.28a3.47 3.47 0 0 1-3.32-2.52c-.51-1.83.56-3.73 2.39-4.24a3.66 3.66 0 0 1 .93-.13 3.47 3.47 0 0 1 3.32 2.52c.51 1.83-.56 3.73-2.39 4.24a3.66 3.66 0 0 1-.93.13zm0-5.89a2.5 2.5 0 0 0-.66.09c-1.3.36-2.06 1.71-1.7 3.01.35 1.27 1.73 2.05 3.01 1.7 1.3-.36 2.06-1.71 1.7-3.01a2.45 2.45 0 0 0-2.35-1.79z"/><path id="J" d="M133.18 443.32c.44 1.57-.48 3.19-2.04 3.63-1.57.44-3.19-.48-3.63-2.04-.44-1.57.48-3.19 2.04-3.63s3.19.48 3.63 2.04z"/></defs></svg>