<svg xmlns="http://www.w3.org/2000/svg" xmlns:xlink="http://www.w3.org/1999/xlink" viewBox="0 0 3000 1014.47" xmlns:v="https://vecta.io/nano"><style><![CDATA[.B{fill:#296268}.C{fill:#375b5f}.D{fill:#487276}]]></style><g class="C"><path d="M681.24 339.59h.12c1.12.02 1.39.02-.12 0zm-48.37-.02l1.56.03-.74.03-.82-.06zm58.46.02l.76-.08a2.19 2.19 0 0 1-.76.08z"/><path d="M635.56 339.59l-1.13.02 1.13-.02zm-2.69-.02c-.66-.03-.78-.06 0 0h0zm59.23-.06c.14-.04.28-.09.41-.15.56 0 .52.05-.41.15z"/></g><use xlink:href="#B" class="B"/><path d="M628.9 150.11c-6.31 4.54-1.56-5.93 0 0h0zm34.67-.5c.7-.27 1.63-.47 2.85-.6-1.21.43-2.14.61-2.85.6zm-37.47-40.98c-4.06 3.61-1.56-.18 0 0h0zm2.06-33.35a.76.76 0 0 0 .07.09c-.81-.23-.8-.3-.07-.09z" class="C"/><g class="B"><use xlink:href="#C"/><use xlink:href="#D"/><use xlink:href="#E"/></g><use xlink:href="#F" class="C"/><use xlink:href="#G" class="B"/><use xlink:href="#H" class="D"/><use xlink:href="#I" class="B"/><use xlink:href="#J" class="C"/><use xlink:href="#K" class="B"/><g class="D"><use xlink:href="#L"/><use xlink:href="#M"/></g><g class="C"><path d="M427.79 355.25h.12c1.12.02 1.39.02-.12 0zm-48.38-.01l1.56.03-.74.03-.82-.06zm58.47.01l.76-.08a2.19 2.19 0 0 1-.76.08z"/><path d="M382.11 355.26l-1.13.02 1.13-.02zm-2.7-.02c-.66-.03-.78-.06 0 0h0zm59.24-.06c.14-.04.28-.09.41-.15.56 0 .52.05-.41.15z"/></g><path d="M357.08 255.48a4.6 4.6 0 0 0 .77-.83c6.81-1.41 9.62-4 .78-6.09-.83-.8-1.31-1.39-1.55-1.83v-1.19c.67-.77 2.63-.97.9-4.03-2.45-1.6 2.47-2.68-.9-5.13v-10.69c.66-.72 1.18-.33 1.34 2.3 6.99-2.66 7.48-8.8 2.65-13.81-.42-8.67 10.78-16.68.26-13.91 10.45-7.38-3.33-15.19 4.56-14.17 1.37 1.77 1.03-6.75 8.29-3.39.49-1.29 1.03-2.21 1.59-2.87a23.75 23.75 0 0 1-.84-.55c-19.2-5.51 10.37-2.74.96-7.11.1-3.11-.09-5.12-.43-6.39a24.64 24.64 0 0 0 .91-.69c11.92-2.7-8.54-7.04-7.25-7.06 4.69-10.45 2.72-13.89 2.3-13.71-12.99-4.88-6.01-9.56 1.62-13.67 1.11-4.84.52-6.25-.37-6.35.04-.03.07-.06.11-.1 13.89 1.95-8.47-11.46 6.65-6.67 1.79-2.58 9.26-4.41 1.91-6.66 5.88.03-2.78-3.41-4.57-6.21-4.44-4.56 4.08-8.16-.1-9.03 2.87-.33-1.1-3.52-1.87-4.59 1.03.3 3.38.88 7.21 1.53-9.98-7.05-.44-3.23-.72-11.83 1.99-4.9-2.95-7.77-3.72-10.96-3.61-2.65-5.37-4.22-5.43-4.83-.96-1.51-.19-2.28 1.82-2.95s5.26-1.24 9.26-2.36c3.35-1.57 2.02-5.52.17-7.24 1.96-1.99 1.93-4.6.87-10.32.76-1.4-3.03-4.55-1.43-8.46 1.98-1.11 4.55-3.98 4.84-5.08 1.09-7.27-.96-14.46.9-12.59 2.65.78 2.44 1.41 2.43 12.59 1.24 3.85-4.31 4.72 1.49 4.95 9.72.8-.21.75.44 8.51-4.67 7.11.63 7.22-1.88 9.44 2.05.22.33 1.63 4.42 8.19.07 2.21 2.73 8.33-1.47 10.14 10.05 8.21-.43 8.09 4.21 10.62-.37.78-.71 1.44-.99 1.98l.99-1.59c5.93.34 10.97-.93 9.15 6.8.05-1.65-1.38 4.77-3.94 4.96-7.86-2.6-3.32 3.93-.65 7.96 1.53 3.51 3.04 6.38-.83 4.13 3.25 5.96 1.87 10.28 2.2 12.78 5.11 1.13.02 2.42-1.72 6.83 2.53 4-9.22 2.41 4.23 6.39 13.2 2.88 11.73 7.28 7.95 6.68-1.89-3.09-10.65 3.47-5.63 6.9-8.7 3.96-10.12 2.54-5.75 6.65 6.57.09 4.11 8.72 6.38 7.14-.44 1.24-3.4 7.19.56 7.25-4.73 1.79 1.11 6.29-2.15 6.57 1.58 1.58 12.72 4.74 6.93 7.08 7.88 2.32.06 5.31-2.26 7.08-.49 3.92 2.88 8.35 3.65 14.11 2.74 2.2 5.43 4.58 6.25 6.98s-.21 4.82-4.93 7.1c-.52 2.18 3.39 4.95-3.81 7.23-6.31 2.77 8.69 4.49 9.85 6.9 4.89 2.24-7.82 4.2-6.46 6.58.99 1.96-3.18 4.45 4.35 6.67-.27 1.22-1.09 1.87 8.74 3.07 6.27.91 6.99 2.61.5 3.51 7.16 2.51-9.74 4.28.6 6.55-3.77 2.42 1.3 4.43 1.36 6.53 2.22 2.35-5.45 4.21-7.47 6.33 1.11 3.87 5.76 8.1 1.8 12.17 2.77 1.91-.07 3.78 2.94 5.84 4.8 2.05-5.35 3.78-5.89 5.85-4.1 3.02 8.89 7.21-.56 10.89-7.21 2.27-8.03 3.68.44 5.33-4.66 1.78 4.45 3.3 7.74 4.93 1.43 3.39-.83 6.5-1.34 9.33.1 2.86-1.75 5.63 5.09 8.27-2.74 2.63-7.74 5.05-4.13 7.17-4.21 2.09-1.63 4.19 4.84 6.33 6.16 6.36 4.9 10.39 2.84 11.37-.4 0-1.11 0-2.02.03-3.16.01-6.88.2-9.13.2l-9.84-.14c-3.24-.05.35.05-.99.18-6.25.52-1.99.38-5.44.05-5.77.3-1.5-.29-7.91-.08-7.63.26-9.92.31-5.74.06-10.47-.01-8.03-.25-7.97 0-2.05.05-5.48-.06-7.92-.05.31 0 .62-.02.95-.04-6.65-.08-3.49-.11-8.04.04-2.51.37-7.66.23-6.35.06.22-.01-.44-.07-6.84-.06.22.05-1.98.05-4.74.04V255.5z" class="B"/><path d="M375.45 165.78c-6.31 4.54-1.56-5.93 0 0h0zm34.67-.5c.7-.27 1.63-.47 2.85-.6-1.21.43-2.14.61-2.85.6zm-37.47-40.98c-4.06 3.61-1.56-.18 0 0h0zm2.06-33.35a.76.76 0 0 0 .07.09c-.81-.23-.8-.3-.07-.09z" class="C"/><g class="B"><use xlink:href="#C" x="-235.79" y="40.02"/><use xlink:href="#D" x="-253.45" y="15.67"/><use xlink:href="#E" x="-253.45" y="15.67"/></g><use xlink:href="#F" x="-253.45" y="15.66" class="C"/><use xlink:href="#G" x="-253.45" y="15.67" class="B"/><use xlink:href="#H" x="-253.45" y="15.67" class="D"/><use xlink:href="#J" x="-253.45" y="15.67" class="C"/><use xlink:href="#K" x="-253.45" y="15.67" class="B"/><g class="D"><use xlink:href="#L" x="-253.45" y="15.67"/><use xlink:href="#M" x="-253.45" y="15.66"/></g><g class="C"><path d="M350.12 389.28H350c-1.12.02-1.39.02.12 0zm48.38-.01l-1.56.03.74.03.82-.06zm-58.47.01l-.76-.08a2.19 2.19 0 0 0 .76.08z"/><path d="M395.81 389.28l1.13.02c-.34 0-.72-.01-1.13-.02zm2.69-.01c.66-.03.78-.06 0 0h0zm-59.23-.07c-.14-.04-.28-.09-.41-.15-.56 0-.52.05.41.15z"/></g><path d="M420.84 289.51a4.6 4.6 0 0 1-.77-.83c-6.81-1.41-9.62-4-.78-6.09.83-.8 1.31-1.39 1.55-1.83v-1.19c-.67-.77-2.63-.97-.9-4.03 2.45-1.6-2.47-2.68.9-5.13v-10.69c-.66-.72-1.18-.33-1.34 2.3-6.99-2.66-7.48-8.8-2.65-13.81.42-8.67-10.78-16.68-.26-13.91-10.45-7.38 3.33-15.19-4.56-14.17-1.37 1.77-1.03-6.75-8.29-3.39-.49-1.29-1.03-2.21-1.59-2.87a23.75 23.75 0 0 0 .84-.55c19.2-5.51-10.37-2.74-.96-7.11-.1-3.11.09-5.12.43-6.39a24.64 24.64 0 0 1-.91-.69c-11.92-2.7 8.54-7.04 7.25-7.06-4.69-10.45-2.72-13.89-2.3-13.71 12.99-4.88 6.01-9.56-1.62-13.67-1.11-4.84-.52-6.25.37-6.35-.04-.03-.07-.06-.11-.1-13.89 1.95 8.47-11.46-6.65-6.67-1.79-2.58-9.26-4.41-1.91-6.66-5.88.03 2.78-3.41 4.57-6.21 4.44-4.56-4.08-8.16.1-9.03-2.87-.33 1.1-3.52 1.87-4.59-1.03.3-3.38.88-7.21 1.53 9.98-7.05.44-3.23.72-11.83-1.99-4.9 2.95-7.77 3.72-10.96 3.61-2.65 5.37-4.22 5.43-4.83.96-1.51.19-2.28-1.82-2.95s-5.26-1.24-9.26-2.36c-3.35-1.57-2.02-5.52-.17-7.24-1.96-1.99-1.93-4.6-.87-10.32-.76-1.4 3.03-4.55 1.43-8.46-1.98-1.11-4.55-3.98-4.84-5.08-1.09-7.27.96-14.46-.9-12.59-2.65.78-2.44 1.41-2.43 12.59-1.24 3.85 4.31 4.72-1.49 4.95-9.72.8.21.75-.44 8.51 4.67 7.11-.63 7.22 1.88 9.44-2.05.22-.33 1.63-4.42 8.19-.07 2.21-2.73 8.33 1.47 10.14-10.05 8.21.43 8.09-4.21 10.62.37.78.71 1.44.99 1.98l-.99-1.59c-5.93.34-10.97-.93-9.15 6.8-.05-1.65 1.38 4.77 3.94 4.96 7.86-2.6 3.32 3.93.65 7.96-1.53 3.51-3.04 6.38.83 4.13-3.25 5.96-1.87 10.28-2.2 12.78-5.11 1.13-.02 2.42 1.72 6.83-2.53 4 9.22 2.41-4.23 6.39-13.2 2.88-11.73 7.28-7.95 6.68 1.89-3.09 10.65 3.47 5.63 6.9 8.7 3.96 10.12 2.54 5.75 6.65-6.57.09-4.11 8.72-6.38 7.14.44 1.24 3.4 7.19-.56 7.25 4.73 1.79-1.11 6.29 2.15 6.57-1.58 1.58-12.72 4.74-6.93 7.08-7.88 2.32-.06 5.31 2.26 7.08.49 3.92-2.88 8.35-3.65 14.11-2.74 2.2-5.43 4.58-6.25 6.98s.21 4.82 4.93 7.1c.52 2.18-3.39 4.95 3.81 7.23 6.31 2.77-8.69 4.49-9.85 6.9-4.89 2.24 7.82 4.2 6.46 6.58-.99 1.96 3.18 4.45-4.35 6.67.27 1.22 1.09 1.87-8.74 3.07-6.27.91-6.99 2.61-.5 3.51-7.16 2.51 9.74 4.28-.6 6.55 3.77 2.42-1.3 4.43-1.36 6.53-2.22 2.35 5.45 4.21 7.47 6.33-1.11 3.87-5.76 8.1-1.8 12.17-2.77 1.91.07 3.78-2.94 5.84-4.8 2.05 5.35 3.78 5.89 5.85 4.1 3.02-8.89 7.21.56 10.89 7.21 2.27 8.03 3.68-.44 5.33 4.66 1.78-4.45 3.3-7.74 4.93-1.43 3.39.83 6.5 1.34 9.33-.1 2.86 1.75 5.63-5.09 8.27 2.74 2.63 7.74 5.05 4.13 7.17 4.21 2.09 1.63 4.19-4.84 6.33-6.16 6.36-4.9 10.39-2.84 11.37.4 0 1.11 0 2.02.03 3.16.01 6.88.2 9.13.2l9.84-.14c3.24-.05-.35.05.99.18 6.25.52 1.99.38 5.44.05 5.77.3 1.5-.29 7.91-.08 7.63.26 9.92.31 5.74.06 10.47-.01 8.03-.25 7.97 0 2.05.05 5.48-.06 7.92-.05-.31 0-.62-.02-.95-.04 6.65-.08 3.49-.11 8.04.04 2.51.37 7.66.23 6.35.06-.22-.01.44-.07 6.84-.06-.22.05 1.98.05 4.74.04v-99.82z" class="B"/><path d="M402.47 199.81c6.31 4.54 1.56-5.93 0 0h0zm-34.68-.5c-.7-.27-1.63-.47-2.85-.6 1.21.43 2.14.61 2.85.6zm37.47-40.98c4.06 3.61 1.56-.18 0 0h0zm-2.05-33.36s-.04.06-.07.09c.81-.23.8-.3.07-.09z" class="C"/><g class="B"><path d="M293.81 176.2c6.82.82 1.85 5.05 1.93 8.78-5.41 3.96 14.75 6.85 2.53 11.51-1.66.32-19.93 9.79-1.47 6.62-8.96-.82 2.8 6.28 4.2 7.19 4.55 1.17-3.05 7.63 5.21 7.68.11-1.28 4.16.23-1.48 7.89 10.22 2.37 0 3.62 2.2 8.34-.61 2.29 13.63-1.03-1.72 4.46-13.13-3.23-.65 4.79 4.23 4.17 11.58 4.31 6.46 5.32 7.95 4.36-6.3-2.15 2.88.27-5.63 4.51-2.79 2.61-5.97 6.14.64 9 4.07 1.75-2.47 2.84 3.41 4.34-6.17 1.41 3.46 2.89-5 4.68 4.35 1.61 10.51 3.03 6.93 4.62 7.88 1.52 2.7 3.27-2.26 4.62.15 2.91.7 5.93 3.65 9.21 5.48 2.87 10.75 6.21 1.33 9.18-.52 1.42 3.39 3.23-3.81 4.72-6.31 1.81 8.69 2.93 9.85 4.5 4.89 1.46-7.82 2.74-6.46 4.29.99 1.28-3.18 2.91 4.35 4.36-.27.8-1.09 1.22 8.74 2 6.27.59 6.99 1.7.5 2.29 7.16 1.64-9.74 2.79.6 4.28-3.77 1.58 1.3 2.89 1.36 4.26 2.22 1.53-5.45 2.75-7.47 4.13 1.11 2.52 5.76 5.29 1.8 7.94 2.77 1.25-.07 2.46 2.94 3.81 4.8 1.34-5.35 2.47-5.89 3.82-4.1 1.97 8.89 4.7-.56 7.11-7.21 1.48-8.03 2.4.44 3.48-4.66 1.16 4.45 2.16 7.74 3.22 1.43 2.21-.83 4.24-1.34 6.09.1 1.86-1.75 3.67 5.09 5.4-2.74 1.71-7.74 3.3-4.13 4.68-4.21 1.36-1.63 2.73 4.84 4.13 7.29 4.91 4.2 7.69 1.67 7.57 2.63-.17 1.6-.17-.84-.13l-9.25.13c5.39.05-11.92-.12-9.72-.09-3.24-.03.35.03-.99.11-6.25.34-1.99.25-5.44.03-5.77.2-1.5-.19-7.91-.05-7.63.17-9.92.2-5.73.04-10.47 0-8.03-.16-7.97 0-2.66.04-7.66-.09-9.79 0-3.08-.16-.45.06 2.82-.06-6.65-.05-3.49-.07-8.04.02-2.51.24-7.66.15-6.35.04.22 0-.44-.05-6.84-.04.38.05-6.37.03-10.87 0-6.79.05-15.46-.01-10.09 0-.59.08 2.34-2.67 1.66-7.57.33-2.42-4.16-5.6 2.35-8.81 3.31-1.74 4.67-3.6 5-5.43-2.28-1.87-.33-3.98-2.9-6.05-6.71-1.87 11.64-4.38 1.68-6.66 11.53-2.36 5.82-4.57 2.81-7.09 8.33-2.34.03-5.05 3.95-7.66-.2-2.85.63-5.11-2-7.97-1.51-1.3-4.68-2.89-2.63-4.25-3.73-1.57 5.11-2.85 7.06-4.16 11.15-2.52-9.11-5.22.14-8.58-7.49-3.15-4.86-6.09.43-8.83 2.45-2.85 1.57-5.86 2.65-9.01-3.63-2.87 8.3-5.84.26-9.08 10.5-3.01-1.42-5.93 4.56-9.25 1.85-1.43 17.24-2.99 9.03-4.45-12.26-1.43 4.21-2.99.96-4.64-4.7-1.83-7.03-5.08.48-4.62-1.33-.77-7.07-2.66-7.25-4.61-.9-2.05 15.83-4.61 2.3-8.95-.79-1.17-4.23-4.98 1.62-8.92 4.73-4.25-4.5-3.22-.26-4.21-3.11-.26-14.54-4.78 6.65-4.36-4.11-5.23 9.15-.81 1.91-4.35-3.61-3.07-19.4-6.9-4.57-4.05 9.7-1.28 21.16-4.46 5.24-7.9-.64-3.07-3.41-1.83-.72-7.72-9.76-3.75-6.24-13.11-3.72-7.15 18.64-1.07-10.38-6.43 5.65-6.61 10.4-3.12-14.42-7.09 1.04-11.46-.44-.83.72-1.62 3.42-8.83 10.44-7.43 7.41-5.81 3.33 0z"/><path d="M335.57 118.06c-2.26 3.02-7.51 6.75-2.35 11.18 5.06 4.41-3.55 9.22-3.07 14.64 5.97 2.67.59 5.52 1.78 8.42-.45 2.94-2.31 6.09-5.1 9.15-6.56 3.12-8.07 6.54-6.32 9.77 1.4 3.27-2.27 6.8 1.79 10.04-6.13 3.54 6.22 7.19-2.67 10.61 1.99 1.95-3.58 3.53 2.09 5.67-4.15 1.99 2 3.52-5.14 5.3-5.69 2.07-12.92 3.49-9.65 5.55-.17 1.94 1.67 3.85 6.83 5.73 4.8 3.93 8.32 7.57-.77 11.45-4.94 2.22 3 3.62-4.14 5.52 7.49 1.79-4.2 3.67 6.07 5.95-5.28 2.05-12.76 3.85-8.41 5.88-9.56 1.93-3.28 4.16 2.75 5.88-.18 3.7-.85 7.54-4.43 11.72-6.65 3.65-13.05 7.9-1.61 11.69.64 1.81-4.11 4.11 4.62 6.01 7.66 2.3-10.55 3.73-11.96 5.73-5.93 1.86 9.49 3.49 7.84 5.46-1.2 1.63 3.86 3.7-5.28 5.54.33 1.02 1.32 1.55-10.61 2.55-7.61.75-8.48 2.17-.61 2.91-8.69 2.08 11.82 3.56-.72 5.44 4.57 2.01-1.57 3.68-1.65 5.42-2.7 1.95 6.62 3.5 9.06 5.25-1.34 3.21-6.99 6.73-2.19 10.11-3.37 1.59.09 3.14-3.56 4.85-5.82 1.7 6.49 3.14 7.15 4.86 4.97 2.51-10.8 5.98.68 9.05 8.75 1.88 9.74 3.06-.54 4.43 5.65 1.48-5.4 2.74-9.39 4.09-1.74 2.82 1 5.4 1.63 7.75-.12 2.37 2.13 4.67-6.18 6.87 3.32 2.18 9.4 4.19 5.02 5.95 5.1 1.74 1.97 3.48-5.88 5.25-8.84 6.24-5.09 9.79-2.02 9.63-3.19-.21-1.94-.22 1.02-.16l11.23.16a4609.78 4609.78 0 0 1 11.8-.12c3.94-.04-.43.04 1.2.15 7.58.43 2.42.32 6.61.04 7 .25 1.82-.24 9.6-.07 9.26.21 12.04.26 6.96.05 12.71-.01 9.74-.21 9.68 0 3.23.06 9.3-.12 11.88 0 3.73-.21.55.08-3.42-.07 8.07-.06 4.24-.09 9.76.03 3.05.31 9.3.19 7.71.05-.26 0 .53-.06 8.3-.05-.46.07 7.73.04 13.19 0h12.25c.71.1-2.84-3.4-2.02-9.63-.4-3.08 5.05-7.13-2.86-11.21-4.02-2.21-5.67-4.58-6.06-6.91 2.77-2.39.4-5.06 3.52-7.7 8.14-2.38-14.13-5.57-2.04-8.48-14-3.01-7.06-5.81-3.41-9.02-10.11-2.98-.04-6.43-4.8-9.74.24-3.63-.76-6.5 2.43-10.14 1.83-1.65 5.69-3.68 3.19-5.41 4.53-2-6.21-3.63-8.57-5.3-13.54-3.2 11.06-6.64-.17-10.91 9.09-4.01 5.9-7.75-.52-11.23-2.97-3.62-1.9-7.46-3.21-11.47 4.4-3.65-10.07-7.43-.32-11.55-12.75-3.83 1.73-7.54-5.53-11.77-2.24-1.83-20.93-3.8-10.97-5.66 14.88-1.82-5.1-3.8-1.16-5.9 3.27-1.53 10.91-3.88-.58-5.88 4.12-1.78 5.86-4.15 8.8-5.86-1.14-3.81-6.01-7.28-2.8-11.38 4.24-3.71 3.07-7.34-1.96-11.35-4.74-1.74 3.3-3.59.31-5.36 1.17-1.78 5.4-3.71-8.07-5.54-3.78-1.96-5.45-3.81-2.31-5.53-1.73-1.69 8.31-3.33 5.55-5.15-12.65-3.36-.96-6.85-6.35-10.05 1.94-3.47.89-6.44.87-9.82 10.09-3.11 3.58-6.02 4.52-9.1-4.96-2.95.92-5.79-6.86-8.41-1-5.36-1.02-10.27-1.26-14.58-2.1-4.3-2.74-8.09-4.15-11.24-4.06-6.39-10.43-6.19-4.04 0zm-115.35 20.62c-1.86 2.79-6.18 6.24-1.93 10.33 4.17 4.08-2.92 8.52-2.53 13.53 4.92 2.46.49 5.1 1.47 7.78-.37 2.71-1.9 5.63-4.2 8.46-5.4 2.88-6.64 6.05-5.21 9.02 1.15 3.02-1.87 6.28 1.48 9.28-5.05 3.27 5.12 6.64-2.2 9.81 1.64 1.8-2.95 3.26 1.72 5.24-3.42 1.84 1.65 3.26-4.23 4.9-4.69 1.92-10.64 3.22-7.95 5.13-.14 1.79 1.37 3.56 5.63 5.3 3.95 3.63 6.86 7-.64 10.58-4.07 2.05 2.47 3.34-3.41 5.11 6.17 1.65-3.46 3.39 5 5.5-4.35 1.9-10.51 3.56-6.93 5.43-7.88 1.78-2.7 3.84 2.26 5.43-.15 3.42-.7 6.97-3.65 10.83-5.48 3.37-10.75 7.3-1.33 10.8.52 1.67-3.39 3.8 3.81 5.55 6.31 2.13-8.69 3.44-9.85 5.29-4.89 1.72 7.82 3.22 6.46 5.05-.99 1.5 3.18 3.42-4.35 5.12.27.94 1.09 1.43-8.74 2.36-6.27.69-6.99 2-.5 2.69-7.16 1.93 9.74 3.29-.6 5.03 3.77 1.86-1.3 3.4-1.36 5.01-2.22 1.8 5.45 3.23 7.47 4.86-1.11 2.97-5.76 6.21-1.8 9.34-2.77 1.46.07 2.9-2.94 4.48-4.8 1.58 5.35 2.9 5.89 4.49 4.1 2.32-8.89 5.53.56 8.36 7.21 1.74 8.03 2.83-.44 4.09 4.66 1.37-4.45 2.53-7.74 3.78-1.43 2.6.83 4.99 1.34 7.16-.1 2.19 1.75 4.32-5.09 6.34 2.74 2.02 7.74 3.87 4.13 5.5 4.21 1.6 1.63 3.21-4.84 4.85-7.29 5.77-4.2 9.04-1.67 8.9-2.63-.2-1.6-.2.84-.15l9.25.15c-5.39.06 11.92-.14 9.72-.11 3.24-.04-.35.04.99.13 6.25.4 1.99.29 5.44.04 5.77.23 1.5-.22 7.91-.06 7.63.2 9.92.24 5.74.05 10.47-.01 8.03-.19 7.97 0 2.66.05 7.66-.11 9.79 0 3.08-.19.45.07-2.82-.07 6.65-.06 3.49-.08 8.04.03 2.51.29 7.66.17 6.35.05-.22 0 .44-.06 6.84-.05-.38.06 6.37.03 10.87 0h10.09c.59.1-2.34-3.14-1.66-8.9-.33-2.85 4.16-6.58-2.35-10.36-3.31-2.04-4.67-4.23-5-6.39 2.28-2.2.33-4.68 2.9-7.11 6.71-2.19-11.64-5.15-1.68-7.83-11.53-2.78-5.82-5.37-2.81-8.34-8.33-2.75-.03-5.94-3.95-9 .2-3.35-.63-6.01 2-9.37 1.51-1.53 4.68-3.4 2.63-5 3.73-1.85-5.11-3.35-7.06-4.9-11.15-2.96 9.11-6.14-.14-10.08 7.49-3.7 4.86-7.16-.43-10.38-2.45-3.35-1.57-6.89-2.65-10.6 3.63-3.38-8.3-6.87-.26-10.67-10.5-3.54 1.42-6.97-4.56-10.87-1.85-1.69-17.24-3.51-9.03-5.23 12.26-1.68-4.21-3.51-.96-5.46 2.69-1.41 8.99-3.58-.48-5.44 3.39-1.64 4.83-3.84 7.25-5.42-.94-3.52-4.95-6.72-2.3-10.52 3.5-3.42 2.53-6.79-1.62-10.49-3.9-1.61 2.72-3.32.26-4.95.97-1.65 4.45-3.42-6.65-5.12-3.11-1.81-4.49-3.52-1.91-5.11-1.43-1.56 6.85-3.08 4.57-4.76-10.42-3.1-.79-6.33-5.24-9.28 1.6-3.21.73-5.95.72-9.08 8.31-2.87 2.95-5.56 3.72-8.41-4.09-2.73.76-5.35-5.65-7.77-.83-4.95-.84-9.49-1.04-13.47-1.73-3.98-2.26-7.47-3.42-10.39-3.34-5.91-8.59-5.72-3.33 0z"/></g><path d="M330.92 92.22c-1.86 3.16-6.18 7.08-1.93 11.71 4.17 4.62-2.92 9.66-2.53 15.34 4.92 2.79.49 5.78 1.47 8.82-.37 3.08-1.9 6.38-4.2 9.59-5.4 3.27-6.64 6.85-5.21 10.23 1.15 3.42-1.87 7.12 1.48 10.52-5.05 3.71 5.12 7.53-2.2 11.12 1.64 2.04-2.95 3.69 1.72 5.94-3.42 2.08 1.65 3.69-4.23 5.56-4.69 2.17-10.64 3.66-7.95 5.81-.14 2.03 1.37 4.04 5.63 6.01 3.95 4.12 6.86 7.93-.64 11.99-4.07 2.33 2.47 3.79-3.41 5.79 6.17 1.87-3.46 3.85 5 6.23-4.35 2.15-10.51 4.04-6.93 6.16-7.88 2.02-2.7 4.36 2.26 6.16-.15 3.88-.7 7.9-3.65 12.27-5.48 3.83-10.75 8.28-1.33 12.24.52 1.89-3.39 4.3 3.81 6.29 6.31 2.41-8.69 3.9-9.85 6-4.89 1.95 7.82 3.65 6.46 5.72-.99 1.7 3.18 3.87-4.35 5.81.27 1.06 1.09 1.63-8.74 2.67-6.27.79-6.99 2.27-.5 3.05-7.16 2.18 9.74 3.72-.6 5.7 3.77 2.11-1.3 3.86-1.36 5.68-2.22 2.05 5.45 3.67 7.47 5.51-1.11 3.36-5.76 7.05-1.8 10.59-2.77 1.66.07 3.28-2.94 5.08-4.8 1.79 5.35 3.29 5.89 5.09 4.1 2.63-8.89 6.27.56 9.48 7.21 1.97 8.03 3.2-.44 4.64 4.66 1.55-4.45 2.87-7.74 4.29-1.43 2.95.83 5.66 1.34 8.11-.1 2.49 1.75 4.9-5.09 7.19 2.74 2.29 7.74 4.39 4.13 6.24 4.21 1.82 1.63 3.64-4.84 5.5-7.29 6.54-4.2 10.25-1.67 10.09-2.63-.22-1.6-.23.84-.17 3.21.01 7.01.18 9.25.17-5.39.07 11.92-.16 9.72-.13 3.24-.04-.35.04.99.15 6.25.45 1.99.33 5.44.04 5.76.26 1.5-.25 7.91-.07 7.63.22 9.92.27 5.74.05 10.47-.01 8.03-.22 7.97 0 2.66.06 7.66-.13 9.79 0 3.08-.22.45.08-2.82-.08 6.65-.07 3.49-.09 8.04.03 2.51.33 7.66.2 6.35.05-.22 0 .44-.06 6.84-.05-.38.07 6.37.04 10.87 0h10.09c.59.11-2.34-3.56-1.66-10.09-.33-3.23 4.16-7.46-2.35-11.74-3.31-2.31-4.67-4.8-5-7.24 2.28-2.5.33-5.3 2.9-8.06 6.71-2.49-11.64-5.84-1.68-8.88-11.53-3.15-5.82-6.09-2.81-9.45-8.33-3.12-.03-6.74-3.95-10.21.2-3.8-.63-6.81 2-10.62 1.51-1.73 4.68-3.86 2.63-5.67 3.73-2.09-5.11-3.8-7.06-5.55-11.15-3.35 9.11-6.96-.14-11.43 7.49-4.2 4.86-8.12-.43-11.77-2.45-3.79-1.57-7.81-2.65-12.01 3.63-3.83-8.3-7.78-.26-12.1-10.5-4.01 1.42-7.9-4.56-12.33-1.85-1.91-17.24-3.98-9.03-5.93 12.26-1.91-4.21-3.98-.96-6.18 2.69-1.6 8.99-4.06-.48-6.16 3.39-1.86 4.83-4.35 7.25-6.14-.94-3.99-4.95-7.62-2.3-11.93 3.5-3.88 2.53-7.69-1.62-11.89-3.9-1.82 2.72-3.76.26-5.61.97-1.87 4.45-3.88-6.65-5.81-3.11-2.05-4.49-3.99-1.91-5.79-1.43-1.77 6.85-3.49 4.57-5.4-10.42-3.52-.79-7.18-5.24-10.52 1.6-3.64.73-6.75.72-10.29 8.31-3.26 2.95-6.31 3.72-9.53-4.09-3.09.76-6.07-5.65-8.81-.83-5.61-.84-10.76-1.04-15.27-1.73-4.51-2.26-8.47-3.42-11.78-3.34-6.7-8.59-6.49-3.33 0z" class="C"/><path d="M174.46 176.2c.61.25-8.69 8.02-1.93 8.78 1.08 4.02-4.34 6.83-2.53 11.51.45.96 2.93 5.22 1.47 6.62 7.27 3.38-1.55 1.78-4.2 7.19-7.09-4-7.8-1.33-6.33 1.58.37 3.3.3 4.17 1.12 6.1 10.34 3.48.5 3.25 1.48 7.89-9.13.01-6.01 3.28-2.39 4.76 4.99 1.58 6.73 2.12.19 3.58 1.83.43-4.89 2.75 1.72 4.46-2.89 1.13.02.6-4.23 4.17-.24 1.52-8.57 1.67-7.95 4.36-1.59 1.08 1.38.06 5.63 4.51 1.02 4.07 6.39 4.7-.64 9-1.85-1.67 3.84-.45-3.41 4.34 13.49-2.09 2.38 1.41 5 4.68-11.61 2.59-7.72.21-6.93 4.62-7.88 1.52-.32 2.41 2.26 4.62 1.54 3.08 1.49 8.25-3.65 9.21-2.74 1.44-5.43 2.99-6.25 4.55-.82 1.57.21 3.14 4.93 4.63.52 1.42-3.39 3.23 3.81 4.72 6.31 1.81-8.69 2.93-9.85 4.5-4.89 1.46 7.82 2.74 6.46 4.29-.99 1.28 3.18 2.91-4.35 4.36.27.8 1.09 1.22-8.74 2-6.27.59-6.99 1.7-.5 2.29-7.16 1.64 9.74 2.79-.6 4.28 3.77 1.58-1.3 2.89-1.36 4.26-2.22 1.53 5.45 2.75 7.47 4.13-1.11 2.52-5.76 5.29-1.8 7.94-2.77 1.25.07 2.46-2.94 3.81-4.8 1.34 5.35 2.47 5.89 3.82 4.1 1.97-8.89 4.7.56 7.11 7.21 1.48 8.03 2.4-.44 3.48 4.66 1.16-4.45 2.16-7.74 3.22-1.43 2.21.83 4.24 1.34 6.09-.1 1.86 1.75 3.67-5.09 5.4 2.74 1.71 7.74 3.3 4.13 4.68 4.21 1.36 1.63 2.73-4.84 4.13-7.29 4.91-4.2 7.69-1.67 7.57-2.63-.17-1.6-.17.84-.13l9.25.13c-5.39.05 11.92-.12 9.72-.09 3.24-.03-.35.03.99.11 6.25.34 1.99.25 5.44.03 5.77.2 1.5-.19 7.91-.05 7.63.17 9.92.2 5.73.04 10.47 0 8.03-.16 7.97 0 2.66.04 7.66-.09 9.79 0 3.08-.16.45.06-2.82-.06 6.65-.05 3.49-.07 8.04.02 2.51.24 7.66.15 6.35.04-.22 0 .44-.05 6.84-.04-.38.05 6.37.03 10.87 0h10.09c.59.08-2.34-2.67-1.66-7.57-.33-2.42 4.16-5.6-2.35-8.81-3.31-1.74-4.67-3.6-5-5.43 2.28-1.87.33-3.98 2.9-6.05 6.71-1.87-11.64-4.38-1.68-6.66-11.53-2.36-5.82-4.57-2.81-7.09-8.33-2.34-.03-5.05-3.95-7.66.2-2.85-.63-5.11 2-7.97 1.51-1.3 4.68-2.89 2.63-4.25 3.73-1.57-5.11-2.85-7.06-4.16-11.15-2.52 9.11-5.22-.14-8.58 3.75-1.57 4.96-3.1 4.58-4.57s-.54-2.97-5.01-4.26c-2.03-.6 5.73-2.65-2.65-9.01 4.22-2.59-10.82-4.54-.26-9.08-4.67-2.19 3.5-6.44-4.56-9.25-3.51 1.47-9.13-1.02-8.29-2.21.2-.04-1.08-1.25-.75-2.24 5.83.35-1.9-.04-.96-4.64 11.68-2.74 7.03-3.17-.48-4.62-1.69-3.58 10.15-3.83 7.25-4.61.86-3.17-4.68-4.59-2.3-8.95-1.34-3.83 2.89-3.19-1.62-8.92-4.68-1.75 1.37-4.2.26-4.21 5.41-.45 7.77-1.06 6.76-1.8s-5.38-1.6-13.41-2.56c-6.01-3.78-2.74-3.74-1.91-4.35 2.4-3.26 7.13-.04 4.57-4.05-10.92-3.02 2.87-5.89-5.24-7.9-.93-.35 11.5-.32 4.71-2.29-1.63-1.9 2.37-6.19-3.99-5.43 12.64-5.58-6.67-7.71 3.72-7.15 9.9-.94 6.71-8.16-5.65-6.61-1.41-4.46 1.36-8.12-1.04-11.46 2.97-6.45-2.46-6.21-3.42-8.83.49-3.22-11.1-4.12-3.33 0z" class="B"/><path d="M203.57 151.12c.47.19-6.67 6.16-1.48 6.74.83 3.09-3.33 5.24-1.94 8.84.34.74 2.25 4.01 1.13 5.08 5.58 2.59-1.19 1.37-3.23 5.52-5.44-3.07-5.99-1.02-4.86 1.21.28 2.54.23 3.2.86 4.68 7.94 2.67.39 2.5 1.13 6.06-7.01.01-4.61 2.52-1.84 3.65 3.83 1.22 5.17 1.63.15 2.75 1.41.33-3.76 2.11 1.32 3.42-2.22.87.01.46-3.25 3.2-.18 1.17-6.58 1.28-6.11 3.35-1.22.83 1.06.04 4.32 3.46.79 3.12 4.91 3.61-.49 6.91-1.42-1.29 2.95-.35-2.62 3.33 10.36-1.6 1.83 1.08 3.84 3.59-8.92 1.99-5.93.16-5.32 3.55-6.05 1.16-.25 1.85 1.74 3.55 1.18 2.37 1.14 6.34-2.8 7.07-2.1 1.1-4.17 2.29-4.8 3.5-.63 1.2.16 2.41 3.78 3.56.4 1.09-2.6 2.48 2.92 3.63 4.84 1.39-6.67 2.25-7.56 3.46-3.75 1.12 6.01 2.11 4.96 3.3-.76.98 2.44 2.23-3.34 3.34.21.61.83.94-6.71 1.54-4.81.45-5.37 1.31-.38 1.76-5.5 1.26 7.48 2.15-.46 3.28 2.89 1.22-.99 2.22-1.04 3.27-1.71 1.18 4.19 2.11 5.73 3.17-.85 1.94-4.42 4.06-1.38 6.1-2.13.96.06 1.89-2.25 2.93-3.68 1.03 4.11 1.9 4.53 2.93 3.15 1.52-6.83 3.61.43 5.46 5.54 1.14 6.16 1.85-.34 2.67 3.58.89-3.42 1.66-5.94 2.47-1.1 1.7.63 3.26 1.03 4.67-.08 1.43 1.35 2.82-3.91 4.14 2.1 1.32 5.95 2.53 3.17 3.59 3.23 1.05 1.25 2.1-3.72 3.17-5.59 3.77-3.22 5.91-1.28 5.81-2.02-.13-1.23-.13.65-.1l7.1.1c-4.14.04 9.15-.09 7.46-.07 2.49-.02-.27.02.76.09 4.8.26 1.53.19 4.18.02 4.43.15 1.15-.14 6.08-.04l4.4.03h6.12 7.52c2.36-.13.35.05-2.16-.04l6.18.02c1.93.19 5.89.11 4.88.03-.17 0 .34-.04 5.25-.03-.29.04 4.89.02 8.34 0h7.75c.45.06-1.8-2.05-1.28-5.81-.26-1.86 3.2-4.3-1.81-6.77-2.54-1.33-3.58-2.76-3.84-4.17 1.75-1.44.25-3.05 2.22-4.65 5.15-1.43-8.94-3.36-1.29-5.12-8.85-1.82-4.47-3.51-2.16-5.44-6.4-1.8-.02-3.88-3.03-5.88.15-2.19-.48-3.92 1.53-6.12 1.16-1 3.6-2.22 2.02-3.27 2.87-1.21-3.93-2.19-5.42-3.2-8.57-1.93 7-4.01-.11-6.59 2.88-1.21 3.81-2.38 3.52-3.51s-.42-2.28-3.85-3.27c-1.56-.46 4.4-2.03-2.03-6.92 3.24-1.99-8.31-3.49-.2-6.97-3.59-1.68 2.69-4.95-3.5-7.1-2.7 1.13-7.01-.79-6.36-1.7.15-.03-.83-.96-.57-1.72 4.48.27-1.46-.03-.74-3.56 8.97-2.1 5.4-2.44-.37-3.55-1.3-2.75 7.8-2.94 5.57-3.54.66-2.43-3.59-3.52-1.77-6.87-1.03-2.94 2.22-2.45-1.24-6.85-3.6-1.34 1.05-3.23.2-3.23 4.16-.34 5.96-.81 5.19-1.38s-4.13-1.23-10.3-1.96c-4.61-2.9-2.1-2.87-1.46-3.34 1.84-2.51 5.48-.03 3.51-3.11-8.39-2.32 2.2-4.53-4.02-6.06-.71-.27 8.83-.24 3.61-1.76-1.25-1.46 1.82-4.75-3.06-4.17 9.71-4.28-5.12-5.92 2.86-5.49 7.61-.72 5.16-6.27-4.34-5.08-1.08-3.42 1.05-6.24-.8-8.8 2.28-4.95-1.89-4.77-2.62-6.78.38-2.47-8.52-3.16-2.56 0z" class="D"/><path d="M262.01 176.2c13.42 3.46 3.03 3.97 1.93 8.78-6.44 10.78-4.1 7.85 2.53 11.51 2.58-1.01-11.19 3.22-1.47 6.62-.18.51 2.73 9.04 4.2 7.19 15.79-3.77 11.95 6.03 5.21 7.68-.89 5.17 12.14 7.75-1.48 7.89-11.43 4.83-3.69 5.95 2.2 8.34-6.39 5.01-3.54 4.67-1.72 4.46-6.61 5.73 1.16 2.89 4.23 4.17 8.53-.18 8.3 4.53 7.95 4.36-3.35 1.35-11.91 2.61-5.63 4.51-2.22 4.27-7.23 5.29.64 9 2.22 1.12.28 2.7 3.41 4.34-7.8 2.59 3.46 2.89-5 4.68 4.35 1.61 10.51 3.03 6.93 4.62 7.88 1.52 2.7 3.27-2.26 4.62.15 2.91.7 5.93 3.65 9.21 5.48 2.87 10.75 6.21 1.33 9.18-.52 1.42 3.39 3.23-3.81 4.72-6.31 1.81 8.69 2.93 9.85 4.5 4.89 1.46-7.82 2.74-6.46 4.29.99 1.28-3.18 2.91 4.35 4.36-.27.8-1.09 1.22 8.74 2 6.27.59 6.99 1.7.5 2.29 7.16 1.64-9.74 2.79.6 4.28-3.77 1.58 1.3 2.89 1.36 4.26 2.22 1.53-5.45 2.75-7.47 4.13 1.11 2.52 5.76 5.29 1.8 7.94 2.77 1.25-.07 2.46 2.94 3.81 4.8 1.34-5.35 2.47-5.89 3.82-4.1 1.97 8.89 4.7-.56 7.11-7.21 1.48-8.03 2.4.44 3.48-4.66 1.16 4.45 2.16 7.74 3.22 1.43 2.21-.83 4.24-1.34 6.09.1 1.86-1.75 3.67 5.09 5.4-2.74 1.71-7.74 3.3-4.13 4.68-4.21 1.36-1.63 2.73 4.84 4.13 7.29 4.91 4.2 7.69 1.67 7.57 2.63-.17 1.6-.17-.84-.13l-9.25.13c5.39.05-11.92-.12-9.72-.09-3.24-.03.35.03-.99.11-6.25.34-1.99.25-5.44.03-5.77.2-1.5-.19-7.91-.05-7.63.17-9.92.2-5.73.04-10.47 0-8.03-.16-7.97 0-2.66.04-7.66-.09-9.79 0-3.08-.16-.45.06 2.82-.06-6.65-.05-3.49-.07-8.04.02-2.51.24-7.66.15-6.35.04.22 0-.44-.05-6.84-.04.38.05-6.37.03-10.87 0-6.79.05-15.46-.01-10.09 0-.59.08 2.34-2.67 1.66-7.57.33-2.42-4.16-5.6 2.35-8.81 3.31-1.74 4.67-3.6 5-5.43-2.28-1.87-.33-3.98-2.9-6.05-6.71-1.87 11.64-4.38 1.68-6.66 11.53-2.36 5.82-4.57 2.81-7.09 8.33-2.34.03-5.05 3.95-7.66-.2-2.85.63-5.11-2-7.97-1.51-1.3-4.68-2.89-2.63-4.25-3.73-1.57 5.11-2.85 7.06-4.16 11.15-2.52-9.11-5.22.14-8.58-7.49-3.15-4.86-6.09.43-8.83 2.45-2.85 1.57-5.86 2.65-9.01-3.63-2.87 8.3-5.84.26-9.08 10.5-3.01-1.42-5.93 4.56-9.25 1.85-1.43 17.24-2.99 9.03-4.45-12.26-1.43 4.21-2.99.96-4.64-2.69-1.2-8.99-3.05.48-4.62-3.39-1.4-4.83-3.26-7.25-4.61.38-2.53 1-8.42 2.3-8.95-4.22-2.23 6.27-8.38 1.62-8.92.74-.62-1.52-1.7-.26-4.21-10.05-5.17-3.68-3.39 6.65-4.36 5.02-5.28-11.36-2.22 1.91-4.35-3 1.12-15.32-4.38-4.57-4.05 20.96-7.45 10.34-2.11 5.24-7.9 1.75-2.46 1.48-7.68-.72-7.72-7.35-3.13-5.03-6.44-3.72-7.15 1.81-2.86 15.1-3.14 5.65-6.61-20.14-2.94 6-7.4 1.04-11.46-1.67-2.11-1.37-4.25 3.42-8.83.74-7.47 10.24-2.75 3.33 0z" class="B"/><path d="M316.92 175.5c-.85.34-.76 4.03-3.51 8.97 3.51 2.61-3.17 11.81-.95 11.32 4.07 9.73-9.38 10.94-5.73 18.09-13.99 5.45-6.11 6.17-.73 11.29-3.49 3.44 2.6 4.44 1.4 4.03 6.1 1.81 5.9 3.6-3.55 4.41 6.57.96-3.9 2.95 2.26 6.36 4.48 2.55 4.36 3.46-4.69 2.43 10.64-1.58 6.08 1.21 3.3 3.4 4.9 1.99-10.8 2.89-5.35 5.49 9.15.48.87 2.09-4.85 4.65-7.94 1.73-16.06 6.27 3.82 4.08-3.12-3.4-1.34-2.08-3.39-1.2-2.02 4.05.89 3.94-1.21 8.93-5.61 4.4-9.38 5.72-6.64 6.57.52.93 3.15 1.28 5.98 3.13.78 2.72 6.66 4.64 1.44 1.57 18.03 3.67 1.73 6.49-2.08 9.5-8.38-6.16 1.39 2.04-2.15 8.15 12.78-3.23 18.55.17 12.98 7.4-16.28 2.42-5.01 8.96-8.84 8.69 3.4 6.67-15.23 6.94-5 9.44-9.53.65-6.56 10.87-9.12 1.02-.39 8.49-15 6.16-5.07 4.19-.43-.21 7.53 2.82 7.39 4.1-16.78 3.99-1.02 15.65 3.69 13.8-15.86-1.05 3.72 4.72-2.44 3.38-20.99 3.83-.24.09-1.76 4.06 6.23 5.82-3.83 7.78-5.95 8.13-6.52-3.45-14.69 7.34-5.39 5.09-7.74 2 6.16 7.39-1.48 7.08 15.64 3.71 16.61 6.98 2.41 8.12 7.07 5.33-.2 8.19-1.67 7.57 7.85-4.99 1.55 1.11 10.09 0 2.44.6 16.58 1.78 24.06 0h28.72 34.15l-1.66-7.57c-3.22-2.19-2.25-4.02-.87-8.22 3.51-2.53-6.97-7.18-3.59-12.07 5.11-3.04-4.57-9.04-5.26-11.62-14.72-12.89-1.57.18-1.19-17.76-25.57 1.72 4.64-4.53-.56-14.87 18.81-2.14-23.13-8.54-7.08-19.96-3.04.69-4.32-4.83-.17-9.35.92-3.8-3.45-6.92-8.56-8.96 2.92-1.43 11.21-4.72.44-8.02-6.58-1.92-2.94-10.22.26-10.32-12.32-4.5-1.31-6.69-2.08-9.35-5.41-.74-4.71-10.42-1.84-8.52 5.19 3.06 14.03-2.9-2.6-9.23 3.17-2.52-.4-6.25-1.12-7.73.26-3.63 1.38-6.7 1.45-9.28s-.92-4.66-4.87-6.32c.5-5.88-5.53-5.75-4.51-8.89.43-2.33 9.04.95 4.27-2.23-.69-1.6-11.67-2.71-2.78-2.66-2.62-2.72-1.39-5.79-2.21-11.32 1.2-5.38-4.81-4.98-2.24-8.97-1.03-2.37-3.45-2.24-3.33 0z" class="C"/><path d="M237.79 175.42c-.8.34-.71 4.03-3.29 8.97 3.29 2.62-2.97 11.82-.89 11.33 3.81 9.74-8.79 10.95-5.37 18.09-13.11 5.45-5.72 6.18-.68 11.3-3.27 3.44 2.44 4.44 1.31 4.03 5.71 1.81 5.53 3.61-3.33 4.41 6.16.96-3.65 2.95 2.11 6.36 4.2 2.55 4.09 3.46-4.39 2.43 9.97-1.58 5.69 1.21 3.09 3.4 4.6 1.99-10.12 2.89-5.02 5.49 8.58.49.82 2.09-4.54 4.65-7.44 1.73-15.05 6.27 3.58 4.08-2.93-3.4-1.25-2.08-3.18-1.2-1.89 4.06.83 3.94-1.14 8.93-5.26 4.4-8.79 5.72-6.23 6.57.49.93 2.95 1.28 5.6 3.13.73 2.72 6.24 4.64 1.35 1.57 16.9 3.67 1.62 6.49-1.95 9.51-7.86-6.17 1.3 2.04-2.01 8.15 11.98-3.23 17.38.17 12.16 7.4-15.25 2.42-4.69 8.97-8.29 8.7 3.18 6.67-14.27 6.94-4.68 9.44-8.93.65-6.15 10.87-8.55 1.02-.37 8.5-14.05 6.16-4.75 4.19-.4-.21 7.06 2.82 6.93 4.1-15.72 3.99-.96 15.66 3.46 13.81-14.86-1.05 3.48 4.72-2.29 3.38-19.67 3.83-.23.09-1.65 4.07 5.84 5.82-3.59 7.78-5.58 8.13-6.11-3.45-13.77 7.34-5.05 5.09-7.26 2 5.77 7.39-1.39 7.09 14.66 3.71 15.56 6.98 2.26 8.12 6.63 5.33-.19 8.19-1.56 7.57 7.35-4.99 1.45 1.11 9.46 0 2.28.6 15.53 1.78 22.55 0h26.91 32l-1.56-7.57c-3.01-2.2-2.11-4.03-.81-8.22 3.29-2.53-6.53-7.18-3.36-12.08 4.79-3.04-4.28-9.05-4.93-11.62-13.8-12.89-1.47.18-1.11-17.77-23.96 1.72 4.35-4.53-.52-14.88 17.63-2.14-21.67-8.54-6.64-19.96-2.85.69-4.05-4.83-.16-9.35.86-3.8-3.23-6.92-8.02-8.96 2.74-1.43 10.51-4.72.41-8.02-6.17-1.92-2.75-10.22.24-10.33-11.55-4.5-1.23-6.69-1.95-9.35-5.07-.74-4.41-10.43-1.73-8.52 4.86 3.06 13.15-2.9-2.44-9.23 2.97-2.52-.38-6.25-1.05-7.74.24-3.63 1.29-6.7 1.36-9.28.06-2.58-.86-4.66-4.56-6.32.47-5.88-5.18-5.75-4.23-8.89.4-2.34 8.47.95 4-2.24-.65-1.6-10.93-2.71-2.6-2.66-2.46-2.72-1.3-5.79-2.07-11.33 1.13-5.38-4.5-4.98-2.1-8.97-.97-2.37-3.23-2.24-3.12 0z" class="B"/><path d="M375.71 151.17c-.74.41-.66 4.85-3.05 10.79 3.06 3.14-2.75 14.2-.83 13.61 3.54 11.7-8.16 13.16-4.99 21.75-12.16 6.56-5.31 7.42-.63 13.58-3.03 4.13 2.26 5.34 1.22 4.85 5.3 2.18 5.13 4.33-3.09 5.3 5.71 1.16-3.39 3.54 1.96 7.65 3.89 3.06 3.79 4.16-4.07 2.92 9.25-1.9 5.28 1.46 2.87 4.08 4.26 2.4-9.39 3.48-4.66 6.6 7.96.58.76 2.51-4.21 5.59-6.9 2.07-13.97 7.54 3.32 4.9-2.72-4.08-1.16-2.5-2.95-1.45-1.75 4.88.77 4.74-1.06 10.74-4.88 5.29-8.16 6.88-5.78 7.9.46 1.12 2.74 1.54 5.2 3.76.68 3.27 5.79 5.58 1.25 1.89 15.68 4.41 1.5 7.8-1.81 11.43-7.29-7.41 1.21 2.45-1.87 9.79 11.11-3.88 16.13.2 11.28 8.89-14.15 2.91-4.35 10.78-7.69 10.45 2.95 8.02-13.24 8.34-4.34 11.35-8.29.79-5.71 13.07-7.93 1.23-.34 10.22-13.04 7.41-4.41 5.03-.38-.26 6.55 3.39 6.43 4.93-14.59 4.8-.89 18.82 3.21 16.6-13.79-1.26 3.23 5.68-2.12 4.07-18.25 4.6-.21.11-1.53 4.89 5.42 7-3.33 9.35-5.18 9.77-5.67-4.15-12.78 8.83-4.68 6.12-6.73 2.41 5.35 8.88-1.29 8.52 13.6 4.46 14.44 8.39 2.09 9.76 6.15 6.41-.17 9.85-1.45 9.1 6.82-6 1.35 1.34 8.77 0 2.12.72 14.41 2.15 20.92 0h24.97 29.7l-1.44-9.1c-2.8-2.64-1.96-4.84-.75-9.88 3.05-3.04-6.06-8.63-3.12-14.52 4.44-3.65-3.97-10.87-4.57-13.97-12.8-15.5-1.36.22-1.03-21.36-22.23 2.06 4.04-5.44-.49-17.88 16.36-2.57-20.11-10.26-6.16-24-2.64.83-3.76-5.8-.15-11.24.8-4.57-3-8.32-7.45-10.77 2.54-1.72 9.75-5.68.38-9.64-5.72-2.31-2.55-12.29.22-12.41-10.71-5.41-1.14-8.04-1.81-11.24-4.7-.88-4.1-12.54-1.6-10.24 4.51 3.67 12.2-3.49-2.26-11.09 2.75-3.03-.35-7.52-.97-9.3.23-4.37 1.2-8.06 1.26-11.15.06-3.1-.8-5.6-4.23-7.6.43-7.07-4.81-6.91-3.93-10.68.37-2.81 7.86 1.14 3.71-2.69-.6-1.92-10.14-3.26-2.41-3.2-2.28-3.27-1.21-6.96-1.92-13.62 1.05-6.47-4.18-5.99-1.95-10.78-.9-2.85-3-2.69-2.89 0zm-82.8-15.71c-.74.31-.66 3.66-3.05 8.15 3.05 2.38-2.75 10.74-.83 10.29 3.53 8.85-8.14 9.95-4.98 16.44-12.14 4.96-5.3 5.61-.63 10.27-3.03 3.12 2.26 4.03 1.22 3.66 5.29 1.65 5.12 3.28-3.09 4 5.7.87-3.38 2.68 1.96 5.78 3.89 2.32 3.79 3.14-4.07 2.21 9.24-1.44 5.27 1.1 2.87 3.09 4.26 1.81-9.38 2.63-4.65 4.99 7.95.44.76 1.9-4.21 4.23-6.89 1.57-13.94 5.7 3.32 3.71-2.71-3.09-1.16-1.89-2.95-1.09-1.75 3.69.77 3.58-1.05 8.12-4.87 4-8.14 5.2-5.77 5.97.45.84 2.74 1.17 5.19 2.85.68 2.47 5.78 4.22 1.25 1.43 15.65 3.33 1.5 5.9-1.81 8.64-7.28-5.6 1.21 1.85-1.87 7.4 11.09-2.94 16.1.15 11.26 6.72-14.13 2.2-4.35 8.15-7.68 7.9 2.95 6.06-13.22 6.31-4.34 8.58-8.27.59-5.7 9.88-7.92.93-.34 7.72-13.02 5.6-4.4 3.81-.37-.19 6.54 2.56 6.42 3.72-14.56 3.63-.89 14.23 3.2 12.55-13.77-.96 3.23 4.29-2.12 3.07-18.22 3.48-.21.08-1.53 3.69 5.41 5.29-3.33 7.07-5.17 7.39-5.66-3.13-12.75 6.67-4.68 4.63-6.72 1.82 5.35 6.72-1.29 6.44 13.58 3.37 14.41 6.34 2.09 7.38 6.14 4.85-.17 7.45-1.45 6.88 6.81-4.54 1.34 1.01 8.76 0 2.12.54 14.39 1.62 20.89 0h24.93 29.65l-1.44-6.88c-2.79-1.99-1.96-3.66-.75-7.47 3.04-2.3-6.05-6.53-3.11-10.98 4.43-2.76-3.96-8.22-4.57-10.56-12.78-11.72-1.36.17-1.03-16.15-22.2 1.56 4.03-4.12-.48-13.52 16.33-1.94-20.07-7.76-6.15-18.14-2.64.63-3.75-4.39-.15-8.5.8-3.46-3-6.29-7.43-8.14 2.54-1.3 9.73-4.29.38-7.29-5.71-1.74-2.55-9.29.22-9.38-10.7-4.09-1.14-6.08-1.81-8.5-4.7-.67-4.09-9.48-1.6-7.74 4.5 2.78 12.18-2.64-2.26-8.39 2.75-2.29-.35-5.68-.97-7.03.22-3.3 1.2-6.09 1.26-8.43s-.8-4.23-4.23-5.75c.43-5.35-4.8-5.22-3.92-8.08.37-2.12 7.85.86 3.7-2.03-.6-1.45-10.13-2.47-2.41-2.42-2.28-2.48-1.2-5.26-1.92-10.29 1.05-4.89-4.17-4.53-1.95-8.15-.9-2.15-3-2.04-2.89 0z" class="D"/><g class="C"><path d="M1682.58 388.53h.12c1.12.02 1.39.02-.12 0zm-48.38-.01l1.56.03-.74.03-.82-.06zm58.47.01l.76-.08a2.19 2.19 0 0 1-.76.08z"/><path d="M1636.89 388.53l-1.13.02 1.13-.02zm-2.69-.01c-.66-.03-.78-.06 0 0h0zm59.23-.07c.14-.04.28-.09.41-.15.56 0 .52.05-.41.15z"/></g><use xlink:href="#B" x="1001.34" y="48.95" class="B"/><path d="M1630.23 199.06c-6.31 4.54-1.56-5.93 0 0h0zm34.68-.5c.7-.27 1.63-.47 2.85-.6-1.21.43-2.14.61-2.85.6zm-37.47-40.99c-4.06 3.61-1.56-.18 0 0h0zm2.05-33.35a.76.76 0 0 0 .07.09c-.81-.23-.8-.3-.07-.09z" class="C"/><g class="B"><use xlink:href="#C" x="1001.33" y="48.95"/><use xlink:href="#D" x="1001.33" y="48.95"/><use xlink:href="#E" x="1001.33" y="48.95"/></g><use xlink:href="#F" x="1037.45" y="36.04" class="C"/><use xlink:href="#G" x="1001.34" y="48.95" class="B"/><use xlink:href="#H" x="1014" y="56.43" class="D"/><use xlink:href="#I" x="1001.33" y="48.95" class="B"/><path d="M1715.78 174.75c.85.34.76 4.03 3.51 8.97-3.51 2.61 3.17 11.81.95 11.32-4.07 9.73 9.38 10.94 5.73 18.09 13.99 5.45 6.11 6.17.73 11.29 3.49 3.44-2.6 4.44-1.4 4.03-6.1 1.81-5.9 3.6 3.55 4.41-6.57.96 3.9 2.95-2.26 6.36-4.48 2.55-4.36 3.46 4.69 2.43-10.64-1.58-6.08 1.21-3.3 3.4-4.9 1.99 10.8 2.89 5.35 5.49-9.15.48-.87 2.09 4.85 4.65 7.94 1.73 16.06 6.27-3.82 4.08 3.12-3.4 1.34-2.08 3.39-1.2 2.02 4.05-.89 3.94 1.21 8.93 5.61 4.4 9.38 5.72 6.64 6.57-.52.93-3.15 1.28-5.98 3.13-.78 2.72-6.66 4.64-1.44 1.57-18.03 3.67-1.73 6.49 2.08 9.5 8.38-6.16-1.39 2.04 2.15 8.15-12.78-3.23-18.55.17-12.98 7.4 16.28 2.42 5.01 8.96 8.84 8.69-3.4 6.67 15.23 6.94 5 9.44 9.53.65 6.56 10.87 9.12 1.02.39 8.49 15 6.16 5.07 4.19.43-.21-7.53 2.82-7.39 4.1 16.78 3.99 1.02 15.65-3.69 13.8 15.86-1.05-3.72 4.72 2.44 3.38 20.99 3.83.24.09 1.76 4.06-6.23 5.82 3.83 7.78 5.95 8.13 6.52-3.45 14.69 7.34 5.39 5.09 7.74 2-6.16 7.39 1.48 7.08-15.64 3.71-16.61 6.98-2.41 8.12-7.07 5.33.2 8.19 1.67 7.57-7.85-4.99-1.55 1.11-10.09 0-2.44.6-16.58 1.78-24.06 0h-28.72-34.15l1.66-7.57c3.22-2.19 2.25-4.02.87-8.22-3.51-2.53 6.97-7.18 3.59-12.07-5.11-3.04 4.57-9.04 5.26-11.62 14.72-12.89 1.57.18 1.19-17.76 25.57 1.72-4.64-4.53.56-14.87-18.81-2.14 23.13-8.54 7.08-19.96 3.04.69 4.32-4.83.17-9.35-.92-3.8 3.45-6.92 8.56-8.96-2.92-1.43-11.21-4.72-.44-8.02 6.58-1.92 2.94-10.22-.26-10.32 12.32-4.5 1.31-6.69 2.08-9.35 5.41-.74 4.71-10.42 1.84-8.52-5.19 3.06-14.03-2.9 2.6-9.23-3.17-2.52.4-6.25 1.12-7.73-.26-3.63-1.38-6.7-1.45-9.28s.92-4.66 4.87-6.32c-.5-5.88 5.53-5.75 4.51-8.89-.43-2.33-9.04.95-4.27-2.23.69-1.6 11.67-2.71 2.78-2.66 2.62-2.72 1.39-5.79 2.21-11.32-1.2-5.38 4.81-4.98 2.24-8.97 1.03-2.37 3.45-2.24 3.33 0z" class="C"/><use xlink:href="#K" x="1001.33" y="48.94" class="B"/><g class="D"><path d="M1656.99 150.41c.74.41.66 4.85 3.05 10.79-3.06 3.14 2.75 14.2.83 13.61-3.54 11.7 8.16 13.16 4.99 21.75 12.16 6.56 5.31 7.42.63 13.58 3.03 4.13-2.26 5.34-1.22 4.85-5.3 2.18-5.13 4.33 3.09 5.3-5.71 1.16 3.39 3.54-1.96 7.65-3.89 3.06-3.79 4.16 4.07 2.92-9.25-1.9-5.28 1.46-2.87 4.08-4.26 2.4 9.39 3.48 4.66 6.6-7.96.58-.76 2.51 4.21 5.59 6.9 2.07 13.97 7.54-3.32 4.9 2.72-4.08 1.16-2.5 2.95-1.45 1.75 4.88-.77 4.74 1.06 10.74 4.88 5.29 8.16 6.88 5.78 7.9-.46 1.12-2.74 1.54-5.2 3.76-.68 3.27-5.79 5.58-1.25 1.89-15.68 4.41-1.5 7.8 1.81 11.43 7.29-7.41-1.21 2.45 1.87 9.79-11.11-3.88-16.13.2-11.28 8.89 14.15 2.91 4.35 10.78 7.69 10.45-2.95 8.02 13.24 8.34 4.34 11.35 8.29.79 5.71 13.07 7.93 1.23.34 10.22 13.04 7.41 4.41 5.03.38-.26-6.55 3.39-6.43 4.93 14.59 4.8.89 18.82-3.21 16.6 13.79-1.26-3.23 5.68 2.12 4.07 18.25 4.6.21.11 1.53 4.89-5.42 7 3.33 9.35 5.18 9.77 5.67-4.15 12.78 8.83 4.68 6.12 6.73 2.41-5.35 8.88 1.29 8.52-13.6 4.46-14.44 8.39-2.09 9.76-6.15 6.41.17 9.85 1.45 9.1-6.82-6-1.35 1.34-8.77 0-2.12.72-14.41 2.15-20.92 0h-24.97-29.7l1.44-9.1c2.8-2.64 1.96-4.84.75-9.88-3.05-3.04 6.06-8.63 3.12-14.52-4.44-3.65 3.97-10.87 4.57-13.97 12.8-15.5 1.36.22 1.03-21.36 22.23 2.06-4.04-5.44.49-17.88-16.36-2.57 20.11-10.26 6.16-24 2.64.83 3.76-5.8.15-11.24-.8-4.57 3-8.32 7.45-10.77-2.54-1.72-9.75-5.68-.38-9.64 5.72-2.31 2.55-12.29-.22-12.41 10.71-5.41 1.14-8.04 1.81-11.24 4.7-.88 4.1-12.54 1.6-10.24-4.51 3.67-12.2-3.49 2.26-11.09-2.75-3.03.35-7.52.97-9.3-.23-4.37-1.2-8.06-1.26-11.15-.06-3.1.8-5.6 4.23-7.6-.43-7.07 4.81-6.91 3.93-10.68-.37-2.81-7.86 1.14-3.71-2.69.6-1.92 10.14-3.26 2.41-3.2 2.28-3.27 1.21-6.96 1.92-13.62-1.05-6.47 4.18-5.99 1.95-10.78.9-2.85 3-2.69 2.89 0z"/><use xlink:href="#M" x="1023.79" y="-19.77"/></g><path d="M2357.07 333.31v-43.03a1.98 1.98 0 0 1 1.98-1.98h10.9a1.98 1.98 0 0 0 1.93-2.43l-16.45-71.4c-.21-.9-1.01-1.54-1.93-1.54h-27.19a1.98 1.98 0 0 1-1.98-1.98v-17.86a1.98 1.98 0 0 1 1.98-1.98h.99a1.98 1.98 0 0 0 1.98-1.98v-2.98a1.98 1.98 0 0 0-1.98-1.98h-30.81a1.98 1.98 0 0 0-1.98 1.98v3.49a1.98 1.98 0 0 0 1.98 1.98c1.09 0 1.98.89 1.98 1.98V212c0 1.09-.87 1.97-1.96 1.98l-105.48 1.22c-4.61.05-8.75 2.82-10.56 7.05l-27.09 63.28a1.98 1.98 0 0 0 1.82 2.76l9.9.02c1.09 0 1.98.89 1.98 1.98V340l-17.57 2.62c.15-.77.66-1.65 1.69-2.65-1.32-3.61 16.69-.22-1.53-3.69-4.92 1.12 9.06-3.23.59-3.19 5.19-1.59 12.6-9.42.49-12.44-.08-.75 2.75-2.15 4.68-3.01-1.39-.83-2.56-2.24-2.66-4.52-2.22 8.95.35-.33-7.92-.93 8.88-2.27-7.29-2.51-4.34-8.58-3.33.24 6.45-5.7-7.68-7.9-.32-.44-.6-.86-.83-1.27l-.87-4.02c.84-2.67 5.54-3.41 12.96-1.44-3.07-5.55 5.41-13.01-1.87-7.4-3.31-2.74-17.46-5.31-1.81-8.64-4.53 2.79.57 1.04 1.25-1.43 2.45-1.68 4.73-2 5.19-2.85 2.37-.77-.9-1.97-5.77-5.97-1.55-3.85.02-4.36-.53-6.68 12.72 1.04 6.22-2.6-.15-4.05-4.96-2.33-12.15-3.78-4.21-4.23 4.73-2.36-8.91-3.17-4.65-4.99-1.17-.97-2.71-2.06-2.92-2.77-1.58-.22-.71-1.09 1.71-2.53 5.34-3.1-3.74-4.91 1.96-5.78-8.21-.73-8.38-2.36-3.09-4-1.04.37 4.24-.54 1.22-3.66 4.67-4.65 11.51-5.31-.63-10.27 3.17-6.49-8.51-7.59-4.98-16.44 1.92.44-3.88-7.92-.83-10.29-2.39-4.49-2.31-7.85-3.05-8.15.11-2.04-1.99-2.15-2.89 0 2.22 3.62-2.99 3.26-1.95 8.15-.71 5.03.36 7.82-1.92 10.29 7.72-.05-1.81.96-2.41 2.42-4.14 2.89 3.33-.09 3.7 2.03.88 2.85-4.35 2.73-3.92 8.08-3.43 1.51-4.29 3.41-4.23 5.75s1.03 5.13 1.26 8.43c-.62 1.35-3.72 4.74-.97 7.03-14.44 5.75-6.76 11.17-2.26 8.39 2.49-1.73 3.1 7.08-1.6 7.74-.67 2.42 8.89 4.41-1.81 8.5 2.77.09 5.94 7.64.22 9.38-9.36 3-2.16 5.99.38 7.29-4.44 1.86-8.23 4.69-7.43 8.14 3.6 4.11 2.49 9.13-.15 8.5 13.92 10.38-22.48 16.2-6.15 18.14-1.61 3.36.69 6.24 3.31 8.48l-1 3.5c-3.31-1.9-8.8-4.55-6.7-10.26-4 .39 6.76-8.43-6.8-12.59l-2.78-12.91c2.76-1.61 7.64-1.49 14.17.8-3.93-9.38 6.92-21.97-2.39-12.51-4.23-4.63-22.33-8.96-2.31-14.59-5.79 4.72.73 1.76 1.6-2.41 3.14-2.84 6.06-3.38 6.64-4.81 3.04-1.3-1.15-3.34-7.38-10.09-1.98-6.5.03-7.37-.68-11.28 16.27 1.75 7.96-4.39-.19-6.84-6.35-3.93-15.55-6.39-5.38-7.14 6.05-3.98-11.39-5.36-5.95-8.42-1.5-1.63-3.46-3.48-3.73-4.67-2.02-.37-.9-1.83 2.19-4.27 6.83-5.24-4.79-8.29 2.5-9.76-10.5-1.23-10.72-3.98-3.95-6.76-1.33.62 5.43-.91 1.55-6.19 5.97-7.86 14.72-8.97-.81-17.34 4.05-10.97-10.88-12.83-6.37-27.77 2.46.75-4.96-13.37-1.06-17.38-3.06-7.59-2.95-13.26-3.9-13.77.14-3.44-2.55-3.64-3.69 0 2.84 6.12-3.83 5.51-2.49 13.77-.91 8.5.46 13.21-2.45 17.39 9.87-.08-2.32 1.63-3.08 4.09-5.3 4.89 4.26-.15 4.74 3.43 1.13 4.82-5.57 4.61-5.01 13.64-4.39 2.55-5.48 5.75-5.41 9.71.08 3.95 1.32 8.66 1.61 14.24-.79 2.28-4.76 8-1.24 11.88-18.47 9.71-8.65 18.86-2.89 14.17 3.19-2.93 3.96 11.95-2.04 13.08-.86 4.09 11.37 7.45-2.31 14.36 3.55.16 7.6 12.91.29 15.85-11.97 5.06-2.76 10.11.48 12.31-5.68 3.13-10.53 7.92-9.51 13.76 4.61 6.95 3.19 15.42-.19 14.36 17.81 17.54-28.75 27.36-7.87 30.64-5.77 15.89 27.77 25.47-.62 22.84.37 23.82 11.33 12.05 3.74 21.2-57.73 1.67-134.94-4.99-256.68-31.97-17.3-3.83-34.99-7.35-52.99-10.57l-18.75-3.23c-268-44.43-594.1-25.67-668.46-3.01-81.16 24.74-237.23 15.09-369.51 23.95-2.55.17-24.62-.55-59.22-1.86-1.32-1.93-4.74-3.93-7.75-2.26-1.84-.32-10.58-2.1-5.17-7.39-1.32-3.61 16.69-.22-1.53-3.69-4.92 1.12 9.07-3.23.59-3.19 5.19-1.59 12.6-9.42.49-12.44-.08-.75 2.75-2.15 4.68-3.01-1.39-.83-2.56-2.24-2.66-4.52-2.22 8.95.35-.33-7.92-.93 8.88-2.27-7.29-2.51-4.34-8.58-3.33.24 6.45-5.7-7.68-7.9-4.84-6.57.17-9.66 11.26-6.72-3.07-5.55 5.41-13.01-1.87-7.4-3.31-2.74-17.46-5.31-1.81-8.64-4.53 2.79.57 1.04 1.25-1.43 2.45-1.68 4.73-2 5.19-2.85 2.37-.77-.9-1.97-5.77-5.97-1.55-3.85.02-4.36-.53-6.68 12.72 1.04 6.22-2.6-.15-4.05-4.96-2.33-12.15-3.78-4.21-4.23 4.73-2.36-8.91-3.17-4.65-4.99-1.17-.97-2.71-2.06-2.92-2.77-1.58-.22-.71-1.09 1.71-2.53 5.34-3.1-3.74-4.91 1.96-5.78-8.21-.73-8.38-2.36-3.09-4-1.04.37 4.24-.54 1.22-3.66 4.67-4.65 11.51-5.31-.63-10.27 3.17-6.49-8.51-7.59-4.98-16.44 1.92.44-3.88-7.92-.83-10.29-2.39-4.49-2.31-7.85-3.05-8.15.11-2.04-1.99-2.15-2.89 0 2.22 3.62-2.99 3.26-1.95 8.15-.71 5.03.36 7.82-1.92 10.29 7.72-.05-1.81.96-2.41 2.42-4.14 2.89 3.33-.09 3.7 2.03.88 2.85-4.35 2.73-3.92 8.08-3.43 1.51-4.29 3.41-4.23 5.75s1.03 5.13 1.26 8.43c-.62 1.35-3.72 4.74-.97 7.03-14.44 5.75-6.76 11.17-2.26 8.39 2.49-1.73 3.1 7.08-1.6 7.74-.67 2.42 8.89 4.41-1.81 8.5 2.77.09 5.94 7.64.22 9.38-9.36 2.99-2.16 5.99.38 7.29-4.44 1.86-8.23 4.69-7.43 8.14 3.6 4.11 2.49 9.13-.15 8.5 8.6 6.41-2 11.09-7.52 14.18-.79-.48-1.75-.84-2.94-.95 8.9-3-7.3-3.33-4.34-11.35-3.34.32 6.46-7.54-7.69-10.45-4.84-8.69.17-12.78 11.28-8.89-3.08-7.34 5.42-17.21-1.87-9.79-3.31-3.63-17.49-7.02-1.81-11.43-4.54 3.69.57 1.38 1.25-1.89 2.46-2.22 4.74-2.65 5.2-3.76 2.38-1.02-.9-2.61-5.78-7.9-1.55-5.09.02-5.77-.53-8.83 12.74 1.37 6.23-3.44-.15-5.36-4.97-3.08-12.17-5.01-4.21-5.59 4.74-3.12-8.92-4.2-4.66-6.6-1.17-1.28-2.71-2.73-2.92-3.66-1.58-.29-.71-1.44 1.72-3.34 5.35-4.1-3.75-6.49 1.96-7.65-8.22-.96-8.39-3.12-3.09-5.3-1.04.49 4.25-.71 1.22-4.85 4.68-6.15 11.53-7.02-.63-13.58 3.17-8.59-8.52-10.04-4.99-21.75 1.92.59-3.89-10.47-.83-13.61-2.39-5.94-2.31-10.38-3.05-10.79.11-2.69-1.99-2.85-2.89 0 2.23 4.79-3 4.31-1.95 10.78-.71 6.66.36 10.34-1.92 13.62 7.73-.06-1.82 1.28-2.41 3.2-4.15 3.83 3.34-.12 3.71 2.69.89 3.78-4.36 3.61-3.93 10.68-3.44 2-4.29 4.51-4.23 7.6.06 3.1 1.03 6.78 1.26 11.15-.62 1.78-3.73 6.27-.97 9.3-14.46 7.6-6.77 14.77-2.26 11.09 2.5-2.29 3.1 9.36-1.6 10.24-.67 3.2 8.9 5.83-1.81 11.24 2.78.13 5.95 10.11.22 12.41-9.37 3.96-2.16 7.92.38 9.64-4.44 2.45-8.24 6.2-7.45 10.77 3.61 5.44 2.49 12.07-.15 11.24 13.95 13.73-22.52 21.43-6.16 24-4.52 12.44 21.75 19.95-.49 17.88.33 21.58 11.77 5.86-1.03 21.36-.39 2.02-4.1 5.78-5.41 9.17L0 307.3v707.17h3000V388.38s-403.91-56.67-642.93-55.07zM528.79 303.15a5.52 5.52 0 0 0-.07-1.22c.55.55.67.97.07 1.22zm-6.04 8.76a5.05 5.05 0 0 0 .81.61c-.43-.08-1.03-.13-1.82-.12.33-.13.66-.29 1-.49zm-1.6 4.7c-3.93 1.18 4.2-2.25 3.33-3.65 1.15.47 1.17.46-2.57 3.84l-.76-.19zm1572.27 4.3c-.07-.18-.2-.36-.39-.54l2.5-2.16c2.42 1.82 3.31 2.79-2.1 2.7zm-16.73-120.05c-6.07-1.25-7.68-.72-7.39.54 1.22.23 3.6.06 7.39-.54zm80.5 116.09c.13-.07-.67.24-1.74.72 3.31 1.97 7.81.55 1.74-.72zm-22.74-77.27c-4.74-.74-6-.43-5.78.32.96.13 2.81.03 5.78-.32zM505.89 188.84c-4.75-.97-6.01-.56-5.79.42.96.18 2.82.04 5.79-.42zm83.06 110.64c.13-.07-.67.24-1.74.72 3.31 1.97 7.81.55 1.74-.72zm-22.74-77.26c-4.74-.74-6-.43-5.78.32.96.13 2.81.03 5.78-.32z" fill="#4b817d"/><defs ><path id="B" d="M610.53 239.81a4.6 4.6 0 0 0 .77-.83c6.81-1.41 9.62-4 .78-6.09-.83-.8-1.31-1.39-1.55-1.83v-1.19c.67-.77 2.63-.97.9-4.03-2.45-1.6 2.47-2.68-.9-5.13v-10.69c.66-.72 1.18-.33 1.34 2.3 6.99-2.66 7.48-8.8 2.65-13.81-.42-8.67 10.78-16.68.26-13.91 10.45-7.38-3.33-15.19 4.56-14.17 1.37 1.77 1.03-6.75 8.29-3.39.49-1.29 1.03-2.21 1.59-2.87a23.75 23.75 0 0 1-.84-.55c-19.2-5.51 10.37-2.74.96-7.11.1-3.11-.09-5.12-.43-6.39a24.64 24.64 0 0 0 .91-.69c11.92-2.7-8.54-7.04-7.25-7.06 4.69-10.45 2.72-13.89 2.3-13.71-12.99-4.88-6.01-9.56 1.62-13.67 1.11-4.84.52-6.25-.37-6.35.04-.03.07-.06.11-.1 13.89 1.95-8.47-11.46 6.65-6.67 1.79-2.58 9.26-4.41 1.91-6.66 5.88.03-2.78-3.41-4.57-6.21-4.44-4.56 4.08-8.16-.1-9.03 2.87-.33-1.1-3.52-1.87-4.59 1.03.3 3.38.88 7.21 1.53-9.98-7.05-.44-3.23-.72-11.83 1.99-4.9-2.95-7.77-3.72-10.96-3.61-2.65-5.37-4.22-5.43-4.83-.96-1.51-.19-2.28 1.82-2.95s5.26-1.24 9.26-2.36c3.35-1.57 2.02-5.52.17-7.24 1.96-1.99 1.93-4.6.87-10.32.76-1.4-3.03-4.55-1.43-8.46 1.98-1.11 4.55-3.98 4.84-5.08 1.09-7.27-.96-14.46.9-12.59 2.65.78 2.44 1.41 2.43 12.59 1.24 3.85-4.31 4.72 1.49 4.95 9.72.8-.21.75.44 8.51-4.67 7.11.63 7.22-1.88 9.44 2.05.22.33 1.63 4.42 8.19.07 2.21 2.73 8.33-1.47 10.14 10.05 8.21-.43 8.09 4.21 10.62-.37.78-.71 1.44-.99 1.98l.99-1.59c5.93.34 10.97-.93 9.15 6.8.05-1.65-1.38 4.77-3.94 4.96-7.86-2.6-3.32 3.93-.65 7.96 1.53 3.51 3.04 6.38-.83 4.13 3.25 5.96 1.87 10.28 2.2 12.78 5.11 1.13.02 2.42-1.72 6.83 2.53 4-9.22 2.41 4.23 6.39 13.2 2.88 11.73 7.28 7.95 6.68-1.89-3.09-10.65 3.47-5.63 6.9-8.7 3.96-10.12 2.54-5.75 6.65 6.57.09 4.11 8.72 6.38 7.14-.44 1.24-3.4 7.19.56 7.25-4.73 1.79 1.11 6.29-2.15 6.57 1.58 1.58 12.72 4.74 6.93 7.08 7.88 2.32.06 5.31-2.26 7.08-.49 3.92 2.88 8.35 3.65 14.11 2.74 2.2 5.43 4.58 6.25 6.98s-.21 4.82-4.93 7.1c-.52 2.18 3.39 4.95-3.81 7.23-6.31 2.77 8.69 4.49 9.85 6.9 4.89 2.24-7.82 4.2-6.46 6.58.99 1.96-3.18 4.45 4.35 6.67-.27 1.22-1.09 1.87 8.74 3.07 6.27.91 6.99 2.61.5 3.51 7.16 2.51-9.74 4.28.6 6.55-3.77 2.42 1.3 4.43 1.36 6.53 2.22 2.35-5.45 4.21-7.47 6.33 1.11 3.87 5.76 8.1 1.8 12.17 2.77 1.91-.07 3.78 2.94 5.84 4.8 2.05-5.35 3.78-5.89 5.85-4.1 3.02 8.89 7.21-.56 10.89-7.21 2.27-8.03 3.68.44 5.33-4.66 1.78 4.45 3.3 7.74 4.93 1.43 3.39-.83 6.5-1.34 9.33.1 2.86-1.75 5.63 5.09 8.27-2.74 2.63-7.74 5.05-4.13 7.17-4.21 2.09-1.63 4.19 4.84 6.33 6.16 6.36 4.9 10.39 2.84 11.37-.4 0-1.11 0-2.02.03-3.16.01-6.88.2-9.13.2l-9.84-.14c-3.24-.05.35.05-.99.18-6.25.52-1.99.38-5.44.05-5.77.3-1.5-.29-7.91-.08-7.63.26-9.92.31-5.74.06-10.47-.01-8.03-.25-7.97 0-2.05.05-5.48-.06-7.92-.05.31 0 .62-.02.95-.04-6.65-.08-3.49-.11-8.04.04-2.51.37-7.66.23-6.35.06.22-.01-.44-.07-6.84-.06.22.05-1.98.05-4.74.04v-99.82z"/><path id="C" d="M737.56 126.5c-6.82.82-1.85 5.05-1.93 8.78 5.41 3.96-14.75 6.85-2.53 11.51 1.66.32 19.93 9.79 1.47 6.62 8.96-.82-2.8 6.28-4.2 7.19-4.55 1.17 3.05 7.63-5.21 7.68-.11-1.28-4.16.23 1.48 7.89-10.22 2.37 0 3.62-2.2 8.34.61 2.29-13.63-1.03 1.72 4.46 13.13-3.23.65 4.79-4.23 4.17-11.58 4.31-6.46 5.32-7.95 4.36 6.3-2.15-2.88.27 5.63 4.51 2.79 2.61 5.97 6.14-.64 9-4.07 1.75 2.47 2.84-3.41 4.34 6.17 1.41-3.46 2.89 5 4.68-4.35 1.61-10.51 3.03-6.93 4.62-7.88 1.52-2.7 3.27 2.26 4.62-.15 2.91-.7 5.93-3.65 9.21-5.48 2.87-10.75 6.21-1.33 9.18.52 1.42-3.39 3.23 3.81 4.72 6.31 1.81-8.69 2.93-9.85 4.5-4.89 1.46 7.82 2.74 6.46 4.29-.99 1.28 3.18 2.91-4.35 4.36.27.8 1.09 1.22-8.74 2-6.27.59-6.99 1.7-.5 2.29-7.16 1.64 9.74 2.79-.6 4.28 3.77 1.58-1.3 2.89-1.36 4.26-2.22 1.53 5.45 2.75 7.47 4.13-1.11 2.52-5.76 5.29-1.8 7.94-2.77 1.25.07 2.46-2.94 3.81-4.8 1.34 5.35 2.47 5.89 3.82 4.1 1.97-8.89 4.7.56 7.11 7.21 1.48 8.03 2.4-.44 3.48 4.66 1.16-4.45 2.16-7.74 3.22-1.43 2.21.83 4.24 1.34 6.09-.1 1.86 1.75 3.67-5.09 5.4 2.74 1.71 7.74 3.3 4.13 4.68 4.21 1.36 1.63 2.73-4.84 4.13-7.29 4.91-4.2 7.69-1.67 7.57-2.63-.17-1.6-.17.84-.13l9.25.13c-5.39.05 11.92-.12 9.72-.09 3.24-.03-.35.03.99.11 6.25.34 1.99.25 5.44.03 5.77.2 1.5-.19 7.91-.05 7.63.17 9.92.2 5.73.04 10.47 0 8.03-.16 7.97 0 2.66.04 7.66-.09 9.79 0 3.08-.16.45.06-2.82-.06 6.65-.05 3.49-.07 8.04.02 2.51.24 7.66.15 6.35.04-.22 0 .44-.05 6.84-.04-.38.05 6.37.03 10.87 0h10.09c.59.08-2.34-2.67-1.66-7.57-.33-2.42 4.16-5.6-2.35-8.81-3.31-1.74-4.67-3.6-5-5.43 2.28-1.87.33-3.98 2.9-6.05 6.71-1.87-11.64-4.38-1.68-6.66-11.53-2.36-5.82-4.57-2.81-7.09-8.33-2.34-.03-5.05-3.95-7.66.2-2.85-.63-5.11 2-7.97 1.51-1.3 4.68-2.89 2.63-4.25 3.73-1.57-5.11-2.85-7.06-4.16-11.15-2.52 9.11-5.22-.14-8.58 7.49-3.15 4.86-6.09-.43-8.83-2.45-2.85-1.57-5.86-2.65-9.01 3.63-2.87-8.3-5.84-.26-9.08-10.5-3.01 1.42-5.93-4.56-9.25-1.85-1.43-17.24-2.99-9.03-4.45 12.26-1.43-4.21-2.99-.96-4.64 4.7-1.83 7.03-5.08-.48-4.62 1.33-.77 7.07-2.66 7.25-4.61.9-2.05-15.83-4.61-2.3-8.95.79-1.17 4.23-4.98-1.62-8.92-4.73-4.25 4.5-3.22.26-4.21 3.11-.26 14.54-4.78-6.65-4.36 4.11-5.23-9.15-.81-1.91-4.35 3.61-3.07 19.4-6.9 4.57-4.05-9.7-1.28-21.16-4.46-5.24-7.9.64-3.07 3.41-1.83.72-7.72 9.76-3.75 6.24-13.11 3.72-7.15-18.64-1.07 10.38-6.43-5.65-6.61-10.4-3.12 14.42-7.09-1.04-11.46.44-.83-.72-1.62-3.42-8.83-10.44-7.43-7.41-5.81-3.33 0z"/><path id="D" d="M695.8 68.36c2.26 3.02 7.51 6.75 2.35 11.18-5.06 4.41 3.55 9.22 3.07 14.64-5.97 2.67-.59 5.52-1.78 8.42.45 2.94 2.31 6.09 5.1 9.15 6.56 3.12 8.07 6.54 6.32 9.77-1.4 3.27 2.27 6.8-1.79 10.04 6.13 3.54-6.22 7.19 2.67 10.61-1.99 1.95 3.58 3.53-2.09 5.67 4.15 1.99-2 3.52 5.14 5.3 5.69 2.07 12.92 3.49 9.65 5.55.17 1.94-1.67 3.85-6.83 5.73-4.8 3.93-8.32 7.57.77 11.45 4.94 2.22-3 3.62 4.14 5.52-7.49 1.79 4.2 3.67-6.07 5.95 5.28 2.05 12.76 3.85 8.41 5.88 9.56 1.93 3.28 4.16-2.75 5.88.18 3.7.85 7.54 4.43 11.72 6.65 3.65 13.05 7.9 1.61 11.69-.64 1.81 4.11 4.11-4.62 6.01-7.66 2.3 10.55 3.73 11.96 5.73 5.93 1.86-9.49 3.49-7.84 5.46 1.2 1.63-3.86 3.7 5.28 5.54-.33 1.02-1.32 1.55 10.61 2.55 7.61.75 8.48 2.17.61 2.91 8.69 2.08-11.82 3.56.72 5.44-4.57 2.01 1.57 3.68 1.65 5.42 2.7 1.95-6.62 3.5-9.06 5.25 1.34 3.21 6.99 6.73 2.19 10.11 3.37 1.59-.09 3.14 3.56 4.85 5.82 1.7-6.49 3.14-7.15 4.86-4.97 2.51 10.8 5.98-.68 9.05-8.75 1.88-9.74 3.06.54 4.43-5.65 1.48 5.4 2.74 9.39 4.09 1.74 2.82-1 5.4-1.63 7.75.12 2.37-2.13 4.67 6.18 6.87-3.32 2.18-9.4 4.19-5.02 5.95-5.1 1.74-1.97 3.48 5.88 5.25 8.84 6.24 5.09 9.79 2.02 9.63 3.19-.21 1.94-.22-1.02-.16l-11.23.16a4609.78 4609.78 0 0 0-11.8-.12c-3.94-.04.43.04-1.2.15-7.58.43-2.42.32-6.61.04-7 .25-1.82-.24-9.6-.07l-6.96.05c-12.71-.01-9.74-.21-9.68 0-3.23.06-9.3-.12-11.88 0-3.73-.21-.55.08 3.42-.07-8.07-.06-4.24-.09-9.76.03-3.05.31-9.3.19-7.71.05.26 0-.53-.06-8.3-.05.46.07-7.73.04-13.19 0-8.24.07-18.76-.02-12.25 0-.71.1 2.84-3.4 2.02-9.63.4-3.08-5.05-7.13 2.86-11.21 4.02-2.21 5.67-4.58 6.06-6.91-2.77-2.39-.4-5.06-3.52-7.7-8.14-2.38 14.13-5.57 2.04-8.48 14-3.01 7.06-5.81 3.41-9.02 10.11-2.98.04-6.43 4.8-9.74-.24-3.63.76-6.5-2.43-10.14-1.83-1.65-5.69-3.68-3.19-5.41-4.53-2 6.21-3.63 8.57-5.3 13.54-3.2-11.06-6.64.17-10.91-9.09-4.01-5.9-7.75.52-11.23 2.97-3.62 1.9-7.46 3.21-11.47-4.4-3.65 10.07-7.43.32-11.55 12.75-3.83-1.73-7.54 5.53-11.77 2.24-1.83 20.93-3.8 10.97-5.66-14.88-1.82 5.1-3.8 1.16-5.9-3.27-1.53-10.91-3.88.58-5.88-4.12-1.78-5.86-4.15-8.8-5.86 1.14-3.81 6.01-7.28 2.8-11.38-4.24-3.71-3.07-7.34 1.96-11.35 4.74-1.74-3.3-3.59-.31-5.36-1.17-1.78-5.4-3.71 8.07-5.54 3.78-1.96 5.45-3.81 2.31-5.53 1.73-1.69-8.31-3.33-5.55-5.15 12.65-3.36.96-6.85 6.35-10.05-1.94-3.47-.89-6.44-.87-9.82-10.09-3.11-3.58-6.02-4.52-9.1 4.96-2.95-.92-5.79 6.86-8.41 1-5.36 1.02-10.27 1.26-14.58 2.1-4.3 2.74-8.09 4.15-11.24 4.06-6.39 10.43-6.19 4.04 0z"/><path id="E" d="M811.15 88.98c1.86 2.79 6.18 6.24 1.93 10.33-4.17 4.08 2.92 8.52 2.53 13.53-4.92 2.46-.49 5.1-1.47 7.78.37 2.71 1.9 5.63 4.2 8.46 5.4 2.88 6.64 6.05 5.21 9.02-1.15 3.02 1.87 6.28-1.48 9.28 5.05 3.27-5.12 6.64 2.2 9.81-1.64 1.8 2.95 3.26-1.72 5.24 3.42 1.84-1.65 3.26 4.23 4.9 4.69 1.92 10.64 3.22 7.95 5.13.14 1.79-1.37 3.56-5.63 5.3-3.95 3.63-6.86 7 .64 10.58 4.07 2.05-2.47 3.34 3.41 5.11-6.17 1.65 3.46 3.39-5 5.5 4.35 1.9 10.51 3.56 6.93 5.43 7.88 1.78 2.7 3.84-2.26 5.43.15 3.42.7 6.97 3.65 10.83 5.48 3.37 10.75 7.3 1.33 10.8-.52 1.67 3.39 3.8-3.81 5.55-6.31 2.13 8.69 3.44 9.85 5.29 4.89 1.72-7.82 3.22-6.46 5.05.99 1.5-3.18 3.42 4.35 5.12-.27.94-1.09 1.43 8.74 2.36 6.27.69 6.99 2 .5 2.69 7.16 1.93-9.74 3.29.6 5.03-3.77 1.86 1.3 3.4 1.36 5.01 2.22 1.8-5.45 3.23-7.47 4.86 1.11 2.97 5.76 6.21 1.8 9.34 2.77 1.46-.07 2.9 2.94 4.48 4.8 1.58-5.35 2.9-5.89 4.49-4.1 2.32 8.89 5.53-.56 8.36-7.21 1.74-8.03 2.83.44 4.09-4.66 1.37 4.45 2.53 7.74 3.78 1.43 2.6-.83 4.99-1.34 7.16.1 2.19-1.75 4.32 5.09 6.34-2.74 2.02-7.74 3.87-4.13 5.5-4.21 1.6-1.63 3.21 4.84 4.85 7.29 5.77 4.2 9.04 1.67 8.9 2.63-.2 1.6-.2-.84-.15l-9.25.15c5.39.06-11.92-.14-9.72-.11-3.24-.04.35.04-.99.13-6.25.4-1.99.29-5.44.04-5.77.23-1.5-.22-7.91-.06-7.63.2-9.92.24-5.74.05-10.47-.01-8.03-.19-7.97 0-2.66.05-7.66-.11-9.79 0-3.08-.19-.45.07 2.82-.07-6.65-.06-3.49-.08-8.04.03-2.51.29-7.66.17-6.35.05.22 0-.44-.06-6.84-.05.38.06-6.37.03-10.87 0-6.79.06-15.46-.02-10.09 0-.59.1 2.34-3.14 1.66-8.9.33-2.85-4.16-6.58 2.35-10.36 3.31-2.04 4.67-4.23 5-6.39-2.28-2.2-.33-4.68-2.9-7.11-6.71-2.19 11.64-5.15 1.68-7.83 11.53-2.78 5.82-5.37 2.81-8.34 8.33-2.75.03-5.94 3.95-9-.2-3.35.63-6.01-2-9.37-1.51-1.53-4.68-3.4-2.63-5-3.73-1.85 5.11-3.35 7.06-4.9 11.15-2.96-9.11-6.14.14-10.08-7.49-3.7-4.86-7.16.43-10.38 2.45-3.35 1.57-6.89 2.65-10.6-3.63-3.38 8.3-6.87.26-10.67 10.5-3.54-1.42-6.97 4.56-10.87 1.85-1.69 17.24-3.51 9.03-5.23-12.26-1.68 4.21-3.51.96-5.46-2.69-1.41-8.99-3.58.48-5.44-3.39-1.64-4.83-3.84-7.25-5.42.94-3.52 4.95-6.72 2.3-10.52-3.5-3.42-2.53-6.79 1.62-10.49 3.9-1.61-2.72-3.32-.26-4.95-.97-1.65-4.45-3.42 6.65-5.12 3.11-1.81 4.49-3.52 1.91-5.11 1.43-1.56-6.85-3.08-4.57-4.76 10.42-3.1.79-6.33 5.24-9.28-1.6-3.21-.73-5.95-.72-9.08-8.31-2.87-2.95-5.56-3.72-8.41 4.09-2.73-.76-5.35 5.65-7.77.83-4.95.84-9.49 1.04-13.47 1.73-3.98 2.26-7.47 3.42-10.39 3.34-5.91 8.59-5.72 3.33 0z"/><path id="F" d="M664.33 55.43c1.86 3.16 6.18 7.08 1.93 11.71-4.17 4.62 2.92 9.66 2.53 15.34-4.92 2.79-.49 5.78-1.47 8.82.37 3.08 1.9 6.38 4.2 9.59 5.4 3.27 6.64 6.85 5.21 10.23-1.15 3.42 1.87 7.12-1.48 10.52 5.05 3.71-5.12 7.53 2.2 11.12-1.64 2.04 2.95 3.69-1.72 5.94 3.42 2.08-1.65 3.69 4.23 5.56 4.69 2.17 10.64 3.66 7.95 5.81.14 2.03-1.37 4.04-5.63 6.01-3.95 4.12-6.86 7.93.64 11.99 4.07 2.33-2.47 3.79 3.41 5.79-6.17 1.87 3.46 3.85-5 6.23 4.35 2.15 10.51 4.04 6.93 6.16 7.88 2.02 2.7 4.36-2.26 6.16.15 3.88.7 7.9 3.65 12.27 5.48 3.83 10.75 8.28 1.33 12.24-.52 1.89 3.39 4.3-3.81 6.29-6.31 2.41 8.69 3.9 9.85 6 4.89 1.95-7.82 3.65-6.46 5.72.99 1.7-3.18 3.87 4.35 5.81-.27 1.06-1.09 1.63 8.74 2.67 6.27.79 6.99 2.27.5 3.05 7.16 2.18-9.74 3.72.6 5.7-3.77 2.11 1.3 3.86 1.36 5.68 2.22 2.05-5.45 3.67-7.47 5.51 1.11 3.36 5.76 7.05 1.8 10.59 2.77 1.66-.07 3.28 2.94 5.08 4.8 1.79-5.35 3.29-5.89 5.09-4.1 2.63 8.89 6.27-.56 9.48-7.21 1.97-8.03 3.2.44 4.64-4.66 1.55 4.45 2.87 7.74 4.29 1.43 2.95-.83 5.66-1.34 8.11.1 2.49-1.75 4.9 5.09 7.19-2.74 2.29-7.74 4.39-4.13 6.24-4.21 1.82-1.63 3.64 4.84 5.5 7.29 6.54 4.2 10.25 1.67 10.09 2.63-.22 1.6-.23-.84-.17l-9.25.17c5.39.07-11.92-.16-9.72-.13-3.24-.04.35.04-.99.15-6.25.45-1.99.33-5.44.04-5.76.26-1.5-.25-7.91-.07-7.63.22-9.92.27-5.74.05-10.47-.01-8.03-.22-7.97 0-2.66.06-7.66-.13-9.79 0-3.08-.22-.45.08 2.82-.08-6.65-.07-3.49-.09-8.04.03-2.51.33-7.66.2-6.35.05.22 0-.44-.06-6.84-.05.38.07-6.37.04-10.87 0-6.79.07-15.46-.02-10.09 0-.59.11 2.34-3.56 1.66-10.09.33-3.23-4.16-7.46 2.35-11.74 3.31-2.31 4.67-4.8 5-7.24-2.28-2.5-.33-5.3-2.9-8.06-6.71-2.49 11.64-5.84 1.68-8.88 11.53-3.15 5.82-6.09 2.81-9.45 8.33-3.12.03-6.74 3.95-10.21-.2-3.8.63-6.81-2-10.62-1.51-1.73-4.68-3.86-2.63-5.67-3.73-2.09 5.11-3.8 7.06-5.55 11.15-3.35-9.11-6.96.14-11.43-7.49-4.2-4.86-8.12.43-11.77 2.45-3.79 1.57-7.81 2.65-12.01-3.63-3.83 8.3-7.78.26-12.1 10.5-4.01-1.42-7.9 4.56-12.33 1.85-1.91 17.24-3.98 9.03-5.93-12.26-1.91 4.21-3.98.96-6.18-2.69-1.6-8.99-4.06.48-6.16-3.39-1.86-4.83-4.35-7.25-6.14.94-3.99 4.95-7.62 2.3-11.93-3.5-3.88-2.53-7.69 1.62-11.89 3.9-1.82-2.72-3.76-.26-5.61-.97-1.87-4.45-3.88 6.65-5.81 3.11-2.05 4.49-3.99 1.91-5.79 1.43-1.77-6.85-3.49-4.57-5.4 10.42-3.52.79-7.18 5.24-10.52-1.6-3.64-.73-6.75-.72-10.29-8.31-3.26-2.95-6.31-3.72-9.53 4.09-3.09-.76-6.07 5.65-8.81.83-5.61.84-10.76 1.04-15.27 1.73-4.51 2.26-8.47 3.42-11.78 3.34-6.7 8.59-6.49 3.33 0z"/><path id="G" d="M856.9 126.5c-.61.25 8.69 8.02 1.93 8.78-1.08 4.02 4.34 6.83 2.53 11.51-.45.96-2.93 5.22-1.47 6.62-7.27 3.38 1.55 1.78 4.2 7.19 7.09-4 7.8-1.33 6.33 1.58-.37 3.3-.3 4.17-1.12 6.1-10.34 3.48-.5 3.25-1.48 7.89 9.13.01 6.01 3.28 2.39 4.76-4.99 1.58-6.73 2.12-.19 3.58-1.83.43 4.89 2.75-1.72 4.46 2.89 1.13-.02.6 4.23 4.17.24 1.52 8.57 1.67 7.95 4.36 1.59 1.08-1.38.06-5.63 4.51-1.02 4.07-6.39 4.7.64 9 1.85-1.67-3.84-.45 3.41 4.34-13.49-2.09-2.38 1.41-5 4.68 11.61 2.59 7.72.21 6.93 4.62 7.88 1.52.32 2.41-2.26 4.62-1.54 3.08-1.49 8.25 3.65 9.21 2.74 1.44 5.43 2.99 6.25 4.55.82 1.57-.21 3.14-4.93 4.63-.52 1.42 3.39 3.23-3.81 4.72-6.31 1.81 8.69 2.93 9.85 4.5 4.89 1.46-7.82 2.74-6.46 4.29.99 1.28-3.18 2.91 4.35 4.36-.27.8-1.09 1.22 8.74 2 6.27.59 6.99 1.7.5 2.29 7.16 1.64-9.74 2.79.6 4.28-3.77 1.58 1.3 2.89 1.36 4.26 2.22 1.53-5.45 2.75-7.47 4.13 1.11 2.52 5.76 5.29 1.8 7.94 2.77 1.25-.07 2.46 2.94 3.81 4.8 1.34-5.35 2.47-5.89 3.82-4.1 1.97 8.89 4.7-.56 7.11-7.21 1.48-8.03 2.4.44 3.48-4.66 1.16 4.45 2.16 7.74 3.22 1.43 2.21-.83 4.24-1.34 6.09.1 1.86-1.75 3.67 5.09 5.4-2.74 1.71-7.74 3.3-4.13 4.68-4.21 1.36-1.63 2.73 4.84 4.13 7.29 4.91 4.2 7.69 1.67 7.57 2.63-.17 1.6-.17-.84-.13l-9.25.13c5.39.05-11.92-.12-9.72-.09-3.24-.03.35.03-.99.11-6.25.34-1.99.25-5.44.03-5.77.2-1.5-.19-7.91-.05-7.63.17-9.92.2-5.73.04-10.47 0-8.03-.16-7.97 0-2.66.04-7.66-.09-9.79 0-3.08-.16-.45.06 2.82-.06-6.65-.05-3.49-.07-8.04.02-2.51.24-7.66.15-6.35.04.22 0-.44-.05-6.84-.04.38.05-6.37.03-10.87 0-6.79.05-15.46-.01-10.09 0-.59.08 2.34-2.67 1.66-7.57.33-2.42-4.16-5.6 2.35-8.81 3.31-1.74 4.67-3.6 5-5.43-2.28-1.87-.33-3.98-2.9-6.05-6.71-1.87 11.64-4.38 1.68-6.66 11.53-2.36 5.82-4.57 2.81-7.09 8.33-2.34.03-5.05 3.95-7.66-.2-2.85.63-5.11-2-7.97-1.51-1.3-4.68-2.89-2.63-4.25-3.73-1.57 5.11-2.85 7.06-4.16 11.15-2.52-9.11-5.22.14-8.58-3.75-1.57-4.96-3.1-4.58-4.57s.54-2.97 5.01-4.26c2.03-.6-5.73-2.65 2.65-9.01-4.22-2.59 10.82-4.54.26-9.08 4.67-2.19-3.5-6.44 4.56-9.25 3.51 1.47 9.13-1.02 8.29-2.21-.2-.04 1.08-1.25.75-2.24-5.83.35 1.9-.04.96-4.64-11.68-2.74-7.03-3.17.48-4.62 1.69-3.58-10.15-3.83-7.25-4.61-.86-3.17 4.68-4.59 2.3-8.95 1.34-3.83-2.89-3.19 1.62-8.92 4.68-1.75-1.37-4.2-.26-4.21-5.41-.45-7.77-1.06-6.76-1.8s5.38-1.6 13.41-2.56c6.01-3.78 2.74-3.74 1.91-4.35-2.4-3.26-7.13-.04-4.57-4.05 10.92-3.02-2.87-5.89 5.24-7.9.93-.35-11.5-.32-4.71-2.29 1.63-1.9-2.37-6.19 3.99-5.43-12.64-5.58 6.67-7.71-3.72-7.15-9.9-.94-6.71-8.16 5.65-6.61 1.41-4.46-1.36-8.12 1.04-11.46-2.97-6.45 2.46-6.21 3.42-8.83-.49-3.22 11.1-4.12 3.33 0z"/><path id="H" d="M827.8 163.59c-.47.19 6.67 6.16 1.48 6.74-.83 3.09 3.33 5.24 1.94 8.84-.34.74-2.25 4.01-1.13 5.08-5.58 2.59 1.19 1.37 3.23 5.52 5.44-3.07 5.99-1.02 4.86 1.21-.28 2.54-.23 3.2-.86 4.68-7.94 2.67-.39 2.5-1.13 6.06 7.01.01 4.61 2.52 1.84 3.65-3.83 1.22-5.17 1.63-.15 2.75-1.41.33 3.76 2.11-1.32 3.42 2.22.87-.01.46 3.25 3.2.18 1.17 6.58 1.28 6.11 3.35 1.22.83-1.06.04-4.32 3.46-.79 3.12-4.91 3.61.49 6.91 1.42-1.29-2.95-.35 2.62 3.33-10.36-1.6-1.83 1.08-3.84 3.59 8.92 1.99 5.93.16 5.32 3.55 6.05 1.16.25 1.85-1.74 3.55-1.18 2.37-1.14 6.34 2.8 7.07 2.1 1.1 4.17 2.29 4.8 3.5.63 1.2-.16 2.41-3.78 3.56-.4 1.09 2.6 2.48-2.92 3.63-4.84 1.39 6.67 2.25 7.56 3.46 3.75 1.12-6.01 2.11-4.96 3.3.76.98-2.44 2.23 3.34 3.34-.21.61-.83.94 6.71 1.54 4.81.45 5.37 1.31.38 1.76 5.5 1.26-7.48 2.15.46 3.28-2.89 1.22.99 2.22 1.04 3.27 1.71 1.18-4.19 2.11-5.73 3.17.85 1.94 4.42 4.06 1.38 6.1 2.13.96-.06 1.89 2.25 2.93 3.68 1.03-4.11 1.9-4.53 2.93-3.15 1.52 6.83 3.61-.43 5.46-5.54 1.14-6.16 1.85.34 2.67-3.58.89 3.42 1.66 5.94 2.47 1.1 1.7-.63 3.26-1.03 4.67.08 1.43-1.35 2.82 3.91 4.14-2.1 1.32-5.95 2.53-3.17 3.59-3.23 1.05-1.25 2.1 3.72 3.17 5.59 3.77 3.22 5.91 1.28 5.81 2.02-.13 1.23-.13-.65-.1l-7.1.1c4.14.04-9.15-.09-7.46-.07-2.49-.02.27.02-.76.09-4.8.26-1.53.19-4.18.02-4.43.15-1.15-.14-6.08-.04l-4.4.03c-8.04 0-6.16-.13-6.12 0-2.04.03-5.88-.07-7.52 0-2.36-.13-.35.05 2.16-.04-5.11-.04-2.68-.05-6.18.02-1.93.19-5.89.11-4.88.03.17 0-.34-.04-5.25-.03.29.04-4.89.02-8.34 0-5.22.04-11.87-.01-7.75 0-.45.06 1.8-2.05 1.28-5.81.26-1.86-3.2-4.3 1.81-6.77 2.54-1.33 3.58-2.76 3.84-4.17-1.75-1.44-.25-3.05-2.22-4.65-5.15-1.43 8.94-3.36 1.29-5.12 8.85-1.82 4.47-3.51 2.16-5.44 6.4-1.8.02-3.88 3.03-5.88-.15-2.19.48-3.92-1.53-6.12-1.16-1-3.6-2.22-2.02-3.27-2.87-1.21 3.93-2.19 5.42-3.2 8.57-1.93-7-4.01.11-6.59-2.88-1.21-3.81-2.38-3.52-3.51s.42-2.28 3.85-3.27c1.56-.46-4.4-2.03 2.03-6.92-3.24-1.99 8.31-3.49.2-6.97 3.59-1.68-2.69-4.95 3.5-7.1 2.7 1.13 7.01-.79 6.36-1.7-.15-.03.83-.96.57-1.72-4.48.27 1.46-.03.74-3.56-8.97-2.1-5.4-2.44.37-3.55 1.3-2.75-7.8-2.94-5.57-3.54-.66-2.43 3.59-3.52 1.77-6.87 1.03-2.94-2.22-2.45 1.24-6.85 3.6-1.34-1.05-3.23-.2-3.23-4.16-.34-5.96-.81-5.19-1.38s4.13-1.23 10.3-1.96c4.61-2.9 2.1-2.87 1.46-3.34-1.84-2.51-5.48-.03-3.51-3.11 8.39-2.32-2.2-4.53 4.02-6.06.71-.27-8.83-.24-3.61-1.76 1.25-1.46-1.82-4.75 3.06-4.17-9.71-4.28 5.12-5.92-2.86-5.49-7.61-.72-5.16-6.27 4.34-5.08 1.08-3.42-1.05-6.24.8-8.8-2.28-4.95 1.89-4.77 2.62-6.78-.38-2.47 8.52-3.16 2.56 0z"/><path id="I" d="M769.36 126.5c-13.42 3.46-3.03 3.97-1.93 8.78 6.44 10.78 4.1 7.85-2.53 11.51-2.58-1.01 11.19 3.22 1.47 6.62.18.51-2.73 9.04-4.2 7.19-15.79-3.77-11.95 6.03-5.21 7.68.89 5.17-12.14 7.75 1.48 7.89 11.43 4.83 3.69 5.95-2.2 8.34 6.39 5.01 3.54 4.67 1.72 4.46 6.61 5.73-1.16 2.89-4.23 4.17-8.53-.18-8.3 4.53-7.95 4.36 3.35 1.35 11.91 2.61 5.63 4.51 2.22 4.27 7.23 5.29-.64 9-2.22 1.12-.28 2.7-3.41 4.34 7.8 2.59-3.46 2.89 5 4.68-4.35 1.61-10.51 3.03-6.93 4.62-7.88 1.52-2.7 3.27 2.26 4.62-.15 2.91-.7 5.93-3.65 9.21-5.48 2.87-10.75 6.21-1.33 9.18.52 1.42-3.39 3.23 3.81 4.72 6.31 1.81-8.69 2.93-9.85 4.5-4.89 1.46 7.82 2.74 6.46 4.29-.99 1.28 3.18 2.91-4.35 4.36.27.8 1.09 1.22-8.74 2-6.27.59-6.99 1.7-.5 2.29-7.16 1.64 9.74 2.79-.6 4.28 3.77 1.58-1.3 2.89-1.36 4.26-2.22 1.53 5.45 2.75 7.47 4.13-1.11 2.52-5.76 5.29-1.8 7.94-2.77 1.25.07 2.46-2.94 3.81-4.8 1.34 5.35 2.47 5.89 3.82 4.1 1.97-8.89 4.7.56 7.11 7.21 1.48 8.03 2.4-.44 3.48 4.66 1.16-4.45 2.16-7.74 3.22-1.43 2.21.83 4.24 1.34 6.09-.1 1.86 1.75 3.67-5.09 5.4 2.74 1.71 7.74 3.3 4.13 4.68 4.21 1.36 1.63 2.73-4.84 4.13-7.29 4.91-4.2 7.69-1.67 7.57-2.63-.17-1.6-.17.84-.13l9.25.13c-5.39.05 11.92-.12 9.72-.09 3.24-.03-.35.03.99.11 6.25.34 1.99.25 5.44.03 5.77.2 1.5-.19 7.91-.05 7.63.17 9.92.2 5.73.04 10.47 0 8.03-.16 7.97 0 2.66.04 7.66-.09 9.79 0 3.08-.16.45.06-2.82-.06 6.65-.05 3.49-.07 8.04.02 2.51.24 7.66.15 6.35.04-.22 0 .44-.05 6.84-.04-.38.05 6.37.03 10.87 0h10.09c.59.08-2.34-2.67-1.66-7.57-.33-2.42 4.16-5.6-2.35-8.81-3.31-1.74-4.67-3.6-5-5.43 2.28-1.87.33-3.98 2.9-6.05 6.71-1.87-11.64-4.38-1.68-6.66-11.53-2.36-5.82-4.57-2.81-7.09-8.33-2.34-.03-5.05-3.95-7.66.2-2.85-.63-5.11 2-7.97 1.51-1.3 4.68-2.89 2.63-4.25 3.73-1.57-5.11-2.85-7.06-4.16-11.15-2.52 9.11-5.22-.14-8.58 7.49-3.15 4.86-6.09-.43-8.83-2.45-2.85-1.57-5.86-2.65-9.01 3.63-2.87-8.3-5.84-.26-9.08-10.5-3.01 1.42-5.93-4.56-9.25-1.85-1.43-17.24-2.99-9.03-4.45 12.26-1.43-4.21-2.99-.96-4.64 2.69-1.2 8.99-3.05-.48-4.62 3.39-1.4 4.83-3.26 7.25-4.61-.38-2.53-1-8.42-2.3-8.95 4.22-2.23-6.27-8.38-1.62-8.92-.74-.62 1.52-1.7.26-4.21 10.05-5.17 3.68-3.39-6.65-4.36-5.02-5.28 11.36-2.22-1.91-4.35 3 1.12 15.32-4.38 4.57-4.05-20.96-7.45-10.34-2.11-5.24-7.9-1.75-2.46-1.48-7.68.72-7.72 7.35-3.13 5.03-6.44 3.72-7.15-1.81-2.86-15.1-3.14-5.65-6.61 20.14-2.94-6-7.4-1.04-11.46 1.67-2.11 1.37-4.25-3.42-8.83-.74-7.47-10.24-2.75-3.33 0z"/><path id="J" d="M714.45 125.8c.85.34.76 4.03 3.51 8.97-3.51 2.61 3.17 11.81.95 11.32-4.07 9.73 9.38 10.94 5.73 18.09 13.99 5.45 6.11 6.17.73 11.29 3.49 3.44-2.6 4.44-1.4 4.03-6.1 1.81-5.9 3.6 3.55 4.41-6.57.96 3.9 2.95-2.26 6.36-4.48 2.55-4.36 3.46 4.69 2.43-10.64-1.58-6.08 1.21-3.3 3.4-4.9 1.99 10.8 2.89 5.35 5.49-9.15.48-.87 2.09 4.85 4.65 7.94 1.73 16.06 6.27-3.82 4.08 3.12-3.4 1.34-2.08 3.39-1.2 2.02 4.05-.89 3.94 1.21 8.93 5.61 4.4 9.38 5.72 6.64 6.57-.52.93-3.15 1.28-5.98 3.13-.78 2.72-6.66 4.64-1.44 1.57-18.03 3.67-1.73 6.49 2.08 9.5 8.38-6.16-1.39 2.04 2.15 8.15-12.78-3.23-18.55.17-12.98 7.4 16.28 2.42 5.01 8.96 8.84 8.69-3.4 6.67 15.23 6.94 5 9.44 9.53.65 6.56 10.87 9.12 1.02.39 8.49 15 6.16 5.07 4.19.43-.21-7.53 2.82-7.39 4.1 16.78 3.99 1.02 15.65-3.69 13.8 15.86-1.05-3.72 4.72 2.44 3.38 20.99 3.83.24.09 1.76 4.06-6.23 5.82 3.83 7.78 5.95 8.13 6.52-3.45 14.69 7.34 5.39 5.09 7.74 2-6.16 7.39 1.48 7.08-15.64 3.71-16.61 6.98-2.41 8.12-7.07 5.33.2 8.19 1.67 7.57-7.85-4.99-1.55 1.11-10.09 0-2.44.6-16.58 1.78-24.06 0h-62.87l1.66-7.57c3.22-2.19 2.25-4.02.87-8.22-3.51-2.53 6.97-7.18 3.59-12.07-5.11-3.04 4.57-9.04 5.26-11.62 14.72-12.89 1.57.18 1.19-17.76 25.57 1.72-4.64-4.53.56-14.87-18.81-2.14 23.13-8.54 7.08-19.96 3.04.69 4.32-4.83.17-9.35-.92-3.8 3.45-6.92 8.56-8.96-2.92-1.43-11.21-4.72-.44-8.02 6.58-1.92 2.94-10.22-.26-10.32 12.32-4.5 1.31-6.69 2.08-9.35 5.41-.74 4.71-10.42 1.84-8.52-5.19 3.06-14.03-2.9 2.6-9.23-3.17-2.52.4-6.25 1.12-7.73-.26-3.63-1.38-6.7-1.45-9.28s.92-4.66 4.87-6.32c-.5-5.88 5.53-5.75 4.51-8.89-.43-2.33-9.04.95-4.27-2.23.69-1.6 11.67-2.71 2.78-2.66 2.62-2.72 1.39-5.79 2.21-11.32-1.2-5.38 4.81-4.98 2.24-8.97 1.03-2.37 3.45-2.24 3.33 0z"/><path id="K" d="M793.58 125.73c.8.34.71 4.03 3.29 8.97-3.29 2.62 2.97 11.82.89 11.33-3.81 9.74 8.79 10.95 5.37 18.09 13.11 5.45 5.72 6.18.68 11.3 3.27 3.44-2.44 4.44-1.31 4.03-5.71 1.81-5.53 3.61 3.33 4.41-6.16.96 3.65 2.95-2.11 6.36-4.2 2.55-4.09 3.46 4.39 2.43-9.97-1.58-5.69 1.21-3.09 3.4-4.6 1.99 10.12 2.89 5.02 5.49-8.58.49-.82 2.09 4.54 4.65 7.44 1.73 15.05 6.27-3.58 4.08 2.93-3.4 1.25-2.08 3.18-1.2 1.89 4.06-.83 3.94 1.14 8.93 5.26 4.4 8.79 5.72 6.23 6.57-.49.93-2.95 1.28-5.6 3.13-.73 2.72-6.24 4.64-1.35 1.57-16.9 3.67-1.62 6.49 1.95 9.51 7.86-6.17-1.3 2.04 2.01 8.15-11.98-3.23-17.38.17-12.16 7.4 15.25 2.42 4.69 8.97 8.29 8.7-3.18 6.67 14.27 6.94 4.68 9.44 8.93.65 6.15 10.87 8.55 1.02.37 8.5 14.05 6.16 4.75 4.19.4-.21-7.06 2.82-6.93 4.1 15.72 3.99.96 15.66-3.46 13.81 14.86-1.05-3.48 4.72 2.29 3.38 19.67 3.83.23.09 1.65 4.07-5.84 5.82 3.59 7.78 5.58 8.13 6.11-3.45 13.77 7.34 5.05 5.09 7.26 2-5.77 7.39 1.39 7.09-14.66 3.71-15.56 6.98-2.26 8.12-6.63 5.33.19 8.19 1.56 7.57-7.35-4.99-1.45 1.11-9.46 0-2.28.6-15.53 1.78-22.55 0h-26.91-32l1.56-7.57c3.01-2.2 2.11-4.03.81-8.22-3.29-2.53 6.53-7.18 3.36-12.08-4.79-3.04 4.28-9.05 4.93-11.62 13.8-12.89 1.47.18 1.11-17.77 23.96 1.72-4.35-4.53.52-14.88-17.63-2.14 21.67-8.54 6.64-19.96 2.85.69 4.05-4.83.16-9.35-.86-3.8 3.23-6.92 8.02-8.96-2.74-1.43-10.51-4.72-.41-8.02 6.17-1.92 2.75-10.22-.24-10.33 11.55-4.5 1.23-6.69 1.95-9.35 5.07-.74 4.41-10.43 1.73-8.52-4.86 3.06-13.15-2.9 2.44-9.23-2.97-2.52.38-6.25 1.05-7.74-.24-3.63-1.29-6.7-1.36-9.28-.06-2.58.86-4.66 4.56-6.32-.47-5.88 5.18-5.75 4.23-8.89-.4-2.34-8.47.95-4-2.24.65-1.6 10.93-2.71 2.6-2.66 2.46-2.72 1.3-5.79 2.07-11.33-1.13-5.38 4.5-4.98 2.1-8.97.97-2.37 3.23-2.24 3.12 0z"/><path id="L" d="M655.65 101.47c.74.41.66 4.85 3.05 10.79-3.06 3.14 2.75 14.2.83 13.61-3.54 11.7 8.16 13.16 4.99 21.75 12.16 6.56 5.31 7.42.63 13.58 3.03 4.13-2.26 5.34-1.22 4.85-5.3 2.18-5.13 4.33 3.09 5.3-5.71 1.16 3.39 3.54-1.96 7.65-3.89 3.06-3.79 4.16 4.07 2.92-9.25-1.9-5.28 1.46-2.87 4.08-4.26 2.4 9.39 3.48 4.66 6.6-7.96.58-.76 2.51 4.21 5.59 6.9 2.07 13.97 7.54-3.32 4.9 2.72-4.08 1.16-2.5 2.95-1.45 1.75 4.88-.77 4.74 1.06 10.74 4.88 5.29 8.16 6.88 5.78 7.9-.46 1.12-2.74 1.54-5.2 3.76-.68 3.27-5.79 5.58-1.25 1.89-15.68 4.41-1.5 7.8 1.81 11.43 7.29-7.41-1.21 2.45 1.87 9.79-11.11-3.88-16.13.2-11.28 8.89 14.15 2.91 4.35 10.78 7.69 10.45-2.95 8.02 13.24 8.34 4.34 11.35 8.29.79 5.71 13.07 7.93 1.23.34 10.22 13.04 7.41 4.41 5.03.38-.26-6.55 3.39-6.43 4.93 14.59 4.8.89 18.82-3.21 16.6 13.79-1.26-3.23 5.68 2.12 4.07 18.25 4.6.21.11 1.53 4.89-5.42 7 3.33 9.35 5.18 9.77 5.67-4.15 12.78 8.83 4.68 6.12 6.73 2.41-5.35 8.88 1.29 8.52-13.6 4.46-14.44 8.39-2.09 9.76-6.15 6.41.17 9.85 1.45 9.1-6.82-6-1.35 1.34-8.77 0-2.12.72-14.41 2.15-20.92 0h-54.67l1.44-9.1c2.8-2.64 1.96-4.84.75-9.88-3.05-3.04 6.06-8.63 3.12-14.52-4.44-3.65 3.97-10.87 4.57-13.97 12.8-15.5 1.36.22 1.03-21.36 22.23 2.06-4.04-5.44.49-17.88-16.36-2.57 20.11-10.26 6.16-24 2.64.83 3.76-5.8.15-11.24-.8-4.57 3-8.32 7.45-10.77-2.54-1.72-9.75-5.68-.38-9.64 5.72-2.31 2.55-12.29-.22-12.41 10.71-5.41 1.14-8.04 1.81-11.24 4.7-.88 4.1-12.54 1.6-10.24-4.51 3.67-12.2-3.49 2.26-11.09-2.75-3.03.35-7.52.97-9.3-.23-4.37-1.2-8.06-1.26-11.15-.06-3.1.8-5.6 4.23-7.6-.43-7.07 4.81-6.91 3.93-10.68-.37-2.81-7.86 1.14-3.71-2.69.6-1.92 10.14-3.26 2.41-3.2 2.28-3.27 1.21-6.96 1.92-13.62-1.05-6.47 4.18-5.99 1.95-10.78.9-2.85 3-2.69 2.89 0z"/><path id="M" d="M716 154.48c.74.31.66 3.66 3.05 8.15-3.05 2.38 2.75 10.74.83 10.29-3.53 8.85 8.14 9.95 4.98 16.44 12.14 4.96 5.3 5.61.63 10.27 3.03 3.12-2.26 4.03-1.22 3.66-5.29 1.65-5.12 3.28 3.09 4-5.7.87 3.38 2.68-1.96 5.78-3.89 2.32-3.79 3.14 4.07 2.21-9.24-1.44-5.27 1.1-2.87 3.09-4.26 1.81 9.38 2.63 4.65 4.99-7.95.44-.76 1.9 4.21 4.23 6.89 1.57 13.94 5.7-3.32 3.71 2.71-3.09 1.16-1.89 2.95-1.09 1.75 3.69-.77 3.58 1.05 8.12 4.87 4 8.14 5.2 5.77 5.97-.45.84-2.74 1.17-5.19 2.85-.68 2.47-5.78 4.22-1.25 1.43-15.65 3.33-1.5 5.9 1.81 8.64 7.28-5.6-1.21 1.85 1.87 7.4-11.09-2.94-16.1.15-11.26 6.72 14.13 2.2 4.35 8.15 7.68 7.9-2.95 6.06 13.22 6.31 4.34 8.58 8.27.59 5.7 9.88 7.92.93.34 7.72 13.02 5.6 4.4 3.81.37-.19-6.54 2.56-6.42 3.72 14.56 3.63.89 14.23-3.2 12.55 13.77-.96-3.23 4.29 2.12 3.07 18.22 3.48.21.08 1.53 3.69-5.41 5.29 3.33 7.07 5.17 7.39 5.66-3.13 12.75 6.67 4.68 4.63 6.72 1.82-5.35 6.72 1.29 6.44-13.58 3.37-14.41 6.34-2.09 7.38-6.14 4.85.17 7.45 1.45 6.88-6.81-4.54-1.34 1.01-8.76 0-2.12.54-14.39 1.62-20.89 0h-24.93-29.65l1.44-6.88c2.79-1.99 1.96-3.66.75-7.47-3.04-2.3 6.05-6.53 3.11-10.98-4.43-2.76 3.96-8.22 4.57-10.56 12.78-11.72 1.36.17 1.03-16.15 22.2 1.56-4.03-4.12.48-13.52-16.33-1.94 20.07-7.76 6.15-18.14 2.64.63 3.75-4.39.15-8.5-.8-3.46 3-6.29 7.43-8.14-2.54-1.3-9.73-4.29-.38-7.29 5.71-1.74 2.55-9.29-.22-9.38 10.7-4.09 1.14-6.08 1.81-8.5 4.7-.67 4.09-9.48 1.6-7.74-4.5 2.78-12.18-2.64 2.26-8.39-2.75-2.29.35-5.68.97-7.03-.22-3.3-1.2-6.09-1.26-8.43s.8-4.23 4.23-5.75c-.43-5.35 4.8-5.22 3.92-8.08-.37-2.12-7.85.86-3.7-2.03.6-1.45 10.13-2.47 2.41-2.42 2.28-2.48 1.2-5.26 1.92-10.29-1.05-4.89 4.17-4.53 1.95-8.15.9-2.15 3-2.04 2.89 0z"/></defs></svg>