<?xml version="1.0" encoding="UTF-8"?>
<svg id="Layer_2" data-name="Layer 2" xmlns="http://www.w3.org/2000/svg" xmlns:xlink="http://www.w3.org/1999/xlink" viewBox="0 178 968 1016">
  <defs>
    <clipPath id="clippath">
      <rect x=".5" y="178.15" width="965.44" height="595.39" fill="none"/>
    </clipPath>
  </defs>
  <g id="main">
    <g>
      <rect x=".5" y="179" width="965.44" height="595.39" fill="#fff" stroke="#000" stroke-miterlimit="10"/>
      <g clip-path="url(#clippath)">
        <g>
          <g>
            <polygon points="82.59 212.78 36.51 212.78 59.61 180.14 105.68 180.14 82.59 212.78" fill="#ed4d52"/>
            <polygon points="174.72 212.73 128.65 212.73 151.74 180.1 197.81 180.1 174.72 212.73" fill="#8f8b54"/>
            <polygon points="128.68 212.73 82.61 212.73 105.7 180.1 151.78 180.1 128.68 212.73" fill="#fff"/>
            <polygon points="220.76 212.73 174.68 212.73 197.78 180.1 243.85 180.1 220.76 212.73" fill="#fff"/>
          </g>
          <g>
            <polygon points="264.07 212.78 217.99 212.78 241.08 180.14 287.16 180.14 264.07 212.78" fill="#ed4d52"/>
            <polygon points="356.2 212.73 310.12 212.73 333.22 180.1 379.29 180.1 356.2 212.73" fill="#8f8b54"/>
            <polygon points="310.16 212.73 264.09 212.73 287.18 180.1 333.26 180.1 310.16 212.73" fill="#fff"/>
            <polygon points="402.24 212.73 356.16 212.73 379.25 180.1 425.33 180.1 402.24 212.73" fill="#fff"/>
          </g>
          <g>
            <polygon points="445.88 212.78 399.81 212.78 422.9 180.14 468.98 180.14 445.88 212.78" fill="#ed4d52"/>
            <polygon points="538.02 212.73 491.94 212.73 515.03 180.1 561.11 180.1 538.02 212.73" fill="#8f8b54"/>
            <polygon points="491.98 212.73 445.9 212.73 469 180.1 515.07 180.1 491.98 212.73" fill="#fff"/>
            <polygon points="584.05 212.73 537.98 212.73 561.07 180.1 607.15 180.1 584.05 212.73" fill="#fff"/>
          </g>
          <g>
            <polygon points="628.57 212.78 582.5 212.78 605.59 180.14 651.66 180.14 628.57 212.78" fill="#ed4d52"/>
            <polygon points="720.7 212.73 674.63 212.73 697.72 180.1 743.8 180.1 720.7 212.73" fill="#8f8b54"/>
            <polygon points="674.67 212.73 628.59 212.73 651.69 180.1 697.76 180.1 674.67 212.73" fill="#fff"/>
            <polygon points="766.74 212.73 720.67 212.73 743.76 180.1 789.83 180.1 766.74 212.73" fill="#fff"/>
          </g>
          <g>
            <polygon points="809.5 212.78 763.42 212.78 786.52 180.14 832.59 180.14 809.5 212.78" fill="#ed4d52"/>
            <polygon points="901.63 212.73 855.56 212.73 878.65 180.1 924.73 180.1 901.63 212.73" fill="#8f8b54"/>
            <polygon points="855.6 212.73 809.52 212.73 832.62 180.1 878.69 180.1 855.6 212.73" fill="#fff"/>
            <polygon points="947.67 212.73 901.59 212.73 924.69 180.1 970.76 180.1 947.67 212.73" fill="#fff"/>
          </g>
          <g>
            <polygon points="82.59 773.53 36.51 773.53 59.61 740.9 105.68 740.9 82.59 773.53" fill="#ed4d52"/>
            <polygon points="174.72 773.49 128.65 773.49 151.74 740.86 197.81 740.86 174.72 773.49" fill="#8f8b54"/>
            <polygon points="128.68 773.49 82.61 773.49 105.7 740.86 151.78 740.86 128.68 773.49" fill="#fff"/>
            <polygon points="220.76 773.49 174.68 773.49 197.78 740.86 243.85 740.86 220.76 773.49" fill="#fff"/>
          </g>
          <g>
            <polygon points="264.07 773.53 217.99 773.53 241.08 740.9 287.16 740.9 264.07 773.53" fill="#ed4d52"/>
            <polygon points="356.2 773.49 310.12 773.49 333.22 740.86 379.29 740.86 356.2 773.49" fill="#8f8b54"/>
            <polygon points="310.16 773.49 264.09 773.49 287.18 740.86 333.26 740.86 310.16 773.49" fill="#fff"/>
            <polygon points="402.24 773.49 356.16 773.49 379.25 740.86 425.33 740.86 402.24 773.49" fill="#fff"/>
          </g>
          <g>
            <polygon points="445.88 773.53 399.81 773.53 422.9 740.9 468.98 740.9 445.88 773.53" fill="#ed4d52"/>
            <polygon points="538.02 773.49 491.94 773.49 515.03 740.86 561.11 740.86 538.02 773.49" fill="#8f8b54"/>
            <polygon points="491.98 773.49 445.9 773.49 469 740.86 515.07 740.86 491.98 773.49" fill="#fff"/>
            <polygon points="584.05 773.49 537.98 773.49 561.07 740.86 607.15 740.86 584.05 773.49" fill="#fff"/>
          </g>
          <g>
            <polygon points="628.57 773.53 582.5 773.53 605.59 740.9 651.66 740.9 628.57 773.53" fill="#ed4d52"/>
            <polygon points="720.7 773.49 674.63 773.49 697.72 740.86 743.8 740.86 720.7 773.49" fill="#8f8b54"/>
            <polygon points="674.67 773.49 628.59 773.49 651.69 740.86 697.76 740.86 674.67 773.49" fill="#fff"/>
            <polygon points="766.74 773.49 720.67 773.49 743.76 740.86 789.83 740.86 766.74 773.49" fill="#fff"/>
          </g>
          <g>
            <polygon points="809.5 773.53 763.42 773.53 786.52 740.9 832.59 740.9 809.5 773.53" fill="#ed4d52"/>
            <polygon points="901.63 773.49 855.56 773.49 878.65 740.86 924.73 740.86 901.63 773.49" fill="#8f8b54"/>
            <polygon points="855.6 773.49 809.52 773.49 832.62 740.86 878.69 740.86 855.6 773.49" fill="#fff"/>
            <polygon points="947.67 773.49 901.59 773.49 924.69 740.86 970.76 740.86 947.67 773.49" fill="#fff"/>
          </g>
          <g>
            <polygon points="966.29 888.18 966.29 934.25 933.66 911.16 933.66 865.08 966.29 888.18" fill="#ed4d52"/>
            <polygon points="966.25 796.04 966.25 842.12 933.61 819.02 933.61 772.95 966.25 796.04" fill="#8f8b54"/>
            <polygon points="966.25 842.08 966.25 888.16 933.61 865.06 933.61 818.99 966.25 842.08" fill="#fff"/>
            <polygon points="966.25 750.01 966.25 796.08 933.61 772.99 933.61 726.91 966.25 750.01" fill="#fff"/>
          </g>
          <g>
            <polygon points="966.29 706.7 966.29 752.77 933.66 729.68 933.66 683.6 966.29 706.7" fill="#ed4d52"/>
            <polygon points="966.25 614.56 966.25 660.64 933.61 637.55 933.61 591.47 966.25 614.56" fill="#8f8b54"/>
            <polygon points="966.25 660.6 966.25 706.68 933.61 683.58 933.61 637.51 966.25 660.6" fill="#fff"/>
            <polygon points="966.25 568.53 966.25 614.6 933.61 591.51 933.61 545.43 966.25 568.53" fill="#fff"/>
          </g>
          <g>
            <polygon points="966.29 524.88 966.29 570.96 933.66 547.86 933.66 501.79 966.29 524.88" fill="#ed4d52"/>
            <polygon points="966.25 432.75 966.25 478.82 933.61 455.73 933.61 409.65 966.25 432.75" fill="#8f8b54"/>
            <polygon points="966.25 478.78 966.25 524.86 933.61 501.77 933.61 455.69 966.25 478.78" fill="#fff"/>
            <polygon points="966.25 386.71 966.25 432.79 933.61 409.69 933.61 363.62 966.25 386.71" fill="#fff"/>
          </g>
          <g>
            <polygon points="966.29 342.19 966.29 388.27 933.66 365.17 933.66 319.1 966.29 342.19" fill="#ed4d52"/>
            <polygon points="966.25 250.06 966.25 296.13 933.61 273.04 933.61 226.97 966.25 250.06" fill="#8f8b54"/>
            <polygon points="966.25 296.1 966.25 342.17 933.61 319.08 933.61 273 966.25 296.1" fill="#fff"/>
            <polygon points="966.25 204.02 966.25 250.1 933.61 227 933.61 180.93 966.25 204.02" fill="#fff"/>
          </g>
          <g>
            <polygon points="966.29 161.26 966.29 207.34 933.66 184.25 933.66 138.17 966.29 161.26" fill="#ed4d52"/>
            <polygon points="966.25 69.13 966.25 115.21 933.61 92.11 933.61 46.04 966.25 69.13" fill="#8f8b54"/>
            <polygon points="966.25 115.17 966.25 161.24 933.61 138.15 933.61 92.07 966.25 115.17" fill="#fff"/>
            <polygon points="966.25 23.09 966.25 69.17 933.61 46.08 933.61 0 966.25 23.09" fill="#fff"/>
          </g>
          <g>
            <polygon points="1.18 131.59 1.18 85.51 33.82 108.61 33.82 154.68 1.18 131.59" fill="#ed4d52"/>
            <polygon points="1.23 223.72 1.23 177.65 33.86 200.74 33.86 246.81 1.23 223.72" fill="#8f8b54"/>
            <polygon points="1.23 177.68 1.23 131.61 33.86 154.7 33.86 200.78 1.23 177.68" fill="#fff"/>
            <polygon points="1.23 269.76 1.23 223.68 33.86 246.78 33.86 292.85 1.23 269.76" fill="#fff"/>
          </g>
          <g>
            <polygon points="1.18 313.07 1.18 266.99 33.82 290.09 33.82 336.16 1.18 313.07" fill="#ed4d52"/>
            <polygon points="1.23 405.2 1.23 359.13 33.86 382.22 33.86 428.29 1.23 405.2" fill="#8f8b54"/>
            <polygon points="1.23 359.16 1.23 313.09 33.86 336.18 33.86 382.26 1.23 359.16" fill="#fff"/>
            <polygon points="1.23 451.24 1.23 405.16 33.86 428.26 33.86 474.33 1.23 451.24" fill="#fff"/>
          </g>
          <g>
            <polygon points="1.18 494.88 1.18 448.81 33.82 471.9 33.82 517.98 1.18 494.88" fill="#ed4d52"/>
            <polygon points="1.23 587.02 1.23 540.94 33.86 564.03 33.86 610.11 1.23 587.02" fill="#8f8b54"/>
            <polygon points="1.23 540.98 1.23 494.9 33.86 518 33.86 564.07 1.23 540.98" fill="#fff"/>
            <polygon points="1.23 633.05 1.23 586.98 33.86 610.07 33.86 656.15 1.23 633.05" fill="#fff"/>
          </g>
          <g>
            <polygon points="1.18 677.57 1.18 631.5 33.82 654.59 33.82 700.67 1.18 677.57" fill="#ed4d52"/>
            <polygon points="1.23 769.71 1.23 723.63 33.86 746.72 33.86 792.8 1.23 769.71" fill="#8f8b54"/>
            <polygon points="1.23 723.67 1.23 677.59 33.86 700.69 33.86 746.76 1.23 723.67" fill="#fff"/>
            <polygon points="1.23 815.74 1.23 769.67 33.86 792.76 33.86 838.84 1.23 815.74" fill="#fff"/>
          </g>
          <g>
            <polygon points="1.18 858.5 1.18 812.43 33.82 835.52 33.82 881.59 1.18 858.5" fill="#ed4d52"/>
            <polygon points="1.23 950.63 1.23 904.56 33.86 927.65 33.86 973.73 1.23 950.63" fill="#8f8b54"/>
            <polygon points="1.23 904.6 1.23 858.52 33.86 881.62 33.86 927.69 1.23 904.6" fill="#fff"/>
            <polygon points="1.23 996.67 1.23 950.6 33.86 973.69 33.86 1019.76 1.23 996.67" fill="#fff"/>
          </g>
        </g>
      </g>
      <rect x=".5" y="179" width="965.44" height="595.39" fill="none" stroke="#000" stroke-miterlimit="10"/>
      <text transform="translate(766.91 714.22)" fill="#4c565e" font-family="SegoeScript-Bold, &apos;Segoe Script&apos;" font-size="31.69"><tspan x="0" y="0" letter-spacing=".1em">R.S.V.P.</tspan></text>
      <g>
        <circle cx="831.27" cy="312.89" r="75.5" fill="none" stroke="#4c565e" stroke-miterlimit="10" stroke-width="1.2"/>
        <circle cx="831.27" cy="312.89" r="50.43" fill="none" stroke="#4c565e" stroke-miterlimit="10" stroke-width="1.2"/>
        <text transform="translate(863.05 358.42) rotate(149.79) scale(.91 1)" fill="#4c565e" font-family="SegoeUIVariable-SemiboldSmall, &apos;Segoe UI Variable&apos;" font-size="18" font-variation-settings="&apos;wght&apos; 600, &apos;opsz&apos; 8" font-weight="700"><tspan x="0" y="0">S</tspan></text>
        <text transform="translate(855.65 362.88) rotate(159.74) scale(.91 1)" fill="#4c565e" font-family="SegoeUIVariable-SemiboldSmall, &apos;Segoe UI Variable&apos;" font-size="18" font-variation-settings="&apos;wght&apos; 600, &apos;opsz&apos; 8" font-weight="700"><tspan x="0" y="0">A</tspan></text>
        <text transform="translate(845.77 366.68) rotate(171.52) scale(.91 1)" fill="#4c565e" font-family="SegoeUIVariable-SemiboldSmall, &apos;Segoe UI Variable&apos;" font-size="18" font-variation-settings="&apos;wght&apos; 600, &apos;opsz&apos; 8" font-weight="700"><tspan x="0" y="0">N</tspan></text>
        <text transform="translate(833.73 368.36) rotate(-177.71) scale(.91 1)" fill="#4c565e" font-family="SegoeUIVariable-SemiboldSmall, &apos;Segoe UI Variable&apos;" font-size="18" font-variation-settings="&apos;wght&apos; 600, &apos;opsz&apos; 8" font-weight="700"><tspan x="0" y="0">T</tspan></text>
        <text transform="translate(826.08 368.25) rotate(-168.95) scale(.91 1)" fill="#4c565e" font-family="SegoeUIVariable-SemiboldSmall, &apos;Segoe UI Variable&apos;" font-size="18" font-variation-settings="&apos;wght&apos; 600, &apos;opsz&apos; 8" font-weight="700"><tspan x="0" y="0">A</tspan></text>
        <text transform="translate(815.55 365.99) rotate(-161.26) scale(.91 1)" fill="#4c565e" font-family="SegoeUIVariable-SemiboldSmall, &apos;Segoe UI Variable&apos;" font-size="18" font-variation-settings="&apos;wght&apos; 600, &apos;opsz&apos; 8" font-weight="700"><tspan x="0" y="0"> </tspan></text>
        <text transform="translate(811.59 364.87) rotate(-153.93) scale(.91 1)" fill="#4c565e" font-family="SegoeUIVariable-SemiboldSmall, &apos;Segoe UI Variable&apos;" font-size="18" font-variation-settings="&apos;wght&apos; 600, &apos;opsz&apos; 8" font-weight="700"><tspan x="0" y="0">C</tspan></text>
        <text transform="translate(802.7 360.46) rotate(-144.78) scale(.91 1)" fill="#4c565e" font-family="SegoeUIVariable-SemiboldSmall, &apos;Segoe UI Variable&apos;" font-size="18" font-variation-settings="&apos;wght&apos; 600, &apos;opsz&apos; 8" font-weight="700"><tspan x="0" y="0">L</tspan></text>
        <text transform="translate(795.99 355.88) rotate(-134.87) scale(.91 1)" fill="#4c565e" font-family="SegoeUIVariable-SemiboldSmall, &apos;Segoe UI Variable&apos;" font-size="18" font-variation-settings="&apos;wght&apos; 600, &apos;opsz&apos; 8" font-weight="700"><tspan x="0" y="0">A</tspan></text>
        <text transform="translate(788.63 348.64) rotate(-124.04) scale(.91 1)" fill="#4c565e" font-family="SegoeUIVariable-SemiboldSmall, &apos;Segoe UI Variable&apos;" font-size="18" font-variation-settings="&apos;wght&apos; 600, &apos;opsz&apos; 8" font-weight="700"><tspan x="0" y="0">U</tspan></text>
        <text transform="translate(782.45 339.37) rotate(-113.88) scale(.91 1)" fill="#4c565e" font-family="SegoeUIVariable-SemiboldSmall, &apos;Segoe UI Variable&apos;" font-size="18" font-variation-settings="&apos;wght&apos; 600, &apos;opsz&apos; 8" font-weight="700"><tspan x="0" y="0">S</tspan></text>
        <text transform="translate(799.33 267.24) rotate(-28.45) scale(.91 1)" fill="#4c565e" font-family="SegoeUIVariable-SemiboldSmall, &apos;Segoe UI Variable&apos;" font-size="18" font-variation-settings="&apos;wght&apos; 600, &apos;opsz&apos; 8" font-weight="700"><tspan x="0" y="0">N</tspan></text>
        <text transform="translate(809.97 261.42) rotate(-16.04) scale(.91 1)" fill="#4c565e" font-family="SegoeUIVariable-SemiboldSmall, &apos;Segoe UI Variable&apos;" font-size="18" font-variation-settings="&apos;wght&apos; 600, &apos;opsz&apos; 8" font-weight="700"><tspan x="0" y="0">O</tspan></text>
        <text transform="translate(821.45 258.17) rotate(-4.77) scale(.91 1)" fill="#4c565e" font-family="SegoeUIVariable-SemiboldSmall, &apos;Segoe UI Variable&apos;" font-size="18" font-variation-settings="&apos;wght&apos; 600, &apos;opsz&apos; 8" font-weight="700"><tspan x="0" y="0">R</tspan></text>
        <text transform="translate(830.56 257.36) rotate(4.07) scale(.91 1)" fill="#4c565e" font-family="SegoeUIVariable-SemiboldSmall, &apos;Segoe UI Variable&apos;" font-size="18" font-variation-settings="&apos;wght&apos; 600, &apos;opsz&apos; 8" font-weight="700"><tspan x="0" y="0">T</tspan></text>
        <text transform="translate(839.24 257.8) rotate(14.45) scale(.91 1)" fill="#4c565e" font-family="SegoeUIVariable-SemiboldSmall, &apos;Segoe UI Variable&apos;" font-size="18" font-variation-settings="&apos;wght&apos; 600, &apos;opsz&apos; 8" font-weight="700"><tspan x="0" y="0">H</tspan></text>
        <text transform="translate(850.57 260.97) rotate(22.67) scale(.91 1)" fill="#4c565e" font-family="SegoeUIVariable-SemiboldSmall, &apos;Segoe UI Variable&apos;" font-size="18" font-variation-settings="&apos;wght&apos; 600, &apos;opsz&apos; 8" font-weight="700"><tspan x="0" y="0"> </tspan></text>
        <text transform="translate(854.46 262.4) rotate(29.7) scale(.91 1)" fill="#4c565e" font-family="SegoeUIVariable-SemiboldSmall, &apos;Segoe UI Variable&apos;" font-size="18" font-variation-settings="&apos;wght&apos; 600, &apos;opsz&apos; 8" font-weight="700"><tspan x="0" y="0">P</tspan></text>
        <text transform="translate(862.55 266.8) rotate(40.62) scale(.91 1)" fill="#4c565e" font-family="SegoeUIVariable-SemiboldSmall, &apos;Segoe UI Variable&apos;" font-size="18" font-variation-settings="&apos;wght&apos; 600, &apos;opsz&apos; 8" font-weight="700"><tspan x="0" y="0">O</tspan></text>
        <text transform="translate(871.56 274.72) rotate(50.73) scale(.91 1)" fill="#4c565e" font-family="SegoeUIVariable-SemiboldSmall, &apos;Segoe UI Variable&apos;" font-size="18" font-variation-settings="&apos;wght&apos; 600, &apos;opsz&apos; 8" font-weight="700"><tspan x="0" y="0">L</tspan></text>
        <text transform="translate(876.48 280.67) rotate(58.89) scale(.91 1)" fill="#4c565e" font-family="SegoeUIVariable-SemiboldSmall, &apos;Segoe UI Variable&apos;" font-size="18" font-variation-settings="&apos;wght&apos; 600, &apos;opsz&apos; 8" font-weight="700"><tspan x="0" y="0">E</tspan></text>
        <g>
          <g>
            <circle cx="827.06" cy="322.5" r="19.82" fill="#fff"/>
            <path d="M824.59,343.1c-11.36-1.36-19.49-11.71-18.13-23.07,1.36-11.36,11.71-19.49,23.07-18.13,11.36,1.36,19.49,11.71,18.13,23.07-1.36,11.36-11.71,19.49-23.07,18.13Zm4.72-39.35c-10.34-1.24-19.76,6.16-21,16.5-1.24,10.34,6.16,19.76,16.5,21,10.34,1.24,19.76-6.16,21-16.5s-6.16-19.76-16.5-21Z" fill="#ec1c24"/>
          </g>
          <g>
            <path d="M849.7,316.24l-.42-4.17-4.96-.6,2,6.69c1.95,24.63-20.96,18.53-20.96,18.53,0,0-23.7,.5-15.98-22.96l3.53-6.03-4.96-.6-1.4,3.95s-21.09,35.58,17.07,40.16c38.16,4.58,26.08-34.98,26.08-34.98Z" fill="#fff"/>
            <path d="M823.51,352.14c-11.1-1.33-18.41-5.4-21.71-12.1-2.52-5.11-2.63-11.84-.31-19.46,1.62-5.32,3.86-9.29,4.22-9.91l1.62-4.57,7.11,.85-4.2,7.17c-2.08,6.37-1.95,11.44,.37,15.1,2.96,4.65,8.86,5.99,12.12,6.38,1.55,.19,2.6,.17,2.62,.17h.13s.13,.03,.13,.03c0,0,1.03,.27,2.58,.46,3.26,.39,9.31,.48,13.28-3.34,3.12-3,4.45-7.91,3.93-14.58l-2.38-7.96,7.11,.85,.49,4.82c.2,.69,1.44,5.07,1.76,10.63,.45,7.95-1.24,14.46-4.9,18.83-4.79,5.73-12.85,7.95-23.96,6.62Zm-14.93-44.02l-1.18,3.33-.05,.08c-.1,.16-9.51,16.31-3.89,27.69,3.01,6.1,9.83,9.82,20.27,11.07s17.94-.76,22.31-5.97c8.15-9.73,2.82-27.64,2.77-27.82l-.03-.09-.36-3.52-2.82-.34,1.63,5.43v.1c.59,7.31-.92,12.75-4.48,16.17-4.52,4.34-11.21,4.27-14.79,3.84-1.38-.17-2.37-.39-2.71-.47-.35,0-1.36-.02-2.74-.18-3.58-.43-10.1-1.94-13.46-7.23-2.65-4.17-2.83-9.81-.54-16.77l.03-.09,2.86-4.89-2.82-.34Z" fill="#4c565e"/>
          </g>
          <g>
            <g>
              <g>
                <rect x="803.88" y="300" width="49.81" height="15.35" rx="6.58" ry="6.58" transform="translate(42.54 -96.51) rotate(6.84)" fill="#fff"/>
                <path d="M844.88,318.19l-34.21-4.1c-4.67-.56-8.01-4.81-7.45-9.48,.56-4.67,4.81-8.01,9.48-7.45l34.21,4.1c4.67,.56,8.01,4.81,7.45,9.48-.56,4.67-4.81,8.01-9.48,7.45Zm-32.38-19.35c-3.74-.45-7.14,2.23-7.59,5.96s2.23,7.14,5.96,7.59l34.21,4.1c3.74,.45,7.14-2.23,7.59-5.96,.45-3.74-2.23-7.14-5.96-7.59l-34.21-4.1Z" fill="#4c565e"/>
              </g>
              <path d="M861.73,292.98s-39.09-46.6-53.03,5.06c10.79,1.29,42.02,5.04,42.02,5.04,0,0-11.76-14.95,11.01-10.1Z" fill="#4c565e"/>
            </g>
            <g>
              <circle cx="861.58" cy="293" r="7.16" transform="translate(290.06 1001.19) rotate(-69.88)" fill="#fff"/>
              <path d="M860.62,300.96c-4.39-.53-7.53-4.53-7.01-8.91s4.53-7.53,8.91-7.01c4.39,.53,7.53,4.53,7.01,8.91-.53,4.39-4.53,7.53-8.91,7.01Zm1.71-14.23c-3.46-.41-6.6,2.06-7.02,5.51-.41,3.46,2.06,6.6,5.51,7.02s6.6-2.06,7.02-5.51-2.06-6.6-5.51-7.02Z" fill="#4c565e"/>
            </g>
          </g>
          <g>
            <circle cx="816.7" cy="319.86" r="2.94" fill="#4c565e"/>
            <circle cx="838.66" cy="322.49" r="2.94" transform="translate(418.6 1116.78) rotate(-83.16)" fill="#4c565e"/>
          </g>
          <g>
            <path d="M826.07,330.78c-3.65-5.66-10.72,4.45-16.71-1.26,2.08,8.27,12.85,8.26,16.25,5.1,2.56,3.87,13.02,6.43,16.99-1.12-7.17,4.13-11.65-7.37-16.53-2.73Z" fill="#fff"/>
            <path d="M832.62,339.2c-2.88-.35-5.62-1.62-7.17-3.28-1.9,1.25-4.86,1.84-7.74,1.49-4.8-.58-8.17-3.37-9.25-7.66l-.78-3.11,2.32,2.21c.93,.89,1.93,1.38,3.05,1.52,1.78,.21,3.66-.49,5.49-1.17,1.78-.66,3.45-1.29,5.05-1.1,1.02,.12,1.91,.58,2.64,1.37,.9-.59,1.86-.83,2.89-.71,1.59,.19,3.08,1.2,4.65,2.26,1.61,1.09,3.28,2.22,5.05,2.44,1.13,.13,2.21-.11,3.33-.75l2.78-1.6-1.49,2.84c-2.06,3.92-6,5.83-10.8,5.26Zm-6.84-6l.6,.92c1.04,1.58,3.7,2.91,6.46,3.24,1.51,.18,4.77,.24,7.24-2.04-.5,.05-1,.05-1.5-.01-2.23-.27-4.17-1.58-5.88-2.74-1.38-.93-2.68-1.82-3.82-1.95-.49-.06-1.25-.04-2.18,.85l-.81,.77-.61-.94c-.69-1.08-1.43-1.28-1.92-1.34-1.15-.14-2.62,.41-4.18,.99-1.94,.72-4.13,1.54-6.36,1.28-.5-.06-.99-.17-1.46-.34,1.86,2.8,5.05,3.52,6.55,3.7,2.76,.33,5.66-.34,7.04-1.62l.8-.75Z" fill="#4c565e"/>
          </g>
          <g>
            <ellipse cx="826.56" cy="326.67" rx="2.52" ry="3.51" transform="translate(403.79 1108.45) rotate(-83.16)" fill="#fff"/>
            <path d="M826.15,330.09c-2.47-.3-4.23-2.03-4-3.96s2.35-3.19,4.82-2.9c2.47,.3,4.23,2.03,4,3.96-.23,1.92-2.35,3.2-4.82,2.9Zm.6-5.01c-1.37-.16-2.66,.43-2.76,1.28s1.01,1.73,2.38,1.89,2.66-.43,2.76-1.28-1.01-1.73-2.38-1.89Z" fill="#4c565e"/>
          </g>
        </g>
        <path d="M883.4,331.87c.07,0,.15-.02,.21-.06l2.12-1.4,4.28,2.47-4.33,2.5-2.08-1.26c-.18-.11-.42-.05-.52,.13-.11,.18-.05,.42,.13,.52l1.72,1.04-1.64,.95c-.18,.11-.25,.34-.14,.52,.07,.12,.2,.19,.33,.19,.06,0,.13-.02,.19-.05l1.63-.94,.13,2.15c.01,.2,.18,.36,.38,.36,0,0,.02,0,.02,0,.21-.01,.37-.19,.36-.4l-.15-2.53,4.28-2.47v5l-2.13,1.17c-.18,.1-.25,.33-.15,.52,.1,.18,.33,.25,.52,.15l1.76-.97v1.9c0,.21,.17,.38,.38,.38s.38-.17,.38-.38v-1.88l1.92,.96c.05,.03,.11,.04,.17,.04,.14,0,.27-.08,.34-.21,.09-.19,.02-.42-.17-.51l-2.27-1.13v-4.95l4.33,2.5-.05,2.43c0,.21,.16,.39,.37,.39,0,0,0,0,0,0,.21,0,.38-.17,.38-.37l.04-2.01,1.64,.95c.06,.03,.13,.05,.19,.05,.13,0,.26-.07,.33-.19,.11-.18,.04-.42-.14-.52l-1.63-.94,1.8-1.18c.18-.12,.22-.35,.11-.53s-.35-.22-.53-.11l-2.12,1.4-4.28-2.47,4.33-2.5,2.08,1.26c.06,.04,.13,.06,.2,.06,.13,0,.26-.07,.33-.18,.11-.18,.05-.42-.13-.52l-1.72-1.04,1.64-.95c.18-.11,.25-.34,.14-.52-.11-.18-.34-.25-.52-.14l-1.63,.94-.13-2.15c-.01-.21-.19-.37-.4-.36-.21,.01-.37,.19-.36,.4l.15,2.53-4.28,2.47v-5l2.13-1.18c.18-.1,.25-.33,.15-.52-.1-.18-.33-.25-.52-.15l-1.76,.97v-1.9c0-.21-.17-.38-.38-.38s-.38,.17-.38,.38v1.88l-1.92-.96c-.19-.09-.42-.02-.51,.17-.09,.19-.02,.42,.17,.51l2.27,1.13v4.95l-4.33-2.5,.05-2.43c0-.21-.16-.39-.37-.39,0,0,0,0,0,0-.21,0-.38,.17-.38,.37l-.04,2.01-1.64-.95c-.18-.11-.42-.04-.52,.14s-.04,.42,.14,.52l1.63,.94-1.8,1.18c-.18,.12-.22,.35-.11,.53,.07,.11,.2,.17,.32,.17Zm7.4,1.06s0,.03,.02,.04c-.01,.01-.02,.02-.03,.04-.02,0-.03,0-.05,0,0-.02,0-.03-.02-.04,.01-.01,.02-.02,.03-.04,.02,0,.03,0,.05,0Z" fill="#4c565e"/>
        <path d="M764.21,291.9c.07,0,.15-.02,.21-.06l2.12-1.4,4.28,2.47-4.33,2.5-2.08-1.26c-.18-.11-.42-.05-.52,.13-.11,.18-.05,.42,.13,.52l1.72,1.04-1.64,.95c-.18,.11-.25,.34-.14,.52,.07,.12,.2,.19,.33,.19,.06,0,.13-.02,.19-.05l1.63-.94,.13,2.15c.01,.2,.18,.36,.38,.36,0,0,.02,0,.02,0,.21-.01,.37-.19,.36-.4l-.15-2.53,4.28-2.47v5l-2.13,1.17c-.18,.1-.25,.33-.15,.52,.1,.18,.33,.25,.52,.15l1.76-.97v1.9c0,.21,.17,.38,.38,.38s.38-.17,.38-.38v-1.88l1.92,.96c.05,.03,.11,.04,.17,.04,.14,0,.27-.08,.34-.21,.09-.19,.02-.42-.17-.51l-2.27-1.13v-4.95l4.33,2.5-.05,2.43c0,.21,.16,.39,.37,.39,0,0,0,0,0,0,.21,0,.38-.17,.38-.37l.04-2.01,1.64,.95c.06,.03,.13,.05,.19,.05,.13,0,.26-.07,.33-.19,.11-.18,.04-.42-.14-.52l-1.63-.94,1.8-1.18c.18-.12,.22-.35,.11-.53s-.35-.22-.53-.11l-2.12,1.4-4.28-2.47,4.33-2.5,2.08,1.26c.06,.04,.13,.06,.2,.06,.13,0,.26-.07,.33-.18,.11-.18,.05-.42-.13-.52l-1.72-1.04,1.64-.95c.18-.11,.25-.34,.14-.52-.11-.18-.34-.25-.52-.14l-1.63,.94-.13-2.15c-.01-.21-.19-.37-.4-.36-.21,.01-.37,.19-.36,.4l.15,2.53-4.28,2.47v-5l2.13-1.18c.18-.1,.25-.33,.15-.52-.1-.18-.33-.25-.52-.15l-1.76,.97v-1.9c0-.21-.17-.38-.38-.38s-.38,.17-.38,.38v1.88l-1.92-.96c-.19-.09-.42-.02-.51,.17-.09,.19-.02,.42,.17,.51l2.27,1.13v4.95l-4.33-2.5,.05-2.43c0-.21-.16-.39-.37-.39,0,0,0,0,0,0-.21,0-.38,.17-.38,.37l-.04,2.01-1.64-.95c-.18-.11-.42-.04-.52,.14s-.04,.42,.14,.52l1.63,.94-1.8,1.18c-.18,.12-.22,.35-.11,.53,.07,.11,.2,.17,.32,.17Zm7.4,1.06s0,.03,.02,.04c-.01,.01-.02,.02-.03,.04-.02,0-.03,0-.05,0,0-.02,0-.03-.02-.04,.01-.01,.02-.02,.03-.04,.02,0,.03,0,.05,0Z" fill="#4c565e"/>
      </g>
      <path d="M652.32,283.67s-.03,0-.05,0c-.38,0-.62-.15-.85-.3v.9h.6c0-.3,.24-.36,.3-.6Zm-11.08,18.02c.17-.04,.34-.07,.5-.09v-.04c-.21,0-.37,.05-.5,.13Zm10.82-17.23v-.02c-.04,.1-.09,.2-.14,.3l.14-.27Zm115.66,6.54c-.27,0-.28,.26-.3,.52,0,.13-.01,.26-.05,.36,.26,0,.49-.09,.69-.22-.4-.05-.1-.27-.04-.59-.13-.05-.23-.07-.3-.07Zm-5.08,21.99s-.02,0-.04,0c0,0,0,.02,0,.02,0,0,.02-.01,.03-.01Zm-108.78-27.63c.02,.05,.04,.1,.06,.14,.05,0,.1,0,.15-.01,0-.04-.02-.09-.04-.13-.06-.15-.18-.31-.37-.31-.03,0-.07,0-.1,.01-.13,.23-.2,.38-.22,.46-.05,0-.1,0-.15,0-.22,0-.43,.04-.62,.13,.29-.04,.6-.08,.91-.11,.02,0,.04,0,.05,0,.08-.04,.19-.09,.32-.17Zm-4.51,11.42c.29-.25,.14-.94,.67-.94,.06,0,.14,.01,.23,.03-.41,1.35-1.67,1.85-2.27,3.01-.05-.02-.09-.04-.14-.07,0-.17,0-.35,0-.54-.06,0-.11,0-.17,0-.14,0-.26,.02-.35,.06-.06-.05-.13-.09-.19-.09-.1,0-.2,.09-.31,.33,.07,.01,.14,.03,.2,.05-.11,.24-.09,.57-.03,.9-.12-.14-.22-.34-.17-.65-.09-.02-.17-.04-.24-.04-.3,0-.37,.24-.44,.47-.07,.23-.14,.47-.44,.47-.02,0-.05,0-.08,0,0-.4-.53-.28-.6-.6,.06,.03,.12,.04,.18,.04,.44,0,.95-.54,.54-.63,.17-.05,.41-.03,.53-.14,.01,.1,.04,.17,.08,.17,.04,0,.1-.09,.17-.34-.07-.25-.13-.34-.17-.34-.06,0-.09,.17-.09,.34v.03c-.23,.04-.52,.02-.53,.28-.03,0-.07,0-.11,0-.03,.15-.09,.21-.18,.21-.12,0-.27-.1-.42-.21,.06,.11,.07,.21,.06,.3-.7-.27,.74-.67,.65-1.18-.11-.01-.22-.02-.32-.02h-.03c.15-.02,.27-.06,.25-.24,.01,.01,.03,.02,.05,.02,.06,0,.15-.07,.29-.26,.01,.12,.04,.23,.08,.23,.04,0,.1-.09,.17-.34,0-.01,0-.02,0-.03-.08,.04-.17,.09-.25,.13-.12,.06-.25,.13-.37,.19,0,0,0,0,0,.01,0,0-.01,0-.02,0-.19,.1-.37,.2-.55,.3h.23c-.41,.04-.67,.22-.72,.62,.81,.27-.69,.67-.6,1.2,.05,0,.09,0,.13,0,.46,0,.49-.43,.77-.61,0,.09,.08,.19,.15,.19-.26,.35-.91,.5-.27,.69-.03-.18,.04-.25,.15-.25,.25,0,.73,.38,.76,.55-.23,.07-.58,.01-.6,.29-.1-.05-.18-.13-.19-.27,.28-.01,.25-.31-.15-.31-.05,0-.1,0-.15,.01-.13,.43,.18,.74,.55,.91,.14-.08,.28-.16,.42-.24-.04,0-.07,0-.11-.01h0c.06,0,.11,0,.15-.02,.08-.04,.15-.09,.23-.13,.09-.09,.15-.22,.21-.35,.11-.25,.23-.5,.59-.5,.07,0,.15,0,.24,.03,.08,.05,.14,.1,.17,.15,.02-.01,.04-.02,.07-.03,.22-.12,.44-.23,.67-.34,.15-.07,.3-.14,.45-.21,.04-.05,.09-.11,.15-.17-.06,.03-.12,.04-.18,.04,.17-.12,.33-.16,.48-.16,.06,0,.12,0,.18,.02,.05-.02,.09-.04,.14-.06,0,0,0,0,0,0,.09-.03,.18-.07,.27-.1,0,0-.02,0-.03,0-.07-.14-.08-.37-.03-.61,.02,0,.04-.02,.06-.03,.09,.03,.17,.07,.25,.12-.06,.11,.04,.26,.19,.37,.03,0,.06-.02,.09-.03,.29-.1,.6-.19,.91-.27,.14-.04,.28-.07,.42-.1-.32-.19-.59-.55-.55-.97,.49,.11,.54,.66,1.14,.66,.05,0,.1,0,.16-.01,.06,.03,.13,.04,.19,.05,0,.03-.01,.06-.02,.09,.2-.04,.41-.07,.63-.1-.08-.02-.18-.05-.28-.1,.07-.06,.13-.16,.18-.3-.25-.06-.44-.08-.58-.08-.09,0-.17,0-.22,.03-.34-.21-.67-.43-.88-.53,.11-.15,.28-.22,.48-.22,.53,0,1.26,.48,1.62,1.12,0,.02-.02,.03-.03,.04,.07,0,.14-.02,.21-.03h0c.25-.03,.51-.05,.78-.07-.02-.07-.02-.16-.02-.25v-.03s.02,.01,.03,.01c.05,0,.05-.13,0-.27,.01-.04,.03-.06,.05-.06,.04,0,.1,.09,.17,.34-.03,.1-.06,.18-.08,.23,.21-.01,.43-.03,.66-.04,.04-.06,.05-.13,.02-.2,.19,.03,.22,.12,.18,.19,.26,0,.52-.01,.8-.01s.54,0,.79,.01c.09-.11,.18-.23,.28-.35,.01,.07,.08,.13,.24,.14,0-.01,0-.02,0-.03,.05,.09,.08,.18,.09,.27,.29,.02,.57,.04,.84,.06,.28,.03,.56,.06,.82,.1,.14,.02,.27,.04,.4,.06,.09,.01,.17,.03,.25,.04,.06,.01,.11,.02,.17,.03,.15,.03,.29,.06,.44,.09,.41,.09,.81,.19,1.18,.3,0,0,.02,0,.02,0,.23,.07,.46,.14,.67,.22,.34,.12,.66,.24,.98,.38,.08,.03,.16,.07,.23,.1,.26,.11,.51,.23,.75,.35,.08,.04,.16,.08,.24,.12,.16,.08,.31,.16,.46,.24,.05,.03,.1,.05,.15,.08,.15,.08,.3,.16,.44,.24,0,0,0,0,0,0,.05,.03,.1,.06,.15,.09,.02,0,.03,.02,.05,.03,.13,.08,.26,.15,.39,.22,.12,.07,.24,.14,.36,.21,.07,.04,.13,.08,.2,.12,.23,.13,.47,.27,.71,.41,.08,.04,.15,.09,.23,.13,.12,.07,.25,.14,.38,.21,.13,.07,.26,.14,.39,.21,.14,.07,.28,.15,.42,.22,.13,.07,.26,.13,.4,.2,.14,.06,.27,.13,.41,.19,.04,.02,.09,.04,.13,.06,.07,.03,.14,.06,.21,.09,.22,.1,.45,.19,.69,.29,.08,.03,.17,.07,.26,.1,.58,.22,1.19,.41,1.84,.58,.13,.03,.27,.07,.41,.1,.25,.06,.51,.11,.78,.16,.36,.07,.72,.13,1.11,.18,.23,.03,.46,.06,.7,.08,.18,.02,.36,.04,.55,.05,.3,.02,.62,.04,.94,.06,.17,0,.35,.01,.52,.02,.11,0,.23,0,.34,0,.1,0,.19,0,.29,0h.07c.18,0,.35,0,.52,0,.13,0,.25,0,.37,0,.19,0,.38-.01,.57-.02,.57-.03,1.11-.08,1.63-.14,.1-.01,.21-.03,.31-.04,.48-.07,.94-.15,1.39-.24,.27-.06,.54-.12,.8-.19,.02,0,.03,0,.05-.01,.07-.02,.15-.04,.22-.06,.15-.04,.29-.08,.43-.12,.13-.04,.25-.08,.38-.12,.1-.03,.2-.06,.29-.1,.02,0,.04-.01,.05-.02,.28-.1,.56-.2,.82-.31,.06-.02,.12-.05,.18-.07,.99-.41,1.87-.87,2.7-1.33,1.64-.92,3.06-1.83,4.78-2.51,1.72-.67,3.78-1.15,6.78-1.15,2.66,0,4.59,.38,6.19,.94,1.2,.42,2.24,.94,3.27,1.52,1.55,.86,3.1,1.87,5.11,2.66,2.01,.79,4.46,1.34,7.72,1.34h.04c2.91,0,5.16-.43,7.04-1.08,1.41-.49,2.6-1.1,3.7-1.71,1.64-.92,3.06-1.83,4.78-2.51,1.73-.67,3.78-1.15,6.78-1.15,2.66,0,4.59,.38,6.19,.94,1.2,.42,2.24,.94,3.27,1.52,1.24,.69,2.49,1.48,3.98,2.18h0c0-.18,.03-.35,.09-.35,.04,0,.1,.09,.17,.34-.01,.04-.02,.08-.03,.11,.29,.13,.59,.26,.9,.38,1.14,.45,2.42,.82,3.92,1.06,.01-.02,.02-.05,.03-.07v.02s-.03,.04-.03,.04c.6,.09,1.22,.17,1.89,.21-.02-.07-.03-.16-.03-.26,0-.17,.03-.34,.09-.34,.04,0,.1,.09,.17,.34-.04,.13-.07,.21-.1,.27,.56,.04,1.16,.06,1.78,.06h.02c.31,0,.6-.11,.83-.29,.09-.07,.16-.15,.23-.24,.17-.22,.27-.5,.27-.8,0-.27-.08-.52-.21-.73-.34,.37-.68,.69-.99,.69-.12,0-.23-.05-.33-.16,.31-.1,.79-.42,1.1-.78-.24-.21-.55-.35-.9-.35-.95,0-1.81-.05-2.59-.14,0,.02-.01,.04-.02,.06,0,.2,.05,.27,.12,.27,.06,0,.14-.05,.22-.11,.08-.05,.16-.11,.21-.11,.08,0,.12,.12,.05,.55-.05,0-.1,0-.15,0-.49,0-.75-.24-.76-.71-.23-.03-.45-.06-.66-.1,.02,.05,.04,.12,.07,.2-.07,.25-.13,.34-.17,.34-.06,0-.09-.17-.09-.34,0-.08,0-.17,.02-.23-.91-.16-1.71-.38-2.44-.63-.85-.3-1.61-.64-2.35-1.02-.02,.02-.05,.05-.08,.08-.18,.17-.26,.23-.27,.23-.02,0,.1-.13,.23-.25,.03-.03,.06-.05,.08-.08-.29-.15-.59-.31-.88-.48-1.54-.86-3.1-1.87-5.11-2.66-2.01-.79-4.46-1.33-7.72-1.33h-.04c-2.91,0-5.16,.43-7.04,1.08-1.41,.49-2.6,1.1-3.69,1.71-1.64,.92-3.06,1.83-4.78,2.51-1.72,.67-3.78,1.15-6.78,1.15-2.66,0-4.59-.38-6.19-.93-1.2-.42-2.24-.94-3.27-1.52-1.54-.86-3.09-1.87-5.11-2.66-2.01-.79-4.46-1.33-7.72-1.33h-.04c-2.91,0-5.16,.43-7.04,1.08-1.41,.49-2.6,1.1-3.7,1.71-1.64,.92-3.06,1.83-4.78,2.51-.25,.1-.51,.19-.78,.28-.07,.02-.14,.05-.21,.07-1.3,.41-2.81,.7-4.74,.78-.06,0-.12,0-.18,0-.28,0-.57,.01-.87,.01-.97,0-1.85-.05-2.64-.14-.11-.01-.22-.03-.32-.04-.4-.05-.77-.11-1.13-.19-.06-.01-.12-.02-.18-.04-.48-.1-.93-.22-1.36-.35-.02,0-.03,0-.05-.01-.17-.05-.34-.11-.51-.17,0,0,0,0,0,0-.07-.02-.13-.05-.2-.07-.08-.03-.15-.05-.22-.08-.06-.02-.13-.05-.19-.07-.49-.19-.96-.41-1.42-.64-.04-.02-.08-.04-.12-.06-.38-.19-.75-.39-1.12-.6-.71-.39-1.41-.82-2.17-1.24-.31-.17-.62-.34-.94-.51-.49-.25-1.01-.5-1.55-.73-.08-.03-.15-.06-.23-.09-.07-.03-.15-.06-.22-.09-1.56-.61-3.39-1.08-5.66-1.26,.05,.2,.13,.41,.24,.6,.08,.15,.1,.21,.1,.21-.02,0-.28-.44-.59-.83-.12,0-.25-.01-.37-.02-.14,0-.29-.01-.44-.02-.09,0-.19,0-.28,0-.04,.07-.07,.1-.09,.1-.03,0-.05-.04-.07-.11-.13,0-.26,0-.4,0,.01,.02,.02,.04,.03,.07-.1,.16-.19,.26-.25,.31-.05,0-.1,.01-.15,.02-.05-.05-.05-.17-.03-.29,0-.04,.02-.08,.03-.12-.53,0-1.04,.02-1.53,.05,.08,.25,.31,.48,.51,.48,.09,0,.17-.05,.23-.16,.45,.13,.16,.39-.09,.74-.16,.23-.31,.49-.21,.77-.92-.37,.44-1.15-.3-1.5-.28,.22-.6,.49-.84,.49-.2,0-.34-.18-.36-.71-.13,.01-.27,.03-.4,.05,.01,0,.02,.01,.03,.02,0,0-.01,0-.03-.02-.32,.04-.63,.09-.94,.14-.03,0-.07,.01-.1,.02,.06,.08,.12,.15,.16,.19,.02,.05,.05,.09,.07,.14-.35,.05-.85-.05-.9,.3h0c.17,0,.34,.24,0,.3-.34-.27-.69-.44-1.05-.54-.39,.11-.76,.22-1.12,.35-.06,.02-.13,.04-.19,.07h.05c.47,0,.78,.05,.81,.73Zm118.37,6.65c.15,0,.29,.1,.3,.26-.15,.11-.31,.21-.42,.21-.09,0-.15-.06-.18-.21,.03-.18,.17-.26,.3-.26Zm-.91,.26c-.18,.17-.26,.23-.27,.23-.02,0,.1-.12,.23-.25,.12-.13,.26-.25,.27-.25,.01,0-.05,.07-.23,.27Zm-1.06-.8c.08,0,.16,.1,.16,.19,.41-.03,1.17-1.17,.6-1.2,.02-.14,.08-.19,.14-.19,.08,0,.16,.1,.16,.19,.03,0,.06,.01,.09,.01,.17,0,.2-.15,.21-.31,.44,.25-.47,1.69-1.15,1.69-.13,0-.25-.05-.36-.18,.02-.14,.08-.19,.14-.19Zm-1.04-.11c0,.29-.37,.23-.6,.3,0-.29,.37-.23,.6-.3Zm-1.34-.07c.12-.13,.27-.25,.31-.25,.04,0,0,.08-.17,.32-.18,.13-.28,.18-.31,.18-.05,0,.05-.13,.17-.25Zm-2.01-1.76c.12-.13,.26-.25,.27-.25,.01,0-.05,.07-.23,.27-.18,.17-.26,.23-.27,.23-.02,0,.1-.13,.23-.25Zm-99.69-4.18c.18,.2,.24,.27,.23,.27-.02,0-.15-.13-.27-.25-.12-.13-.24-.25-.23-.25,.01,0,.09,.06,.27,.23Zm-4.85-1.53s.05-.05,.07-.07c.01,0,.03,.01,.04,.02-.02,.02-.04,.05-.07,.08-.18,.17-.26,.23-.27,.23-.02,0,.1-.13,.23-.25Zm-.86,.32c.27,.13,.54,.26,.6,.6,.26-.14,.41-.22,.48-.22,.09,0,.01,.16-.18,.52-.27-.13-.54-.26-.6-.6-.26,.14-.41,.22-.48,.22-.09,0-.02-.16,.18-.52Zm-2.71,1.76c-.15,0-.3-.1-.3-.26,.04-.14,.09-.19,.13-.19s.11,.05,.18,.1c.01,0,.03,.02,.05,.03-.09,.19-.12,.27-.05,.27,.04,0,.13-.03,.26-.1-.06,.1-.16,.15-.27,.15Zm-.63-1.32s-.09,.08-.13,.13c-.12,.13-.24,.25-.23,.25,.01,0,.09-.06,.27-.23,.06-.06,.1-.12,.14-.16,0,0,.02,0,.03,0,.22,0,.48,.1,.85,.17-.24,.28-.66,.49-1.02,.49-.19,0-.36-.06-.48-.19,.2-.32,.37-.44,.57-.47Zm-2.21,1.97c-.12,.12-.21,.19-.27,.24-.04-.04-.09-.07-.14-.1,.02-.08,.07-.17,.11-.27,.06-.12,.12-.24,.16-.32,.05,.15,.09,.3,.14,.44Zm-.28-.32s-.02,0-.03,0c-.2,0-.48,.1-.7,.2-.09,.04-.16,.07-.22,.11,.1-.5,.4-1.06,.77-1.19,.13,.21,.22,.46,.31,.72-.03,.04-.07,.09-.12,.17Zm-1.37-11.28c.19,0,.32-.03,.42-.07-.05,.07-.09,.15-.13,.23,.23-.09,.47-.18,.72-.26,0,0,0,0-.01-.01,0,0,.01,0,.02,.01,.04-.01,.09-.03,.13-.04,.02-.33-.02-.72,.29-.76-.13,.23-.1,.48,0,.67,.15-.04,.3-.09,.45-.13-.17-.14-.15-.49,.15-.55,.04,.15,.09,.2,.13,.2,.09,0,.12-.27-.13-.5,.03,0,.07,0,.1,0,.09,.08,.16,.15,.17,.15,0,0-.02-.04-.11-.15,.04,0,.07,0,.11,0,.04,0,.08,0,.13,0s.09,0,.13,0c.32,0,.62,.03,.68,.29-.1,.03-.23,.03-.34,.05-.03-.1-.09-.17-.22-.17-.05,.16-.03,.38-.11,.5,.12-.03,.25-.05,.38-.08,0-.01,0-.02,0-.03,.32-.07,.49-.29,.6-.58-.56-.34-1.45-.35-1.2-1.5-.35,.05-.85-.05-.9,.3,.37,.03,.71,.09,.6,.6-.03,0-.06,0-.1,0-.24,0-.44-.22-.62-.44-.18-.22-.33-.45-.49-.45-.09,0-.19,.08-.29,.28,.67,.43,.25,.44-.05,.44h-.04c-.2,0-.32,0,.08,.16-.02,.22,.01,.29,.08,.29,.04,0,.08-.02,.13-.05-.09,.09-.16,.17-.15,.17,.01,0,.09-.06,.27-.23,.03-.04,.06-.07,.09-.1,.1-.08,.21-.15,.29-.15,.1,0,.17,.09,.18,.36-.77,.03-.43,1.17-1.2,1.2-.05-.02-.09-.04-.12-.08,.04-.02,.1-.11,.16-.34-.07-.23-.12-.33-.16-.34,.05-.19,.1-.34,.05-.34-.03,0-.1,.06-.23,.2-.5,.6,.03,.38,0,1.2,.02,0,.04,0,.06,0Zm3.61-.71s-.02,0-.03,0c0,0,0,0,0,.01,0,0,.02,0,.03,0Zm.97,9.55c.12,0,.19-.1,.18-.22-.17,.01-.34,.03-.51,.05,.14,.13,.25,.18,.33,.18Zm-2.5,.36c0-.07,0-.13,0-.2-.05,.01-.1,.02-.15,.03,.03,.06,.08,.12,.14,.17Zm1.55-12.23c.13,.11,.26,.22,.32,.27-.02-.02-.04-.04-.07-.06-.1-.08-.18-.15-.25-.21,.14-.07,.26-.16,.37-.26,.07-.06,.14-.12,.21-.17-.09,.01-.17,.02-.26,.03-.04,.04-.07,.09-.11,.13-.04-.03-.08-.07-.1-.11-.21,.03-.41,.06-.61,.09-.02,.09-.07,.19-.19,.32,.11,.04,.22,.06,.31,.06,.14,0,.26-.04,.38-.09Zm-11.76,18.24c.05,.09,.1,.17,.13,.23-.12-.21-.27-.47-.27-.47,0,0,.04,.07,.14,.24Zm-1.54,1.76c.3-.08,.59-.16,.87-.25,0,0,0-.02,0-.03,0-.17,.03-.34,.09-.34,.04,0,.09,.08,.16,.29,.09-.03,.18-.06,.27-.09,.14-.05,.27-.1,.41-.15-.03-.46,.02-.89,.35-1.09-.15,.03-.31,.07-.46,.12-.84,.26-1.63,.72-1.67,1.53Zm127.53,34.7s-.03,.05-.06,.1c.03-.04,.05-.08,.06-.1Zm-155.33-16.23c-.12-.04-.22-.06-.3-.06-.06,0-.12,.01-.17,.03,.09,.02,.18,.03,.27,.03,.06,0,.13,0,.19,0Zm.76-36.94h-.9c-.05,.18-.03,.44-.15,.55,.03,0,.06,0,.1,0,.15,0,.3,0,.44,0-.08-.04-.12-.11-.09-.26,.23-.07,.59,0,.6-.3Zm-1.57-.38c-.07,0-.05,.3,.06,.6,.04,.09,.08,.18,.13,.26,.05,.02,.1,.03,.16,.04-.17-.67-.29-.91-.35-.91Zm3.01,34.79s.05-.02,.08-.02c-.02,0-.05,0-.07,0,0,0,0,.02,0,.03Zm-1.77,2.1v-.09s-.03,.09-.03,.09h.03Zm1.47-1.8c-.06-.02-.12-.04-.17-.04-.26,0-.48,.24-.58,.47-.11,.24-.1,.47,.11,.47,.02,0,.03,0,.05,0,.03-.47,.77-.24,.6-.9Zm-.53-34.72c-.05,.28-.24,.41-.4,.58,.35,.02,.69,.04,1.01,.07-.05-.37-.24-.6-.61-.65Zm150.93,43.12c.74,.11,1.53,.19,2.37,.23,.36-.97,.54-1.87-.34-2.02,.32-.19,.52-.4,.63-.63-.17,0-.34-.02-.51-.03-.12,.24-.25,.47-.43,.66-.39-.11-.47-.53-.9-.6,.02-.09,.06-.15,.11-.17-.48-.06-.94-.13-1.37-.22,.02,.03,.04,.06,.06,.09-.09,.2-.17,.27-.24,.27-.1,0-.18-.16-.2-.31,0-.04-.01-.09-.01-.13-.38-.09-.75-.19-1.1-.29,.02,.1,.04,.25,.05,.47-.1,.2-.17,.27-.21,.27-.08,0-.08-.22-.05-.44,.02-.13,.04-.26,.08-.34-.13-.04-.26-.09-.39-.13-.09-.03-.17-.06-.25-.09-.13,.19-.28,.26-.38,.26-.18,0-.26-.21-.03-.42-.28-.11-.56-.23-.83-.36h-.03c-.11,0-.22-.05-.27-.14-.5-.24-.99-.5-1.47-.77-1.54-.86-3.1-1.87-5.11-2.66-2.01-.79-4.46-1.33-7.72-1.33h-.04c-2.91,0-5.16,.43-7.04,1.08-1.41,.49-2.6,1.1-3.69,1.71-1.64,.92-3.06,1.83-4.78,2.51-1.72,.67-3.78,1.15-6.78,1.15-2.66,0-4.59-.38-6.19-.93-1.2-.42-2.24-.94-3.27-1.52-1.54-.86-3.09-1.87-5.11-2.66-1.33-.52-2.85-.94-4.67-1.16,0,0-.02,0-.03,0-.13-.02-.26-.03-.39-.04-.1-.01-.19-.02-.29-.03-.52-.05-1.07-.08-1.65-.09-.11,0-.22,0-.34,0-.12,0-.24,0-.37,0h-.1c-.2,0-.41,0-.61,0-.11,0-.23,0-.34,0-.29,.01-.57,.03-.85,.04-.02,0-.04,0-.06,0-1.46,.11-2.74,.33-3.89,.64-.1,.03-.2,.06-.31,.09-.18,.05-.35,.1-.52,.16-.14,.04-.28,.09-.41,.14-.03,0-.06,.02-.09,.03-1.37,.48-2.53,1.08-3.6,1.68-1.64,.92-3.06,1.83-4.78,2.51-1.73,.67-3.78,1.15-6.78,1.15-2.66,0-4.59-.38-6.19-.93-1.2-.42-2.24-.94-3.27-1.52-1.54-.86-3.09-1.87-5.11-2.66-2.01-.79-4.46-1.33-7.72-1.33h-.04c-2.91,0-5.16,.43-7.04,1.08-1.41,.49-2.6,1.1-3.7,1.71-1.64,.92-3.06,1.83-4.78,2.51-1.72,.67-3.78,1.15-6.78,1.15-2.66,0-4.59-.38-6.19-.93-1.2-.42-2.24-.94-3.27-1.52-.28-.15-.55-.31-.83-.47-.18,.07-.48,.15-.93,.22,.16,.24,.31,.49,.3,.9-.53,0-.42-.64-.95-.64-.07,0-.15,.01-.25,.04,.51-.44,1.06-.66,1.46-.73-.84-.49-1.72-.99-2.7-1.45,.27,.22,.63,.92,.63,1.28-1.34-.02-.38-.69-.9-1.2,.02-.1,.06-.15,.12-.15-.34-.16-.69-.31-1.06-.46-.02,0-.04-.02-.07-.03-.19,.19-.28,.33,.25,.33,.05,0,.1,0,.16,0-.13,.57-.65,.76-.6,1.5-1.16-.32,.26-1.5-.1-1.94-.15-.05-.3-.11-.46-.16-.01,0-.03,0-.04,0,0,0,0,0,0-.01-.18-.06-.36-.12-.54-.17-.05,.21,0,.46,.24,.79,.36,.14,.34,.22,.21,.22-.19,0-.6-.16-.51-.52-.03,0-.06-.01-.09-.01-.17,0-.2,.15-.21,.31-.63-.09,.45-.81-.6-.9,.02-.05,.04-.1,.07-.13-.13-.03-.26-.06-.4-.09-.14,.32-.31,.62-.57,.82-.23,.07-.59,0-.6,.3,.23,.07,.59,0,.6,.3-.11,.01-.22,.02-.32,.02-.5,0-.82-.18-.88-.62,.05-.31,1.83-.3,.9-.6-.44,.13-.67,.2-.9,.2s-.46-.07-.9-.2c.03,.6,.05,1.15-.2,1.15-.09,0-.22-.07-.4-.25,.08,.52-.14,.84-.19,1.07,.14,0,.29,.02,.43,.03,0-.69,.73-.64,.97-1.1h0c-.17,0-.34-.24,0-.3,.07,.43,.49,.51,.6,.9,.46,.29,.56,.47,.83,.47,.15,0,.34-.05,.67-.17-.22-.89-.18-1.23-.08-1.23,.16,0,.47,.89,.08,1.83-.11-.02-.22-.04-.33-.04-.07,0-.15,0-.22,.02,.41,.09,.79,.2,1.16,.31-.25-.3-.22-.42-.11-.42,.17,0,.55,.26,.49,.55,.03,.01,.07,.02,.1,.03,.63,.22,1.22,.47,1.78,.74,.1-.14,.23-.25,.43-.29,.08-.22,.15-.3,.18-.3,.05,0,.05,.15,0,.31-.06,.15-.18,.31-.37,.31-.03,0-.07,0-.1-.01,.02,.03,.04,.05,.06,.08,.44,.22,.87,.45,1.3,.69,1.55,.86,3.09,1.87,5.11,2.66,2.01,.79,4.46,1.34,7.72,1.34h.04c2.91,0,5.17-.43,7.05-1.08,1.41-.49,2.6-1.1,3.7-1.71,1.64-.92,3.06-1.83,4.78-2.51,1.73-.67,3.78-1.15,6.78-1.15,2.66,0,4.59,.38,6.19,.94,1.2,.42,2.24,.94,3.27,1.52,1.55,.86,3.1,1.87,5.11,2.66,2.01,.79,4.46,1.34,7.72,1.34h.04c2.91,0,5.16-.43,7.04-1.08,1.41-.49,2.6-1.1,3.7-1.71,1.64-.92,3.06-1.83,4.78-2.51,.87-.34,1.82-.63,2.93-.83,.02,0,.04,0,.06-.01,.81-.15,1.7-.25,2.71-.29,.35-.01,.71-.02,1.08-.02,.1,0,.2,0,.3,0,.19,0,.38,0,.56,.01,.06,0,.12,0,.18,0,.49,.02,.95,.05,1.38,.1,.27,.03,.53,.06,.78,.1,.27,.04,.54,.09,.8,.14,.25,.05,.49,.1,.72,.15,.1,.02,.19,.05,.28,.07,.28,.07,.55,.15,.81,.24,.13,.04,.25,.08,.37,.12,.11,.04,.22,.07,.32,.12,.28,.1,.55,.21,.81,.33,.11,.05,.23,.1,.34,.15,.62,.28,1.2,.6,1.79,.92,1.55,.86,3.1,1.87,5.11,2.66,2.01,.79,4.46,1.34,7.72,1.34h.04c2.91,0,5.16-.43,7.04-1.08,1.41-.49,2.6-1.1,3.7-1.71,1.64-.92,3.06-1.83,4.78-2.51,1.73-.67,3.78-1.15,6.78-1.15,2.66,0,4.59,.38,6.19,.94,1.2,.42,2.24,.94,3.27,1.52,1.54,.86,3.09,1.87,5.11,2.66,1.16,.46,2.46,.83,3.98,1.06-.03-.11-.08-.25-.12-.38-.09-.32-.18-.64-.17-.64,0,0,.07,.2,.25,.75,.03,.11,.05,.21,.07,.28Zm.37-1.25c.13,0,1.45,.32,1.66,.37,.58,.19-.69,.07-1.2,.6,.08-.48-.28-.52-.3-.9-.15-.05-.19-.07-.16-.07Zm-144.81-4.7c-.09,0-.11-.16-.09-.31,.03-.16,.1-.31,.2-.31,.07,0,.15,.07,.24,.27-.17,.26-.28,.36-.35,.36Zm7.09,4.19c-.06,0-.09-.17-.09-.34s.03-.34,.09-.34c.04,0,.1,.09,.17,.34-.07,.25-.13,.34-.17,.34Zm134.7,.01c-.06,0-.09-.17-.09-.34s.03-.34,.09-.34c.04,0,.1,.09,.17,.34-.07,.25-.13,.34-.17,.34Zm1.68,1.16c-.18,.17-.26,.23-.27,.23-.02,0,.1-.12,.22-.25,.12-.13,.26-.25,.27-.25,.01,0-.04,.07-.22,.27Zm-148.98-5.48c.2,.02,.39,.05,.58,.07,.19-.21,.35-.43,.48-.62-.05,0-.09,0-.13,0-.43,0-.67,.25-.93,.55Zm-1.32-.1c.08-.37,.31-.98,.21-.98-.03,0-.11,.07-.23,.24-.05,.2-.2,.31-.45,.31-.04,0-.07,0-.12,0,.02,.14,.04,.28,.06,.43,.18,0,.36,.01,.53,.02Zm152.24,18.3s-.08,.03-.11,.1c.09,0,.17,.02,.26,.03-.03-.07-.09-.13-.15-.13Zm3.07-.4c-.13,0-.29,.04-.49,.07-.2,.04-.44,.07-.74,.07s-.65-.04-1.08-.15c-.05,.29-.26,.43-.49,.54,.27,.03,.55,.05,.83,.06,.03-.16,.09-.29,.26-.31,.21,.15,.54,.22,.91,.22,.41,0,.85-.08,1.2-.22-.1-.23-.22-.3-.39-.3Zm-155.94-19.24c-.03,.26-.01,.53,.02,.81,.1-.32,.47-.61-.02-.81Zm2.72-.54c.07,0,.17-.02,.29-.06,.28-.17,.31-.32,.24-.46-.31-.05-.63-.09-.95-.13,.06,.07,.09,.18,.11,.28,.04,.18,.09,.37,.31,.37Zm151.21,18.58c.15-.61-.25-.67-.48-.89-.18-.02-.35-.03-.52-.05,.42,.43,.68,1.02,.7,1.55,.07-.23,0-.59,.3-.6Zm.69-10.53s-.05,0-.09,.01c.04,.08,.07,.16,.09,.23,.07,0,.13,0,.2,0-.02-.13-.06-.24-.21-.24Zm.21,10.22s.04-.06,.05-.09c-.1,.17-.28,.47-.34,.57,.04-.06,.13-.21,.29-.49Zm-114.36-53.84s.07-.03,.16-.12c.43-.07,.51-.49,.9-.6,.2,.8,.07,1.24,.17,1.24,.07,0,.26-.2,.73-.64,.33,.6-.01,1.1,.17,1.1,.05,0,.14-.04,.3-.13,0,.07,0,.14-.02,.2,.06,0,.13,0,.19,0,.09,0,.19,0,.28-.01h.02c-.03-.27-.15-.46-.27-.65,0-.01,0-.02-.01-.03,.06-.03,.12-.04,.18-.04,.04,0,.08,0,.12,.02-.02,.03-.04,.08-.05,.15,.34,.01,.4,.31,.77,.31,.04,0,.09,0,.14-.01,.01-.15,.03-.3,.08-.41,.11,.02,.2,.04,.29,.04-.04,.09-.05,.2-.04,.3-.24,.1-.48,.22-.69,.33h.18c.22,0,.43,0,.63,0,.1,0,.19,0,.28,0,.64,.02,1.24,.07,1.79,.14,0-.21,.19-.42,.35-.42,.12,0,.23,.13,.2,.5,1.11,.17,2.06,.41,2.92,.71,1.2,.42,2.24,.94,3.27,1.52,1,.56,2,1.17,3.12,1.75,.09,.05,.18,.09,.27,.14,.54,.27,1.11,.53,1.72,.77,2.01,.79,4.46,1.34,7.72,1.34h.04c2.91,0,5.16-.43,7.04-1.08,1.41-.49,2.6-1.1,3.7-1.71,1.64-.92,3.06-1.83,4.78-2.51,1.72-.67,3.78-1.15,6.78-1.15,2.66,0,4.59,.38,6.19,.93,1.2,.42,2.24,.94,3.27,1.52,1.55,.86,3.1,1.87,5.11,2.66,2.01,.79,4.46,1.34,7.72,1.34h.04c2.91,0,5.16-.43,7.04-1.08,1.41-.49,2.6-1.1,3.7-1.71,1.64-.92,3.06-1.83,4.78-2.51,1.73-.67,3.78-1.15,6.78-1.15,2.66,0,4.59,.38,6.19,.93,1.2,.42,2.24,.94,3.27,1.52,.84,.47,1.67,.98,2.59,1.47,.04-.04,.07-.06,.08-.06,0,0,0,.02-.05,.08,.77,.42,1.58,.82,2.5,1.18,.4,.16,.81,.3,1.24,.44,0-.18-.15-.2-.31-.22,.1-.14,.19-.19,.27-.19,.17,0,.3,.25,.4,.52,.32,.09,.65,.18,1,.26-.09-.06-.19-.16-.29-.26-.16-.16-.31-.32-.46-.32,0,0-.01,0-.02,0-.09-.36,.32-.52,.51-.52,.13,0,.15,.08-.21,.22,.22,.28,.55,.46,.9,.6-.06,.2-.14,.3-.22,.33,.18,.04,.37,.08,.56,.11,.03-.06,.08-.09,.13-.09,.09,0,.21,.07,.34,.17,.28,.04,.56,.08,.86,.12,.03-.03,.04-.05,.05-.05,.01,0,.02,.02,0,.05,.16,.02,.33,.04,.5,.05,.07-.09,.14-.13,.2-.13,.08,0,.14,.06,.19,.16,.33,.03,.66,.04,1.01,.06-.31-.36-.79-.55-.92-1.1,.06-.17,.12-.24,.19-.24,.26,0,.57,.94,.71,1.15,.96-.14,1.06-1.14,2.1-1.2-.2,.33-.03,.6,.12,.81,.05-.08,.09-.17,.13-.26-.01-.13,0-.3,.05-.55,0,0,.02,0,.03,.01-.02-.34-.17-.65-.4-.88-.06-.02-.13-.04-.19-.04-.01,0-.03,0-.04,0-.25,.85-.84,1.37-1.8,1.5,.58-.67,.73-.73,.58-.73-.02,0-.04,0-.06,0s-.05,0-.09,0c-.16,0-.41-.02-.73-.17,.44-.22,.79-.54,1.05-.94-.08,0-.16,0-.23,0-.02,.03-.04,.04-.07,.04-.03,0-.06-.02-.09-.05-.17,0-.34-.01-.51-.02-.1,.16-.21,.28,.14,.37-.73,.53-.9,.7-1.8,1.5,.19-.82,.6-1.41,1.2-1.8,0-.04-.02-.07-.03-.1-.1,0-.2-.02-.3-.02-.12,.07-.25,.19-.37,.3-.19,.18-.35,.36-.4,.36-.04,0,0-.14,.19-.55-1.46,.06,.46,1.8-1.12,1.8-.03,0-.05,0-.08,0,.16-.24,.31-.49,.3-.9-.15,.14-.26,.19-.36,.19-.15,0-.28-.12-.54-.19v.6c.3,.15,.32,.22,.22,.22-.18,0-.78-.27-.52-.82,.24-.21,.6-.3,1.05-.3,.05,0,.1,0,.15,0-.08-.28-.1-.61-.1-.92-.3-.05-.59-.11-.87-.17-.09,.15-.23,.26-.24,.49-.05,.14-.1,.19-.15,.19-.07,0-.12-.12-.11-.25,0-.12,.08-.25,.24-.25h.02c-.05-.1-.1-.19-.15-.28-.47-.12-.91-.25-1.33-.39-.09-.03-.17-.06-.25-.09,.14,.27,.19,.38,.11,.38-.07,0-.22-.08-.48-.22-.03-.12,0-.21,.04-.29-.25-.1-.49-.2-.72-.3h0c-.08,0-.12-.03-.15-.07-.15-.07-.3-.14-.45-.22,.08,.08,.11,.26,.13,.44,.03,.24,.03,.49,.08,.49,.03,0,.09-.09,.18-.34,.34,.06,.17,.3,0,.3h0c-.06,.26,.12,.28,.3,.3-.04,.13-.11,.19-.2,.19-.34,0-.9-.77-.7-1.39,.04-.02,.07-.03,.1-.03h0c-.42-.21-.84-.43-1.25-.66-.42-.24-.85-.49-1.28-.74-.06,.2-.11,.27-.15,.27-.06,0-.09-.17-.09-.34,0-.02,0-.04,0-.06-1.08-.62-2.23-1.25-3.59-1.79-2.01-.79-4.46-1.34-7.72-1.34h-.04c-2.91,0-5.16,.43-7.04,1.08-1.41,.49-2.6,1.1-3.69,1.71-1.64,.92-3.06,1.83-4.78,2.51-1.72,.67-3.78,1.15-6.78,1.15-2.66,0-4.59-.38-6.19-.94-1.2-.42-2.24-.94-3.27-1.52-1.54-.86-3.09-1.87-5.11-2.66-2.01-.79-4.46-1.34-7.72-1.34h-.04c-2.91,0-5.17,.43-7.04,1.08-1.41,.49-2.6,1.1-3.7,1.71-1.64,.92-3.06,1.83-4.78,2.51-1.73,.67-3.78,1.15-6.78,1.15-2.66,0-4.59-.38-6.19-.94-1.2-.42-2.24-.94-3.27-1.52-1.44-.8-2.88-1.73-4.7-2.49-.07,.04-.12,.06-.14,.06-.03,0,0-.04,.04-.1-.1-.04-.21-.09-.31-.13-.63-.25-1.29-.47-2.01-.66-.05-.01-.11-.03-.16-.04-.16-.04-.33-.08-.5-.12-.11-.03-.23-.05-.35-.07-.03,0-.07-.01-.1-.02-.23-.05-.47-.09-.71-.13-.08-.01-.15-.02-.23-.04,.08,.08-.04,.17-.11,.31-.01-.11,0-.22,.06-.32-.14-.02-.29-.04-.44-.06-.12-.02-.24-.03-.37-.04-.03,.05-.05,.08-.08,.08-.03,0-.05-.04-.06-.09-.4-.04-.81-.07-1.23-.1-.46-.02-.94-.04-1.43-.04h-.04c-.28,0-.55,0-.81,.01-.23,0-.45,.02-.67,.03-.21,0-.41,.02-.61,.04,.06,.05,.12,.13,.18,.22-.03,0-.06,0-.1,0-.32,0-.69,.26-.99,.55-.04,.04-.08,.07-.11,.11-.32,.33-.52,.66-.46,.66Zm109.55,4.27c.18,.2,.24,.27,.23,.27-.02,0-.15-.13-.27-.25-.13-.13-.24-.25-.23-.25,.01,0,.09,.06,.27,.23Zm-.6,.6c.18,.2,.24,.27,.23,.27-.01,0-.15-.13-.27-.25-.13-.13-.24-.25-.23-.25,.01,0,.09,.06,.27,.23Zm-1.42,0s.09,0,.13,0c.04,0,.09,0,.13,0,.09,0,.18,0,.27-.01-.06,.26-.36,.29-.68,.29h-.13s-.08,0-.13,0c-.09,0-.18,0-.27,.01,.06-.26,.36-.29,.68-.29Zm-1.22-1.85c.07,0,.15,.01,.24,.04-.43,.2-.03,1.24-.66,1.24-.07,0-.15-.01-.24-.04,.43-.2,.03-1.24,.66-1.24Zm-1.57-.9c.14,0,.24,.24,.37,.47,.12,.24,.26,.47,.47,.47,.02,0,.05,0,.07,0-.06,.17-.12,.24-.19,.24-.12,0-.27-.21-.43-.42-.16-.21-.34-.42-.54-.42-.01,0-.03,0-.04,0,.12-.24,.21-.33,.3-.33Zm-.95,.88c.07,0,.19,.1,.35,.36-.09,.2-.17,.27-.24,.27-.1,0-.18-.16-.2-.31-.03-.16,0-.31,.09-.31Zm-2.7-2.37c.13-.12,.26-.25,.27-.25,.01,0-.04,.07-.23,.27-.18,.17-.26,.23-.27,.23-.02,0,.1-.13,.22-.25Zm-91.2,.73c.07,.06,.14,.12,.22,.19,.02,0,.04,0,.05,0,.02,.01,.04,.02,.06,.02,.06,0,.12-.05,.14-.2,0,0-.02,0-.03,0,.04-.12,.04-.29,.07-.41,.53,.22,.04,.55,0,.9-.37-.07-.67-.18-.89-.3,.07-.12,.19-.18,.37-.19Zm-2.15-.61h.02c.03,.07,.04,.1,.04,.1,0,0-.03-.04-.06-.1Zm-.03-.12s-.01,.02-.02,.03c-.09-.19-.22-.49-.27-.73,.08,.08,.16,.16,.24,.24,0-.24,.19-.29,.35-.36,.05,.42-.28,.47-.31,.82Zm.08-1.04c-.17-.04-.32-.12-.42-.23,.15,.07,.3,.15,.42,.23Zm-1.37-.21c.08-.05,.19-.09,.35-.12,.16,.16,.32,.33,.48,.49-.41,.04-.63,.26-.74,.6-.28-.23-.23-.55-.09-.97Zm-3.26,1.09s0-.01,0-.02c0,0,.01,0,.02,.01,0,0,0,0-.02,0Zm2.95-1.46s.09,0,.14,0c0,.05,0,.1,0,.14-.25,.06-.34,.29-.64,.3-.03-.32,.18-.44,.5-.44Zm-.84,1.16s-.01-.05-.02-.07c.1-.03,.22-.05,.35-.05,0,0,0,0,.01,0,0,.24,.16,.33,.25,.48-.05,.04-.1,.1-.13,.16-.16,.07-.23,.22-.42,.26,.02-.25-.06-.39-.2-.44,.04-.02,.09-.11,.16-.34Zm-.2,.32s-.1-.02-.15-.02c-.12,0-.26,.03-.41,.07-.02-.05-.04-.11-.05-.16,.18-.03,.32-.09,.46-.16,.03-.01,.06-.03,.1-.04,0,.13,.02,.26,.06,.31Zm-.07-2.02c0,.18,0,.37-.06,.51-.09,.01-.17,.03-.25,.06-.02-.08-.02-.15-.03-.22,.14-.12,.26-.24,.34-.35Zm-.55,1.55c.02-.15,.07-.3,.15-.44,.01,.17-.03,.33-.15,.44Zm0-1.02s.03,.08,.05,.13c-.14,.08-.25,.18-.35,.3-.02-.05-.03-.11-.04-.18,.12-.08,.24-.16,.35-.25Zm-2.56-.35c.04,.07,.08,.14,.13,.21,.04-.15,.42-.36,.74-.46-.06,.06-.12,.12-.18,.19-.22,.26-.35,.52-.24,.52,.04,0,.12-.04,.24-.13,.18-.26,.42-.41,.65-.47,0,.02,0,.03,0,.05-.3,.78-1.76,.78-1.2,.9,.12,.14,.24,.19,.35,.19,.27,0,.5-.35,.77-.7,.13-.18,.28-.35,.44-.49,.22,.01,.41,.09,.5,.21,0,.07,0,.13-.02,.18h-.04c-.49,0-.72,.26-.9,.56-.13,.02-.18,.03-.06,.1-.05,.08-.09,.16-.14,.24,.05,0,.09,.01,.13,.01,.2,0,.32-.08,.41-.19,.1-.03,.22-.09,.34-.15-.06,.39-.28,.42-.17,.66-.02,.02-.04,.04-.06,.06-.11-.06-.22-.08-.33-.08-.15,0-.3,.04-.44,.08-.08,.02-.16,.05-.24,.06-.2-.46-.47-.81-1.19-.95,.13-.14,.31-.38,.52-.62Zm1.93,.57s-.1,.06-.15,.08c.04-.05,.09-.1,.15-.14,0,.02,0,.04,0,.06Zm110.79,44.02c-.1,0-.2,.1-.24,.38h0c.13,0,.26,.15,.16,.24,.17,0,.34,0,.51,0,0-.04-.01-.09-.02-.13-.07-.25-.25-.49-.41-.49Zm1.83-1.12c-.17-.53-.67-.92-1.26-.92-.16,0-.32,0-.48,0,.04,.37,.05,.78-.02,1.21,.05-.22,.27-.48,.43-.48,.07,0,.14,.05,.17,.18-.38,.12-.61,.39-.6,.9,.36,.22,.66,.49,.95,.77,.08-.03,.17-.07,.24-.12-.07-.55-.48-.75-.59-1.25,0,0,.01,0,.02,0,.14,0,.3,.16,.46,.32,.15,.16,.31,.32,.45,.32,.1,0,.2-.09,.28-.34-.29,0-.37-.5-.03-.59Zm-.44,11.97c-.06,0-.09,.17-.09,.34s.03,.34,.09,.34c.04,0,.1-.09,.17-.34-.07-.25-.13-.34-.17-.34Zm-125.81-38.43c-.09,.24-.37,.27-.7,.27-.06,0-.13,0-.2,0-.07,0-.13,0-.2,0-.35,0-.66,.04-.71,.33,.43,.07,.51,.49,.9,.6,.07-.23,0-.59,.3-.6-.01,.41,.14,.66,.3,.9-.09,0-.19,.02-.3,.04,.02,.27,.24,.33,.3,.57-.08-.04-.15-.06-.22-.06-.26,0-.43,.24-.54,.52,.23-.09,.45-.19,.67-.28,.32-.56,.5-.91,.09-1.99h.04c.31,0,.71-.15,.26-.3Zm-24.26-14.89c-.23,.07-.59,0-.6,.3,.23-.07,.59,0,.6-.3Zm1.8,.6c-.88,.07-.19,.8-1.12,1.17,.01,0,.03,.01,.04,.02,.68-.07,1.04-.47,1.08-1.19Zm-2.72,.54s.09,.03,.14,.05c.09,.03,.18,.06,.27,.1,.2-.19,.63-.16,.5-.68-.07-.03-.14-.04-.21-.04-.34,0-.66,.31-.7,.58Zm148.39,39.23c-.29-.02-.57-.05-.84-.08,.14,.08,.28,.27,.32,.45,.28-.02,.44-.16,.52-.37Zm.68,13.89c.24,.04,.44,.06,.58,.06,.35,0,.46-.1,.43-.2-.03-.1-.2-.2-.41-.2-.19,0-.42,.09-.61,.34Zm-150.55-54.26c.02,.19-.27,.41-.46,.62,.13,.03,.27,.05,.4,.08,.24-.33,.53-.65,.07-.71Zm35.48,.73c-.02-.07-.09-.14-.15-.14-.06,0-.12,.05-.14,.2,0,0,0,0,.01,0,.09-.02,.18-.04,.28-.07Zm-27.55,3.14c-.06,0-.09,.17-.09,.34,0,.06,0,.12,.01,.17,.05,.03,.1,.05,.16,.08,.03-.05,.06-.14,.09-.26-.07-.25-.13-.34-.17-.34Zm1.03,22.35c-.22-.12-.45-.24-.67-.37h0c-.31,.08-.41,.24,.04,.76,.18-.23,.4-.34,.63-.39Zm-.03,.39c.17,.3,.56,.44,.82,.44,.23,0,.37-.11,.18-.35-.03-.02-.07-.03-.1-.05-.02,.14-.05,.26-.21,.26-.02,0-.05,0-.09,0-.05-.22-.27-.48-.43-.48-.07,0-.14,.05-.17,.18Zm4.28-23c-.23,.07-.59,0-.6,.3,.23-.07,.59,0,.6-.3Zm.53,14.89c.06,.02,.12,.04,.17,.04,.26,0,.48-.24,.58-.47,.11-.23,.1-.47-.11-.47-.02,0-.03,0-.05,0-.01,.16-.04,.31-.21,.31-.03,0-.05,0-.09-.01,0-.1-.08-.2-.16-.2-.06,0-.11,.05-.14,.2,.18,.02,.36,.04,.3,.3-.18,.02-.36,.04-.3,.3Zm-1.8,9.01c.15,.11,.31,.21,.42,.21,.05,0,.09-.02,.12-.06-.32-.09-.63-.19-.92-.29-.46-.16-.9-.34-1.32-.53-.37,.41-.86,1.12-1.3,1.26,.96,.18,.95,.74,.5,1.29,.14,.06,.27,.12,.41,.17,.04-.1,.08-.13,.14-.13,.06,0,.15,.05,.25,.09,.1,.05,.22,.1,.36,.1,.05,0,.09,0,.15-.02-.05,.09-.08,.17-.11,.25,.4,.14,.81,.27,1.24,.39,.03-.13,.06-.25,.07-.33,.27,.11,.28,.25,.21,.41,.17,.04,.33,.08,.51,.12,.12-.1,.29-.15,.39-.15,.13,0,.15,.07-.16,.2,.32,.07,.65,.13,1,.19,0-.04,0-.08,.01-.12,.03-.16,.1-.31,.2-.31,.07,0,.15,.07,.24,.27-.06,.09-.11,.16-.15,.21,1.06,.15,2.23,.24,3.53,.24h.04c2.91,0,5.16-.43,7.04-1.08,1.41-.49,2.6-1.1,3.7-1.71,1.64-.92,3.06-1.83,4.78-2.51,1.73-.67,3.78-1.15,6.78-1.15,2.66,0,4.59,.38,6.19,.93,1.2,.42,2.24,.94,3.27,1.52,.09,.05,.19,.1,.28,.16,.01,0,.03,.01,.04,.02,1.44,.82,2.91,1.74,4.79,2.48,2.01,.79,4.46,1.33,7.72,1.33h.04c1.07,0,2.05-.06,2.95-.16,.03,0,.05,0,.08-.01,.79-.09,1.52-.22,2.2-.38,.12-.03,.24-.06,.36-.09,.51-.13,.99-.28,1.45-.44,1.19-.41,2.22-.91,3.17-1.43,.1-.05,.2-.11,.31-.17,.07-.04,.14-.08,.21-.12,.08-.05,.16-.09,.24-.14,.06-.03,.11-.06,.17-.1,.26-.15,.51-.29,.76-.44,.76-.44,1.51-.87,2.29-1.25,.1-.05,.2-.1,.31-.15,.06-.03,.12-.06,.18-.08,.27-.12,.55-.24,.83-.35,.11-.04,.22-.09,.34-.13,.28-.1,.57-.2,.87-.29,.04-.01,.09-.03,.13-.04,1.45-.42,3.18-.69,5.44-.69,2.66,0,4.59,.38,6.19,.93,1.2,.42,2.24,.94,3.27,1.52,1.55,.86,3.1,1.87,5.11,2.66,2.01,.79,4.46,1.33,7.72,1.33h.04c2.91,0,5.16-.43,7.04-1.08,1.41-.49,2.6-1.1,3.7-1.71,1.64-.92,3.06-1.83,4.78-2.51,1.73-.67,3.78-1.15,6.78-1.15,2.66,0,4.59,.38,6.19,.93,1.2,.42,2.24,.94,3.27,1.52,1.2,.67,2.41,1.43,3.84,2.11,.02-.01,.03-.02,.03-.02,0,0,0,0-.02,.03,.4,.19,.82,.37,1.26,.55,.74,.29,1.54,.55,2.42,.76,0-.35,.3-.42,.31-.76,.34,.06,.17,.3,0,.3h0c0,.29,.37,.23,.6,.3-.03,.2-.2,.25-.41,.27,1.38,.29,2.96,.46,4.79,.46h.02c.1,0,.19,0,.28-.03,.17-.22,.38-.41,.69-.41h.02c.17-.19,.29-.43,.33-.7-.09,.04-.2,.08-.32,.1,.89-.87-.75-.52-.6-1.5,.32,.25,.58,.47,.79,.61-.22-.43-.66-.72-1.18-.73-.03,.02-.06,.03-.09,.03-.04,0-.08-.01-.12-.03-.51,0-.99-.02-1.45-.05,.36,.32,.16,1.14,1.15,1.37-.07,.11-.18,.15-.29,.15-.48,0-1.21-.84-1.22-1.55-.84-.07-1.59-.18-2.28-.33-.03,.06-.07,.14-.12,.23-.04,0-.07,.01-.1,.01-.19,0-.31-.15-.37-.3-.01-.03-.02-.05-.03-.08-.45-.12-.88-.24-1.28-.38-1.2-.42-2.24-.94-3.27-1.52-1.54-.86-3.1-1.87-5.11-2.66-2.01-.79-4.46-1.34-7.72-1.34h-.04c-2.91,0-5.16,.43-7.04,1.08-1.41,.49-2.6,1.1-3.69,1.71-1.64,.92-3.06,1.83-4.78,2.51-1.72,.67-3.78,1.15-6.78,1.15-2.66,0-4.59-.38-6.19-.94-1.2-.42-2.24-.94-3.27-1.52-1.54-.86-3.09-1.87-5.11-2.66-2.01-.79-4.46-1.34-7.72-1.34h-.04c-2.91,0-5.16,.43-7.04,1.08-1.41,.49-2.6,1.1-3.7,1.71-.45,.26-.89,.51-1.32,.76-.41,.23-.81,.46-1.21,.68-.09,.05-.17,.09-.26,.14-.63,.33-1.27,.64-1.96,.91,0,0-.02,0-.03,.01-.04,.01-.08,.03-.11,.04-.5,.19-1.03,.37-1.6,.52-.12,.03-.24,.06-.37,.09-.45,.11-.92,.2-1.43,.27-.08,.01-.16,.02-.24,.03-.9,.12-1.9,.19-3.04,.19-2.66,0-4.59-.38-6.19-.94-1.2-.42-2.24-.94-3.27-1.52-1.54-.86-3.09-1.87-5.11-2.66-.52-.2-1.07-.39-1.65-.56-.08-.02-.15-.04-.23-.06-.12-.03-.24-.06-.36-.09-.23-.06-.46-.11-.7-.16,0,0-.01,.01-.02,.02,0,0,0,0-.01-.01,0,0,0,0,0-.01,0,0-.01,0-.02,0-.82-.17-1.72-.3-2.69-.37-.04,0-.07,0-.11,0-.41-.03-.83-.05-1.26-.06-.11,0-.22,0-.33,0-.12,0-.23,0-.35,0h-.04c-.59,0-1.15,.02-1.68,.05-.11,0-.21,.01-.31,.02-.23,.02-.46,.04-.68,.06-.11,0-.21,.02-.32,.03-.01,.02-.03,.03-.05,.05-.05,0-.1,.01-.14,.03,0-.02,0-.04,0-.06-1.47,.19-2.74,.5-3.87,.89-1.25,.44-2.33,.97-3.32,1.51,0,.02-.01,.04-.02,.06-.02,0-.04-.01-.06-.02-.1,.05-.19,.11-.29,.16-1.64,.92-3.06,1.83-4.78,2.51-.29,.11-.58,.22-.88,.32,0,.01,0,.02,.01,.04-.07,.25-.13,.34-.17,.34-.05,0-.08-.15-.09-.3-.48,.15-.98,.28-1.53,.38,0,.06,0,.12-.01,.17-.12,0-.2-.05-.25-.12-1.1,.2-2.36,.32-3.85,.32-1.73,0-3.15-.16-4.37-.43-.03,.13-.09,.22-.24,.23-.03-.12-.04-.21-.04-.29-.07-.02-.13-.03-.2-.05,0,.02-.01,.05-.03,.07-.08,.17-.28,.33-.44,.33-.12,0-.21-.1-.2-.37-.56,.29-.49,1.21-1.33,1.21-.05,0-.11,0-.17-.01-.12,.06-.17,.1-.18,.1-.04,0,1.45-.94,1.38-1.6Zm-1.07-.19s.1,.05,.18,.09c.07,.05,.15,.09,.26,.09,0,0,.02,0,.03,0-.03,.18-.17,.26-.3,.26-.15,0-.3-.1-.3-.26,.04-.14,.09-.19,.14-.19Zm140.36,1.48c.14,0,.87,.46,.51,1.13,.03,0,.06,.01,.09,.01,.17,0,.2-.15,.21-.31,.44,.13-.03,.26,0,.6h-.6v-1.2c-.23-.16-.27-.23-.21-.23Zm-2.19-.37c.18,.2,.24,.28,.22,.28-.01,0-.15-.13-.27-.25-.12-.13-.24-.25-.23-.25,.01,0,.09,.06,.27,.23Zm-.74,1.67c.14-.26,.36-.52,.53-.52,.1,0,.18,.1,.22,.36,.04,.36-.16,.16-.3,.3-.28,.28-.44,.38-.53,.38-.13,0-.06-.26,.08-.52Zm-1.36-1.07c0,.29-.37,.23-.6,.3,0-.29,.37-.23,.6-.3Zm-.78-1.24s.1,.09,.17,.34c-.07,.25-.13,.34-.17,.34-.06,0-.09-.17-.09-.34s.03-.34,.09-.34Zm-.73,.64c.18,.2,.24,.28,.23,.28-.01,0-.15-.13-.27-.25-.13-.13-.24-.25-.23-.25,.01,0,.09,.06,.27,.23Zm-104.27-5.36s.02,.06,.02,.21c-.03,.05-.06,.09-.1,.13,.03-.19,.06-.34,.08-.34Zm-4.48-.35s.05,0,.07-.01c.03,.05,.07,.14,.12,.3-.03,.1-.06,.18-.08,.23-.12-.14-.19-.33-.11-.52Zm-3.06,1.29c.08,.06,.17,.13,.25,.2-.07,.25-.13,.34-.17,.34-.06,0-.09-.17-.09-.34,0-.07,0-.14,.01-.2Zm-1.86,1.1c0,.29-.37,.23-.6,.3,0-.29,.37-.23,.6-.3Zm-.78-.93s.1,.03,.15,.03c.01,0,.02,0,.03,0-.03,.18-.17,.26-.3,.26,0,0-.01,0-.02,0,.05-.09,.09-.19,.14-.29Zm-1.36,.94s.02,0,.03,0c-.07,.25-.13,.34-.17,.34-.05,0-.08-.14-.09-.3,.06-.03,.14-.04,.22-.04Zm-1.35,.32s.17,.08,.48,.28c.16,.18,.2,.25,.17,.25-.05,0-.23-.13-.39-.26-.16-.13-.3-.26-.25-.26Zm-.47,2.7c-.13-.13-.24-.25-.23-.25,.01,0,.09,.06,.27,.23,.18,.2,.24,.27,.23,.27-.02,0-.15-.13-.27-.25Zm.05-1.53c0,.29-.37,.23-.6,.3,0-.29,.37-.23,.6-.3Zm-.6,1.8s0,.07-.02,.1c-.07,.02-.12,.06-.15,.13-.13,.04-.3,.04-.43,.08,0-.29,.37-.23,.6-.3Zm-2.7-.9s.08,.05,.11,.06c-.04-.02-.08-.04-.12-.07h0Zm-8.59,3.35c-.06,0-.09-.17-.09-.34s.03-.34,.09-.34c.04,0,.1,.09,.17,.34-.07,.25-.13,.34-.17,.34Zm6.34-2.82c.12-.13,.27-.25,.31-.25,.03,0,0,.09-.17,.32-.18,.13-.28,.18-.31,.18-.05,0,.05-.13,.17-.25Zm-.46,1.57c.18,.2,.24,.27,.22,.27-.02,0-.15-.13-.27-.25-.12-.12-.24-.25-.23-.25,.01,0,.09,.06,.27,.23Zm-.3,.6c.18,.2,.24,.27,.23,.27-.02,0-.15-.13-.27-.25-.12-.13-.24-.25-.23-.25,.01,0,.09,.06,.27,.23Zm-1.85-.02c.12-.13,.26-.25,.27-.25,.01,0-.04,.07-.22,.27-.19,.17-.26,.23-.27,.23-.02,0,.1-.13,.23-.25Zm-.73-1.82s.1,.09,.17,.34c-.07,.25-.13,.34-.17,.34-.06,0-.09-.17-.09-.34s.03-.34,.09-.34Zm.17,.94c0,.29-.37,.23-.6,.3,0-.29,.37-.23,.6-.3Zm-1.38,.56s.1,.09,.17,.34c-.07,.25-.13,.34-.17,.34-.06,0-.09-.17-.09-.34s.03-.34,.09-.34Zm-.13-1.46c.16,.52-.1,.63-.46,.63-.13,0-.26-.01-.4-.03-.14-.01-.28-.03-.4-.03-.09,0-.17,0-.24,.02,.25-.45,.97-.44,1.5-.6Zm-1.86,.84c.07,0,.18,.09,.35,.36-.09,.2-.17,.27-.24,.27-.1,0-.18-.16-.2-.31-.03-.16,0-.31,.09-.31Zm-.99-.84c.18,0,.31,.13,.35,.26,.04,.13,0,.26-.2,.26-.13,0-.33-.06-.62-.23,.16-.22,.33-.3,.46-.3Zm-1.11-.02c.13-.13,.26-.25,.27-.25,.01,0-.05,.07-.23,.27-.18,.17-.26,.23-.27,.23-.02,0,.1-.13,.23-.25Zm-.77,.94c.17,0,.2-.15,.21-.31,.28,.32,1.11,.09,.9,.9-.27-.13-.54-.27-.6-.6-.11,.05-.2,.61-.34,.61-.07,0-.16-.15-.26-.61,.03,0,.06,0,.09,0Zm-.39-.61c.18,.2,.24,.27,.23,.27-.01,0-.15-.13-.27-.25-.12-.13-.24-.25-.23-.25,.01,0,.09,.06,.27,.23Zm-.9,0c.54,.22,.04,.55,0,.9-.53-.22-.04-.55,0-.9Zm-2.51-23.94s-.07,.09-.08,.2c.08,.04,.16,.07,.25,.11-.07-.23-.12-.31-.16-.31Zm.45-2.48c-.17-.09-.34-.17-.51-.26,.05,.28,.11,.59,.23,.98-.01-.34,.1-.57,.28-.72Zm1.22,2.71s.13-.05,.31-.18c.17-.24,.21-.32,.17-.32-.04,0-.19,.13-.31,.25-.12,.13-.22,.25-.17,.25Zm.86,.78c.07,0,.19-.1,.35-.36-.09-.2-.17-.27-.24-.27-.1,0-.18,.16-.21,.31-.03,.16,0,.31,.09,.31Zm4.77-1.18c.1,.05,.18,.1,.25,.1,.06,0,.11-.04,.15-.17-.18-.02-.36-.04-.3-.3,.19-.05,.46-.03,.56-.16-.29,0-.57-.02-.84-.04-.17,.1-.28,.26-.32,.5,.05-.01,.1-.02,.15-.02,.14,0,.26,.05,.36,.1Zm-1.17,12.48c-.05,0,0,.14,.29,.52,.21,.14,.32,.2,.36,.2,.08,0-.05-.18-.22-.36-.17-.18-.37-.36-.43-.36Zm.2-10.46s.04-.01,.07-.01c.03,0,.06,0,.09,.01h0c.1,.02,.19,.03,.29,.04,0-.01,0-.02,0-.04-.36-.06-.18-.33,0-.6-1.06-.09,1.06-.81,0-.9-.01,.16-.04,.31-.21,.31-.03,0-.05,0-.09-.01,0-.1-.08-.19-.16-.19-.06,0-.12,.05-.14,.19,.57,.23,.01,.79-.1,1.18,.08,0,.16,.02,.24,.02Zm-6.75-2.1c.07-.23,0-.59,.3-.6,.05,.22,.27,.48,.43,.48,.07,0,.14-.05,.17-.18-.23-.07-.35-.25-.3-.6,.21,.13,.4,.18,.57,.18,.47,0,.82-.4,1.13-.88-.13-.05-.25-.1-.38-.15-.18,.35-.37,.68-.72,.85-.03-.27-.29-.31-.58-.31-.08,0-.17,0-.25,0-.08,0-.17,0-.25,0-.04,0-.07,0-.11,0-.09,.18-.75,1.16,0,1.2Zm8.34,11.88c0-.1,.04-.17,.09-.22-.13,0-.25,0-.37-.01,.03,.1,.12,.18,.28,.23Zm-.17-10.95c-.1,0-.18,.16-.2,.31-.03,.16,0,.31,.09,.31,.07,0,.19-.1,.35-.36-.09-.2-.17-.27-.24-.27Zm-2.47-1.23c-.23,.07-.59,0-.6,.3,.23-.07,.59,0,.6-.3Zm2.33,14.59c-.95-.62,.85-.6,0-.9-.09,.34-.39,.42-.71,.42-.14,0-.28-.02-.41-.03-.13-.02-.24-.03-.33-.03-.15,0-.21,.05-.06,.24,.49,.19,1.03,.24,1.5,.3Zm1.2-12.76s-.15,.13-.27,.25c-.12,.13-.24,.25-.23,.25,.01,0,.09-.06,.27-.23,.18-.2,.24-.27,.23-.27Zm3.48,11.83s-.08,0-.16,.03c.14-.01,.18-.03,.16-.03Zm-3.69,.97h.04c.26,0,.51,0,.77,0,.05-.27,.2-.33,.35-.33,.07,0,.13,.01,.19,.03,.05,.01,.09,.03,.11,.03s0-.01-.03-.05c-.02-.38-.39-.42-.3-.9,.15-.35,.32-.68,.6-.9,0,.3,.24,.36,.3,.6-.25,.54-.31,.71-.26,.71,.04,0,.14-.09,.28-.19,.14-.09,.3-.18,.47-.18,.15,0,.29,.07,.42,.26-.31,.31-.62,.61-.97,.87,.23-.02,.46-.04,.68-.06,.11-.54,.63-.75,.9-.82h0c-1.07-.34-1.38-1.45-2.5-1.73-.17,0-.35,.01-.53,.01-.26,.85,.99,.18,.63,1.12h0c-.3,0-.36-.24-.6-.3-.01,.41,.14,.66,.3,.9-.26-.12-.44-.17-.55-.17-.35,0-.06,.5,.25,1.07-.2-.19-.35-.26-.49-.26-.27,0-.52,.23-1,.26,.07,0,.14,.02,.21,.03,.25,0,.5,0,.76,0Zm-.97-.04h-.01s0,0,0,0h0Zm-15.86-20.59s0,0-.01,0c-.06,.03-.12,.04-.17,.04-.15,0-.29-.09-.42-.18-.17-.04-.35-.07-.52-.1-.03,.05-.05,.13-.08,.23,.12,.06,.57,.35,.88,.35,.17,0,.3-.09,.32-.35Zm-3,1.19h0c-.17,0-.34,.24,0,.3,.64-.88,1.12-.06,1.8-.9,.08,.22,.15,.3,.18,.3,.05,0,.05-.15,0-.31-.06-.15-.18-.31-.37-.31-.03,0-.07,0-.1,.01-.17,.38-.48,.56-.81,.56-.35,0-.72-.2-.99-.56-.6,.69,.08,.33,.3,.9Zm9.1,3.78s.08-.05,.21-.18c.54-.03,.24-.91,.81-.91,.03,0,.06,0,.09,0,.05,.35-.05,.85,.3,.9,.63-.63-.39-1.13-.9-1.5,.21,.62-.59,1.68-.51,1.68Zm-5.02-4.48c.09,0,.18-.03,.26-.12-.26-.09-.53-.17-.81-.25,.16,.22,.37,.36,.56,.36Zm-4.92-.84c.06,0,.13-.06,.21-.21-.13,0-.26-.02-.4-.02,.04,.13,.1,.23,.19,.23Zm3.62,2.62s.1-.06,.23-.18c.45-.55,.81-1.02,0-1.5,.2,.58-.38,1.69-.23,1.69Zm-5.78-1.69c0-.5,.83-.17,.9-.6-.35-.05-.85,.05-.9-.3,.04,0,.08,0,.12,0,.22,0,.36-.08,.5-.15,.12-.06,.24-.13,.4-.15-.15,0-.3,0-.45,0h-.02c-.23,0-.44,.06-.63,.16-.15,.46-.17,.85,.08,1.05Zm1.8,0c.18-.02,.36-.04,.3-.3-.24-.32-.5-.62-.78-.89-.04,0-.07,0-.11,0,.49,.59-.03,.38,0,1.19h.6Zm-1.26,49.96c2.66,0,4.59,.38,6.19,.93,1.2,.42,2.24,.94,3.27,1.52,1.55,.86,3.09,1.87,5.11,2.66,2.01,.79,4.46,1.33,7.72,1.33h.04c2.91,0,5.16-.43,7.04-1.08,1.41-.49,2.6-1.1,3.7-1.71,1.64-.92,3.06-1.83,4.78-2.51,1.73-.67,3.78-1.15,6.78-1.15,2.66,0,4.59,.38,6.19,.93,1.2,.42,2.24,.94,3.27,1.52,1.55,.86,3.1,1.87,5.11,2.66,2.01,.79,4.46,1.33,7.72,1.33h.04c2.91,0,5.16-.43,7.04-1.08,1.41-.49,2.6-1.1,3.7-1.71,1.64-.92,3.06-1.83,4.78-2.51,1.72-.67,3.78-1.15,6.78-1.15,2.07,0,3.69,.23,5.07,.59,.28,.07,.55,.15,.81,.24,.11,.03,.21,.07,.31,.1,.5,.17,.98,.37,1.44,.58,.01,0,.03,.01,.04,.02,.14,.07,.29,.13,.43,.2,.07,.03,.13,.07,.2,.1,.26,.13,.51,.26,.77,.4,.08,.04,.16,.09,.25,.14,.05,.03,.1,.06,.15,.08,.87,.49,1.74,1.02,2.7,1.53,.42,.23,.86,.45,1.33,.67,.1,.04,.2,.09,.3,.14,.21,.09,.42,.18,.64,.27,.05,.02,.1,.04,.15,.06,.08,.03,.15,.06,.23,.09,.41,.15,.84,.3,1.28,.43,.18,.05,.37,.11,.57,.16,.03,0,.06,.02,.09,.02,.1,.02,.2,.05,.3,.07,.09,.02,.18,.04,.27,.06,.26,.06,.53,.11,.81,.16,.77,.14,1.6,.24,2.49,.29,.02,0,.05,0,.07,0,.51,.03,1.04,.05,1.6,.05h.04c2.91,0,5.16-.43,7.04-1.08,1.41-.49,2.6-1.1,3.7-1.71,1.64-.92,3.06-1.83,4.78-2.51,1.73-.67,3.78-1.15,6.78-1.15,2.66,0,4.59,.38,6.19,.93,1.2,.42,2.24,.94,3.27,1.52,.12,.07,.24,.14,.36,.21,0-.01,0-.03,0-.04,.03-.22,.09-.44,.15-.44,.05,0,.1,.16,.12,.61,0,0,0,.01,0,.02,1.13,.65,2.3,1.35,3.69,1.97,.06-.1,.24-.15,.41-.15,.27,0,.51,.13,.15,.39,.08,.03,.16,.07,.25,.1,.29,.12,.6,.22,.91,.33-.12-.24-.2-.41-.26-.53,.08,.16,.18,.37,.26,.53,.21,.07,.43,.14,.65,.2,.19-.27,.78-.56,.57-1.05,.53,.27,.93,.67,1.2,1.2,.02,.11,0,.15-.04,.15-.09,0-.31-.2-.51-.4-.2-.2-.4-.4-.46-.4-.04,0-.02,.09,.11,.34-.04,.18-.22,.22-.37,.29,.72,.19,1.5,.34,2.34,.46-.16-.33-.39-.63-.77-.75,.05-.45-.11-1.11,.3-1.2h.6c-.01,.41,.14,.66,.3,.9-.02,0-.03,0-.05,0-.38,0-.62-.15-.85-.3-.13,.5,.59,.84,1.07,.84,.23,0,.41-.07,.43-.24h-.6c.63-.66-.19-1.32-.53-1.95-.03,0-.07-.01-.1-.01-.03,.21-.03,.46-.27,.46,0-.21-.03-.38-.09-.53-.2-.04-.4-.08-.59-.12-.06,.03-.14,.04-.22,.05-.06,.26,.12,.28,.3,.3-.03,.13-.1,.18-.17,.18-.16,0-.38-.26-.43-.48-.03,0-.06-.01-.09-.01-.17,0-.2,.15-.21,.31-.54-.19-.39-.43-.04-.57-.29-.08-.57-.17-.83-.26-.38-.13-.74-.27-1.08-.42-.06,.15-.17,.31,.16,.35-.05,.35-.55,.25-.9,.3-.14-.57,.38-.48,.55-.74-.69-.31-1.34-.65-1.99-1.01-1.54-.86-3.1-1.87-5.11-2.66-2.01-.79-4.46-1.34-7.72-1.34h-.04c-2.91,0-5.16,.43-7.04,1.08-1.41,.49-2.6,1.1-3.69,1.71-1.64,.92-3.06,1.83-4.78,2.51-1.72,.67-3.78,1.15-6.78,1.15-1.44,0-2.67-.11-3.75-.3-.21-.04-.41-.08-.6-.12h-.02c-.36-.08-.71-.17-1.04-.27-.27-.08-.53-.16-.78-.25-.18-.06-.36-.13-.54-.2-.45-.17-.88-.36-1.29-.57-.1-.05-.2-.1-.3-.15-.16-.08-.32-.16-.48-.25-.2-.11-.4-.21-.6-.33-.02-.01-.04-.02-.06-.03-.13-.07-.26-.15-.39-.22-.42-.24-.85-.49-1.29-.74-.44-.25-.88-.5-1.35-.75-.16-.09-.33-.17-.5-.26-.12-.06-.24-.12-.36-.17-.17-.08-.34-.16-.52-.24-.22-.1-.46-.19-.69-.29-.06-.02-.12-.05-.17-.07-.04-.02-.08-.03-.13-.05-.52-.19-1.07-.37-1.65-.53-.1-.03-.2-.05-.3-.08-.43-.11-.87-.2-1.34-.28-.12-.02-.24-.04-.36-.06-.94-.15-1.96-.24-3.08-.27-.04,0-.08,0-.12,0-.19,0-.39,0-.59,0h-.04c-2.91,0-5.16,.43-7.04,1.08-1.41,.49-2.6,1.1-3.7,1.71-1.64,.92-3.06,1.83-4.78,2.51-1.73,.67-3.78,1.15-6.78,1.15-2.66,0-4.59-.38-6.19-.94-1.2-.42-2.24-.94-3.27-1.52-1.54-.86-3.09-1.87-5.11-2.66-2.01-.79-4.46-1.34-7.72-1.34h-.04c-2.91,0-5.16,.43-7.04,1.08-1.41,.49-2.6,1.1-3.7,1.71-1.64,.92-3.06,1.83-4.78,2.51-1.72,.67-3.78,1.15-6.78,1.15-2.66,0-4.59-.38-6.19-.94-1.2-.42-2.24-.94-3.27-1.52-1.55-.86-3.1-1.87-5.11-2.66-.76-.3-1.57-.56-2.47-.77,.03,.02,.07,.04,.12,.06,.09,.36-.32,.52-.51,.52-.14,0-.15-.08,.21-.22-.12-.23-.2-.37-.22-.45-.96-.2-2-.35-3.16-.42,.11,.17,.16,.38,.07,.58-.26-.17-.3-.55-.67-.6-.05,0-.09,0-.14,0-.03,0-.06,0-.09,0,0,0,0,0,0-.01-.28,0-.57-.01-.86-.01h-.06c.02,.1,.02,.2,.02,.33-.03,0-.06,.01-.09,.01-.17,0-.2-.14-.21-.3-.09,.02-.18,.05-.27,.1-.02,.05-.03,.12-.04,.19-.09-.01-.14-.04-.17-.07-.33,.24-.55,.63-.55,1.07,0,.73,.59,1.33,1.33,1.33Zm148.21,3.69c.18,.2,.24,.27,.23,.27-.01,0-.15-.13-.27-.25-.12-.12-.24-.25-.22-.25,.01,0,.09,.06,.27,.23Zm-.9,.3c0,.29-.37,.23-.6,.3,0-.29,.37-.23,.6-.3Zm-1.68-3.05s.1,.09,.17,.34c-.07,.25-.13,.34-.17,.34-.06,0-.09-.17-.09-.34s.03-.34,.09-.34Zm.17,1.54c0,.29-.37,.23-.6,.3,0-.29,.37-.23,.6-.3Zm-4.81-2.1c.18,.2,.24,.27,.23,.27-.01,0-.15-.13-.27-.25-.12-.12-.24-.25-.23-.25,.01,0,.09,.06,.27,.23Zm-137.45-.64c.12-.13,.26-.25,.27-.25,.01,0-.04,.07-.23,.27-.18,.17-.26,.23-.27,.23-.02,0,.1-.13,.23-.25Zm-.6-.9c.12-.13,.26-.25,.27-.25,.01,0-.05,.07-.23,.28-.18,.17-.26,.23-.27,.23-.02,0,.1-.13,.23-.25Zm-1.29,.55c.12-.13,.27-.25,.31-.25,.03,0,0,.08-.17,.32-.18,.13-.28,.18-.31,.18-.05,0,.05-.13,.17-.25Zm-1.59-48.77c.23-.07,.59,0,.6-.3-.23,.07-.59,0-.6,.3Zm6.41-.23s0,.13,.09,.25c.09,.13,.22,.25,.36,.25,.11,0,.23-.07,.35-.27-.19,.45,.04,1.25,.31,1.25,.1,0,.2-.1,.29-.35-.61-.19-.2-1.41-.9-1.5-.07,.23,0,.59-.3,.6-.11-.17-.18-.23-.2-.23Zm4.94,25.93c-.23,.07-.59,0-.6,.3,.23-.07,.59,0,.6-.3Zm.37-23.95c.07,0,.15-.02,.2-.07-.15-.09-.31-.18-.47-.27-.01,.02-.02,.05-.03,.09,0,.16,.15,.26,.3,.26Zm-.6,1.25c-.04-.31,1.3-.61,.3-.9,.16,.43-1.17,.73-.3,.9Zm.73,22.89c-.45,.56-.85,1.24,.41,1.31,.09-.59-.41-.6-.6-.9,.09-.03,.27-.13,.44-.26-.08-.05-.17-.09-.25-.14Zm-2.68-24.38s-.1,0-.15-.01c-.06,.48,.68,1.06,1.03,1.06,.1,0,.17-.05,.17-.15-.01,0-.03,0-.04,0-.59,0-.1-1.08-.26-1.5,.11-.08,.21-.13,.32-.17-.08-.05-.17-.09-.26-.14-.37,.05-.61,.24-.66,.61,.28,.01,.25,.31-.15,.31Zm-1.05-1.51c.47,.1,.73,.34,1.13,.34,.06,0,.13,0,.2-.02-.34-.17-.7-.34-1.07-.5-.08,.02-.2,.02-.31,.02h-.04c-.21,0-.33,0,.08,.16Zm2.48,28.24s.07,.04,.1,.06c.07-.04,.19-.1,.35-.19-.15,.1-.21,.18-.23,.27,.31,.18,.62,.36,.94,.53,.26-.12,.55-.23,.71-.41,0-.07-.01-.15-.02-.22-.09-.11-.2-.14-.3-.14-.12,0-.24,.05-.35,.09-.11,.04-.21,.09-.29,.09-.09,0-.15-.05-.17-.21,.12-.16,1.46-.44,.6-.6-.11,.22-.28,.29-.47,.29-.15,0-.31-.04-.46-.09-.15-.04-.29-.09-.39-.09s-.17,.05-.18,.18c.31,.08,.2,.31,.14,.44Zm1.89,.26c.03,.27,.07,.56,.1,.85,.36,.19,.74,.37,1.13,.54,.04-.2,.15-.39,.34-.58-.1-.18-.2-.24-.31-.24s-.21,.06-.32,.12c-.1,.06-.21,.12-.3,.12-.11,0-.2-.07-.28-.3,.27-.08,1.01-1.12,.3-1.2-.04,.15-.08,.2-.13,.2-.12,0-.27-.38-.47-.5-.1,.15-.11,.44-.09,.77,.03,.03,.06,.08,.09,.13l-.07,.09Zm-1.63-1.45c.11,.22,.21,.45,.31,.45,.06,0,.12-.08,.19-.29h-.02c-.15,0-.24-.24-.32-.49-.08-.25-.16-.49-.27-.49-.07,0-.17,.1-.29,.38,0,0,.01,0,.02,0,.15,0,.27,.22,.38,.45Zm21.73-22.29s.1-.05,.15-.08c-.02,0-.04,0-.06,0-.06,0-.09,.03-.09,.09Zm4.17-4.93c.06-.04,.11-.11,.15-.23-.05,.07-.1,.15-.15,.23Zm-1.46,3.13c-.05,0-.08,.15-.09,.31,.07-.04,.14-.08,.21-.12-.05-.14-.09-.19-.13-.19Zm-.74,.61v.04s.01,.02,.02,.03c0-.02-.01-.04-.02-.06Zm-6.29,13.23s.09-.03,.22-.1c.42-.36,.55-.48,.52-.48-.03,0-.24,.15-.43,.29-.19,.15-.36,.29-.31,.29Zm4.49-1.27c.13,.13,.26,.25,.27,.25,.01,0-.04-.07-.22-.27-.18-.17-.26-.23-.27-.23-.02,0,.1,.13,.23,.25Zm4.07-13.1c.09-.04,.18-.08,.27-.12-.16-.08-.26-.13-.31-.13-.07,0-.05,.08,.04,.25Zm.1,11.48s.09-.06,.27-.23c.18-.2,.24-.27,.23-.27-.01,0-.15,.12-.27,.25-.12,.13-.24,.25-.23,.25Zm-4.12,2.86c.08-.04,.16-.09,.24-.13,.21-.12,.41-.23,.62-.35-.33-.16-.6-.37-.96-.5,.01,.41-.14,.66-.3,.9,.11,.06,.21,.09,.3,.09,.04,0,.07,0,.11,0Zm3.31-3.67c.11,.12,.26,.17,.4,.17,.46,0,1-.5,1.1-1.07-.77,.03-1.05,.55-1.5,.9Zm-.3-.9s-.02-.06-.03-.08c-.08,.04-.16,.07-.24,.11,0,.16,.03,.31,.09,.31,.04,0,.1-.09,.17-.34Zm-1.26-8.65c-.02-.07-.03-.1-.03-.12,0,.01,.01,.06,.03,.12Zm-4.1,1.84s-.05,0-.09,.01c-.01,.16-.04,.31-.21,.31-.03,0-.06,0-.09,0,0-.1-.08-.2-.16-.2-.06,0-.12,.05-.14,.2,.17,.02,.33,.04,.31,.25,.03-.01,.06-.02,.09-.04,.06-.06,.14-.09,.22-.09,.09-.04,.18-.08,.28-.12h0c-.01-.16-.04-.31-.21-.31Zm-1.31,.9c-.17-.15-.24-.21-.25-.21-.02,0,.09,.11,.2,.23,.02,0,.03,0,.05-.02Zm.85,10.4s-.02,0-.03,0c-.11,0-.19-.05-.26-.09-.07-.05-.13-.1-.18-.1s-.09,.05-.13,.19c0,.16,.15,.26,.3,.26,.13,0,.27-.08,.3-.26Zm-1.13-11.28c-.07-.25-.13-.34-.17-.34-.06,0-.09,.17-.09,.34s.03,.34,.09,.34c.04,0,.1-.09,.17-.34Zm2.47,9.57s.1,.13,.22,.25c.13,.13,.26,.25,.27,.25,.01,0-.05-.07-.23-.27-.18-.17-.26-.23-.27-.23Zm.46-.68s-.05,.03-.08,.04c0,0,.01,0,.02,0,.02,0,.04-.01,.06-.05Zm-.73,.4s-.06,.03-.09,.05c-.04,.04-.08,.08-.12,.12-.13,.13-.24,.25-.23,.25,.01,0,.09-.06,.27-.23,.08-.09,.13-.15,.17-.19Zm.77,1.74s-.15,.13-.27,.25c-.12,.13-.24,.25-.22,.25,.01,0,.09-.06,.27-.23,.18-.2,.24-.27,.23-.27Zm.19,.76c.18-.09,.36-.19,.53-.28-.16-.06-.34-.1-.49-.1-.19,0-.32,.06-.28,.18,.1,.08,.18,.14,.23,.2Zm-8.87-12.38c.16-.08,.26-.14,.33-.18-.06,0-.12,0-.18,0-.12,.05-.27,.11-.42,.17-.29,.13-.54,.25-.48,.25,.04,0,.26-.07,.75-.25Zm3.54,13.39c-.64,.29-.19,.51,.12,.84,.15-.03,.31-.06,.46-.09-.32-.54-.6-.68-.57-1.65,.18,.42,1.16,.05,1.2,.6h0c-.17,0-.34,.24,0,.3,.28-.86-.17-1.12-.72-1.12-.65,0-1.46,.36-1.38,.52,.36,.15,.68,.32,.9,.6Zm-1.78-13.38c.15,.16,.32,.32,.52,.32,.04,0,.08,0,.13-.02,.04-.34-.09-.53-.27-.64-.2,.03-.41,.05-.63,.07,.07,.06,.16,.17,.26,.27Zm1.68,11.56s.03,.03,.05,.05c.13,.13,.26,.25,.27,.25,.01,0-.05-.07-.23-.27-.01-.01-.03-.03-.04-.04-.02,0-.03,0-.05,.01Zm-1.61-10.43s.09-.06,.27-.23c.18-.2,.24-.27,.23-.27-.01,0-.15,.13-.27,.25-.13,.13-.24,.25-.23,.25Zm.87-.23c.39,.27,.79,.46,1.18,.46,.32,0,.63-.13,.93-.46-.23-.12-.42-.15-.58-.15-.09,0-.17,0-.24,.02-.07,.01-.14,.02-.2,.02-.18,0-.31-.08-.48-.49,.1-.39,.05-.65,0-.84-.15,.03-.3,.06-.46,.09,.13,.12,.28,.27,.47,.45-.38,.12-.61,.39-.6,.9Zm.34,1.2s0,.07,0,.1c.08-.01,.16-.03,.24-.04,0-.02,.01-.04,.02-.06-.07-.25-.13-.34-.17-.34-.06,0-.09,.17-.09,.34Zm10.73-7.41s-.02,.07-.02,.1c.04-.05,.08-.09,.12-.13-.03,.01-.06,.02-.09,.03Zm-12.58,7.41c.21,0,.27,.15,.33,.29,.15-.01,.3-.03,.45-.04,.15-.17,.35-.29,.42-.55-.23,.12-.41,.15-.55,.15-.08,0-.15,0-.22-.02-.06-.01-.12-.02-.17-.02-.1,0-.18,.04-.27,.19Zm-1.5,.3c.11,.01,.21,.02,.27,.08,.07,0,.14,0,.21,0-.03-.17-.12-.3-.23-.3-.08,0-.16,.06-.24,.23Zm1.27-1.93s.11-.05,.23-.17c.03-.3,.06-.47,.11-.55-.09,0-.18,.02-.27,.02-.07,.35-.18,.7-.07,.7Zm-.14,1.61s-.05-.07-.23-.27c-.18-.17-.26-.23-.27-.23-.02,0,.1,.13,.23,.25,.12,.12,.26,.25,.27,.25Zm9.37-5.2c-.05-.1-.15-.19-.28-.25-.14,.08-.27,.15-.4,.23,.28,.22,.47,.3,.59,.3,.16,0,.18-.14,.1-.29Zm2.42,.12c.07-.23,0-.59,.3-.6-.17,1.58-1.57,.18-2.1,1.5,.48-.04,1.09-.27,1.62-.27,.28,0,.53,.06,.74,.23,0,0,0,0,0,0-.67-.67,.37-.65,.63-1.17-.33-.29-.85-.43-1.22-.43-.49,0-.73,.24,.02,.73Zm.91-.92c.12-.41,.35-.5,0-.89,.02-.06,.06-.12,.09-.17-.05,.03-.11,.05-.18,.05-.11,0-.23-.03-.38-.07-.1,.04-.2,.09-.3,.13,.53,.17,.72,.68,.78,.95Zm.02,.17s0-.07-.02-.17v.02c0,.11,.02,.15,.02,.15Zm-8.51,15.34c.05-.29,.26-.42,.42-.6-.16,.06-.33,.12-.5,.17-.02,.15-.23,.36,.08,.43Zm-1-11.24s.1-.09,.17-.34c-.07-.25-.13-.34-.17-.34-.06,0-.09,.17-.09,.34s.03,.34,.09,.34Zm4.68-1.85c-.72-.09,.33-.81,.6-.9-.48,.69,.03,1.1,.69,1.1,.26,0,.55-.06,.81-.2-1.03-1.01,1.79-2.23,1.2-3-.04,.22-.09,.3-.15,.3-.05,0-.11-.06-.17-.15-.19,.1-.38,.2-.56,.3-.13,1.13-1.01,1.5-1.22,2.56-.22-.7-.11-.87-.79-1.41-.03,.02-.07,.04-.1,.06,.01,.57-.34,.77-.9,.77-.1,0-.2,0-.31-.02v.6c.23,.03,.45,.25,.64,.25,.1,0,.19-.06,.26-.25Zm-4.56,.96c.06,0,.16-.07,.3-.27-.13,.04-.26,.07-.4,.11,0,.1,.03,.17,.1,.17Zm1,.54c.38,0,.62-.15,.85-.3-.02,.31,.03,.8,.15,.8,.04,0,.09-.06,.15-.2,.01-.41-.14-.66-.3-.9h0c.3,0,.36-.24,.6-.3,.02,.17,.5,.55,.76,.55,.11,0,.17-.07,.14-.25-.18-.02-.35-.04-.3-.3,.01,0,.02,0,.04,0,.31,0,.71-.15,.26-.3-.23,.03-.45,.25-.64,.25-.1,0-.19-.06-.26-.25,.45-.12,.19-.21-.12-.21-.25,0-.52,.06-.48,.21,.9,.45-1.03,.54-.9,1.2,.02,0,.03,0,.05,0Z" fill="#4c565e"/>
    </g>
  </g>
</svg>