<svg xmlns="http://www.w3.org/2000/svg" xmlns:xlink="http://www.w3.org/1999/xlink" viewBox="0 178 967 1014" xmlns:v="https://vecta.io/nano"><style><![CDATA[.B{fill:#fff}.C{fill:#4c565e}.D{font-family:SegoeUIVariable-SemiboldSmall, 'Segoe UI Variable'}.E{font-size:18px}.F{font-weight:700}.G{fill:#ed4d52}.H{fill:#8f8b54}.I{stroke-miterlimit:10}]]></style><defs><clipPath id="A"><path fill="none" d="M.5 178.15h965.44v595.39H.5z"/></clipPath><path id="B" d="M174.72 212.73h-46.07l23.09-32.63h46.07l-23.09 32.63z"/><path id="C" d="M220.76 212.73h-46.08l23.1-32.63h46.07l-23.09 32.63z"/><path id="D" d="M310.16 212.73h-46.07l23.09-32.63h46.08l-23.1 32.63z"/><path id="E" d="M402.24 212.73h-46.08l23.09-32.63h46.08l-23.09 32.63z"/><path id="F" d="M966.25 796.04v46.08l-32.64-23.1v-46.07l32.64 23.09z"/><path id="G" d="M1.23 177.68v-46.07l32.63 23.09v46.08l-32.63-23.1z"/><path id="H" d="M883.4 331.87c.07 0 .15-.02.21-.06l2.12-1.4 4.28 2.47-4.33 2.5-2.08-1.26c-.18-.11-.42-.05-.52.13-.11.18-.05.42.13.52l1.72 1.04-1.64.95c-.18.11-.25.34-.14.52.07.12.2.19.33.19a.45.45 0 0 0 .19-.05l1.63-.94.13 2.15c.01.2.18.36.38.36.23-.01.39-.19.38-.4l-.15-2.53 4.28-2.47v5l-2.13 1.17c-.18.1-.25.33-.15.52.1.18.33.25.52.15l1.76-.97v1.9a.38.38 0 0 0 .76 0v-1.88l1.92.96c.05.03.11.04.17.04a.39.39 0 0 0 .34-.21.38.38 0 0 0-.17-.51l-2.27-1.13v-4.95l4.33 2.5-.05 2.43c0 .21.16.39.37.39s.38-.17.38-.37l.04-2.01 1.64.95a.45.45 0 0 0 .19.05c.13 0 .26-.07.33-.19.11-.18.04-.42-.14-.52l-1.63-.94 1.8-1.18c.18-.12.22-.35.11-.53s-.35-.22-.53-.11l-2.12 1.4-4.28-2.47 4.33-2.5 2.08 1.26a.36.36 0 0 0 .2.06.4.4 0 0 0 .33-.18c.11-.18.05-.42-.13-.52l-1.72-1.04 1.64-.95c.18-.11.25-.34.14-.52s-.34-.25-.52-.14l-1.63.94-.13-2.15a.38.38 0 1 0-.76.04l.15 2.53-4.28 2.47v-5l2.13-1.18c.18-.1.25-.33.15-.52-.1-.18-.33-.25-.52-.15l-1.76.97v-1.9a.38.38 0 0 0-.76 0v1.88l-1.92-.96a.38.38 0 0 0-.34.68l2.27 1.13v4.95l-4.33-2.5.05-2.43c0-.21-.16-.39-.37-.39s-.38.17-.38.37l-.04 2.01-1.64-.95c-.18-.11-.42-.04-.52.14s-.04.42.14.52l1.63.94-1.8 1.18c-.18.12-.22.35-.11.53.07.11.2.17.32.17zm7.4 1.06s0 .03.02.04c-.01.01-.02.02-.03.04h-.05c0-.02 0-.03-.02-.04.01-.01.02-.02.03-.04h.05z"/></defs><path stroke="#000" d="M.5 179h965.44v595.39H.5z" class="B I"/><g clip-path="url(#A)"><path d="M82.59 212.78H36.51l23.1-32.64h46.07l-23.09 32.64z" class="G"/><use xlink:href="#B" class="H"/><g class="B"><path d="M128.68 212.73H82.61l23.09-32.63h46.08l-23.1 32.63z"/><use xlink:href="#C"/></g><path d="M264.07 212.78h-46.08l23.09-32.64h46.08l-23.09 32.64z" class="G"/><path d="M356.2 212.73h-46.08l23.1-32.63h46.07l-23.09 32.63z" class="H"/><g class="B"><use xlink:href="#D"/><use xlink:href="#E"/></g><path d="M445.88 212.78h-46.07l23.09-32.64h46.08l-23.1 32.64z" class="G"/><path d="M538.02 212.73h-46.08l23.09-32.63h46.08l-23.09 32.63z" class="H"/><g class="B"><path d="M491.98 212.73H445.9L469 180.1h46.07l-23.09 32.63zm92.07 0h-46.07l23.09-32.63h46.08l-23.1 32.63z"/></g><path d="M628.57 212.78H582.5l23.09-32.64h46.07l-23.09 32.64z" class="G"/><path d="M720.7 212.73h-46.07l23.09-32.63h46.08l-23.1 32.63z" class="H"/><g class="B"><path d="M674.67 212.73h-46.08l23.1-32.63h46.07l-23.09 32.63zm92.07 0h-46.07l23.09-32.63h46.07l-23.09 32.63z"/></g><path d="M809.5 212.78h-46.08l23.1-32.64h46.07l-23.09 32.64z" class="G"/><path d="M901.63 212.73h-46.07l23.09-32.63h46.08l-23.1 32.63z" class="H"/><g class="B"><path d="M855.6 212.73h-46.08l23.1-32.63h46.07l-23.09 32.63zm92.07 0h-46.08l23.1-32.63h46.07l-23.09 32.63z"/></g><path d="M82.59 773.53H36.51l23.1-32.63h46.07l-23.09 32.63z" class="G"/><path d="M174.72 773.49h-46.07l23.09-32.63h46.07l-23.09 32.63z" class="H"/><g class="B"><path d="M128.68 773.49H82.61l23.09-32.63h46.08l-23.1 32.63zm92.08 0h-46.08l23.1-32.63h46.07l-23.09 32.63z"/></g><path d="M264.07 773.53h-46.08l23.09-32.63h46.08l-23.09 32.63z" class="G"/><path d="M356.2 773.49h-46.08l23.1-32.63h46.07l-23.09 32.63z" class="H"/><g class="B"><path d="M310.16 773.49h-46.07l23.09-32.63h46.08l-23.1 32.63zm92.08 0h-46.08l23.09-32.63h46.08l-23.09 32.63z"/></g><path d="M445.88 773.53h-46.07l23.09-32.63h46.08l-23.1 32.63z" class="G"/><path d="M538.02 773.49h-46.08l23.09-32.63h46.08l-23.09 32.63z" class="H"/><g class="B"><path d="M491.98 773.49H445.9l23.1-32.63h46.07l-23.09 32.63zm92.07 0h-46.07l23.09-32.63h46.08l-23.1 32.63z"/></g><path d="M628.57 773.53H582.5l23.09-32.63h46.07l-23.09 32.63z" class="G"/><path d="M720.7 773.49h-46.07l23.09-32.63h46.08l-23.1 32.63z" class="H"/><g class="B"><path d="M674.67 773.49h-46.08l23.1-32.63h46.07l-23.09 32.63zm92.07 0h-46.07l23.09-32.63h46.07l-23.09 32.63z"/></g><path d="M809.5 773.53h-46.08l23.1-32.63h46.07l-23.09 32.63z" class="G"/><path d="M901.63 773.49h-46.07l23.09-32.63h46.08l-23.1 32.63z" class="H"/><g class="B"><path d="M855.6 773.49h-46.08l23.1-32.63h46.07l-23.09 32.63zm92.07 0h-46.08l23.1-32.63h46.07l-23.09 32.63z"/></g><path d="M966.29 888.18v46.07l-32.63-23.09v-46.08l32.63 23.1z" class="G"/><use xlink:href="#F" class="H"/><g class="B"><path d="M966.25 842.08v46.08l-32.64-23.1v-46.07l32.64 23.09zm0-92.07v46.07l-32.64-23.09v-46.08l32.64 23.1z"/></g><path d="M966.29 706.7v46.07l-32.63-23.09V683.6l32.63 23.1z" class="G"/><path d="M966.25 614.56v46.08l-32.64-23.09v-46.08l32.64 23.09z" class="H"/><g class="B"><path d="M966.25 660.6v46.08l-32.64-23.1v-46.07l32.64 23.09zm0-92.07v46.07l-32.64-23.09v-46.08l32.64 23.1z"/></g><path d="M966.29 524.88v46.08l-32.63-23.1v-46.07l32.63 23.09z" class="G"/><path d="M966.25 432.75v46.07l-32.64-23.09v-46.08l32.64 23.1z" class="H"/><g class="B"><path d="M966.25 478.78v46.08l-32.64-23.09v-46.08l32.64 23.09zm0-92.07v46.08l-32.64-23.1v-46.07l32.64 23.09z"/></g><path d="M966.29 342.19v46.08l-32.63-23.1V319.1l32.63 23.09z" class="G"/><path d="M966.25 250.06v46.07l-32.64-23.09v-46.07l32.64 23.09z" class="H"/><g class="B"><path d="M966.25 296.1v46.07l-32.64-23.09V273l32.64 23.1zm0-92.08v46.08L933.61 227v-46.07l32.64 23.09z"/></g><path d="M966.29 161.26v46.08l-32.63-23.09v-46.08l32.63 23.09z" class="G"/><path d="M966.25 69.13v46.08l-32.64-23.1V46.04l32.64 23.09z" class="H"/><g class="B"><path d="M966.25 115.17v46.07l-32.64-23.09V92.07l32.64 23.1zm0-92.08v46.08l-32.64-23.09V0l32.64 23.09z"/></g><path d="M1.18 131.59V85.51l32.64 23.1v46.07L1.18 131.59z" class="G"/><path d="M1.23 223.72v-46.07l32.63 23.09v46.07L1.23 223.72z" class="H"/><g class="B"><use xlink:href="#G"/><path d="M1.23 269.76v-46.08l32.63 23.1v46.07L1.23 269.76z"/></g><path d="M1.18 313.07v-46.08l32.64 23.1v46.07L1.18 313.07z" class="G"/><path d="M1.23 405.2v-46.07l32.63 23.09v46.07L1.23 405.2z" class="H"/><g class="B"><path d="M1.23 359.16v-46.07l32.63 23.09v46.08l-32.63-23.1zm0 92.08v-46.08l32.63 23.1v46.07L1.23 451.24z"/></g><path d="M1.18 494.88v-46.07l32.64 23.09v46.08l-32.64-23.1z" class="G"/><path d="M1.23 587.02v-46.08l32.63 23.09v46.08L1.23 587.02z" class="H"/><g class="B"><path d="M1.23 540.98V494.9L33.86 518v46.07L1.23 540.98zm0 92.07v-46.07l32.63 23.09v46.08l-32.63-23.1z"/></g><path d="M1.18 677.57V631.5l32.64 23.09v46.08l-32.64-23.1z" class="G"/><path d="M1.23 769.71v-46.08l32.63 23.09v46.08L1.23 769.71z" class="H"/><g class="B"><path d="M1.23 723.67v-46.08l32.63 23.1v46.07L1.23 723.67zm0 92.07v-46.07l32.63 23.09v46.08l-32.63-23.1z"/></g><path d="M1.18 858.5v-46.07l32.64 23.09v46.07L1.18 858.5z" class="G"/><path d="M1.23 950.63v-46.07l32.63 23.09v46.08l-32.63-23.1z" class="H"/><g class="B"><path d="M1.23 904.6v-46.08l32.63 23.1v46.07L1.23 904.6zm0 92.07V950.6l32.63 23.09v46.07L1.23 996.67z"/></g></g><path fill="none" stroke="#000" d="M.5 179h965.44v595.39H.5z" class="I"/><text font-family="SegoeScript-Bold, 'Segoe Script'" font-size="31.69" class="C"><tspan letter-spacing=".24em" x="766.91" y="714.22">R</tspan><tspan x="802.28" y="714.22">.S.V.</tspan><tspan x="868.66" letter-spacing="-.18em" y="714.22">P</tspan><tspan x="887.69" y="714.22">.</tspan></text><g fill="none" stroke="#4c565e" stroke-width="1.2"><circle cx="831.27" cy="312.89" r="75.5"/><circle cx="831.27" cy="312.89" r="50.43"/></g><text transform="matrix(-.78641 .457885 -.503171 -.864187 863.05 358.42)" class="C D E F"><tspan x="0" y="0">S</tspan></text><text transform="matrix(-.853699 .315116 -.346281 -.938131 855.65 362.88)" class="C D E F"><tspan x="0" y="0">A</tspan></text><text transform="matrix(-.900051 .134192 -.147464 -.989067 845.77 366.68)" class="C D E F"><tspan x="0" y="0">N</tspan></text><text transform="matrix(-.909273 -.036361 .039957 -.999201 833.73 368.36)" class="C D E F"><tspan x="0" y="0">T</tspan></text><text transform="matrix(-.893129 -.174416 .191666 -.98146 826.08 368.25)" class="C D E F"><tspan x="0" y="0">A</tspan></text><text transform="matrix(-.817415 -.399917 .439469 -.898258 811.59 364.87)" class="C D E F"><tspan x="0" y="0">C</tspan></text><text transform="matrix(-.743419 -.524813 .576718 -.816944 802.7 360.46)" class="C D E F"><tspan x="0" y="0">L</tspan></text><text transform="matrix(-.642006 -.644925 .708709 -.705501 795.99 355.88)" class="C D E F"><tspan x="0" y="0">A</tspan></text><text transform="matrix(-.509392 -.754069 .828647 -.559772 788.63 348.64)" class="C D E F"><tspan x="0" y="0">U</tspan></text><text transform="matrix(-.368388 -.8321 .914395 -.404822 782.45 339.37)" class="C D E F"><tspan x="0" y="0">S</tspan></text><text transform="matrix(.800102 -.433516 .476392 .879233 799.33 267.24)" class="C D E F"><tspan x="0" y="0">N</tspan></text><text transform="matrix(.874573 -.251441 .276308 .961069 809.97 261.42)" class="C D E F"><tspan x="0" y="0">O</tspan></text><text transform="matrix(.906848 -.075672 .083156 .996537 821.45 258.17)" class="C D E F"><tspan x="0" y="0">R</tspan></text><text transform="matrix(.907705 .064587 -.070975 .997478 830.56 257.36)" class="C D E F"><tspan x="0" y="0">T</tspan></text><text transform="matrix(.881213 .227077 -.249535 .968366 839.24 257.8)" class="C D E F"><tspan x="0" y="0">H</tspan></text><text transform="matrix(.790455 .450867 -.495459 .868632 854.46 262.4)" class="C D E F"><tspan x="0" y="0">P</tspan></text><text transform="matrix(.69073 .592446 -.651039 .759044 862.55 266.8)" class="C D E F"><tspan x="0" y="0">O</tspan></text><text transform="matrix(.576008 .704496 -.774172 .632976 871.56 274.72)" class="C D E F"><tspan x="0" y="0">L</tspan></text><text transform="matrix(.470181 .779121 -.856177 .516683 876.48 280.67)" class="C D E F"><tspan x="0" y="0">E</tspan></text><circle cx="827.06" cy="322.5" r="19.82" class="B"/><path d="M824.59 343.1c-11.36-1.36-19.49-11.71-18.13-23.07s11.71-19.49 23.07-18.13 19.49 11.71 18.13 23.07-11.71 19.49-23.07 18.13zm4.72-39.35c-10.34-1.24-19.76 6.16-21 16.5s6.16 19.76 16.5 21 19.76-6.16 21-16.5-6.16-19.76-16.5-21z" fill="#ec1c24"/><path d="M849.7 316.24l-.42-4.17-4.96-.6 2 6.69c1.95 24.63-20.96 18.53-20.96 18.53s-23.7.5-15.98-22.96l3.53-6.03-4.96-.6-1.4 3.95s-21.09 35.58 17.07 40.16 26.08-34.98 26.08-34.98z" class="B"/><path d="M823.51 352.14c-11.1-1.33-18.41-5.4-21.71-12.1-2.52-5.11-2.63-11.84-.31-19.46 1.62-5.32 3.86-9.29 4.22-9.91l1.62-4.57 7.11.85-4.2 7.17c-2.08 6.37-1.95 11.44.37 15.1 2.96 4.65 8.86 5.99 12.12 6.38 1.55.19 2.6.17 2.62.17h.13l.13.03s1.03.27 2.58.46c3.26.39 9.31.48 13.28-3.34 3.12-3 4.45-7.91 3.93-14.58l-2.38-7.96 7.11.85.49 4.82c.2.69 1.44 5.07 1.76 10.63.45 7.95-1.24 14.46-4.9 18.83-4.79 5.73-12.85 7.95-23.96 6.62zm-14.93-44.02l-1.18 3.33-.05.08c-.1.16-9.51 16.31-3.89 27.69 3.01 6.1 9.83 9.82 20.27 11.07s17.94-.76 22.31-5.97c8.15-9.73 2.82-27.64 2.77-27.82l-.03-.09-.36-3.52-2.82-.34 1.63 5.43v.1c.59 7.31-.92 12.75-4.48 16.17-4.52 4.34-11.21 4.27-14.79 3.84-1.38-.17-2.37-.39-2.71-.47-.35 0-1.36-.02-2.74-.18-3.58-.43-10.1-1.94-13.46-7.23-2.65-4.17-2.83-9.81-.54-16.77l.03-.09 2.86-4.89-2.82-.34z" class="C"/><rect x="803.88" y="300" width="49.81" height="15.35" rx="6.58" transform="matrix(.992883 .119097 -.119097 .992883 42.54 -96.51)" class="B"/><g class="C"><path d="M844.88 318.19l-34.21-4.1c-4.67-.56-8.01-4.81-7.45-9.48s4.81-8.01 9.48-7.45l34.21 4.1c4.67.56 8.01 4.81 7.45 9.48s-4.81 8.01-9.48 7.45zm-32.38-19.35c-3.74-.45-7.14 2.23-7.59 5.96a6.84 6.84 0 0 0 5.96 7.59l34.21 4.1c3.74.45 7.14-2.23 7.59-5.96.45-3.74-2.23-7.14-5.96-7.59l-34.21-4.1z"/><path d="M861.73 292.98s-39.09-46.6-53.03 5.06l42.02 5.04s-11.76-14.95 11.01-10.1z"/></g><circle cx="861.58" cy="293" r="7.16" transform="matrix(.343987 -.938974 .938974 .343987 290.06 1001.19)" class="B"/><g class="C"><path d="M860.62 300.96a8.04 8.04 0 0 1-7.01-8.91c.52-4.38 4.53-7.53 8.91-7.01a8.04 8.04 0 0 1 7.01 8.91 8.04 8.04 0 0 1-8.91 7.01zm1.71-14.23c-3.46-.41-6.6 2.06-7.02 5.51-.41 3.46 2.06 6.6 5.51 7.02s6.6-2.06 7.02-5.51-2.06-6.6-5.51-7.02z"/><circle cx="816.7" cy="319.86" r="2.94"/><circle cx="838.66" cy="322.49" r="2.94" transform="matrix(.119097 -.992883 .992883 .119097 418.6 1116.78)"/></g><path d="M826.07,330.78c-3.65-5.66-10.72,4.45-16.71-1.26,2.08,8.27,12.85,8.26,16.25,5.1,2.56,3.87,13.02,6.43,16.99-1.12-7.17,4.13-11.65-7.37-16.53-2.73Z" class="B"/><path d="M832.62 339.2c-2.88-.35-5.62-1.62-7.17-3.28-1.9 1.25-4.86 1.84-7.74 1.49-4.8-.58-8.17-3.37-9.25-7.66l-.78-3.11 2.32 2.21c.93.89 1.93 1.38 3.05 1.52 1.78.21 3.66-.49 5.49-1.17 1.78-.66 3.45-1.29 5.05-1.1 1.02.12 1.91.58 2.64 1.37.9-.59 1.86-.83 2.89-.71 1.59.19 3.08 1.2 4.65 2.26 1.61 1.09 3.28 2.22 5.05 2.44 1.13.13 2.21-.11 3.33-.75l2.78-1.6-1.49 2.84c-2.06 3.92-6 5.83-10.8 5.26zm-6.84-6l.6.92c1.04 1.58 3.7 2.91 6.46 3.24 1.51.18 4.77.24 7.24-2.04a6.84 6.84 0 0 1-1.5-.01c-2.23-.27-4.17-1.58-5.88-2.74-1.38-.93-2.68-1.82-3.82-1.95-.49-.06-1.25-.04-2.18.85l-.81.77-.61-.94c-.69-1.08-1.43-1.28-1.92-1.34-1.15-.14-2.62.41-4.18.99-1.94.72-4.13 1.54-6.36 1.28-.5-.06-.99-.17-1.46-.34 1.86 2.8 5.05 3.52 6.55 3.7 2.76.33 5.66-.34 7.04-1.62l.8-.75z" class="C"/><ellipse cx="826.56" cy="326.67" rx="2.52" ry="3.51" transform="matrix(.119097 -.992883 .992883 .119097 403.79 1108.45)" class="B"/><g class="C"><path d="M826.15 330.09c-2.47-.3-4.23-2.03-4-3.96s2.35-3.19 4.82-2.9c2.47.3 4.23 2.03 4 3.96-.23 1.92-2.35 3.2-4.82 2.9zm.6-5.01c-1.37-.16-2.66.43-2.76 1.28s1.01 1.73 2.38 1.89 2.66-.43 2.76-1.28-1.01-1.73-2.38-1.89z"/><use xlink:href="#H"/><use xlink:href="#H" x="-119.19" y="-39.97"/><path d="M652.32 283.67h-.05c-.38 0-.62-.15-.85-.3v.9h.6c0-.3.24-.36.3-.6zm-11.08 18.02c.17-.04.34-.07.5-.09v-.04c-.21 0-.37.05-.5.13zm10.82-17.23v-.02c-.04.1-.09.2-.14.3l.14-.27zM767.72 291c-.27 0-.28.26-.3.52 0 .13-.01.26-.05.36.26 0 .49-.09.69-.22-.4-.05-.1-.27-.04-.59-.13-.05-.23-.07-.3-.07zm-5.08 21.99h-.04c0 .02.02.01.03.01zm-108.78-27.63l.06.14c.05 0 .1 0 .15-.01 0-.04-.02-.09-.04-.13-.06-.15-.18-.31-.37-.31-.03 0-.07 0-.1.01-.13.23-.2.38-.22.46h-.15c-.22 0-.43.04-.62.13l.91-.11h.05l.32-.17zm-4.51 11.42c.29-.25.14-.94.67-.94.06 0 .14.01.23.03-.41 1.35-1.67 1.85-2.27 3.01-.05-.02-.09-.04-.14-.07v-.54h-.17a.88.88 0 0 0-.35.06c-.06-.05-.13-.09-.19-.09-.1 0-.2.09-.31.33a1.17 1.17 0 0 1 .2.05c-.11.24-.09.57-.03.9a.75.75 0 0 1-.17-.65c-.09-.02-.17-.04-.24-.04-.3 0-.37.24-.44.47s-.14.47-.44.47h-.08c0-.4-.53-.28-.6-.6.06.03.12.04.18.04.44 0 .95-.54.54-.63.17-.05.41-.03.53-.14.01.1.04.17.08.17s.1-.09.17-.34c-.07-.25-.13-.34-.17-.34-.06 0-.09.17-.09.34v.03c-.23.04-.52.02-.53.28h-.11c-.03.15-.09.21-.18.21-.12 0-.27-.1-.42-.21a.49.49 0 0 1 .06.3c-.7-.27.74-.67.65-1.18l-.32-.02h-.03c.15-.02.27-.06.25-.24.01.01.03.02.05.02.06 0 .15-.07.29-.26.01.12.04.23.08.23s.1-.09.17-.34v-.03l-.25.13-.37.19c0 .01-.01.01-.02.01l-.55.3h.23c-.41.04-.67.22-.72.62.81.27-.69.67-.6 1.2h.13c.46 0 .49-.43.77-.61 0 .09.08.19.15.19-.26.35-.91.5-.27.69-.03-.18.04-.25.15-.25.25 0 .73.38.76.55-.23.07-.58.01-.6.29-.1-.05-.18-.13-.19-.27.28-.01.25-.31-.15-.31-.05 0-.1 0-.15.01-.13.43.18.74.55.91l.42-.24c-.04 0-.07 0-.11-.01h0c.06 0 .11 0 .15-.02l.23-.13c.09-.09.15-.22.21-.35.11-.25.23-.5.59-.5.07 0 .15 0 .24.03.08.05.14.1.17.15.02-.01.04-.02.07-.03l.67-.34.45-.21.15-.17c-.06.03-.12.04-.18.04.17-.12.33-.16.48-.16.06 0 .12 0 .18.02l.14-.06.27-.1h-.03c-.07-.14-.08-.37-.03-.61.02 0 .04-.02.06-.03a1.15 1.15 0 0 1 .25.12c-.06.11.04.26.19.37.03 0 .06-.02.09-.03l.91-.27.42-.1c-.32-.19-.59-.55-.55-.97.49.11.54.66 1.14.66.05 0 .1 0 .16-.01.06.03.13.04.19.05 0 .03-.01.06-.02.09l.63-.1c-.08-.02-.18-.05-.28-.1a.7.7 0 0 0 .18-.3c-.25-.06-.44-.08-.58-.08-.09 0-.17 0-.22.03l-.88-.53c.11-.15.28-.22.48-.22.53 0 1.26.48 1.62 1.12 0 .02-.02.03-.03.04.07 0 .14-.02.21-.03h0l.78-.07c-.02-.07-.02-.16-.02-.25v-.03s.02.01.03.01c.05 0 .05-.13 0-.27.01-.04.03-.06.05-.06.04 0 .1.09.17.34l-.08.23.66-.04c.04-.06.05-.13.02-.2.19.03.22.12.18.19l.8-.01.79.01.28-.35c.01.07.08.13.24.14v-.03c.05.09.08.18.09.27l.84.06.82.1.4.06.25.04.17.03.44.09 1.18.3.69.22.98.38c.08.03.16.07.23.1l.75.35.24.12.46.24c.05.03.1.05.15.08l.44.24.15.09c.02 0 .03.02.05.03l.39.22.36.21.2.12.71.41.23.13.38.21.39.21.42.22.4.2.41.19.13.06.21.09.69.29.26.1c.58.22 1.19.41 1.84.58l.41.1.78.16 1.11.18.7.08.55.05.94.06.52.02h.34.29.07.52.37l.57-.02 1.63-.14.31-.04 1.39-.24.8-.19c.02 0 .03 0 .05-.01l.22-.06.43-.12.38-.12.29-.1c.02 0 .04-.01.05-.02l.82-.31.18-.07c.99-.41 1.87-.87 2.7-1.33 1.64-.92 3.06-1.83 4.78-2.51 1.72-.67 3.78-1.15 6.78-1.15 2.66 0 4.59.38 6.19.94 1.2.42 2.24.94 3.27 1.52 1.55.86 3.1 1.87 5.11 2.66s4.46 1.34 7.72 1.34h.04c2.91 0 5.16-.43 7.04-1.08 1.41-.49 2.6-1.1 3.7-1.71 1.64-.92 3.06-1.83 4.78-2.51 1.73-.67 3.78-1.15 6.78-1.15 2.66 0 4.59.38 6.19.94 1.2.42 2.24.94 3.27 1.52l3.98 2.18h0c0-.18.03-.35.09-.35.04 0 .1.09.17.34l-.03.11.9.38c1.14.45 2.42.82 3.92 1.06.01-.02.02-.05.03-.07v.02l-.03.04 1.89.21c-.02-.07-.03-.16-.03-.26 0-.17.03-.34.09-.34.04 0 .1.09.17.34-.04.13-.07.21-.1.27l1.78.06h.02a1.35 1.35 0 0 0 .83-.29c.09-.07.16-.15.23-.24.17-.22.27-.5.27-.8 0-.27-.08-.52-.21-.73-.34.37-.68.69-.99.69-.12 0-.23-.05-.33-.16.31-.1.79-.42 1.1-.78-.24-.21-.55-.35-.9-.35a22.61 22.61 0 0 1-2.59-.14c0 .02-.01.04-.02.06 0 .2.05.27.12.27.06 0 .14-.05.22-.11.08-.05.16-.11.21-.11.08 0 .12.12.05.55h-.15c-.49 0-.75-.24-.76-.71l-.66-.1.07.2c-.07.25-.13.34-.17.34-.06 0-.09-.17-.09-.34 0-.08 0-.17.02-.23a16.01 16.01 0 0 1-2.44-.63c-.85-.3-1.61-.64-2.35-1.02l-.08.08c-.18.17-.26.23-.27.23-.02 0 .1-.13.23-.25.03-.03.06-.05.08-.08l-.88-.48c-1.54-.86-3.1-1.87-5.11-2.66s-4.46-1.33-7.72-1.33h-.04c-2.91 0-5.16.43-7.04 1.08-1.41.49-2.6 1.1-3.69 1.71-1.64.92-3.06 1.83-4.78 2.51-1.72.67-3.78 1.15-6.78 1.15-2.66 0-4.59-.38-6.19-.93-1.2-.42-2.24-.94-3.27-1.52-1.54-.86-3.09-1.87-5.11-2.66-2.01-.79-4.46-1.33-7.72-1.33h-.04c-2.91 0-5.16.43-7.04 1.08-1.41.49-2.6 1.1-3.7 1.71-1.64.92-3.06 1.83-4.78 2.51l-.78.28-.21.07c-1.3.41-2.81.7-4.74.78h-.18l-.87.01c-.97 0-1.85-.05-2.64-.14l-.32-.04-1.13-.19c-.06-.01-.12-.02-.18-.04l-1.36-.35c-.02 0-.03 0-.05-.01l-.51-.17c-.07-.02-.13-.05-.2-.07l-.22-.08-.19-.07c-.49-.19-.96-.41-1.42-.64l-.12-.06-1.12-.6-2.17-1.24-.94-.51-1.55-.73-.23-.09-.22-.09c-1.56-.61-3.39-1.08-5.66-1.26.05.2.13.41.24.6l.1.21c-.02 0-.28-.44-.59-.83-.12 0-.25-.01-.37-.02-.14 0-.29-.01-.44-.02h-.28c-.04.07-.07.1-.09.1-.03 0-.05-.04-.07-.11h-.4c.01.02.02.04.03.07-.1.16-.19.26-.25.31-.05 0-.1.01-.15.02-.05-.05-.05-.17-.03-.29 0-.04.02-.08.03-.12l-1.53.05c.08.25.31.48.51.48.09 0 .17-.05.23-.16.45.13.16.39-.09.74-.16.23-.31.49-.21.77-.92-.37.44-1.15-.3-1.5-.28.22-.6.49-.84.49-.2 0-.34-.18-.36-.71l-.4.05c.01 0 .02.01.03.02 0 0-.01 0-.03-.02l-.94.14c-.03 0-.07.01-.1.02.06.08.12.15.16.19.02.05.05.09.07.14-.35.05-.85-.05-.9.3h0c.17 0 .34.24 0 .3-.34-.27-.69-.44-1.05-.54l-1.12.35c-.06.02-.13.04-.19.07h.05c.47 0 .78.05.81.73zm118.37 6.65c.15 0 .29.1.3.26-.15.11-.31.21-.42.21-.09 0-.15-.06-.18-.21.03-.18.17-.26.3-.26zm-.91.26c-.18.17-.26.23-.27.23-.02 0 .1-.12.23-.25a1.93 1.93 0 0 1 .27-.25c.01 0-.05.07-.23.27zm-1.06-.8c.08 0 .16.1.16.19.41-.03 1.17-1.17.6-1.2.02-.14.08-.19.14-.19.08 0 .16.1.16.19.03 0 .06.01.09.01.17 0 .2-.15.21-.31.44.25-.47 1.69-1.15 1.69-.13 0-.25-.05-.36-.18.02-.14.08-.19.14-.19zm-1.04-.11c0 .29-.37.23-.6.3 0-.29.37-.23.6-.3zm-1.34-.07c.12-.13.27-.25.31-.25s0 .08-.17.32c-.18.13-.28.18-.31.18-.05 0 .05-.13.17-.25zm-2.01-1.76a1.93 1.93 0 0 1 .27-.25c.01 0-.05.07-.23.27-.18.17-.26.23-.27.23-.02 0 .1-.13.23-.25zm-99.69-4.18l.23.27c-.02 0-.15-.13-.27-.25l-.23-.25c.01 0 .09.06.27.23zm-4.85-1.53l.07-.07c.01 0 .03.01.04.02-.02.02-.04.05-.07.08-.18.17-.26.23-.27.23-.02 0 .1-.13.23-.25zm-.86.32c.27.13.54.26.6.6.26-.14.41-.22.48-.22.09 0 .01.16-.18.52-.27-.13-.54-.26-.6-.6-.26.14-.41.22-.48.22-.09 0-.02-.16.18-.52zm-2.71 1.76c-.15 0-.3-.1-.3-.26.04-.14.09-.19.13-.19s.11.05.18.1c.01 0 .03.02.05.03-.09.19-.12.27-.05.27.04 0 .13-.03.26-.1-.06.1-.16.15-.27.15zm-.63-1.32s-.09.08-.13.13l-.23.25c.01 0 .09-.06.27-.23.06-.06.1-.12.14-.16h.03c.22 0 .48.1.85.17-.24.28-.66.49-1.02.49-.19 0-.36-.06-.48-.19.2-.32.37-.44.57-.47zm-2.21 1.97c-.12.12-.21.19-.27.24-.04-.04-.09-.07-.14-.1.02-.08.07-.17.11-.27l.16-.32.14.44zm-.28-.32h-.03c-.2 0-.48.1-.7.2-.09.04-.16.07-.22.11.1-.5.4-1.06.77-1.19.13.21.22.46.31.72l-.12.17zm-1.37-11.28a1.1 1.1 0 0 0 .42-.07 1.71 1.71 0 0 0-.13.23l.72-.26c.05-.01.1-.03.14-.04.02-.33-.02-.72.29-.76-.13.23-.1.48 0 .67l.45-.13c-.17-.14-.15-.49.15-.55.04.15.09.2.13.2.09 0 .12-.27-.13-.5h.1l.17.15s-.02-.04-.11-.15h.11.13.13c.32 0 .62.03.68.29-.1.03-.23.03-.34.05-.03-.1-.09-.17-.22-.17-.05.16-.03.38-.11.5l.38-.08v-.03c.32-.07.49-.29.6-.58-.56-.34-1.45-.35-1.2-1.5-.35.05-.85-.05-.9.3.37.03.71.09.6.6h-.1c-.24 0-.44-.22-.62-.44s-.33-.45-.49-.45c-.09 0-.19.08-.29.28.67.43.25.44-.05.44h-.04c-.2 0-.32 0 .08.16-.02.22.01.29.08.29.04 0 .08-.02.13-.05-.09.09-.16.17-.15.17s.09-.06.27-.23a.9.9 0 0 1 .09-.1c.1-.08.21-.15.29-.15.1 0 .17.09.18.36-.77.03-.43 1.17-1.2 1.2-.05-.02-.09-.04-.12-.08.04-.02.1-.11.16-.34-.07-.23-.12-.33-.16-.34.05-.19.1-.34.05-.34-.03 0-.1.06-.23.2-.5.6.03.38 0 1.2h.06zm3.61-.71h-.03c0 .01.02.01.03.01zm.97 9.55c.12 0 .19-.1.18-.22l-.51.05c.14.13.25.18.33.18zm-2.5.36v-.2l-.15.03c.03.06.08.12.14.17zm1.55-12.23l.32.27c-.02-.02-.04-.04-.07-.06l-.25-.21a1.64 1.64 0 0 0 .37-.26l.21-.17-.26.03c-.04.04-.07.09-.11.13-.04-.03-.08-.07-.1-.11l-.61.09c-.02.09-.07.19-.19.32a.94.94 0 0 0 .31.06c.14 0 .26-.04.38-.09zm-11.76 18.24l.13.23-.27-.47.14.24zm-1.54 1.76l.87-.25v-.03c0-.17.03-.34.09-.34.04 0 .09.08.16.29l.27-.09.41-.15c-.03-.46.02-.89.35-1.09-.15.03-.31.07-.46.12-.84.26-1.63.72-1.67 1.53zm127.53 34.7l-.06.1a.64.64 0 0 0 .06-.1zm-155.33-16.23c-.12-.04-.22-.06-.3-.06-.06 0-.12.01-.17.03a1.24 1.24 0 0 0 .27.03h.19zm.76-36.94h-.9c-.05.18-.03.44-.15.55h.1.44c-.08-.04-.12-.11-.09-.26.23-.07.59 0 .6-.3zm-1.57-.38c-.07 0-.05.3.06.6l.13.26a.75.75 0 0 0 .16.04c-.17-.67-.29-.91-.35-.91zm3.01 34.79s.05-.02.08-.02h-.07v.03zm-1.77 2.1v-.09l-.03.09h.03zm1.47-1.8c-.06-.02-.12-.04-.17-.04-.26 0-.48.24-.58.47-.11.24-.1.47.11.47h.05c.03-.47.77-.24.6-.9zm-.53-34.72c-.05.28-.24.41-.4.58l1.01.07c-.05-.37-.24-.6-.61-.65zm150.93 43.12c.74.11 1.53.19 2.37.23.36-.97.54-1.87-.34-2.02.32-.19.52-.4.63-.63-.17 0-.34-.02-.51-.03-.12.24-.25.47-.43.66-.39-.11-.47-.53-.9-.6.02-.09.06-.15.11-.17l-1.37-.22.06.09c-.09.2-.17.27-.24.27-.1 0-.18-.16-.2-.31 0-.04-.01-.09-.01-.13l-1.1-.29c.02.1.04.25.05.47-.1.2-.17.27-.21.27-.08 0-.08-.22-.05-.44.02-.13.04-.26.08-.34l-.39-.13-.25-.09c-.13.19-.28.26-.38.26-.18 0-.26-.21-.03-.42l-.83-.36h-.03c-.11 0-.22-.05-.27-.14l-1.47-.77c-1.54-.86-3.1-1.87-5.11-2.66s-4.46-1.33-7.72-1.33h-.04c-2.91 0-5.16.43-7.04 1.08-1.41.49-2.6 1.1-3.69 1.71-1.64.92-3.06 1.83-4.78 2.51-1.72.67-3.78 1.15-6.78 1.15-2.66 0-4.59-.38-6.19-.93-1.2-.42-2.24-.94-3.27-1.52-1.54-.86-3.09-1.87-5.11-2.66a18.86 18.86 0 0 0-4.67-1.16h-.03c-.13-.02-.26-.03-.39-.04l-.29-.03-1.65-.09h-.34-.37-.1-.61-.34l-.85.04h-.06c-1.46.11-2.74.33-3.89.64l-.31.09-.52.16-.41.14c-.03 0-.06.02-.09.03-1.37.48-2.53 1.08-3.6 1.68-1.64.92-3.06 1.83-4.78 2.51-1.73.67-3.78 1.15-6.78 1.15-2.66 0-4.59-.38-6.19-.93-1.2-.42-2.24-.94-3.27-1.52-1.54-.86-3.09-1.87-5.11-2.66-2.01-.79-4.46-1.33-7.72-1.33h-.04c-2.91 0-5.16.43-7.04 1.08-1.41.49-2.6 1.1-3.7 1.71-1.64.92-3.06 1.83-4.78 2.51-1.72.67-3.78 1.15-6.78 1.15-2.66 0-4.59-.38-6.19-.93-1.2-.42-2.24-.94-3.27-1.52l-.83-.47c-.18.07-.48.15-.93.22.16.24.31.49.3.9-.53 0-.42-.64-.95-.64-.07 0-.15.01-.25.04.51-.44 1.06-.66 1.46-.73l-2.7-1.45c.27.22.63.92.63 1.28-1.34-.02-.38-.69-.9-1.2.02-.1.06-.15.12-.15l-1.06-.46c-.02 0-.04-.02-.07-.03-.19.19-.28.33.25.33h.16c-.13.57-.65.76-.6 1.5-1.16-.32.26-1.5-.1-1.94l-.46-.16h-.04l-.54-.18c-.05.21 0 .46.24.79.36.14.34.22.21.22-.19 0-.6-.16-.51-.52-.03 0-.06-.01-.09-.01-.17 0-.2.15-.21.31-.63-.09.45-.81-.6-.9.02-.05.04-.1.07-.13l-.4-.09c-.14.32-.31.62-.57.82-.23.07-.59 0-.6.3.23.07.59 0 .6.3l-.32.02c-.5 0-.82-.18-.88-.62.05-.31 1.83-.3.9-.6-.44.13-.67.2-.9.2s-.46-.07-.9-.2c.03.6.05 1.15-.2 1.15-.09 0-.22-.07-.4-.25.08.52-.14.84-.19 1.07.14 0 .29.02.43.03 0-.69.73-.64.97-1.1h0c-.17 0-.34-.24 0-.3.07.43.49.51.6.9.46.29.56.47.83.47.15 0 .34-.05.67-.17-.22-.89-.18-1.23-.08-1.23.16 0 .47.89.08 1.83-.11-.02-.22-.04-.33-.04-.07 0-.15 0-.22.02l1.16.31c-.25-.3-.22-.42-.11-.42.17 0 .55.26.49.55l.1.03c.63.22 1.22.47 1.78.74a.67.67 0 0 1 .43-.29c.08-.22.15-.3.18-.3.05 0 .05.15 0 .31-.06.15-.18.31-.37.31-.03 0-.07 0-.1-.01.02.03.04.05.06.08l1.3.69c1.55.86 3.09 1.87 5.11 2.66 2.01.79 4.46 1.34 7.72 1.34h.04c2.91 0 5.17-.43 7.05-1.08 1.41-.49 2.6-1.1 3.7-1.71 1.64-.92 3.06-1.83 4.78-2.51 1.73-.67 3.78-1.15 6.78-1.15 2.66 0 4.59.38 6.19.94 1.2.42 2.24.94 3.27 1.52 1.55.86 3.1 1.87 5.11 2.66s4.46 1.34 7.72 1.34h.04c2.91 0 5.16-.43 7.04-1.08 1.41-.49 2.6-1.1 3.7-1.71 1.64-.92 3.06-1.83 4.78-2.51a15.45 15.45 0 0 1 2.93-.83c.02 0 .04 0 .06-.01.81-.15 1.7-.25 2.71-.29l1.08-.02h.3l.56.01h.18l1.38.1.78.1.8.14.72.15.28.07.81.24.37.12c.11.04.22.07.32.12l.81.33.34.15c.62.28 1.2.6 1.79.92 1.55.86 3.1 1.87 5.11 2.66s4.46 1.34 7.72 1.34h.04c2.91 0 5.16-.43 7.04-1.08 1.41-.49 2.6-1.1 3.7-1.71 1.64-.92 3.06-1.83 4.78-2.51 1.73-.67 3.78-1.15 6.78-1.15 2.66 0 4.59.38 6.19.94 1.2.42 2.24.94 3.27 1.52 1.54.86 3.09 1.87 5.11 2.66 1.16.46 2.46.83 3.98 1.06l-.12-.38-.17-.64.25.75.07.28zm.37-1.25c.13 0 1.45.32 1.66.37.58.19-.69.07-1.2.6.08-.48-.28-.52-.3-.9-.15-.05-.19-.07-.16-.07zm-144.81-4.7c-.09 0-.11-.16-.09-.31.03-.16.1-.31.2-.31.07 0 .15.07.24.27-.17.26-.28.36-.35.36zm7.09 4.19c-.06 0-.09-.17-.09-.34s.03-.34.09-.34c.04 0 .1.09.17.34-.07.25-.13.34-.17.34zm134.7.01c-.06 0-.09-.17-.09-.34s.03-.34.09-.34c.04 0 .1.09.17.34-.07.25-.13.34-.17.34zm1.68 1.16c-.18.17-.26.23-.27.23-.02 0 .1-.12.22-.25a1.93 1.93 0 0 1 .27-.25c.01 0-.04.07-.22.27zm-148.98-5.48l.58.07c.19-.21.35-.43.48-.62h-.13c-.43 0-.67.25-.93.55zm-1.32-.1c.08-.37.31-.98.21-.98-.03 0-.11.07-.23.24-.05.2-.2.31-.45.31h-.12l.06.43.53.02zm152.24 18.3s-.08.03-.11.1c.09 0 .17.02.26.03-.03-.07-.09-.13-.15-.13zm3.07-.4c-.13 0-.29.04-.49.07-.2.04-.44.07-.74.07s-.65-.04-1.08-.15c-.05.29-.26.43-.49.54l.83.06c.03-.16.09-.29.26-.31.21.15.54.22.91.22.41 0 .85-.08 1.2-.22-.1-.23-.22-.3-.39-.3zm-155.94-19.24c-.03.26-.01.53.02.81.1-.32.47-.61-.02-.81zm2.72-.54a.99.99 0 0 0 .29-.06c.28-.17.31-.32.24-.46l-.95-.13c.06.07.09.18.11.28.04.18.09.37.31.37zm151.21 18.58c.15-.61-.25-.67-.48-.89l-.52-.05c.42.43.68 1.02.7 1.55.07-.23 0-.59.3-.6zm.69-10.53s-.05 0-.09.01c.04.08.07.16.09.23h.2c-.02-.13-.06-.24-.21-.24zm.21 10.22s.04-.06.05-.09l-.34.57a10.97 10.97 0 0 0 .29-.49zm-114.36-53.84s.07-.03.16-.12c.43-.07.51-.49.9-.6.2.8.07 1.24.17 1.24.07 0 .26-.2.73-.64.33.6-.01 1.1.17 1.1.05 0 .14-.04.3-.13 0 .07 0 .14-.02.2h.19l.28-.01h.02c-.03-.27-.15-.46-.27-.65 0-.01 0-.02-.01-.03.06-.03.12-.04.18-.04.04 0 .08 0 .12.02a.37.37 0 0 0-.05.15c.34.01.4.31.77.31.04 0 .09 0 .14-.01.01-.15.03-.3.08-.41.11.02.2.04.29.04a.61.61 0 0 0-.04.3c-.24.1-.48.22-.69.33h.18.63.28l1.79.14c0-.21.19-.42.35-.42.12 0 .23.13.2.5 1.11.17 2.06.41 2.92.71 1.2.42 2.24.94 3.27 1.52l3.12 1.75.27.14 1.72.77c2.01.79 4.46 1.34 7.72 1.34h.04c2.91 0 5.16-.43 7.04-1.08 1.41-.49 2.6-1.1 3.7-1.71 1.64-.92 3.06-1.83 4.78-2.51 1.72-.67 3.78-1.15 6.78-1.15 2.66 0 4.59.38 6.19.93 1.2.42 2.24.94 3.27 1.52 1.55.86 3.1 1.87 5.11 2.66s4.46 1.34 7.72 1.34h.04c2.91 0 5.16-.43 7.04-1.08 1.41-.49 2.6-1.1 3.7-1.71 1.64-.92 3.06-1.83 4.78-2.51 1.73-.67 3.78-1.15 6.78-1.15 2.66 0 4.59.38 6.19.93 1.2.42 2.24.94 3.27 1.52l2.59 1.47c.04-.04.07-.06.08-.06 0 0 0 .02-.05.08a21.54 21.54 0 0 0 2.5 1.18l1.24.44c0-.18-.15-.2-.31-.22.1-.14.19-.19.27-.19.17 0 .3.25.4.52l1 .26c-.09-.06-.19-.16-.29-.26-.16-.16-.31-.32-.46-.32-.11-.36.3-.52.49-.52.13 0 .15.08-.21.22.22.28.55.46.9.6-.06.2-.14.3-.22.33l.56.11c.03-.06.08-.09.13-.09.09 0 .21.07.34.17l.86.12c.03-.03.04-.05.05-.05s.02.02 0 .05l.5.05c.07-.09.14-.13.2-.13.08 0 .14.06.19.16l1.01.06c-.31-.36-.79-.55-.92-1.1.06-.17.12-.24.19-.24.26 0 .57.94.71 1.15.96-.14 1.06-1.14 2.1-1.2-.2.33-.03.6.12.81a2.1 2.1 0 0 0 .13-.26 2.03 2.03 0 0 1 .05-.55s.02 0 .03.01a1.36 1.36 0 0 0-.4-.88c-.06-.02-.13-.04-.19-.04h-.04c-.25.85-.84 1.37-1.8 1.5.58-.67.73-.73.58-.73h-.06-.09c-.16 0-.41-.02-.73-.17a2.65 2.65 0 0 0 1.05-.94h-.23c-.02.03-.04.04-.07.04s-.06-.02-.09-.05a8.69 8.69 0 0 1-.51-.02c-.1.16-.21.28.14.37-.73.53-.9.7-1.8 1.5.19-.82.6-1.41 1.2-1.8 0-.04-.02-.07-.03-.1-.1 0-.2-.02-.3-.02-.12.07-.25.19-.37.3-.19.18-.35.36-.4.36-.04 0 0-.14.19-.55-1.46.06.46 1.8-1.12 1.8h-.08c.16-.24.31-.49.3-.9-.15.14-.26.19-.36.19-.15 0-.28-.12-.54-.19v.6c.3.15.32.22.22.22-.18 0-.78-.27-.52-.82.24-.21.6-.3 1.05-.3h.15c-.08-.28-.1-.61-.1-.92l-.87-.17c-.09.15-.23.26-.24.49-.05.14-.1.19-.15.19-.07 0-.12-.12-.11-.25 0-.12.08-.25.24-.25h.02l-.15-.28-1.33-.39-.25-.09c.14.27.19.38.11.38-.07 0-.22-.08-.48-.22-.03-.12 0-.21.04-.29l-.72-.3h0c-.08 0-.12-.03-.15-.07l-.45-.22c.08.08.11.26.13.44.03.24.03.49.08.49.03 0 .09-.09.18-.34.34.06.17.3 0 .3h0c-.06.26.12.28.3.3-.04.13-.11.19-.2.19-.34 0-.9-.77-.7-1.39.04-.02.07-.03.1-.03h0l-1.25-.66-1.28-.74c-.06.2-.11.27-.15.27-.06 0-.09-.17-.09-.34v-.06c-1.08-.62-2.23-1.25-3.59-1.79-2.01-.79-4.46-1.34-7.72-1.34h-.04c-2.91 0-5.16.43-7.04 1.08-1.41.49-2.6 1.1-3.69 1.71-1.64.92-3.06 1.83-4.78 2.51-1.72.67-3.78 1.15-6.78 1.15-2.66 0-4.59-.38-6.19-.94-1.2-.42-2.24-.94-3.27-1.52-1.54-.86-3.09-1.87-5.11-2.66-2.01-.79-4.46-1.34-7.72-1.34h-.04c-2.91 0-5.17.43-7.04 1.08-1.41.49-2.6 1.1-3.7 1.71-1.64.92-3.06 1.83-4.78 2.51-1.73.67-3.78 1.15-6.78 1.15-2.66 0-4.59-.38-6.19-.94-1.2-.42-2.24-.94-3.27-1.52-1.44-.8-2.88-1.73-4.7-2.49-.07.04-.12.06-.14.06-.03 0 0-.04.04-.1l-.31-.13a17.54 17.54 0 0 0-2.01-.66l-.16-.04-.5-.12a3.61 3.61 0 0 0-.35-.07c-.03 0-.07-.01-.1-.02l-.71-.13-.23-.04c.08.08-.04.17-.11.31-.01-.11 0-.22.06-.32l-.44-.06a4.19 4.19 0 0 0-.37-.04c-.03.05-.05.08-.08.08s-.05-.04-.06-.09l-1.23-.1-1.43-.04h-.04l-.81.01-.67.03c-.21 0-.41.02-.61.04a1.06 1.06 0 0 1 .18.22h-.1c-.32 0-.69.26-.99.55-.04.04-.08.07-.11.11-.32.33-.52.66-.46.66zm109.55 4.27l.23.27c-.02 0-.15-.13-.27-.25l-.23-.25c.01 0 .09.06.27.23zm-.6.6l.23.27c-.01 0-.15-.13-.27-.25l-.23-.25c.01 0 .09.06.27.23zm-1.42 0h.13.13l.27-.01c-.06.26-.36.29-.68.29h-.13-.13l-.27.01c.06-.26.36-.29.68-.29zm-1.22-1.85a.75.75 0 0 1 .24.04c-.43.2-.03 1.24-.66 1.24a.75.75 0 0 1-.24-.04c.43-.2.03-1.24.66-1.24zm-1.57-.9c.14 0 .24.24.37.47.12.24.26.47.47.47h.07c-.06.17-.12.24-.19.24-.12 0-.27-.21-.43-.42s-.34-.42-.54-.42h-.04c.12-.24.21-.33.3-.33zm-.95.88c.07 0 .19.1.35.36-.09.2-.17.27-.24.27-.1 0-.18-.16-.2-.31-.03-.16 0-.31.09-.31zm-2.7-2.37l.27-.25c.01 0-.04.07-.23.27-.18.17-.26.23-.27.23-.02 0 .1-.13.22-.25zm-91.2.73l.22.19h.05c.02.01.04.02.06.02.06 0 .12-.05.14-.2h-.03c.04-.12.04-.29.07-.41.53.22.04.55 0 .9-.37-.07-.67-.18-.89-.3.07-.12.19-.18.37-.19zm-2.15-.61h.02l.04.1s-.03-.04-.06-.1zm-.03-.12s-.01.02-.02.03c-.09-.19-.22-.49-.27-.73l.24.24c0-.24.19-.29.35-.36.05.42-.28.47-.31.82zm.08-1.04a.82.82 0 0 1-.42-.23 3.3 3.3 0 0 1 .42.23zm-1.37-.21c.08-.05.19-.09.35-.12l.48.49c-.41.04-.63.26-.74.6-.28-.23-.23-.55-.09-.97zm-3.26 1.09c0-.02.01-.02.02-.01zm2.95-1.46h.14v.14c-.25.06-.34.29-.64.3-.03-.32.18-.44.5-.44zm-.84 1.16s-.01-.05-.02-.07a1.23 1.23 0 0 1 .35-.05c.01.24.17.33.26.48a.51.51 0 0 0-.13.16c-.16.07-.23.22-.42.26.02-.25-.06-.39-.2-.44.04-.02.09-.11.16-.34zm-.2.32s-.1-.02-.15-.02c-.12 0-.26.03-.41.07-.02-.05-.04-.11-.05-.16a1.56 1.56 0 0 0 .46-.16c.03-.01.06-.03.1-.04 0 .13.02.26.06.31zm-.07-2.02c0 .18 0 .37-.06.51-.09.01-.17.03-.25.06-.02-.08-.02-.15-.03-.22.14-.12.26-.24.34-.35zm-.55 1.55a1.21 1.21 0 0 1 .15-.44c.01.17-.03.33-.15.44zm0-1.02l.05.13c-.14.08-.25.18-.35.3-.02-.05-.03-.11-.04-.18l.35-.25zm-2.56-.35l.13.21c.04-.15.42-.36.74-.46l-.18.19c-.22.26-.35.52-.24.52.04 0 .12-.04.24-.13a1.15 1.15 0 0 1 .65-.47v.05c-.3.78-1.76.78-1.2.9.12.14.24.19.35.19.27 0 .5-.35.77-.7.13-.18.28-.35.44-.49.22.01.41.09.5.21 0 .07 0 .13-.02.18h-.04c-.49 0-.72.26-.9.56-.13.02-.18.03-.06.1l-.14.24c.05 0 .09.01.13.01a.49.49 0 0 0 .41-.19c.1-.03.22-.09.34-.15-.06.39-.28.42-.17.66l-.06.06a.67.67 0 0 0-.33-.08c-.15 0-.3.04-.44.08-.08.02-.16.05-.24.06-.2-.46-.47-.81-1.19-.95.13-.14.31-.38.52-.62zm1.93.57s-.1.06-.15.08c.04-.05.09-.1.15-.14v.06zm110.79 44.02c-.1 0-.2.1-.24.38h0c.13 0 .26.15.16.24h.51c0-.04-.01-.09-.02-.13-.07-.25-.25-.49-.41-.49zm1.83-1.12c-.17-.53-.67-.92-1.26-.92h-.48c.04.37.05.78-.02 1.21.05-.22.27-.48.43-.48.07 0 .14.05.17.18-.38.12-.61.39-.6.9.36.22.66.49.95.77.08-.03.17-.07.24-.12-.07-.55-.48-.75-.59-1.25.16 0 .32.16.48.32.15.16.31.32.45.32.1 0 .2-.09.28-.34-.29 0-.37-.5-.03-.59zm-.44 11.97c-.06 0-.09.17-.09.34s.03.34.09.34c.04 0 .1-.09.17-.34-.07-.25-.13-.34-.17-.34zm-125.81-38.43c-.09.24-.37.27-.7.27h-.2-.2c-.35 0-.66.04-.71.33.43.07.51.49.9.6.07-.23 0-.59.3-.6-.01.41.14.66.3.9-.09 0-.19.02-.3.04.02.27.24.33.3.57-.08-.04-.15-.06-.22-.06-.26 0-.43.24-.54.52l.67-.28c.32-.56.5-.91.09-1.99h.04c.31 0 .71-.15.26-.3zm-24.26-14.89c-.23.07-.59 0-.6.3.23-.07.59 0 .6-.3zm1.8.6c-.88.07-.19.8-1.12 1.17.01 0 .03.01.04.02.68-.07 1.04-.47 1.08-1.19zm-2.72.54l.14.05.27.1c.2-.19.63-.16.5-.68-.07-.03-.14-.04-.21-.04-.34 0-.66.31-.7.58zm148.39 39.23l-.84-.08c.14.08.28.27.32.45.28-.02.44-.16.52-.37zm.68 13.89a3.78 3.78 0 0 0 .58.06c.35 0 .46-.1.43-.2s-.2-.2-.41-.2c-.19 0-.42.09-.61.34zm-150.55-54.26c.02.19-.27.41-.46.62l.4.08c.24-.33.53-.65.07-.71zm35.48.73c-.02-.07-.09-.14-.15-.14s-.12.05-.14.2l.29-.07zM623.62 289c-.06 0-.09.17-.09.34 0 .06 0 .12.01.17.05.03.1.05.16.08a1.07 1.07 0 0 0 .09-.26c-.07-.25-.13-.34-.17-.34zm1.03 22.35l-.67-.37h0c-.31.08-.41.24.04.76a1.05 1.05 0 0 1 .63-.39zm-.03.39c.17.3.56.44.82.44.23 0 .37-.11.18-.35-.03-.02-.07-.03-.1-.05-.02.14-.05.26-.21.26h-.09c-.05-.22-.27-.48-.43-.48-.07 0-.14.05-.17.18zm4.28-23c-.23.07-.59 0-.6.3.23-.07.59 0 .6-.3zm.53 14.89c.06.02.12.04.17.04.26 0 .48-.24.58-.47.11-.23.1-.47-.11-.47h-.05c-.01.16-.04.31-.21.31-.03 0-.05 0-.09-.01 0-.1-.08-.2-.16-.2-.06 0-.11.05-.14.2.18.02.36.04.3.3-.18.02-.36.04-.3.3zm-1.8 9.01c.15.11.31.21.42.21.05 0 .09-.02.12-.06l-.92-.29-1.32-.53c-.37.41-.86 1.12-1.3 1.26.96.18.95.74.5 1.29l.41.17c.04-.1.08-.13.14-.13s.15.05.25.09a.8.8 0 0 0 .36.1c.05 0 .09 0 .15-.02-.05.09-.08.17-.11.25l1.24.39.07-.33c.27.11.28.25.21.41l.51.12c.12-.1.29-.15.39-.15.13 0 .15.07-.16.2l1 .19c0-.04 0-.08.01-.12.03-.16.1-.31.2-.31.07 0 .15.07.24.27l-.15.21a25.12 25.12 0 0 0 3.53.24h.04c2.91 0 5.16-.43 7.04-1.08 1.41-.49 2.6-1.1 3.7-1.71 1.64-.92 3.06-1.83 4.78-2.51 1.73-.67 3.78-1.15 6.78-1.15 2.66 0 4.59.38 6.19.93 1.2.42 2.24.94 3.27 1.52l.28.16c.01 0 .03.01.04.02 1.44.82 2.91 1.74 4.79 2.48 2.01.79 4.46 1.33 7.72 1.33h.04a26.65 26.65 0 0 0 2.95-.16c.03 0 .05 0 .08-.01a18.94 18.94 0 0 0 2.2-.38l.36-.09 1.45-.44c1.19-.41 2.22-.91 3.17-1.43l.31-.17.21-.12.24-.14c.06-.03.11-.06.17-.1l.76-.44 2.29-1.25.31-.15.18-.08.83-.35.34-.13.87-.29c.04-.01.09-.03.13-.04 1.45-.42 3.18-.69 5.44-.69 2.66 0 4.59.38 6.19.93 1.2.42 2.24.94 3.27 1.52 1.55.86 3.1 1.87 5.11 2.66s4.46 1.33 7.72 1.33h.04c2.91 0 5.16-.43 7.04-1.08 1.41-.49 2.6-1.1 3.7-1.71 1.64-.92 3.06-1.83 4.78-2.51 1.73-.67 3.78-1.15 6.78-1.15 2.66 0 4.59.38 6.19.93 1.2.42 2.24.94 3.27 1.52l3.84 2.11c.02-.01.03-.02.03-.02l-.02.03 1.26.55c.74.29 1.54.55 2.42.76 0-.35.3-.42.31-.76.34.06.17.3 0 .3h0c0 .29.37.23.6.3-.03.2-.2.25-.41.27 1.38.29 2.96.46 4.79.46h.02c.1 0 .19 0 .28-.03.17-.22.38-.41.69-.41h.02c.17-.19.29-.43.33-.7a1.34 1.34 0 0 1-.32.1c.89-.87-.75-.52-.6-1.5l.79.61c-.22-.43-.66-.72-1.18-.73-.03.02-.06.03-.09.03-.04 0-.08-.01-.12-.03-.51 0-.99-.02-1.45-.05.36.32.16 1.14 1.15 1.37-.07.11-.18.15-.29.15-.48 0-1.21-.84-1.22-1.55a17.56 17.56 0 0 1-2.28-.33l-.12.23c-.04 0-.07.01-.1.01-.19 0-.31-.15-.37-.3l-.03-.08-1.28-.38c-1.2-.42-2.24-.94-3.27-1.52-1.54-.86-3.1-1.87-5.11-2.66s-4.46-1.34-7.72-1.34h-.04c-2.91 0-5.16.43-7.04 1.08-1.41.49-2.6 1.1-3.69 1.71-1.64.92-3.06 1.83-4.78 2.51-1.72.67-3.78 1.15-6.78 1.15-2.66 0-4.59-.38-6.19-.94-1.2-.42-2.24-.94-3.27-1.52-1.54-.86-3.09-1.87-5.11-2.66-2.01-.79-4.46-1.34-7.72-1.34h-.04c-2.91 0-5.16.43-7.04 1.08-1.41.49-2.6 1.1-3.7 1.71l-1.32.76-1.21.68-.26.14-1.96.91s-.02 0-.03.01c-.04.01-.08.03-.11.04l-1.6.52-.37.09c-.45.11-.92.2-1.43.27l-.24.03c-.9.12-1.9.19-3.04.19-2.66 0-4.59-.38-6.19-.94-1.2-.42-2.24-.94-3.27-1.52-1.54-.86-3.09-1.87-5.11-2.66l-1.65-.56-.23-.06-.36-.09-.7-.16-.02.02c-.01-.01-.01-.01-.01-.02-.84-.17-1.74-.3-2.71-.37h-.11l-1.26-.06h-.33-.35-.04l-1.68.05a3.03 3.03 0 0 0-.31.02l-.68.06c-.11 0-.21.02-.32.03-.01.02-.03.03-.05.05a.32.32 0 0 0-.14.03v-.06c-1.47.19-2.74.5-3.87.89-1.25.44-2.33.97-3.32 1.51 0 .02-.01.04-.02.06-.02 0-.04-.01-.06-.02l-.29.16c-1.64.92-3.06 1.83-4.78 2.51l-.88.32c0 .01 0 .02.01.04-.07.25-.13.34-.17.34-.05 0-.08-.15-.09-.3a12.67 12.67 0 0 1-1.53.38c0 .06 0 .12-.01.17a.29.29 0 0 1-.25-.12c-1.1.2-2.36.32-3.85.32-1.73 0-3.15-.16-4.37-.43-.03.13-.09.22-.24.23-.03-.12-.04-.21-.04-.29l-.2-.05c0 .02-.01.05-.03.07-.08.17-.28.33-.44.33-.12 0-.21-.1-.2-.37-.56.29-.49 1.21-1.33 1.21-.05 0-.11 0-.17-.01l-.18.1c-.04 0 1.45-.94 1.38-1.6zm-1.07-.19l.18.09c.07.05.15.09.26.09h.03c-.03.18-.17.26-.3.26-.15 0-.3-.1-.3-.26.04-.14.09-.19.14-.19zm140.36 1.48c.14 0 .87.46.51 1.13.03 0 .06.01.09.01.17 0 .2-.15.21-.31.44.13-.03.26 0 .6h-.6v-1.2c-.23-.16-.27-.23-.21-.23zm-2.19-.37c.18.2.24.28.22.28-.01 0-.15-.13-.27-.25l-.23-.25c.01 0 .09.06.27.23zm-.74 1.67c.14-.26.36-.52.53-.52.1 0 .18.1.22.36.04.36-.16.16-.3.3-.28.28-.44.38-.53.38-.13 0-.06-.26.08-.52zm-1.36-1.07c0 .29-.37.23-.6.3 0-.29.37-.23.6-.3zm-.78-1.24s.1.09.17.34c-.07.25-.13.34-.17.34-.06 0-.09-.17-.09-.34s.03-.34.09-.34zm-.73.64l.23.28c-.01 0-.15-.13-.27-.25l-.23-.25c.01 0 .09.06.27.23zm-104.27-5.36s.02.06.02.21a.64.64 0 0 1-.1.13c.03-.19.06-.34.08-.34zm-4.48-.35s.05 0 .07-.01c.03.05.07.14.12.3l-.08.23c-.12-.14-.19-.33-.11-.52zm-3.06 1.29l.25.2c-.07.25-.13.34-.17.34-.06 0-.09-.17-.09-.34 0-.07 0-.14.01-.2zm-1.86 1.1c0 .29-.37.23-.6.3 0-.29.37-.23.6-.3zm-.78-.93a.75.75 0 0 0 .15.03h.03c-.03.18-.17.26-.3.26a2.24 2.24 0 0 1 .12-.29zm-1.36.94h.03c-.07.25-.13.34-.17.34-.05 0-.08-.14-.09-.3a.51.51 0 0 1 .22-.04zm-1.35.32s.17.08.48.28c.16.18.2.25.17.25-.05 0-.23-.13-.39-.26s-.3-.26-.25-.26zm-.47 2.7l-.23-.25c.01 0 .09.06.27.23l.23.27c-.02 0-.15-.13-.27-.25zm.05-1.53c0 .29-.37.23-.6.3 0-.29.37-.23.6-.3zm-.6 1.8s0 .07-.02.1c-.07.02-.12.06-.15.13-.13.04-.3.04-.43.08 0-.29.37-.23.6-.3zm-2.7-.9s.08.05.11.06c-.04-.02-.08-.04-.12-.07h0zm-8.59 3.35c-.06 0-.09-.17-.09-.34s.03-.34.09-.34c.04 0 .1.09.17.34-.07.25-.13.34-.17.34zm6.34-2.82c.12-.13.27-.25.31-.25.03 0 0 .09-.17.32-.18.13-.28.18-.31.18-.05 0 .05-.13.17-.25zm-.46 1.57l.22.27c-.02 0-.15-.13-.27-.25l-.23-.25c.01 0 .09.06.27.23zm-.3.6l.23.27c-.02 0-.15-.13-.27-.25l-.23-.25c.01 0 .09.06.27.23zm-1.85-.02a1.93 1.93 0 0 1 .27-.25c.01 0-.04.07-.22.27l-.27.23c-.02 0 .1-.13.23-.25zm-.73-1.82s.1.09.17.34c-.07.25-.13.34-.17.34-.06 0-.09-.17-.09-.34s.03-.34.09-.34zm.17.94c0 .29-.37.23-.6.3 0-.29.37-.23.6-.3zm-1.38.56s.1.09.17.34c-.07.25-.13.34-.17.34-.06 0-.09-.17-.09-.34s.03-.34.09-.34zm-.13-1.46c.16.52-.1.63-.46.63-.13 0-.26-.01-.4-.03l-.4-.03c-.09 0-.17 0-.24.02.25-.45.97-.44 1.5-.6zm-1.86.84c.07 0 .18.09.35.36-.09.2-.17.27-.24.27-.1 0-.18-.16-.2-.31-.03-.16 0-.31.09-.31zm-.99-.84c.18 0 .31.13.35.26s0 .26-.2.26c-.13 0-.33-.06-.62-.23.16-.22.33-.3.46-.3zm-1.11-.02l.27-.25c.01 0-.05.07-.23.27-.18.17-.26.23-.27.23-.02 0 .1-.13.23-.25zm-.77.94c.17 0 .2-.15.21-.31.28.32 1.11.09.9.9-.27-.13-.54-.27-.6-.6-.11.05-.2.61-.34.61-.07 0-.16-.15-.26-.61h.09zm-.39-.61l.23.27c-.01 0-.15-.13-.27-.25l-.23-.25c.01 0 .09.06.27.23zm-.9 0c.54.22.04.55 0 .9-.53-.22-.04-.55 0-.9zm-2.51-23.94s-.07.09-.08.2l.25.11c-.07-.23-.12-.31-.16-.31zm.45-2.48l-.51-.26c.05.28.11.59.23.98-.01-.34.1-.57.28-.72zm1.22 2.71s.13-.05.31-.18c.17-.24.21-.32.17-.32s-.19.13-.31.25c-.12.13-.22.25-.17.25zm.86.78c.07 0 .19-.1.35-.36-.09-.2-.17-.27-.24-.27-.1 0-.18.16-.21.31-.03.16 0 .31.09.31zm4.77-1.18c.1.05.18.1.25.1.06 0 .11-.04.15-.17-.18-.02-.36-.04-.3-.3.19-.05.46-.03.56-.16-.29 0-.57-.02-.84-.04-.17.1-.28.26-.32.5.05-.01.1-.02.15-.02a.8.8 0 0 1 .36.1zm-1.17 12.48c-.05 0 0 .14.29.52.21.14.32.2.36.2.08 0-.05-.18-.22-.36s-.37-.36-.43-.36zm.2-10.46s.04-.01.07-.01.06 0 .09.01h0c.1.02.19.03.29.04v-.04c-.36-.06-.18-.33 0-.6-1.06-.09 1.06-.81 0-.9-.01.16-.04.31-.21.31-.03 0-.05 0-.09-.01 0-.1-.08-.19-.16-.19-.06 0-.12.05-.14.19.57.23.01.79-.1 1.18.08 0 .16.02.24.02zm-6.75-2.1c.07-.23 0-.59.3-.6.05.22.27.48.43.48.07 0 .14-.05.17-.18-.23-.07-.35-.25-.3-.6.21.13.4.18.57.18.47 0 .82-.4 1.13-.88l-.38-.15c-.18.35-.37.68-.72.85-.03-.27-.29-.31-.58-.31h-.25-.25-.11c-.09.18-.75 1.16 0 1.2zm8.34 11.88a.3.3 0 0 1 .09-.22c-.13 0-.25 0-.37-.01.03.1.12.18.28.23zm-.17-10.95c-.1 0-.18.16-.2.31-.03.16 0 .31.09.31.07 0 .19-.1.35-.36-.09-.2-.17-.27-.24-.27zm-2.47-1.23c-.23.07-.59 0-.6.3.23-.07.59 0 .6-.3zm2.33 14.59c-.95-.62.85-.6 0-.9-.09.34-.39.42-.71.42-.14 0-.28-.02-.41-.03a2.23 2.23 0 0 0-.33-.03c-.15 0-.21.05-.06.24.49.19 1.03.24 1.5.3zm1.2-12.76l-.27.25-.23.25c.01 0 .09-.06.27-.23l.23-.27zm3.48 11.83s-.08 0-.16.03c.14-.01.18-.03.16-.03zm-3.69.97h.04.77c.05-.27.2-.33.35-.33a.58.58 0 0 1 .19.03c.05.01.09.03.11.03s0-.01-.03-.05c-.02-.38-.39-.42-.3-.9.15-.35.32-.68.6-.9 0 .3.24.36.3.6-.25.54-.31.71-.26.71.04 0 .14-.09.28-.19.14-.09.3-.18.47-.18.15 0 .29.07.42.26-.31.31-.62.61-.97.87l.68-.06c.11-.54.63-.75.9-.82h0c-1.07-.34-1.38-1.45-2.5-1.73l-.53.01c-.26.85.99.18.63 1.12h0c-.3 0-.36-.24-.6-.3-.01.41.14.66.3.9-.26-.12-.44-.17-.55-.17-.35 0-.06.5.25 1.07-.2-.19-.35-.26-.49-.26-.27 0-.52.23-1 .26.07 0 .14.02.21.03h.76zm-.97-.04h-.01 0zm-15.86-20.59c-.07.03-.13.04-.18.04-.15 0-.29-.09-.42-.18l-.52-.1c-.03.05-.05.13-.08.23.12.06.57.35.88.35.17 0 .3-.09.32-.35zm-3 1.19h0c-.17 0-.34.24 0 .3.64-.88 1.12-.06 1.8-.9.08.22.15.3.18.3.05 0 .05-.15 0-.31-.06-.15-.18-.31-.37-.31-.03 0-.07 0-.1.01-.17.38-.48.56-.81.56-.35 0-.72-.2-.99-.56-.6.69.08.33.3.9zm9.1 3.78s.08-.05.21-.18c.54-.03.24-.91.81-.91h.09c.05.35-.05.85.3.9.63-.63-.39-1.13-.9-1.5.21.62-.59 1.68-.51 1.68zm-5.02-4.48c.09 0 .18-.03.26-.12l-.81-.25c.16.22.37.36.56.36zm-4.92-.84c.06 0 .13-.06.21-.21-.13 0-.26-.02-.4-.02.04.13.1.23.19.23zm3.62 2.62s.1-.06.23-.18c.45-.55.81-1.02 0-1.5.2.58-.38 1.69-.23 1.69zm-5.78-1.69c0-.5.83-.17.9-.6-.35-.05-.85.05-.9-.3h.12c.22 0 .36-.08.5-.15.12-.06.24-.13.4-.15h-.45-.02a1.34 1.34 0 0 0-.63.16c-.15.46-.17.85.08 1.05zm1.8 0c.18-.02.36-.04.3-.3-.24-.32-.5-.62-.78-.89h-.11c.49.59-.03.38 0 1.19h.6zm-1.26 49.96c2.66 0 4.59.38 6.19.93 1.2.42 2.24.94 3.27 1.52 1.55.86 3.09 1.87 5.11 2.66 2.01.79 4.46 1.33 7.72 1.33h.04c2.91 0 5.16-.43 7.04-1.08 1.41-.49 2.6-1.1 3.7-1.71 1.64-.92 3.06-1.83 4.78-2.51 1.73-.67 3.78-1.15 6.78-1.15 2.66 0 4.59.38 6.19.93 1.2.42 2.24.94 3.27 1.52 1.55.86 3.1 1.87 5.11 2.66s4.46 1.33 7.72 1.33h.04c2.91 0 5.16-.43 7.04-1.08 1.41-.49 2.6-1.1 3.7-1.71 1.64-.92 3.06-1.83 4.78-2.51 1.72-.67 3.78-1.15 6.78-1.15 2.07 0 3.69.23 5.07.59l.81.24.31.1c.5.17.98.37 1.44.58.01 0 .03.01.04.02l.43.2c.07.03.13.07.2.1l.77.4.25.14c.05.03.1.06.15.08l2.7 1.53 1.33.67c.1.04.2.09.3.14l.64.27.15.06.23.09 1.28.43.57.16c.03 0 .06.02.09.02l.3.07.27.06.81.16a20.28 20.28 0 0 0 2.49.29h.07l1.6.05h.04c2.91 0 5.16-.43 7.04-1.08 1.41-.49 2.6-1.1 3.7-1.71 1.64-.92 3.06-1.83 4.78-2.51 1.73-.67 3.78-1.15 6.78-1.15 2.66 0 4.59.38 6.19.93 1.2.42 2.24.94 3.27 1.52l.36.21v-.04c.03-.22.09-.44.15-.44.05 0 .1.16.12.61l3.69 1.99c.06-.1.24-.15.41-.15.27 0 .51.13.15.39l.25.1.91.33-.26-.53.26.53.65.2c.19-.27.78-.56.57-1.05a2.68 2.68 0 0 1 1.2 1.2c.02.11 0 .15-.04.15-.09 0-.31-.2-.51-.4s-.4-.4-.46-.4c-.04 0-.02.09.11.34-.04.18-.22.22-.37.29.72.19 1.5.34 2.34.46-.16-.33-.39-.63-.77-.75.05-.45-.11-1.11.3-1.2h.6c-.01.41.14.66.3.9h-.05c-.38 0-.62-.15-.85-.3-.13.5.59.84 1.07.84.23 0 .41-.07.43-.24h-.6c.63-.66-.19-1.32-.53-1.95-.03 0-.07-.01-.1-.01-.03.21-.03.46-.27.46 0-.21-.03-.38-.09-.53l-.59-.12c-.06.03-.14.04-.22.05-.06.26.12.28.3.3-.03.13-.1.18-.17.18-.16 0-.38-.26-.43-.48-.03 0-.06-.01-.09-.01-.17 0-.2.15-.21.31-.54-.19-.39-.43-.04-.57l-.83-.26-1.08-.42c-.06.15-.17.31.16.35-.05.35-.55.25-.9.3-.14-.57.38-.48.55-.74l-1.99-1.01c-1.54-.86-3.1-1.87-5.11-2.66s-4.46-1.34-7.72-1.34h-.04c-2.91 0-5.16.43-7.04 1.08-1.41.49-2.6 1.1-3.69 1.71-1.64.92-3.06 1.83-4.78 2.51-1.72.67-3.78 1.15-6.78 1.15-1.44 0-2.67-.11-3.75-.3l-.6-.12h-.02l-1.04-.27-.78-.25-.54-.2c-.45-.17-.88-.36-1.29-.57l-.3-.15-.48-.25-.6-.33-.06-.03-.39-.22-1.29-.74-1.35-.75-.5-.26-.36-.17-.52-.24-.69-.29c-.06-.02-.12-.05-.17-.07-.04-.02-.08-.03-.13-.05l-1.65-.53-.3-.08-1.34-.28-.36-.06c-.94-.15-1.96-.24-3.08-.27h-.12-.59-.04c-2.91 0-5.16.43-7.04 1.08-1.41.49-2.6 1.1-3.7 1.71-1.64.92-3.06 1.83-4.78 2.51-1.73.67-3.78 1.15-6.78 1.15-2.66 0-4.59-.38-6.19-.94-1.2-.42-2.24-.94-3.27-1.52-1.54-.86-3.09-1.87-5.11-2.66-2.01-.79-4.46-1.34-7.72-1.34h-.04c-2.91 0-5.16.43-7.04 1.08-1.41.49-2.6 1.1-3.7 1.71-1.64.92-3.06 1.83-4.78 2.51-1.72.67-3.78 1.15-6.78 1.15-2.66 0-4.59-.38-6.19-.94-1.2-.42-2.24-.94-3.27-1.52-1.55-.86-3.1-1.87-5.11-2.66-.76-.3-1.57-.56-2.47-.77.03.02.07.04.12.06.09.36-.32.52-.51.52-.14 0-.15-.08.21-.22l-.22-.45c-.96-.2-2-.35-3.16-.42.11.17.16.38.07.58-.26-.17-.3-.55-.67-.6h-.14-.09l-.86-.02h-.06a1.67 1.67 0 0 1 .02.33c-.03 0-.06.01-.09.01-.17 0-.2-.14-.21-.3-.09.02-.18.05-.27.1-.02.05-.03.12-.04.19a.27.27 0 0 1-.17-.07c-.33.24-.55.63-.55 1.07a1.33 1.33 0 0 0 1.33 1.33zm148.21 3.69l.23.27c-.01 0-.15-.13-.27-.25s-.24-.25-.22-.25c.01 0 .09.06.27.23zm-.9.3c0 .29-.37.23-.6.3 0-.29.37-.23.6-.3zm-1.68-3.05s.1.09.17.34c-.07.25-.13.34-.17.34-.06 0-.09-.17-.09-.34s.03-.34.09-.34zm.17 1.54c0 .29-.37.23-.6.3 0-.29.37-.23.6-.3zm-4.81-2.1l.23.27c-.01 0-.15-.13-.27-.25l-.23-.25c.01 0 .09.06.27.23zm-137.45-.64a1.93 1.93 0 0 1 .27-.25c.01 0-.04.07-.23.27-.18.17-.26.23-.27.23-.02 0 .1-.13.23-.25zm-.6-.9a1.93 1.93 0 0 1 .27-.25c.01 0-.05.07-.23.28-.18.17-.26.23-.27.23-.02 0 .1-.13.23-.25zm-1.29.55c.12-.13.27-.25.31-.25.03 0 0 .08-.17.32-.18.13-.28.18-.31.18-.05 0 .05-.13.17-.25zm-1.59-48.77c.23-.07.59 0 .6-.3-.23.07-.59 0-.6.3zm6.41-.23a.46.46 0 0 0 .09.25c.09.13.22.25.36.25.11 0 .23-.07.35-.27-.19.45.04 1.25.31 1.25.1 0 .2-.1.29-.35-.61-.19-.2-1.41-.9-1.5-.07.23 0 .59-.3.6-.11-.17-.18-.23-.2-.23zm4.94 25.93c-.23.07-.59 0-.6.3.23-.07.59 0 .6-.3zm.37-23.95c.07 0 .15-.02.2-.07l-.47-.27c-.01.02-.02.05-.03.09 0 .16.15.26.3.26zm-.6 1.25c-.04-.31 1.3-.61.3-.9.16.43-1.17.73-.3.9zm.73 22.89c-.45.56-.85 1.24.41 1.31.09-.59-.41-.6-.6-.9.09-.03.27-.13.44-.26l-.25-.14zm-2.68-24.38s-.1 0-.15-.01c-.06.48.68 1.06 1.03 1.06.1 0 .17-.05.17-.15h-.04c-.59 0-.1-1.08-.26-1.5.11-.08.21-.13.32-.17-.08-.05-.17-.09-.26-.14-.37.05-.61.24-.66.61.28.01.25.31-.15.31zm-1.05-1.51c.47.1.73.34 1.13.34.06 0 .13 0 .2-.02l-1.07-.5c-.08.02-.2.02-.31.02h-.04c-.21 0-.33 0 .08.16zm2.48 28.24l.1.06.35-.19c-.15.1-.21.18-.23.27l.94.53c.26-.12.55-.23.71-.41 0-.07-.01-.15-.02-.22a.37.37 0 0 0-.3-.14c-.12 0-.24.05-.35.09s-.21.09-.29.09c-.09 0-.15-.05-.17-.21.12-.16 1.46-.44.6-.6-.11.22-.28.29-.47.29-.15 0-.31-.04-.46-.09-.15-.04-.29-.09-.39-.09s-.17.05-.18.18c.31.08.2.31.14.44zm1.89.26l.1.85 1.13.54c.04-.2.15-.39.34-.58-.1-.18-.2-.24-.31-.24s-.21.06-.32.12c-.1.06-.21.12-.3.12-.11 0-.2-.07-.28-.3.27-.08 1.01-1.12.3-1.2-.04.15-.08.2-.13.2-.12 0-.27-.38-.47-.5-.1.15-.11.44-.09.77a.73.73 0 0 1 .09.13l-.07.09zm-1.63-1.45c.11.22.21.45.31.45.06 0 .12-.08.19-.29h-.02c-.15 0-.24-.24-.32-.49s-.16-.49-.27-.49c-.07 0-.17.1-.29.38.17 0 .29.22.4.45zm21.73-22.29l.15-.08h-.06c-.06 0-.09.03-.09.09zm4.17-4.93c.06-.04.11-.11.15-.23l-.15.23zm-1.46 3.13c-.05 0-.08.15-.09.31l.21-.12c-.05-.14-.09-.19-.13-.19zm-.74.61v.04s.01.02.02.03c0-.02-.01-.04-.02-.06zm-6.29 13.23s.09-.03.22-.1l.52-.48c-.03 0-.24.15-.43.29-.19.15-.36.29-.31.29zm4.49-1.27l.27.25c.01 0-.04-.07-.22-.27-.18-.17-.26-.23-.27-.23-.02 0 .1.13.23.25zm4.07-13.1l.27-.12c-.16-.08-.26-.13-.31-.13-.07 0-.05.08.04.25zm.1 11.48s.09-.06.27-.23l.23-.27a1.93 1.93 0 0 0-.27.25l-.23.25zm-4.12 2.86l.24-.13.62-.35c-.33-.16-.6-.37-.96-.5.01.41-.14.66-.3.9.11.06.21.09.3.09h.11zm3.31-3.67c.11.12.26.17.4.17.46 0 1-.5 1.1-1.07-.77.03-1.05.55-1.5.9zm-.3-.9l-.03-.08-.24.11c0 .16.03.31.09.31.04 0 .1-.09.17-.34zm-1.26-8.65l-.03-.12a.63.63 0 0 0 .03.12zm-4.1 1.84s-.05 0-.09.01c-.01.16-.04.31-.21.31h-.09c0-.1-.08-.2-.16-.2-.06 0-.12.05-.14.2.17.02.33.04.31.25.03-.01.06-.02.09-.04a.31.31 0 0 1 .22-.09l.28-.12h0c-.01-.16-.04-.31-.21-.31zm-1.31.9l-.25-.21c-.02 0 .09.11.2.23.02 0 .03 0 .05-.02zm.85 10.4h-.03c-.11 0-.19-.05-.26-.09-.07-.05-.13-.1-.18-.1s-.09.05-.13.19c0 .16.15.26.3.26.13 0 .27-.08.3-.26zm-1.13-11.28c-.07-.25-.13-.34-.17-.34-.06 0-.09.17-.09.34s.03.34.09.34c.04 0 .1-.09.17-.34zm2.47 9.57s.1.13.22.25l.27.25c.01 0-.05-.07-.23-.27-.18-.17-.26-.23-.27-.23zm.46-.68s-.05.03-.08.04c.04 0 .06-.01.08-.05zm-.73.4l-.09.05-.12.12-.23.25c.01 0 .09-.06.27-.23l.17-.19zm.77 1.74l-.27.25-.22.25c.01 0 .09-.06.27-.23l.23-.27zm.19.76l.53-.28c-.16-.06-.34-.1-.49-.1-.19 0-.32.06-.28.18.1.08.18.14.23.2zm-8.87-12.38l.33-.18h-.18l-.42.17c-.29.13-.54.25-.48.25.04 0 .26-.07.75-.25zm3.54 13.39c-.64.29-.19.51.12.84l.46-.09c-.32-.54-.6-.68-.57-1.65.18.42 1.16.05 1.2.6h0c-.17 0-.34.24 0 .3.28-.86-.17-1.12-.72-1.12-.65 0-1.46.36-1.38.52.36.15.68.32.9.6zm-1.78-13.38c.15.16.32.32.52.32.04 0 .08 0 .13-.02.04-.34-.09-.53-.27-.64l-.63.07c.07.06.16.17.26.27zm1.68 11.56l.05.05.27.25c.01 0-.05-.07-.23-.27l-.04-.04c-.02 0-.03 0-.05.01zm-1.61-10.43s.09-.06.27-.23l.23-.27c-.01 0-.15.13-.27.25l-.23.25zm.87-.23c.39.27.79.46 1.18.46.32 0 .63-.13.93-.46-.23-.12-.42-.15-.58-.15-.09 0-.17 0-.24.02l-.2.02c-.18 0-.31-.08-.48-.49.1-.39.05-.65 0-.84l-.46.09.47.45c-.38.12-.61.39-.6.9zm.34 1.2v.1l.24-.04c0-.02.01-.04.02-.06-.07-.25-.13-.34-.17-.34-.06 0-.09.17-.09.34zm10.73-7.41s-.02.07-.02.1c.04-.05.08-.09.12-.13l-.09.03zm-12.58 7.41c.21 0 .27.15.33.29l.45-.04c.15-.17.35-.29.42-.55-.23.12-.41.15-.55.15-.08 0-.15 0-.22-.02l-.17-.02c-.1 0-.18.04-.27.19zm-1.5.3c.11.01.21.02.27.08h.21c-.03-.17-.12-.3-.23-.3-.08 0-.16.06-.24.23zm1.27-1.93s.11-.05.23-.17c.03-.3.06-.47.11-.55-.09 0-.18.02-.27.02-.07.35-.18.7-.07.7zm-.14 1.61s-.05-.07-.23-.27c-.18-.17-.26-.23-.27-.23-.02 0 .1.13.23.25l.27.25zm9.37-5.2c-.05-.1-.15-.19-.28-.25l-.4.23c.28.22.47.3.59.3.16 0 .18-.14.1-.29zm2.42.12c.07-.23 0-.59.3-.6-.17 1.58-1.57.18-2.1 1.5.48-.04 1.09-.27 1.62-.27.28 0 .53.06.74.23-.67-.67.37-.65.63-1.17-.33-.29-.85-.43-1.22-.43-.49 0-.73.24.02.73zm.91-.92c.12-.41.35-.5 0-.89.02-.06.06-.12.09-.17-.05.03-.11.05-.18.05-.11 0-.23-.03-.38-.07l-.3.13c.53.17.72.68.78.95zm.02.17s0-.07-.02-.17v.02c0 .11.02.15.02.15zm-8.51 15.34c.05-.29.26-.42.42-.6l-.5.17c-.02.15-.23.36.08.43zm-1-11.24s.1-.09.17-.34c-.07-.25-.13-.34-.17-.34-.06 0-.09.17-.09.34s.03.34.09.34zm4.68-1.85c-.72-.09.33-.81.6-.9-.48.69.03 1.1.69 1.1a1.73 1.73 0 0 0 .81-.2c-1.03-1.01 1.79-2.23 1.2-3-.04.22-.09.3-.15.3-.05 0-.11-.06-.17-.15l-.56.3c-.13 1.13-1.01 1.5-1.22 2.56-.22-.7-.11-.87-.79-1.41l-.1.06c.01.57-.34.77-.9.77-.1 0-.2 0-.31-.02v.6c.23.03.45.25.64.25.1 0 .19-.06.26-.25zm-4.56.96c.06 0 .16-.07.3-.27l-.4.11c0 .1.03.17.1.17zm1 .54c.38 0 .62-.15.85-.3-.02.31.03.8.15.8.04 0 .09-.06.15-.2.01-.41-.14-.66-.3-.9h0c.3 0 .36-.24.6-.3.02.17.5.55.76.55.11 0 .17-.07.14-.25-.18-.02-.35-.04-.3-.3h.04c.31 0 .71-.15.26-.3-.23.03-.45.25-.64.25-.1 0-.19-.06-.26-.25.45-.12.19-.21-.12-.21-.25 0-.52.06-.48.21.9.45-1.03.54-.9 1.2h.05z"/></g></svg>