<?xml version="1.0" encoding="UTF-8"?>
<svg id="Layer_2" data-name="Layer 2" xmlns="http://www.w3.org/2000/svg" viewBox="0 0 868.37 30.57">
  <g id="main">
    <path d="M854.4,13.72c-.76-.82-1.99-1.36-3.39-1.36-1.82,0-3.35,.9-3.92,2.16h-8.02c.28-.1,.56-.21,.85-.34,.65-.32,1.33-.69,1.94-1.17,.63-.46,1.18-1.04,1.67-1.65,.48-.62,.83-1.33,1.08-2.05,.23-.71,.32-1.57,.28-2.21-.02-.25-.05-.39-.07-.59-.02-.19-.07-.37-.12-.55-.08-.37-.23-.72-.37-1.07-.34-.68-.75-1.32-1.28-1.87-.53-.55-1.11-1.04-1.75-1.41-.62-.4-1.28-.68-1.89-.92-.63-.22-1.23-.37-1.76-.48-.27-.04-.52-.08-.76-.12-.24-.02-.46-.04-.65-.05-.39-.04-.7-.01-.91-.02-.21,0-.32,0-.32,0,0,0,.11,0,.32,.03,.21,.03,.52,.02,.9,.1,.19,.03,.4,.07,.63,.1,.22,.05,.46,.11,.72,.18,.5,.14,1.05,.34,1.61,.6,.55,.27,1.12,.59,1.64,1.01,.54,.39,.99,.89,1.4,1.41,.4,.53,.69,1.13,.89,1.74,.19,.6,.24,1.29,.22,1.86-.03,.27-.07,.51-.12,.74-.05,.37-.17,.74-.38,1.12-.29,.57-.65,1.1-1.09,1.56-.45,.45-.94,.86-1.48,1.17-.14,.09-.29,.16-.44,.24-.06,.03-.12,.06-.17,.09-.18,.09-.36,.17-.54,.25-.06,.03-.12,.05-.18,.07-.08,.03-.17,.07-.25,.1-.1,.03-.19,.05-.28,.08-.1,.03-.19,.06-.29,.09-.11,.03-.22,.06-.33,.09-.15,.04-.3,.07-.45,.1-.04,0-.08,.02-.12,.03-.02,0-.04,0-.07,.01-.44,.08-.85,.12-1.21,.15-.9,.06-1.58,.65-1.58,1.35v.27H34.04v-.27c0-.7-.68-1.29-1.58-1.35-.36-.02-.77-.07-1.21-.15-.02,0-.04,0-.07-.01-.04,0-.08-.02-.12-.03-.15-.03-.3-.06-.45-.1-.11-.03-.22-.06-.33-.09-.1-.03-.19-.05-.29-.09-.09-.03-.18-.05-.28-.08-.08-.03-.17-.07-.25-.1-.06-.02-.12-.05-.18-.07-.18-.07-.36-.16-.54-.25-.06-.03-.12-.06-.17-.09-.15-.08-.3-.15-.44-.24-.54-.31-1.02-.72-1.48-1.17-.45-.46-.8-.99-1.09-1.56-.21-.38-.32-.75-.38-1.12-.05-.23-.09-.47-.12-.74-.03-.57,.03-1.26,.22-1.86,.21-.61,.49-1.21,.89-1.74,.41-.52,.86-1.02,1.4-1.41,.51-.41,1.09-.73,1.64-1.01,.56-.26,1.11-.45,1.61-.6,.26-.06,.5-.12,.72-.18,.23-.04,.44-.07,.63-.1,.38-.07,.69-.07,.9-.1,.21-.02,.32-.03,.32-.03,0,0-.11,0-.32,0-.21,0-.52-.02-.91,.02-.2,.02-.42,.03-.65,.05-.23,.04-.49,.08-.76,.12-.54,.1-1.13,.26-1.76,.48-.62,.24-1.28,.52-1.89,.92-.64,.38-1.21,.87-1.75,1.41-.53,.55-.95,1.19-1.28,1.87-.14,.35-.3,.7-.37,1.07-.05,.18-.1,.37-.12,.55-.02,.2-.05,.34-.07,.59-.03,.64,.05,1.5,.28,2.21,.25,.72,.6,1.43,1.08,2.05,.49,.62,1.03,1.19,1.67,1.65,.61,.48,1.29,.85,1.94,1.17,.29,.13,.57,.24,.85,.34h-8.02c-.57-1.25-2.11-2.16-3.92-2.16-1.4,0-2.64,.54-3.39,1.36-4.44-.91-13.97,1.44-13.97,1.87s9.61,2.9,14.02,1.93c.76,.79,1.97,1.31,3.34,1.31,2.09,0,3.81-1.2,4.12-2.75h7.79c-.27,.1-.53,.2-.81,.33-.65,.32-1.33,.69-1.94,1.17-.63,.46-1.18,1.04-1.67,1.65-.48,.62-.83,1.33-1.08,2.05-.23,.71-.32,1.57-.28,2.21,.02,.25,.05,.39,.07,.59,.02,.19,.07,.37,.12,.55,.08,.37,.23,.72,.37,1.07,.34,.68,.75,1.32,1.28,1.87,.53,.55,1.11,1.04,1.75,1.41,.62,.4,1.28,.68,1.89,.92,.63,.22,1.23,.37,1.76,.48,.27,.04,.52,.08,.76,.12,.24,.02,.46,.04,.65,.05,.39,.04,.7,.01,.91,.02,.21,0,.32,0,.32,0,0,0-.11,0-.32-.03-.21-.03-.52-.02-.9-.1-.19-.03-.4-.07-.63-.1-.22-.05-.46-.11-.72-.18-.5-.14-1.05-.34-1.61-.6-.55-.27-1.12-.59-1.64-1.01-.54-.39-.99-.89-1.4-1.41-.4-.53-.69-1.13-.89-1.74-.19-.6-.24-1.29-.22-1.86,.03-.27,.07-.51,.12-.74,.05-.37,.17-.74,.38-1.12,.29-.57,.65-1.1,1.09-1.56,.45-.45,.94-.86,1.48-1.17,.14-.09,.29-.16,.44-.24,.06-.03,.12-.06,.17-.09,.18-.09,.36-.17,.54-.25,.06-.03,.12-.05,.18-.07,.08-.03,.17-.07,.25-.1,.1-.03,.19-.05,.28-.08,.1-.03,.19-.06,.29-.09,.11-.03,.22-.06,.33-.09,.15-.04,.3-.07,.45-.1,.04,0,.08-.02,.12-.03,.02,0,.04,0,.07-.01,.42-.07,.81-.12,1.16-.14,.93-.07,1.63-.67,1.63-1.39v-.21H834.33v.21c0,.72,.7,1.33,1.63,1.39,.35,.02,.74,.07,1.16,.14,.02,0,.04,0,.07,.01,.04,0,.08,.02,.12,.03,.15,.03,.3,.06,.45,.1,.11,.03,.22,.06,.33,.09,.1,.03,.19,.05,.29,.09,.09,.03,.18,.05,.28,.08,.08,.03,.17,.07,.25,.1,.06,.02,.12,.05,.18,.07,.18,.07,.36,.16,.54,.25,.06,.03,.12,.06,.17,.09,.15,.08,.3,.15,.44,.24,.54,.31,1.02,.72,1.48,1.17,.45,.46,.8,.99,1.09,1.56,.21,.38,.32,.75,.38,1.12,.05,.23,.09,.47,.12,.74,.03,.57-.03,1.26-.22,1.86-.21,.61-.49,1.21-.89,1.74-.41,.52-.86,1.02-1.4,1.41-.51,.41-1.09,.73-1.64,1.01-.56,.26-1.11,.45-1.61,.6-.26,.06-.5,.12-.72,.18-.23,.04-.44,.07-.63,.1-.38,.07-.69,.07-.9,.1-.21,.02-.32,.03-.32,.03,0,0,.11,0,.32,0,.21,0,.52,.02,.91-.02,.2-.02,.42-.03,.65-.05,.23-.04,.49-.08,.76-.12,.54-.1,1.13-.26,1.76-.48,.62-.24,1.28-.52,1.89-.92,.64-.38,1.21-.87,1.75-1.41,.53-.55,.95-1.19,1.28-1.87,.14-.35,.3-.7,.37-1.07,.05-.18,.1-.37,.12-.55,.02-.2,.05-.34,.07-.59,.03-.64-.05-1.5-.28-2.21-.25-.73-.6-1.43-1.08-2.05-.48-.62-1.03-1.19-1.67-1.65-.61-.48-1.29-.85-1.94-1.17-.27-.12-.54-.23-.81-.33h7.79c.3,1.56,2.02,2.75,4.11,2.75,1.37,0,2.58-.52,3.34-1.31,4.42,.97,14.02-1.5,14.02-1.93s-9.53-2.78-13.97-1.87Z" fill="#8f8b54"/>
  </g>
</svg>